<?xml version="1.0" standalone="no"?>
<!DOCTYPE svg PUBLIC "-//W3C//DTD SVG 1.1//EN" "http://www.w3.org/Graphics/SVG/1.1/DTD/svg11.dtd" >
<svg>
<metadata>
Created by FontForge 20120731 at Sun May 27 03:32:24 2018
 By www
(c) 1992 Unity Progress. Portions (c) 2004 The Monotype Corporation. Portions (c) 2004 Microsoft Corporation. All Rights Reserved.
</metadata>
<defs>
<font id="FreesiaUPCBoldItalic" horiz-adv-x="0" >
  <font-face 
    font-family="FreesiaUPC"
    font-weight="700"
    font-style="italic"
    font-stretch="normal"
    units-per-em="4096"
    panose-1="2 11 7 4 2 2 2 9 2 4"
    ascent="3276"
    descent="-820"
    x-height="1311"
    cap-height="1769"
    bbox="-1815 -1651 3207 3541"
    underline-thickness="20"
    underline-position="-123"
    unicode-range="U+0020-25CC"
  />
    <missing-glyph />
    <glyph glyph-name="000a" horiz-adv-x="3072" 
d="M512 0v2560h2048v-2560h-2048zM2496 64v2432h-1920v-2432h1920z" />
    <glyph glyph-name="glyph1" 
 />
    <glyph glyph-name="glyph2" 
 />
    <glyph glyph-name="space" unicode=" " horiz-adv-x="909" 
 />
    <glyph glyph-name="space" unicode="&#xa0;" horiz-adv-x="909" 
 />
    <glyph glyph-name="exclam" unicode="!" horiz-adv-x="909" 
d="M516 1786h315l-73 -406l-209 -786h-168l61 786zM360 -8q-89 0 -136.5 50.5t-47.5 129.5q0 100 72 181t190 81q92 0 138.5 -50.5t46.5 -129.5q0 -100 -72 -181t-191 -81z" />
    <glyph glyph-name="quotedbl" unicode="&#x22;" horiz-adv-x="1262" 
d="M1290 1864l-368 -590h-172l270 590h270zM848 1864l-369 -590h-172l271 590h270zM1290 1864l-368 -590h-172l270 590h270zM848 1864l-369 -590h-172l271 590h270z" />
    <glyph glyph-name="numbersign" unicode="#" horiz-adv-x="2056" 
d="M524 1249h312l196 484h160l-201 -484h398l196 484h164l-197 -484h349l-58 -127h-344l-151 -381h368l-57 -131h-356l-238 -610h-160l242 610h-402l-237 -610h-156l234 610h-328l57 131h324l143 377h-319zM938 1122l-143 -381h401l147 381h-405z" />
    <glyph glyph-name="dollar" unicode="$" horiz-adv-x="1823" 
d="M1655 1188h-287q0 110 -33 155q-32 54 -105 76.5t-104 22.5l-82 -463q13 0 109.5 -27.5t196.5 -77t145 -116.5q61 -89 61 -213q0 -204 -155 -361q-108 -113 -277 -150.5t-252 -37.5l-36 -209h-197l37 209q-71 0 -199.5 22.5t-206.5 96.5q-81 81 -90 254q0 36 5 63.5
t8 38.5h307q-8 0 -8 -70q0 -65 32 -114q51 -70 189 -70l98 549q-79 10 -220 50.5t-218 121.5q-62 62 -62 184q0 227 185 381q174 148 471 148l28 155h197l-29 -155q73 0 206 -25.5t208 -109.5q94 -104 94 -238q0 -33 -6 -57t-10 -33zM627 1192q0 -95 90 -131.5t139 -36.5
l74 418q-69 0 -177 -46.5t-126 -203.5zM1004 733l-95 -520q258 0 312 242q0 154 -86 216t-131 62z" />
    <glyph glyph-name="percent" unicode="%" horiz-adv-x="2077" 
d="M590 934q-134 0 -202.5 78t-68.5 196q0 104 50 205.5t141.5 167.5t206.5 66q138 0 210 -80t72 -203q0 -100 -50 -201t-143.5 -165t-215.5 -64zM2011 1638l-1601 -1638h-295l1601 1638h295zM1409 0q-133 0 -201.5 78t-68.5 196q0 104 50.5 206t141 167.5t205.5 65.5
q137 0 210 -80t73 -203q0 -102 -50.5 -202t-144 -164t-215.5 -64zM688 1454q-72 0 -122 -67.5t-50 -141.5q0 -119 111 -119q78 3 127 64t49 137q0 54 -29.5 90.5t-85.5 36.5zM1503 520q-73 0 -120.5 -64.5t-47.5 -140.5q0 -122 111 -122q77 3 124.5 63t47.5 137
q0 54 -29.5 90.5t-85.5 36.5z" />
    <glyph glyph-name="ampersand" unicode="&#x26;" horiz-adv-x="1851" 
d="M1552 782q1 0 1 -3q0 -20 -83 -197q-35 -76 -78 -129t-49 -60q0 -9 115 -180q159 -213 160 -213v0h-381q-5 0 -66 90q-30 44 -38.5 60t-10.5 22q-39 -42 -145.5 -108t-267.5 -76q-537 0 -537 405q11 172 106 294.5t199.5 186.5t124.5 64q-102 102 -102 254q0 60 16 115
q45 164 191.5 252t341.5 88q190 -3 285.5 -83.5t95.5 -211.5q-5 -141 -98.5 -246.5t-200 -165t-123.5 -59.5v0q0 -5 82 -136q35 -54 58.5 -86.5t35.5 -48.5v0q1 0 24 29q24 30 45 78q16 35 25 64.5t12 41.5zM512 483q0 -221 217 -221q94 2 150.5 44.5t74.5 70.5
q-10 0 -123 172q-114 176 -114 192q-45 -16 -117 -76.5t-88 -181.5zM1147 1286q0 75 -28.5 109.5t-98.5 34.5q-92 0 -146 -46t-63 -114q0 -85 29.5 -140t48.5 -73q55 23 145 82.5t113 146.5z" />
    <glyph glyph-name="quotesingle" unicode="'" horiz-adv-x="897" 
d="M918 1864l-369 -590h-172l270 590h271zM918 1864l-369 -590h-172l270 590h271z" />
    <glyph glyph-name="parenleft" unicode="(" horiz-adv-x="1303" 
d="M594 819q-45 -254 -45 -450q0 -269 77.5 -504t245.5 -479l-127 -115q-495 465 -495 1114q0 193 45 434q61 324 183 586t321.5 487t482.5 426l98 -98q-172 -163 -302 -321t-223 -323t-156 -347.5t-105 -409.5z" />
    <glyph glyph-name="parenright" unicode=")" horiz-adv-x="1303" 
d="M467 2220l131 98q169 -163 277 -333t161.5 -364t53.5 -413q0 -175 -37 -389q-39 -244 -117 -458t-201 -405.5t-290 -360t-384 -324.5l-86 115q175 169 304 331t222 331.5t155 361t98 409.5q41 266 41 426q0 179 -36 342.5t-108 317t-184 315.5z" />
    <glyph glyph-name="asterisk" unicode="*" horiz-adv-x="1339" 
d="M397 1135l-57 131l426 180l-365 176l103 135l307 -250l33 430h155l-110 -430l397 250l53 -135l-430 -176l361 -180l-99 -131l-311 245l-33 -430h-155l114 426z" />
    <glyph glyph-name="plus" unicode="+" horiz-adv-x="1642" 
d="M1090 1458l-91 -508h508l-49 -266h-508l-86 -508h-266l86 508h-508l49 266h508l90 508h267z" />
    <glyph glyph-name="comma" unicode="," horiz-adv-x="733" 
d="M242 8q-46 0 -111 32t-65 140q3 88 76.5 165t181.5 77q180 -5 180 -209q0 -82 -21 -147q-140 -453 -503 -459l24 147q115 0 184 90q54 82 54 164z" />
    <glyph glyph-name="hyphen" unicode="-" horiz-adv-x="1642" 
d="M176 684l49 266h1282l-49 -266h-1282z" />
    <glyph glyph-name="period" unicode="." horiz-adv-x="758" 
d="M262 0q-86 0 -133 49.5t-47 122.5q0 96 71 175t183 79q89 0 134.5 -49.5t45.5 -122.5q0 -97 -70 -175.5t-184 -78.5z" />
    <glyph glyph-name="slash" unicode="/" horiz-adv-x="1434" 
d="M-57 0l1278 1638h262l-1282 -1638h-258z" />
    <glyph glyph-name="zero" unicode="0" horiz-adv-x="1880" 
d="M1163 1778q615 0 615 -598q0 -136 -33 -291q-52 -253 -145.5 -447.5t-278 -322t-473.5 -127.5q-606 0 -606 586q0 127 28 307q155 888 893 893zM623 885q-33 -167 -33 -279q0 -376 307 -381q378 0 500 656q24 129 24 266q0 384 -291 389q-234 0 -341.5 -179t-165.5 -472z
" />
    <glyph glyph-name="one" unicode="1" horiz-adv-x="1880" 
d="M1036 1511q-94 -94 -196 -172q-72 -48 -131.5 -91.5t-85.5 -63.5l-131 164q0 6 95 70.5t179 129.5q109 84 193 157q81 71 81 73v0h402l-316 -1778h-356z" />
    <glyph glyph-name="two" unicode="2" horiz-adv-x="1880" 
d="M295 1044q3 21 7 52.5t17 87t29 106.5q78 269 316 385q201 107 495 107q192 0 343 -50.5t210 -142.5q78 -115 78 -254q0 -147 -85.5 -280t-229.5 -207q-73 -36 -210.5 -101.5t-229 -111t-253.5 -135.5q-154 -87 -188 -230h971l-49 -270h-1360q29 199 78 323.5t176 237.5
q94 83 192.5 142t206.5 110.5t260 124.5q194 105 267 197.5t73 248.5q-11 74 -96 115t-199 41q-113 0 -215 -40.5t-149 -115.5q-95 -143 -95 -340h-360z" />
    <glyph glyph-name="three" unicode="3" horiz-adv-x="1880" 
d="M750 1278h-349q27 121 58 197t131 159q186 156 569 156q361 0 508 -148q90 -94 90 -221q0 -174 -151 -319q-59 -56 -159.5 -102t-160.5 -46q223 0 316 -135q57 -84 57 -196q0 -208 -135 -369q-102 -130 -302 -200t-419 -70q-204 0 -366.5 61t-211.5 168q-37 81 -37 176
q0 63 17 152h336q0 -154 62 -224.5t274 -70.5q370 0 421 262q9 43 9 65q0 145 -123 197.5t-279 52.5q-41 0 -70 -1.5t-40 -2.5l49 262q0 -12 114 -12q138 0 264 39t175 133q28 57 28 115q0 188 -299 188q-231 -3 -303.5 -96.5t-72.5 -169.5z" />
    <glyph glyph-name="four" unicode="4" horiz-adv-x="1880" 
d="M111 434l41 250l1052 1085h438l-192 -1097h279l-41 -238h-279l-78 -434h-352l78 434h-946zM1237 1475l-745 -803h606z" />
    <glyph glyph-name="five" unicode="5" horiz-adv-x="1880" 
d="M1737 1495h-926l-123 -389q98 60 177.5 87.5t289.5 27.5q260 -6 402.5 -124t142.5 -335q0 -74 -8 -115q-106 -667 -832 -667q-618 0 -618 417q0 22 2 57t2 46h336q0 -258 319 -258q196 0 309 101.5t142 266.5q8 58 8 82q0 283 -393 283q-153 -10 -241 -64t-116 -88h-303
l279 946h1200z" />
    <glyph glyph-name="six" unicode="6" horiz-adv-x="1880" 
d="M1192 1782q586 0 586 -434h-336q0 168 -279 168q-121 0 -212 -39t-169 -150q-44 -63 -70.5 -133.5t-40 -125t-20.5 -89.5q7 6 63 52.5t151 85t220 42.5q582 0 582 -442q0 -59 -12 -127q-47 -273 -247 -439.5t-572 -166.5q-334 3 -466 141t-132 375q0 170 61 442
q170 840 893 840zM590 561q0 -159 72.5 -239t230.5 -80q182 0 291.5 91t134.5 240q8 50 8 74q0 123 -77.5 197t-225.5 74q-174 0 -295 -99.5t-139 -257.5z" />
    <glyph glyph-name="seven" unicode="7" horiz-adv-x="1880" 
d="M504 1769h1306l-41 -241q-116 -92 -249.5 -231.5t-261.5 -310.5t-222 -343q-103 -186 -149 -320.5t-84 -322.5h-369q118 468 418 877q264 374 598 626h-991z" />
    <glyph glyph-name="eight" unicode="8" horiz-adv-x="1880" 
d="M1151 1786q281 0 421 -91.5t140 -314.5q-28 -218 -169.5 -299t-252.5 -94q31 0 115 -31.5t160.5 -129t76.5 -277.5q-53 -565 -811 -565q-622 5 -622 405q0 69 20 164q41 180 154.5 276.5t221.5 127t153 30.5q-77 0 -196.5 61.5t-119.5 229.5q0 47 13 106q98 396 696 402z
M778 1352q-8 -42 -8 -54q0 -83 69.5 -131.5t192.5 -48.5q313 6 344 234q0 204 -266 204q-278 0 -332 -204zM565 545q-12 -49 -12 -90q0 -217 324 -217q389 6 417 307q0 274 -315 274q-344 0 -414 -274z" />
    <glyph glyph-name="nine" unicode="9" horiz-adv-x="1880" 
d="M799 -12q-586 0 -586 434h336q0 -168 274 -168q124 0 216.5 39.5t168.5 148.5q74 106 131 349q-7 -6 -61.5 -53t-150.5 -85.5t-222 -42.5q-581 0 -581 451q0 78 8 119q47 275 247.5 440.5t571.5 165.5q337 -3 469.5 -142t132.5 -378q0 -146 -57 -439q-179 -839 -897 -839
zM1401 1208q0 320 -303 320q-181 0 -288.5 -91t-137.5 -241q-8 -50 -8 -74q0 -121 77.5 -195.5t225.5 -74.5q174 0 295 100t139 256z" />
    <glyph glyph-name="colon" unicode=":" horiz-adv-x="934" 
d="M356 0q-86 0 -133 49.5t-47 122.5q0 96 71 175t183 79q89 0 134.5 -49.5t45.5 -122.5q0 -97 -70 -175.5t-184 -78.5zM569 1212q-86 0 -131 48t-45 124q0 94 71 174t183 80q89 0 132.5 -47.5t43.5 -124.5q0 -94 -70.5 -174t-183.5 -80z" />
    <glyph glyph-name="semicolon" unicode=";" horiz-adv-x="999" 
d="M397 0q-47 0 -113.5 32t-66.5 140q7 88 80.5 165t181.5 77q180 -5 180 -205q0 -70 -24 -152q-65 -218 -193 -336.5t-307 -121.5l25 147q114 0 184 90q53 82 53 164zM614 1212q-86 0 -131 48.5t-45 123.5q0 94 71 174t183 80q89 0 132.5 -47.5t43.5 -124.5
q0 -94 -70.5 -174t-183.5 -80z" />
    <glyph glyph-name="less" unicode="&#x3c;" horiz-adv-x="1405" 
d="M1122 213l-897 594l1106 602l-41 -225l-717 -377l590 -369z" />
    <glyph glyph-name="equal" unicode="=" horiz-adv-x="1642" 
d="M238 995l41 234h1282l-41 -234h-1282zM135 422l41 233h1282l-41 -233h-1282z" />
    <glyph glyph-name="greater" unicode="&#x3e;" horiz-adv-x="1405" 
d="M176 438l721 369l-586 377l41 225l893 -602l-1110 -594z" />
    <glyph glyph-name="question" unicode="?" horiz-adv-x="1802" 
d="M750 -8q-90 0 -137.5 50.5t-47.5 125.5q0 99 73 180.5t189 81.5q92 0 138.5 -49.5t46.5 -126.5q0 -62 -32.5 -123.5t-92 -100t-137.5 -38.5zM430 1778q31 151 135 258t259 162t335 55q287 0 430.5 -99t163.5 -253q8 -50 8 -78q0 -288 -471 -635q-133 -96 -189.5 -198.5
t-84.5 -264.5l-25 -147h-299l41 237q30 159 152 303q103 114 251 233t204.5 178.5t89.5 174.5q16 66 16 102q0 213 -291 230q-352 0 -418 -230q-12 -42 -12 -73q0 -84 49 -122t82 -46l-197 -168q-47 0 -144 65t-97 217q0 43 12 99z" />
    <glyph glyph-name="at" unicode="@" horiz-adv-x="2064" 
d="M987 618q107 0 189.5 81.5t101.5 189.5q0 205 -156 205q-98 0 -180.5 -82.5t-97.5 -180.5q0 -213 143 -213zM1450 1327h225l-237 -704q-6 -18 -13.5 -34.5t-7.5 -27.5q0 -20 33 -20q84 0 182 128t129 310q13 73 13 131q0 225 -150 348t-399 123q-197 0 -367 -89.5
t-282 -248.5t-146 -354q-12 -73 -12 -144q0 -257 162.5 -404.5t435.5 -147.5q256 0 487 159h238q-339 -377 -778 -377q-227 0 -407.5 95t-280 266.5t-99.5 388.5q0 77 12 164q44 252 203.5 460.5t391 326.5t483.5 118q344 0 532 -201q184 -176 184 -422q0 -73 -8 -110
q-60 -314 -274 -500q-91 -75 -224 -138t-227 -63q-119 0 -119 119q-124 -110 -253 -110q-141 0 -240.5 101t-99.5 247q0 24 8 74q39 224 206.5 390.5t383.5 166.5q196 0 270 -144z" />
    <glyph glyph-name="A" unicode="A" horiz-adv-x="1651" 
d="M1495 0h-446l-41 365h-574l-176 -365h-364l876 1769h483zM967 688l-82 623l-295 -623h377z" />
    <glyph glyph-name="B" unicode="B" horiz-adv-x="1704" 
d="M1147 1769q141 0 231.5 -12.5t161.5 -64.5q156 -113 156 -295q0 -26 -8 -90q-23 -144 -129 -244.5t-256 -136.5l-5 -8q143 -27 223.5 -120.5t80.5 -232.5q0 -21 -9 -86q-41 -226 -286 -385q-94 -61 -203 -77.5t-268 -16.5h-791l311 1769h791zM647 1069h279q159 0 229 41
q82 57 102 160q0 122 -57 160q-57 24 -233 24h-250zM516 328h287q168 0 241 37q108 71 127 184q0 129 -73 172q-54 33 -205 33h-303z" />
    <glyph glyph-name="C" unicode="C" horiz-adv-x="1704" 
d="M1229 1085q8 74 8 111q0 266 -242 266q-312 0 -426 -594q-24 -154 -24 -241q0 -316 266 -316q137 0 230 95t139 237l401 -25q-61 -203 -182 -347t-291.5 -220t-374.5 -76q-317 0 -478 191t-161 498q0 95 21 221q68 390 320 649.5t634 259.5q310 0 454 -168t144 -512z" />
    <glyph glyph-name="D" unicode="D" horiz-adv-x="1704" 
d="M856 1769q231 0 377 -36.5t258 -159.5q168 -204 168 -488q0 -111 -17 -196q-64 -380 -339 -643q-105 -94 -214.5 -147.5t-226 -76t-248.5 -22.5h-581l311 1769h512zM504 332h139q140 0 233.5 39.5t176.5 148.5q126 161 168 381q8 41 8 127q-7 173 -66 275
q-51 86 -125.5 114.5t-197.5 28.5h-140z" />
    <glyph glyph-name="E" unicode="E" horiz-adv-x="1495" 
d="M700 1425l-61 -356h672l-58 -332h-671l-70 -393h852l-61 -344h-1266l311 1769h1266l-62 -344h-852z" />
    <glyph glyph-name="F" unicode="F" horiz-adv-x="1393" 
d="M696 1425l-69 -401h676l-58 -332h-676l-123 -692h-413l311 1769h1262l-62 -344h-848z" />
    <glyph glyph-name="G" unicode="G" horiz-adv-x="1704" 
d="M799 618l57 328h729l-168 -946h-188l-21 205q-122 -119 -247 -174.5t-277 -55.5q-304 0 -451 182t-147 474q0 100 20 237q72 395 313 660.5t621 265.5q279 0 432.5 -157.5t153.5 -448.5l-401 -53q0 327 -254 327q-193 0 -296 -182t-147 -416q-16 -76 -16 -188
q0 -365 274 -365q137 0 235.5 85t113.5 222h-336z" />
    <glyph glyph-name="H" unicode="H" horiz-adv-x="1704" 
d="M1405 0h-414l127 729h-545l-127 -729h-413l311 1769h414l-123 -692h545l123 692h413z" />
    <glyph glyph-name="I" unicode="I" horiz-adv-x="774" 
d="M459 0h-414l311 1769h414z" />
    <glyph glyph-name="J" unicode="J" horiz-adv-x="1032" 
d="M844 541q-53 -300 -204.5 -433t-451.5 -133l-274 29l61 340q165 -20 201 -20q129 0 193 73q43 43 73 197l205 1175h414z" />
    <glyph glyph-name="K" unicode="K" horiz-adv-x="1651" 
d="M610 938l705 831h397l-536 -630l331 -1139h-458l-218 766l-311 -356l-74 -410h-401l311 1769h402z" />
    <glyph glyph-name="L" unicode="L" horiz-adv-x="1290" 
d="M1212 352l-61 -352h-1122l311 1769h410l-250 -1417h712z" />
    <glyph glyph-name="M" unicode="M" horiz-adv-x="2269" 
d="M1110 0h-287l-176 1442h-4l-254 -1442h-348l311 1769h647l123 -1060l512 1060h647l-311 -1769h-414l254 1442h-8z" />
    <glyph glyph-name="N" unicode="N" horiz-adv-x="1704" 
d="M1401 0h-357l-466 1188h-13l-209 -1188h-319l311 1769h447l405 -1040h8l185 1040h319z" />
    <glyph glyph-name="O" unicode="O" horiz-adv-x="1704" 
d="M193 254q-91 170 -91 418q0 125 17 217q33 184 106.5 344t190.5 288t272.5 200.5t347.5 72.5q370 0 516 -270q95 -171 95 -430q0 -113 -17 -205q-60 -363 -274 -615q-257 -299 -639 -299q-380 0 -524 279zM672 1257q-78 -143 -119 -368q-25 -154 -25 -242
q0 -336 246 -336q197 0 303 201q79 141 119 373q25 152 25 233q0 75 -21 168q-42 172 -221 172q-191 0 -307 -201z" />
    <glyph glyph-name="P" unicode="P" horiz-adv-x="1602" 
d="M451 0h-414l311 1769h668q168 0 269 -16t190 -82q159 -129 159 -340q0 -65 -8 -102q-22 -130 -91 -250t-179 -201q-118 -82 -230.5 -102.5t-294.5 -20.5h-266zM856 979q92 0 150 13.5t112 64.5q73 61 86 155q0 138 -53 185q-53 49 -217 49h-229l-82 -467h233z" />
    <glyph glyph-name="Q" unicode="Q" horiz-adv-x="1704" 
d="M672 1257q-78 -143 -119 -368q-25 -154 -25 -242q0 -336 246 -336q197 0 303 201q79 141 119 373q25 152 25 233q0 75 -21 168q-42 172 -221 172q-191 0 -307 -201zM717 -25q-380 0 -524 279q-91 170 -91 418q0 125 17 217q33 184 106.5 344t190.5 288t272.5 200.5
t347.5 72.5q370 0 516 -270q95 -171 95 -430q0 -113 -17 -205q-45 -259 -175 -478t-333 -329q0 -135 131 -135l156 16l-53 -315q-79 -21 -148 -21q-128 0 -204.5 31.5t-112 110.5t-35.5 219z" />
    <glyph glyph-name="R" unicode="R" horiz-adv-x="1704" 
d="M459 0h-414l311 1769h746q157 0 257.5 -14.5t180.5 -75.5q156 -118 156 -340q0 -69 -8 -102q-24 -151 -130.5 -277t-254.5 -178l188 -782h-459l-151 700h-299zM635 1004h225q180 0 262 36q114 63 135 201q0 140 -65 180q-47 33 -164 33h-94h-217z" />
    <glyph glyph-name="S" unicode="S" horiz-adv-x="1548" 
d="M1155 1266q-36 209 -270 209q-245 0 -275 -168q0 -85 62.5 -121t167.5 -56q195 -46 279 -70.5t155 -80.5q164 -125 164 -328q0 -24 -8 -90q-46 -272 -295 -442q-213 -144 -541 -144q-266 0 -440 121t-187 367l398 90q14 -134 96 -192t227 -58q110 0 202.5 44.5
t108.5 144.5q0 98 -67.5 131.5t-206.5 68.5q-257 54 -399 145.5t-142 292.5q0 48 13 107q44 256 262 414q196 143 471 143q528 0 594 -414z" />
    <glyph glyph-name="T" unicode="T" horiz-adv-x="1393" 
d="M1466 1417h-442l-250 -1417h-414l250 1417h-450l61 352h1307z" />
    <glyph glyph-name="U" unicode="U" horiz-adv-x="1704" 
d="M1548 700q-32 -198 -77.5 -321.5t-159.5 -218.5q-216 -185 -578 -185q-368 0 -520 152q-107 112 -107 307q0 96 29 266l189 1069h446l-188 -1069q-3 -37 -11 -93t-10 -91q0 -52 12 -90q47 -119 246 -119q181 0 271 94q48 53 64.5 116t37.5 183l188 1069h357z" />
    <glyph glyph-name="V" unicode="V" horiz-adv-x="1548" 
d="M872 0h-446l-221 1769h442l135 -1265l590 1265h348z" />
    <glyph glyph-name="W" unicode="W" horiz-adv-x="2322" 
d="M1724 0h-405l-86 1171h-4l-484 -1171h-405l-143 1769h421l58 -1101l4 -90h8l496 1191h381l86 -1191h4l28 77l455 1114h340z" />
    <glyph glyph-name="X" unicode="X" horiz-adv-x="1651" 
d="M1110 946l377 -946h-479l-238 643l-471 -643h-397l716 942l-344 827h484l192 -536l398 536h385z" />
    <glyph glyph-name="Y" unicode="Y" horiz-adv-x="1548" 
d="M991 745l-131 -745h-414l132 745l-377 1024h479l221 -671l455 671h368z" />
    <glyph glyph-name="Z" unicode="Z" horiz-adv-x="1704" 
d="M623 340h921l-61 -340h-1430l53 303l1094 1131h-827l57 335h1339l-53 -303z" />
    <glyph glyph-name="bracketleft" unicode="[" horiz-adv-x="979" 
d="M569 -442h-557l389 2211h557l-28 -163h-258l-332 -1889h258z" />
    <glyph glyph-name="backslash" unicode="\" horiz-adv-x="1548" 
d="M803 1769l270 -1769h-258l-274 1769h262z" />
    <glyph glyph-name="bracketright" unicode="]" horiz-adv-x="979" 
d="M41 -283h258l332 1889h-258l28 163h557l-389 -2211h-557z" />
    <glyph glyph-name="asciicircum" unicode="^" horiz-adv-x="1548" 
d="M799 1769h319l246 -1097h-291l-172 774l-434 -774h-295z" />
    <glyph glyph-name="underscore" unicode="_" horiz-adv-x="1290" 
d="M1159 -328h-1102l29 160h1102z" />
    <glyph glyph-name="grave" unicode="`" horiz-adv-x="979" 
d="M971 1593l-90 -151l-545 205l119 225z" />
    <glyph glyph-name="a" unicode="a" horiz-adv-x="1393" 
d="M803 0q0 117 20 205q-106 -120 -211 -175t-247 -55q-159 0 -258 75.5t-99 215.5q0 20 8 78q47 281 365 393q53 19 121.5 33t140 22.5t143 15t123.5 11.5l4 29q17 62 17 106q0 45 -17 66q-35 65 -143 65q-95 0 -170 -50.5t-92 -141.5l-352 33q67 220 259 314.5t437 94.5
q275 0 393 -118q82 -77 82 -197q0 -48 -29 -213l-110 -610q-8 -70 -8 -197h-377zM877 627q-171 -19 -300 -67t-151 -175q0 -172 135 -172q123 0 213 111q64 79 94 249z" />
    <glyph glyph-name="b" unicode="b" horiz-adv-x="1393" 
d="M504 549q-12 -55 -12 -123q0 -57 16 -94q45 -90 143 -90q138 0 198 121t89 292q25 121 25 209q0 213 -160 213q-208 0 -266 -340zM332 1769h381l-111 -622h8q133 188 357 188q201 0 295 -134t94 -341q0 -98 -21 -205q-50 -288 -213.5 -484t-437.5 -196q-135 0 -208 52
t-128 174q-47 -47 -119 -201h-209z" />
    <glyph glyph-name="c" unicode="c" horiz-adv-x="1393" 
d="M958 811q0 238 -155 238q-240 0 -303 -377q-21 -94 -21 -185q0 -200 172 -200q95 0 161.5 64t92.5 161l361 -20q-66 -239 -255 -378t-433 -139q-255 0 -392 139t-137 373q0 56 17 156q54 309 262 500.5t512 191.5q220 0 353.5 -131.5t133.5 -372.5z" />
    <glyph glyph-name="d" unicode="d" horiz-adv-x="1393" 
d="M778 0l37 205h-4q-156 -230 -389 -230q-198 0 -285.5 126t-87.5 325q0 100 21 213q49 285 194 490.5t404 205.5q222 0 299 -164l106 598h381l-311 -1769h-365zM889 729q16 90 16 160q0 180 -139 180q-141 0 -201.5 -124t-97.5 -314q-16 -90 -16 -160q0 -225 159 -225
q105 0 181 106q46 72 69 197z" />
    <glyph glyph-name="e" unicode="e" horiz-adv-x="1393" 
d="M455 590l-13 -62q-8 -48 -8 -65q0 -95 56.5 -156t156.5 -61q88 0 169.5 59t96.5 146l344 -25q-7 -50 -90 -160.5t-232 -200.5t-349 -90q-254 0 -397.5 140t-143.5 377q0 73 12 147q33 195 135.5 353.5t262.5 250.5t356 92q142 0 262.5 -60t183.5 -169q62 -116 62 -287
q0 -114 -25 -229h-839zM958 815q0 145 -37 210t-135 65q-222 0 -294 -275h466z" />
    <glyph glyph-name="f" unicode="f" horiz-adv-x="774" 
d="M434 0h-381l172 983h-151l53 295h152q22 125 45.5 204.5t76.5 143.5q145 168 439 168l176 -12l-53 -291l-132 4q-89 0 -119 -43.5t-48 -144.5l-5 -29h234l-53 -295h-234z" />
    <glyph glyph-name="g" unicode="g" horiz-adv-x="1446" 
d="M532 930q0 -197 177 -197q95 0 167.5 51.5t90.5 149.5q0 192 -193 192q-95 0 -160.5 -50.5t-81.5 -145.5zM516 0l-205 8q-87 -33 -98 -106q0 -85 74 -107q94 -24 278 -24q357 0 381 127q0 80 -127 90zM475 541q-72 -37 -82 -95q0 -81 58 -102q35 -9 278 -25l160 -8
q197 -11 315.5 -67.5t118.5 -206.5q0 -24 -8 -74q-41 -246 -336 -356q-183 -70 -496 -70q-622 0 -622 307q34 183 274 238q-127 57 -127 233q33 185 311 291q-184 73 -184 254q0 16 8 66q39 216 238 312.5t434 96.5q193 0 340 -57q46 149 120 203.5t220 54.5l107 -12
l-46 -246q-64 16 -94 16q-59 0 -107.5 -29.5t-64.5 -84.5q66 -100 66 -185q0 -21 -8 -69q-39 -212 -232.5 -307t-423.5 -95z" />
    <glyph glyph-name="h" unicode="h" horiz-adv-x="1393" 
d="M1135 0h-377l127 709q20 123 20 180q0 147 -114 147q-56 0 -113.5 -27t-87.5 -71q-49 -70 -74 -229l-127 -709h-377l312 1769h376l-110 -639h8q51 95 155 150t218 55q222 0 303 -139q37 -69 37 -147q0 -39 -29 -218z" />
    <glyph glyph-name="i" unicode="i" horiz-adv-x="672" 
d="M397 0h-377l230 1311h377zM651 1430h-377l62 364h377z" />
    <glyph glyph-name="j" unicode="j" horiz-adv-x="672" 
d="M627 1311l-209 -1196q-8 -42 -22.5 -127.5t-32.5 -146t-52 -111.5q-128 -193 -413 -193q-72 0 -205 25l53 303l90 -8q100 0 140 70t61 188l209 1196h381zM651 1430h-381l62 364h381z" />
    <glyph glyph-name="k" unicode="k" horiz-adv-x="1446" 
d="M1315 0h-426l-168 594l-262 -258l-58 -336h-381l312 1769h381l-185 -1060l152 172l438 430h373l-451 -447z" />
    <glyph glyph-name="l" unicode="l" horiz-adv-x="672" 
d="M332 1769h377l-312 -1769h-377z" />
    <glyph glyph-name="m" unicode="m" horiz-adv-x="2118" 
d="M594 1311l-33 -201h4q136 225 402 225q247 0 323 -225q130 225 418 225q210 0 299 -131q37 -52 37 -143q0 -62 -37 -242l-143 -819h-381l123 692v0l18 102t18 132q-10 102 -147 102q-114 0 -180 -98q-39 -60 -70 -238l-123 -692h-377l123 692q29 138 29 193
q0 147 -143 147q-129 0 -176 -90t-74 -250l-123 -692h-377l229 1311h361z" />
    <glyph glyph-name="n" unicode="n" horiz-adv-x="1393" 
d="M594 1311l-37 -221h4q157 245 418 245q222 0 299 -143q33 -59 33 -160q0 -83 -25 -221l-143 -811h-381l123 705q24 114 24 184q0 147 -135 147q-110 0 -180 -98q-56 -83 -86 -233l-123 -705h-381l229 1311h361z" />
    <glyph glyph-name="o" unicode="o" horiz-adv-x="1393" 
d="M1315 643q-33 -184 -138.5 -338t-265.5 -242t-346 -88q-249 0 -382.5 146t-133.5 383q0 75 12 155q35 191 135.5 346t257 242.5t349.5 87.5q256 0 390 -145.5t134 -386.5q0 -80 -12 -160zM479 696q-28 -142 -28 -241q0 -230 159 -230q226 0 299 418q21 120 21 234
q0 61 -4 90q-29 118 -164 118q-219 0 -283 -389z" />
    <glyph glyph-name="p" unicode="p" horiz-adv-x="1393" 
d="M512 606q-2 -24 -12 -86.5t-13 -93.5q0 -51 17 -86q41 -98 151 -98q201 0 279 422q16 98 16 188q0 217 -147 217q-116 0 -189 -106q-51 -68 -77 -226zM610 1311l-32 -193h8q142 217 377 217q253 0 348 -225q41 -90 41 -221q0 -110 -25 -238q-49 -277 -202 -476.5
t-416 -199.5q-220 0 -275 168h-4l-102 -585h-377l307 1753h352z" />
    <glyph glyph-name="q" unicode="q" horiz-adv-x="1393" 
d="M909 770q13 48 13 107q0 200 -164 200q-139 0 -193.5 -114t-93.5 -304q-3 -27 -14 -102t-11 -119q0 -22 9 -78q13 -51 52.5 -84.5t94.5 -33.5q101 0 180 102q63 76 95 229zM1339 1098l-270 -1540h-381l103 577q-143 -160 -328 -160q-218 0 -318 132.5t-100 347.5
q0 93 21 204q52 284 217.5 480t433.5 196q139 0 215.5 -46t124.5 -163q85 93 131 185h205z" />
    <glyph glyph-name="r" unicode="r" horiz-adv-x="877" 
d="M610 1311l-41 -246h9q114 270 323 270l66 -4l-66 -381q-193 0 -277.5 -119.5t-123.5 -330.5l-90 -500h-381l229 1311h352z" />
    <glyph glyph-name="s" unicode="s" horiz-adv-x="1290" 
d="M909 918q-11 176 -221 176q-197 0 -217 -115q0 -70 128 -98.5t254.5 -51.5t220 -90t93.5 -219q0 -61 -8 -98q-36 -209 -233 -340q-176 -107 -430 -107q-507 0 -529 385l336 50q3 -93 77 -135t181 -42q80 0 159.5 29t90.5 94q0 61 -33.5 82t-93.5 29q-268 37 -377 78
q-192 70 -192 352q40 226 219 332t416 106q198 0 310.5 -81t147.5 -259z" />
    <glyph glyph-name="t" unicode="t" horiz-adv-x="979" 
d="M70 1012l53 303h229l99 385l335 24l-69 -409h282l-53 -303h-282l-95 -520q-12 -69 -12 -111q0 -54 34 -76t126 -22l123 8l-54 -287l-28 -8q-194 -21 -213 -21q-240 0 -328 82q-61 61 -61 181q0 74 24 196l103 578h-213z" />
    <glyph glyph-name="u" unicode="u" horiz-adv-x="1393" 
d="M778 0l41 225h-4q-140 -250 -418 -250q-228 0 -295 148q-28 63 -28 139q0 51 28 221l144 828h381l-144 -828q-12 -48 -12 -94q0 -110 119 -110q133 0 213 127q28 43 57 200l123 705h377l-230 -1311h-352z" />
    <glyph glyph-name="v" unicode="v" horiz-adv-x="1237" 
d="M647 0h-299l-221 1311h401l111 -832l397 832h287z" />
    <glyph glyph-name="w" unicode="w" horiz-adv-x="1909" 
d="M1372 0h-340l-57 840h-4l-353 -840h-323l-176 1311h405l70 -803h4l340 803h348l49 -807h4l361 807h299z" />
    <glyph glyph-name="x" unicode="x" horiz-adv-x="1393" 
d="M901 705l320 -705h-443l-192 451l-348 -451h-328l553 705l-266 606h442l147 -357l271 357h327z" />
    <glyph glyph-name="y" unicode="y" horiz-adv-x="1237" 
d="M709 82q-106 -207 -167.5 -306t-169.5 -167t-282 -68l-184 17l53 299l188 -21q96 0 147.5 36.5t90.5 127.5l-246 1311h410l115 -779l372 779h287z" />
    <glyph glyph-name="z" unicode="z" horiz-adv-x="1085" 
d="M1081 1069l-721 -786h611l-49 -283h-1033l50 283l712 766h-532l45 262h958z" />
    <glyph glyph-name="braceleft" unicode="{" horiz-adv-x="979" 
d="M471 1446q28 150 143 236.5t205 86.5h221l-41 -229h-94q-79 0 -105 -32.5t-34 -94.5l-90 -504q-45 -206 -291 -229v-8q86 -5 145.5 -51.5t59.5 -198.5l-90 -508q0 -73 18.5 -100t79.5 -27h94l-41 -229h-221q-79 0 -156 81.5t-77 245.5l94 541q0 143 -185 143l37 222
q210 0 234 110z" />
    <glyph glyph-name="bar" unicode="|" horiz-adv-x="774" 
d="M418 0h-307l311 1769h307z" />
    <glyph glyph-name="braceright" unicode="}" horiz-adv-x="979" 
d="M496 -115q-27 -150 -142.5 -238.5t-206.5 -88.5h-221l41 229h99q78 0 104.5 34t34.5 93l90 508q47 237 291 250v8q-205 23 -205 229l90 504q0 75 -17.5 101t-80.5 26h-99l41 229h222q83 0 158 -79t75 -244l-94 -545q0 -68 48 -89t144 -21l-37 -222q-213 0 -241 -143z" />
    <glyph glyph-name="asciitilde" unicode="~" horiz-adv-x="1548" 
d="M98 594q36 212 168 344q90 90 234 90q105 0 192 -53l262 -172q83 -53 140 -53q65 0 93.5 53.5t45.5 142.5h246q-36 -202 -172 -344q-92 -90 -234 -90q-107 0 -192 57l-295 172q-69 41 -115 41q-100 0 -123 -188h-250z" />
    <glyph glyph-name="DEL" 
d="M-991 2048h1229l-361 -2048h-1229z" />
    <glyph glyph-name="glyph99" horiz-adv-x="1667" 
d="M1483 909l-119 -676q-24 -132 -209 -217q-78 -32 -217 -32q-183 0 -262 49q-82 56 -90 176l-8 164q-8 -4 -31 -10.5t-60 -6.5q-78 0 -151 41q-103 54 -103 197q0 123 82 217q115 131 287 131q57 0 107 -12q176 -42 176 -271l8 -282q0 -63 15 -91t63 -28q42 0 59.5 22.5
t30.5 79.5l74 439q0 123 -82 179t-287 71q-111 8 -291 8q-115 0 -166 11t-51 50q0 152 131 305t328 203q108 25 188 25q108 0 267 -39.5t221 -42.5q59 0 115 27.5t81 45.5l70 -229q-28 -18 -101.5 -46t-173.5 -28q-76 2 -231.5 36t-271.5 34q-108 0 -188 -40t-91 -112
q0 -12 188 -19q187 -8 357 -42t253 -95t83 -192zM557 766q-63 0 -101 -44t-38 -99q0 -95 98 -95q61 0 100 44t39 100q0 94 -98 94z" />
    <glyph glyph-name="glyph100" 
d="M-500 1905h-1290l37 204q35 201 225.5 299.5t462.5 98.5q192 0 326 -50.5t201 -147.5t67 -232zM-774 2134q0 55 -63 108t-240 56q-320 0 -348 -160l-9 -49h652z" />
    <glyph glyph-name="glyph101" 
d="M-733 2433l41 238h327l-135 -766h-1290l37 204q35 201 225.5 299.5t462.5 98.5q167 0 241 -27.5t91 -46.5zM-774 2134q0 55 -63 108t-240 56q-320 0 -348 -160l-9 -49h652z" />
    <glyph glyph-name="glyph102" 
d="M-524 1905h-1291l37 204q25 139 132 233t270 132q130 29 250 29q68 0 123 -6q46 -6 46 -7h-1q0 37 77 119q92 98 263 98q166 0 233 -98q45 -67 45 -147q0 -58 -33 -135q-45 -108 -168 -173v0q1 0 14 -28q14 -32 19 -86q0 -29 -8 -82zM-639 2531q-65 0 -102 -42.5
t-37 -100.5q0 -98 102 -98q65 0 102 42.5t37 100.5q0 41 -25.5 69.5t-76.5 28.5zM-1098 2294q-325 0 -352 -156l-8 -49h651q0 9 -33.5 57t-98 92.5t-159.5 55.5z" />
    <glyph glyph-name="glyph103" 
d="M-983 2499l29 172h233l-37 -205l115 -53l45 258h233l-135 -766h-1290l37 204q23 131 123.5 227t261.5 134q152 37 283 37q41 0 67 -3t35 -5zM-774 2134q0 55 -63 108t-240 56q-320 0 -348 -160l-9 -49h652z" />
    <glyph glyph-name="uni2026" unicode="&#x2026;" horiz-adv-x="1761" 
d="M197 0q-75 0 -115.5 42t-40.5 105q0 83 61.5 152.5t159.5 69.5q78 0 117 -42t39 -106q0 -83 -61.5 -152t-159.5 -69zM778 0q-75 0 -115 42t-40 105q0 83 61.5 152.5t159.5 69.5q77 0 116 -42t39 -106q0 -83 -61.5 -152t-159.5 -69zM1360 0q-75 0 -115.5 42t-40.5 105
q0 83 61.5 152.5t159.5 69.5q78 0 117 -42t39 -106q0 -83 -61.5 -152t-159.5 -69z" />
    <glyph glyph-name="glyph105" 
d="M-885 1905l123 704l328 4l-127 -725z" />
    <glyph glyph-name="glyph106" 
d="M-1171 2118q-80 0 -133.5 16.5t-92.5 65.5q-28 42 -28 110q0 158 127 262q94 78 221 78q79 0 142 -29t83 -77q33 -59 33 -136q0 -110 -60 -198t-100 -125q127 0 270 78q122 69 169.5 215t47.5 211h275q0 -46 -42 -168t-159 -254q-202 -235 -557 -271q-110 -12 -282 -12
q-63 0 -106 2q-43 1 -58 2l32 148q86 0 127 16q22 7 50 30t41 36zM-1106 2486q-59 0 -97 -42t-38 -93q0 -90 94 -90q58 0 96.5 42.5t38.5 92.5q0 90 -94 90z" />
    <glyph glyph-name="glyph107" 
d="M-1270 2351q11 1 45 3q33 1 90 1q60 -15 95.5 -63.5t35.5 -112.5q0 -94 -69 -180q-79 -103 -221 -103q-136 0 -209 86q-45 57 -45 164q0 127 68.5 257t185.5 182q69 28 131 28q52 0 91 -18t61.5 -38.5t31.5 -29.5q10 19 65 54.5t132 35.5q188 -11 188 -225q0 -28 -8 -78
q-15 -84 -50.5 -154.5t-47.5 -82.5q84 34 135 123q45 87 55.5 133.5t42.5 218.5q21 99 56 163q30 55 33 55q1 0 1 -1h234q-15 -9 -45.5 -44t-57.5 -116q-21 -71 -44.5 -176.5t-51 -181t-80.5 -150.5q-125 -196 -442 -196q-35 0 -60 1.5t-34 2.5v0q3 0 37 56q37 61 61 140
q45 146 45 238q0 97 -57 102q-30 0 -79 -28.5t-57 -36.5q-11 15 -46 38t-101 23q-58 -8 -83.5 -39t-31.5 -51zM-1237 2236q-56 0 -89.5 -37.5t-33.5 -84.5q0 -82 86 -82q56 0 89.5 37.5t33.5 84.5q0 82 -86 82z" />
    <glyph glyph-name="glyph108" 
d="M-700 2163l-45 -262h-328l45 262h-344l41 241h344l49 262h328l-49 -262h340l-41 -241h-340z" />
    <glyph glyph-name="glyph109" 
d="M-467 2413q0 1 1 1q3 0 28 -39q28 -45 28 -110q0 -32 -12 -82q-65 -278 -397 -278q-118 8 -180 78t-62 167q0 93 41 168q61 124 162 168.5t289 66.5t266 44q97 28 142 84t55 88l110 -176q-24 -31 -66 -76.5t-126 -62.5q-209 -41 -279 -41zM-709 2331q-68 0 -109.5 -48
t-41.5 -108q0 -98 102 -98q66 0 109 48t43 107q0 99 -103 99z" />
    <glyph glyph-name="uni0E48" unicode="&#xe48;" 
d="M-344 1905l123 704l327 4l-126 -725z" />
    <glyph glyph-name="uni0E49" unicode="&#xe49;" 
d="M-434 2118q-162 0 -225 82q-29 41 -29 110q0 157 127 262q94 78 221 78q79 0 142 -29t83 -77q33 -59 33 -136q0 -110 -60 -198t-100 -125q136 0 283 74q117 68 171 177.5t62 211.5h275q-2 -9 -21 -84.5t-64.5 -169t-115.5 -168.5q-197 -210 -549 -238q-86 -8 -237 -8
q-89 0 -154 3q-66 3 -92 5l33 148q86 0 127 16q22 7 49.5 30t40.5 36zM-369 2486q-59 0 -97 -42t-38 -93q0 -90 94 -90q57 0 96.5 42.5t39.5 92.5q0 90 -95 90z" />
    <glyph glyph-name="uni0E4A" unicode="&#xe4a;" 
d="M-623 2351q11 1 46 3q34 1 90 1q58 -15 94.5 -63t36.5 -113q0 -93 -70 -180q-79 -103 -221 -103q-136 0 -209 86q-45 57 -45 164q0 127 68.5 257t185.5 182q69 28 131 28q52 0 91 -18t61.5 -38.5t31.5 -29.5q10 19 65 54.5t132 35.5q188 -11 188 -225q0 -28 -8 -78
q-15 -84 -50.5 -154.5t-47.5 -82.5q84 34 135 123q34 67 49 114t25.5 107.5t23.5 130.5q21 99 56 163q30 55 33 55q1 0 1 -1h234q-15 -9 -45.5 -44t-57.5 -116q-21 -71 -44.5 -176.5t-51 -181t-80.5 -150.5q-125 -196 -442 -196q-36 0 -60.5 1.5t-33.5 2.5v0q3 0 37 56
q37 61 61 140q45 140 45 238q0 97 -57 102q-29 0 -78 -28.5t-57 -36.5q-11 15 -46.5 38t-101.5 23q-58 -8 -83.5 -39t-31.5 -51zM-590 2236q-56 0 -89.5 -37.5t-33.5 -84.5q0 -82 86 -82q56 0 89.5 37.5t33.5 84.5q0 82 -86 82z" />
    <glyph glyph-name="uni0E4B" unicode="&#xe4b;" 
d="M61 2163l-45 -262h-327l45 262h-344l41 241h344l49 262h328l-50 -262h340l-41 -241h-340z" />
    <glyph glyph-name="uni0E4C" unicode="&#xe4c;" 
d="M-12 2413q0 1 1 1q3 0 28 -39q28 -45 28 -110q0 -32 -12 -82q-65 -278 -398 -278q-119 9 -180 78.5t-61 166.5q0 93 41 168q61 124 162 168.5t289 66.5t266 44q98 29 142 84.5t54 87.5l111 -176q-6 -9 -29 -39.5t-65 -59.5t-99 -40q-207 -41 -278 -41zM-254 2331
q-68 0 -110 -48.5t-42 -107.5q0 -98 103 -98q66 0 108.5 48t42.5 107q0 99 -102 99z" />
    <glyph glyph-name="glyph115" horiz-adv-x="2437" 
d="M1466 471q0 -11 -2 -53t-2 -90q17 -70 123 -70h94q66 0 127 61q36 41 49 144l209 1175h328l-225 -1265q-26 -152 -127 -258q-108 -115 -254 -115h-406q-166 0 -237 102q-33 54 -33 140q0 65 12 127l144 827q0 122 -58.5 173.5t-216.5 51.5q-184 0 -264 -46t-96 -146
l-4 -21h241l-32 -188q-88 0 -168 -86q-51 -58 -74 -164l-25 -135q152 0 205 -25q131 -65 131 -225q0 -112 -65 -213q-115 -184 -344 -184q-116 0 -201 53q-111 79 -111 217q0 61 9 98l69 394q27 120 82 180q52 57 85.5 78t45.5 24h-205l41 225q33 181 217 285.5t496 104.5
q594 0 594 -304q0 -15 -8 -65zM553 184q68 0 112 48t44 108q0 46 -28.5 76t-82.5 30q-70 0 -113 -48t-43 -107q0 -107 111 -107z" />
    <glyph glyph-name="uni2018" unicode="&#x2018;" horiz-adv-x="815" 
d="M504 1634q40 8 53 8q74 0 127 -53q37 -36 37 -102q0 -67 -40.5 -134.5t-102.5 -90.5q-51 -21 -111 -21q-126 0 -160 98q-12 37 -12 86q0 102 53.5 222.5t138.5 199.5q124 118 283 148l-20 -111q-81 -18 -164 -106q-25 -23 -43 -53.5t-25 -50t-14 -40.5z" />
    <glyph glyph-name="uni2019" unicode="&#x2019;" horiz-adv-x="774" 
d="M598 1626q-40 -8 -53 -8q-74 0 -127 53q-37 37 -37 103q0 68 40.5 135t102.5 90q51 20 115 20q67 0 111 -28.5t57 -69.5q12 -37 12 -78q0 -101 -57.5 -222.5t-143.5 -207.5q-131 -119 -286 -147l20 110q78 15 168 107q34 34 56 82t22 61z" />
    <glyph glyph-name="uni201C" unicode="&#x201c;" horiz-adv-x="1343" 
d="M553 1638q45 0 108.5 -32.5t63.5 -139.5q0 -87 -68 -160t-178 -73q-180 0 -180 192q0 72 29 156q156 443 483 459l-29 -148q-133 0 -180 -90q-49 -79 -49 -164zM1143 1638q45 0 108.5 -32.5t63.5 -139.5q0 -87 -68 -160t-178 -73q-180 0 -180 192q0 72 29 156
q156 443 483 459l-29 -148q-133 0 -180 -90q-49 -79 -49 -164z" />
    <glyph glyph-name="uni201D" unicode="&#x201d;" horiz-adv-x="1360" 
d="M1167 1638q-46 0 -111 32t-65 140q3 88 70.5 161t175.5 73q180 0 180 -193q0 -69 -28 -155q-151 -443 -484 -459l29 147q132 0 180 91q40 66 46 109.5t7 53.5zM578 1638q-47 0 -112 32t-65 140q5 91 71 162.5t175 71.5q180 0 180 -193q0 -69 -28 -155
q-150 -442 -484 -459l29 147q132 0 180 91q40 66 46.5 110t7.5 53z" />
    <glyph glyph-name="uni2022" unicode="&#x2022;" horiz-adv-x="1466" 
d="M700 274q-191 0 -290 107.5t-99 265.5q0 134 68 264t194.5 211.5t290.5 81.5q193 0 291 -106t98 -267q0 -136 -67 -264.5t-194 -210.5t-292 -82z" />
    <glyph glyph-name="uni2013" unicode="&#x2013;" horiz-adv-x="1982" 
d="M254 684l49 266h1462l-49 -266h-1462z" />
    <glyph glyph-name="uni2014" unicode="&#x2014;" horiz-adv-x="2638" 
d="M291 684l49 266h2093l-49 -266h-2093z" />
    <glyph glyph-name="glyph123" 
d="M-303 2286q97 60 141 149t51 145h328q-19 -113 -142 -304t-435 -261q-211 -41 -390 -41q-327 0 -454 127q-58 58 -58 160q0 104 62.5 202.5t171.5 137.5q61 25 147 25q103 -3 175 -52t83 -141q0 -99 -24.5 -150.5t-40.5 -66.5h-1q0 -1 30 -4q35 -4 73 -4q157 0 283 78z
M-918 2454q-63 0 -101 -44t-38 -100q0 -94 99 -94q61 0 100 44t39 99q0 95 -99 95z" />
    <glyph glyph-name="glyph124" 
d="M-877 1905q-147 0 -227 84.5t-80 205.5q0 166 120 300.5t314 134.5q150 0 229 -84.5t79 -206.5q0 -166 -120.5 -300t-314.5 -134zM-786 2413q-74 0 -121 -52t-47 -116q0 -115 118 -115q76 0 122 52t46 116q0 50 -29.5 82.5t-88.5 32.5z" />
    <glyph glyph-name="glyph125" 
d="M-889 2167q0 100 49 176q86 127 246 127q88 0 152 -45q69 -52 69 -156q0 -74 -39.5 -148t-111.5 -122q-86 -57 -201 -57q-123 0 -221 57q-45 26 -81.5 64t-53.5 59l-189 -168h-348l45 246q44 253 143 364q110 112 247.5 140t367.5 28q141 0 235 24t142.5 57t66 60.5
t19.5 30.5l90 -180v0q0 -3 -28 -34q-32 -34 -84 -68t-130 -50q-86 -20 -201 -20q-27 0 -81 2t-78 2q-174 0 -262 -62q-139 -90 -148 -340l225 181q8 -10 35.5 -41.5t42.5 -52.5q24 -26 48 -46.5t34 -27.5zM-610 2339q-62 0 -98.5 -43t-36.5 -96q0 -91 94 -91q60 0 97.5 43
t37.5 97q0 38 -24 64t-70 26z" />
    <glyph glyph-name="glyph126" 
d="M-680 2814l98 557l328 4l-98 -569z" />
    <glyph glyph-name="glyph127" 
d="M-557 2966q-150 0 -201 69q-24 31 -24 103q0 135 110 229q83 70 201 70q153 0 201 -95q28 -52 28 -114q0 -100 -55 -180.5t-92 -114.5q127 0 254 65q103 60 150 161.5t51 186.5h245q0 -36 -44 -156t-136 -220q-83 -92 -210 -146t-269 -63q-156 -8 -213 -8q-80 0 -137 3
t-80 5l24 131q74 0 115 12q20 7 45 28.5t37 33.5zM-500 3293q-53 0 -85.5 -37.5t-32.5 -85.5q0 -78 81 -78q52 0 85.5 38.5t33.5 84.5q0 78 -82 78z" />
    <glyph glyph-name="glyph128" 
d="M-598 3158q8 1 36.5 2.5t82.5 1.5q52 -12 83 -54t31 -97q0 -75 -61 -160q-68 -86 -192 -86q-125 0 -185 74q-41 47 -41 143q0 113 59.5 225.5t166.5 155.5q60 24 110 24q48 0 82.5 -15.5t58.5 -36.5q23 -20 23 -21v0q9 17 55.5 47t112.5 30q90 -3 125 -66t35 -196
q-12 -71 -49 -143q-34 -66 -37 -66v0q5 3 26.5 16t44.5 33.5t43 57.5q33 61 47 102t23 91.5t20 113.5q16 87 47 145q27 49 30 49q1 0 1 -1h205q-15 -9 -43 -41.5t-47 -102.5q-25 -103 -43 -174t-43.5 -136t-69.5 -132q-108 -168 -467 -168q53 53 86 172q41 169 41 209
q0 80 -53 86q-25 0 -70 -24.5t-45 -28.5q-12 12 -44.5 30.5t-86.5 18.5q-49 -5 -71 -32.5t-27 -45.5zM-565 3060q-48 0 -75.5 -33t-27.5 -74q0 -69 70 -69q48 0 75 33t27 73q0 70 -69 70z" />
    <glyph glyph-name="glyph129" 
d="M-324 2990l-36 -205h-328l37 205h-295l33 201h295l36 205h328l-37 -205h295l-33 -201h-295z" />
    <glyph glyph-name="glyph130" 
d="M-279 3031q54 -43 54 -135q0 -20 -8 -70q-26 -119 -121.5 -184.5t-235.5 -65.5q-107 7 -162 69.5t-55 152.5q0 74 37 147q43 86 111.5 131t134 58t192.5 27.5t201 33.5q86 24 126 73.5t50 77.5l90 -155q-50 -99 -164 -123q-173 -37 -250 -37zM-492 2957q-57 0 -96 -43
t-39 -92q0 -90 95 -90q56 0 95.5 42.5t39.5 92.5q0 90 -95 90z" />
    <glyph glyph-name="glyph131" horiz-adv-x="422" 
 />
    <glyph glyph-name="uni0E01" unicode="&#xe01;" horiz-adv-x="1761" 
d="M467 0h-328l131 750q30 124 82 180q52 57 85.5 78t45.5 24h-204l40 217q32 180 220 287.5t501 110.5q307 0 463 -86.5t156 -282.5l-225 -1278h-328l209 1196q0 116 -68 170.5t-235 54.5q-185 0 -271 -47.5t-102 -144.5l-4 -21h242l-33 -188q-86 0 -168 -86
q-51 -58 -74 -164z" />
    <glyph glyph-name="uni0E02" unicode="&#xe02;" horiz-adv-x="1729" 
d="M676 516l-12 -74q-9 -43 -9 -114q12 -70 131 -70h185q79 0 127 61q38 54 49 144l209 1175h327l-225 -1265q-24 -150 -127 -258q-107 -115 -254 -115h-495q-167 0 -238 102q-33 54 -33 140q0 68 13 127l28 168q25 143 180 266q78 63 134 108.5t99.5 93.5t72 105t43.5 139
q0 82 -37 131.5t-86 49.5q12 -11 30.5 -46t18.5 -98q0 -77 -37 -156q-39 -88 -139.5 -148t-208.5 -60q-83 0 -143 32q-127 67 -127 226q0 162 94 270q106 127 231.5 162t296.5 35q184 -3 290.5 -107t106.5 -303q-21 -163 -101.5 -262.5t-231 -243.5t-162.5 -215zM500 1356
q-62 0 -101 -44t-39 -95q0 -95 99 -95q60 0 99.5 43.5t39.5 96.5q0 94 -98 94z" />
    <glyph glyph-name="uni0E03" unicode="&#xe03;" horiz-adv-x="1769" 
d="M1737 1638l-226 -1265q-24 -150 -127 -258q-107 -115 -254 -115h-471q-166 0 -237 102q-33 54 -33 140q0 65 12 127l29 168q22 120 44 178.5t87 115.5q84 74 158 130.5t115 95.5t92 110q45 63 45 140q0 73 -33 73q-23 0 -58.5 -33.5t-35.5 -43.5q0 43 -33 69
q-43 29 -94 29q49 -49 49 -168q-11 -142 -114 -220.5t-238 -78.5q-101 3 -167.5 66.5t-66.5 179.5q0 52 21 131q46 158 166.5 251t267.5 93q92 0 145.5 -22t76 -46t32.5 -35q2 0 32 27t76.5 47.5t116.5 20.5q131 -18 131 -234q0 -94 -24 -180q-43 -162 -110 -240
t-197.5 -199t-143.5 -196l-29 -156q-8 -48 -8 -114q10 -70 131 -70h160q79 0 127 61q38 54 49 144l209 1175h328zM500 1348q-59 -3 -95 -49t-36 -103q0 -94 86 -94q61 0 98 45.5t37 101.5q0 99 -90 99z" />
    <glyph glyph-name="uni0E04" unicode="&#xe04;" horiz-adv-x="1888" 
d="M573 860l-69 -225l110 213q181 344 430 352q271 0 271 -262q-12 -162 -109 -251.5t-239 -92.5q-76 0 -118 20t-54 33q-80 -106 -177 -307q-70 -149 -102 -230t-41 -110h-385l217 1229q21 124 123.5 218.5t278.5 147t405 52.5q672 0 672 -398l-221 -1249h-328l209 1196
q0 115 -82 170t-283 55q-209 0 -320 -63t-130 -170zM1028 1008q-62 0 -98.5 -43t-36.5 -97q0 -90 94 -90q60 0 97.5 43t37.5 97q0 37 -23.5 63.5t-70.5 26.5z" />
    <glyph glyph-name="uni0E05" unicode="&#xe05;" horiz-adv-x="1905" 
d="M557 778l-57 -200l106 188q181 344 426 352q275 0 275 -262q-14 -161 -112.5 -251t-240.5 -93q-74 0 -116 20t-56 33q-14 -18 -72.5 -92.5t-99.5 -153.5q-64 -113 -97 -198.5t-42 -120.5h-381l213 1200q32 189 205 324q153 123 332 123l250 -156l311 156
q64 0 145.5 -29.5t141.5 -97.5q94 -101 94 -238q0 -28 -8 -86l-209 -1196h-328l197 1122q16 82 16 99q0 29 -20 69q-42 62 -115 62l-275 -135l-221 135q-73 0 -131 -58q-38 -38 -70 -172zM1020 926q-62 0 -98.5 -43t-36.5 -97q0 -90 94 -90q60 0 97.5 43t37.5 97
q0 38 -24 64t-70 26z" />
    <glyph glyph-name="uni0E06" unicode="&#xe06;" horiz-adv-x="2028" 
d="M1016 815h1q8 0 93 -25q94 -29 172 -81q80 -57 130 -131q46 -69 46 -74v0l201 1134h328l-291 -1638h-340q0 214 -135 393q-56 75 -144 123.5t-106 48.5l-53 -311q-21 -113 -112 -185.5t-228 -84.5q-394 0 -394 290q0 28 9 86q26 171 100.5 270t158 137.5t149 47.5
t91.5 12q1 2 6.5 29.5t18.5 48.5q20 31 109 116t120 146q37 80 37 152q0 61 -25 61q-21 0 -57.5 -34.5t-36.5 -42.5q0 44 -33 69q-42 29 -94 29q49 -49 49 -168q-11 -142 -114 -220.5t-238 -78.5q-101 3 -167 66.5t-66 179.5q0 49 20 131q45 157 166.5 250.5t267.5 93.5
q92 0 145.5 -22t76 -46t32.5 -35q1 0 32 27t77.5 47.5t116.5 20.5q77 -9 118 -75.5t41 -166.5q0 -53 -12 -115q-30 -116 -71 -189t-82 -117t-80 -87q-21 -29 -27 -51t-6 -31zM520 1348q-59 -3 -95 -49t-36 -103q0 -94 86 -94q61 0 98 45.5t37 101.5q0 99 -90 99zM463 434
q-25 -54 -25 -106q0 -93 78 -99q73 0 90 86l41 246q-139 0 -184 -127z" />
    <glyph glyph-name="uni0E07" unicode="&#xe07;" horiz-adv-x="1442" 
d="M831 369l111 630q-151 0 -205 25q-135 61 -135 233q0 107 62 205q113 189 348 189q114 0 209 -58q106 -81 106 -213q0 -65 -8 -102l-168 -954q-29 -162 -126 -246t-312 -90q-117 0 -194 22t-122.5 71t-68.5 132l-201 676l258 221l217 -750q23 -102 135 -102
q51 12 67.5 34.5t26.5 76.5zM958 1450q-71 0 -113 -48t-42 -108q0 -106 110 -106q70 0 113 48t43 107q0 107 -111 107z" />
    <glyph glyph-name="uni0E08" unicode="&#xe08;" horiz-adv-x="1610" 
d="M1204 61q-112 -73 -295 -73q-113 0 -184 32q-123 51 -123 201v295q-12 -4 -44 -10t-79 -6q-110 0 -192 56.5t-82 193.5q0 124 78 225q111 148 311 155q60 0 135 -20q168 -48 168 -303l-8 -463q0 -54 14.5 -70t63.5 -16q25 4 40.5 18t21.5 30.5t9 40.5t6 46l140 803
q0 122 -58.5 173.5t-216.5 51.5q-184 0 -264 -46t-96 -146l-4 -25h-324l8 53q33 181 217 285.5t496 104.5q594 0 594 -304q0 -15 -8 -65l-152 -860q-23 -138 -54.5 -216.5t-117.5 -140.5zM557 938q-70 0 -113 -48.5t-43 -107.5q0 -106 111 -106q68 0 112 48t44 107
q0 107 -111 107z" />
    <glyph glyph-name="uni0E09" unicode="&#xe09;" horiz-adv-x="1815" 
d="M1589 750q-39 -66 -119 -91q34 0 94.5 -35t90.5 -141q8 -40 8 -73q0 -99 -48.5 -203t-144.5 -166q-97 -61 -200 -61q-172 0 -246 126q-33 70 -33 205q-22 -13 -70.5 -50.5t-97.5 -96.5q-48 -60 -71.5 -102.5t-30.5 -61.5h-344l74 422q-152 0 -205 24q-131 62 -131 226
q0 102 65 213q115 184 344 184q120 0 205 -53q111 -72 111 -209q0 -54 -13 -107l-53 -294q29 30 110.5 96.5t196.5 132.5q109 61 157.5 108t59.5 125l58 328q0 225 -324 225q-363 0 -393 -192l-8 -33h-324l12 61q32 178 231 284t515 106q635 0 635 -369l-66 -369
q-4 -20 -8 -51.5t-11 -55t-26 -52.5zM471 872q-70 0 -113 -50.5t-43 -108.5q0 -103 107 -103q68 0 112 49.5t44 110.5q0 102 -107 102zM1298 184q67 0 109.5 54.5t42.5 117.5q0 115 -102 115q-67 0 -109.5 -54.5t-42.5 -121.5q0 -111 102 -111z" />
    <glyph glyph-name="uni0E0A" unicode="&#xe0a;" horiz-adv-x="1835" 
d="M1577 373q-24 -150 -127 -258q-108 -115 -254 -115h-537q-166 0 -237 102q-33 54 -33 140q0 65 12 127l29 168q28 157 148 266q109 95 176 152.5t110 123.5t62 170q0 82 -37 131.5t-86 49.5q12 -11 30.5 -46t18.5 -98q0 -77 -37 -156q-39 -88 -139.5 -148t-208.5 -60
q-83 0 -143 32q-127 67 -127 226q0 162 94 270q106 127 231.5 162t296.5 35q186 -3 292 -107t106 -303q-22 -164 -97.5 -264.5t-214.5 -243t-151 -213.5l-13 -74q-8 -48 -8 -114q10 -70 131 -70h226q79 0 127 61q38 55 49 144l102 581q0 13 6 38t6 36q0 13 -8 53
q-12 60 -86 70l-4 217q110 0 197 70q78 68 90 155l16 86h320l-17 -90q-26 -174 -123 -245q-108 -78 -176 -78q20 -6 55 -29t52 -65q16 -33 16 -91q0 -32 -8 -90zM545 1356q-62 0 -100.5 -43.5t-38.5 -95.5q0 -95 98 -95q60 0 99.5 43.5t39.5 96.5q0 94 -98 94z" />
    <glyph glyph-name="uni0E0B" unicode="&#xe0b;" horiz-adv-x="1810" 
d="M766 598l-29 -156q-8 -48 -8 -114q10 -70 131 -70h209q79 0 127 61q38 54 49 144l103 581q0 13 6 38t6 36q0 13 -8 53q-13 60 -86 70l28 213q73 0 164 74q74 62 94 160l13 81h319l-12 -81q-26 -161 -127 -254q-82 -78 -176 -78q20 -6 54.5 -28.5t51.5 -65.5
q17 -33 17 -91q0 -38 -9 -90l-127 -708q-24 -149 -126 -258q-108 -115 -254 -115h-521q-166 0 -237 102q-33 54 -33 140q0 65 12 127l29 168q19 115 42 175.5t89 118.5q84 74 158 130.5t115 95.5t92 110q45 63 45 140q0 73 -33 73q-23 0 -58.5 -33.5t-35.5 -43.5
q0 43 -33 69q-43 29 -94 29q49 -49 49 -168q-11 -142 -114 -220.5t-238 -78.5q-101 3 -167.5 66.5t-66.5 179.5q0 52 21 131q46 158 166.5 251t267.5 93q92 0 145 -22t76.5 -46.5t32.5 -34.5q2 0 32 27t76.5 47.5t116.5 20.5q131 -18 131 -234q0 -94 -24 -180
q-43 -162 -110 -240t-197.5 -199t-143.5 -196zM496 1348q-59 -3 -95 -49t-36 -103q0 -94 86 -94q61 0 98 45.5t37 101.5q0 99 -90 99z" />
    <glyph glyph-name="uni0E0C" unicode="&#xe0c;" horiz-adv-x="2433" 
d="M2372 1638l-291 -1638h-336q0 23 -6.5 72.5t-30.5 103.5q-26 52 -48 84.5t-30 42.5q-16 -112 -102 -205q-120 -127 -291 -127q-106 0 -180 62q-90 72 -90 217q0 127 61 225q70 106 142 141t104 35q-58 19 -86 90q-8 21 -8 66q0 30 12 90l49 299q0 122 -58 173.5
t-216 51.5q-184 0 -264 -45.5t-97 -146.5l-4 -21h242l-33 -188q-86 0 -168 -86q-47 -55 -74 -164l-24 -135q151 0 205 -25q131 -65 131 -225q0 -110 -66 -213q-115 -184 -344 -184q-114 0 -201 53q-110 80 -110 217q0 61 8 98l70 394q28 122 81 180t86.5 78.5t45.5 23.5
h-205l41 225q33 181 216 285.5t496 104.5q594 0 594 -304q0 -15 -8 -65l-74 -418q0 -79 25.5 -121.5t85.5 -83.5q100 -67 148.5 -126.5t60.5 -86.5l213 1196h328zM1331 463q-68 -3 -109.5 -56.5t-41.5 -119.5q0 -111 102 -111q66 0 109 53.5t43 118.5q0 115 -103 115z
M528 184q70 0 113 48t43 108q0 46 -28.5 76t-82.5 30q-71 0 -113 -47t-42 -108q0 -107 110 -107z" />
    <glyph glyph-name="uni0E0D" unicode="&#xe0d;" horiz-adv-x="2400" 
d="M1458 471q0 -11 -2 -53t-2 -90q16 -70 123 -70h94q64 0 127 61q36 41 49 144l209 1175h328l-225 -1265q-26 -150 -127 -258q-108 -115 -254 -115h-406q-166 0 -237 102q-33 54 -33 140q0 65 12 127l143 827q0 122 -58 173.5t-216 51.5q-184 0 -264 -46t-96 -146l-5 -21
h242l-33 -188q-86 0 -168 -86q-50 -58 -73 -164l-25 -135q152 0 205 -25q131 -65 131 -225q0 -113 -66 -213q-114 -184 -344 -184q-115 0 -200 53q-111 79 -111 217q0 61 8 98l70 394q27 120 82 180q52 57 85.5 78t45.5 24h-205l41 225q33 181 217 285.5t496 104.5
q594 0 594 -304q0 -15 -8 -65zM1491 -713q-61 -8 -172 -8q-362 0 -406 201q0 139 61.5 244t184.5 133q49 12 90 12q221 0 221 -258q-10 -63 -29 -100q-17 -32 -20 -32v1q134 0 193 41q103 64 119 233l16 82h295l-16 -94q-31 -186 -138 -303.5t-399 -151.5zM1212 -295
q-60 0 -95.5 -40.5t-35.5 -90.5q0 -86 90 -86q57 0 94.5 40.5t37.5 90.5q0 86 -91 86zM545 184q69 0 112 48t43 108q0 45 -28 75.5t-82 30.5q-70 0 -113 -48t-43 -107q0 -107 111 -107z" />
    <glyph glyph-name="uni0E0E" unicode="&#xe0e;" horiz-adv-x="1950" 
d="M1544 -422q-26 -133 -94 -205q-86 -86 -246 -86q-136 0 -225 78q-100 83 -125 103.5t-51.5 42t-36.5 30.5q0 -8 -40.5 -58.5t-98.5 -92.5q-142 -99 -312 -99q-79 0 -127 17q-176 48 -176 209q0 76 49 155t132 127q102 62 245 62q153 0 193 -37q7 0 16 45q5 16 6.5 29.5
t1.5 19.5h283q0 -33 -16 -78q-23 -73 -25 -73v0q18 0 119 -78q28 -22 52.5 -44t39 -32t39.5 -19q74 0 86 87l266 1515q0 121 -60.5 173t-221.5 52q-354 0 -386 -192l-4 -21h275l-33 -188q-86 0 -168 -86q-47 -55 -74 -164l-73 -422q-40 -224 -213 -315q-116 -58 -226 -58
q-230 0 -282 189q-13 47 -13 82q0 109 67.5 212t174.5 144q62 25 213 25l21 123q28 122 82 180q54 60 86.5 79.5t44.5 22.5h-238l41 225q32 179 227 284.5t510 105.5q302 0 448 -85.5t146 -283.5zM336 176q68 0 112 48t44 108q0 46 -28.5 76t-82.5 30q-70 0 -113 -48.5
t-43 -106.5q0 -107 111 -107zM328 -373q-29 -27 -29 -57q0 -57 90 -57q59 5 111 49t57 65q-16 8 -51.5 21t-79.5 16q-62 0 -98 -37z" />
    <glyph glyph-name="uni0E0F" unicode="&#xe0f;" horiz-adv-x="1966" 
d="M1024 -561l-205 -176v0q0 2 -114 102q-92 70 -95 70q-2 -2 -30.5 -35t-70 -67t-91.5 -58q-102 -45 -209 -45q-128 0 -217.5 63t-89.5 179q6 109 80 199.5t186 123.5q64 17 127 17q70 0 127.5 -15t64.5 -22q9 0 29 61q5 24 6.5 38.5t1.5 19.5h283q0 -21 -25 -95
q-8 -35 -21 -61t-20 -37q3 0 62 -45q17 -12 31 -26t18 -19l225 188l168 -176l275 1573q0 121 -61 173t-222 52q-355 0 -385 -192l-4 -21h274l-32 -188q-88 0 -168 -86q-51 -58 -74 -164l-74 -422q-20 -114 -67 -188.5t-146 -126.5q-114 -58 -225 -58q-99 0 -177.5 46.5
t-105.5 142.5q-12 43 -12 82q0 109 67.5 212.5t174.5 143.5q61 25 213 25l20 123q27 120 82 180q52 57 85.5 78t45.5 24h-237l40 225q32 179 227.5 284.5t510.5 105.5q302 0 448 -85.5t146 -283.5l-316 -1798q-36 -176 -180 -221q-42 -13 -82 -13q-90 0 -168 86zM356 176
q70 0 113 48t43 108q0 46 -28.5 76t-82.5 30q-71 0 -113 -48t-42 -107q0 -107 110 -107zM205 -414q-62 -30 -62 -82q0 -49 107 -49q61 9 100 55t39 60q0 5 -34.5 19t-75.5 14q-43 0 -74 -17z" />
    <glyph glyph-name="uni0E10" unicode="&#xe10;" horiz-adv-x="1585" 
d="M1434 909l-119 -676q-24 -132 -209 -217q-78 -32 -217 -32q-183 0 -262 49q-82 56 -90 176l-9 164q-8 -4 -30.5 -10.5t-59.5 -6.5q-78 0 -151 41q-103 54 -103 197q0 123 82 217q115 131 287 131q58 0 106 -12q177 -42 177 -271l8 -282q0 -63 15 -91t63 -28
q42 0 59.5 22.5t30.5 79.5l73 439q0 124 -81 179.5t-287 70.5q-111 8 -291 8q-115 0 -166 11t-51 50q0 152 131 305t328 203q108 25 188 25q106 0 266 -39.5t221 -42.5q60 0 116 27.5t81 45.5l70 -229q-28 -18 -101.5 -46t-173.5 -28q-78 2 -232.5 36t-271.5 34
q-107 0 -187 -40t-91 -112q0 -10 124.5 -16.5t203.5 -12t217 -32.5q168 -34 252 -95t84 -192zM864 -561v0q0 -1 -20 -6q-23 -6 -49 -6q-58 0 -123 32q-90 42 -90 148q0 116 94 196q90 86 250 86q141 0 209 -61q73 -62 73 -188q0 -105 -45 -226q-101 -289 -405 -307
q-315 0 -410 184l-164 -176h-73l-82 164q-98 -143 -299 -143q-93 0 -155 54t-62 142q0 56 28 119q87 193 332 193q41 0 74 -4q29 -4 29 -5h-1q20 52 25 82q5 33 12.5 63.5t7.5 31.5h238q0 -15 -4 -54t-16 -82q-7 -24 -23 -68.5t-22 -58.5l49 -102l176 139q0 -14 57 -101.5
t123 -123.5q54 -33 111 -33q48 0 80.5 23.5t50.5 50.5t24 37zM897 -242q-60 0 -97.5 -37.5t-37.5 -85.5q0 -81 98 -81q68 3 106 37.5t38 80.5q0 86 -107 86zM-258 -553q-41 -28 -41 -74q0 -53 86 -53q50 10 72 56.5t22 70.5q-8 4 -27.5 10t-41.5 6q-43 0 -70 -16zM508 766
q-63 0 -101 -44t-38 -99q0 -95 98 -95q61 0 100 44t39 100q0 94 -98 94z" />
    <glyph glyph-name="uni0E11" unicode="&#xe11;" horiz-adv-x="2146" 
d="M1843 1647q234 -11 234 -234q0 -38 -9 -90l-233 -1323h-328l201 1135q0 7 6 34t6 39q0 54 -49 54q-32 -3 -140.5 -161t-232.5 -372q-132 -241 -258.5 -483.5t-126.5 -245.5h-393l139 782q13 73 50 127q34 40 78.5 86t77.5 86t57 86q41 73 41 148q0 65 -29 65
q-23 0 -58.5 -33.5t-35.5 -43.5q0 43 -33 69q-43 29 -94 29q49 -49 49 -168q-11 -142 -114 -220.5t-238 -78.5q-101 3 -167.5 66.5t-66.5 179.5q0 52 21 131q46 158 166.5 251t267.5 93q92 0 145 -22t76.5 -46.5t32.5 -34.5q1 0 32.5 27t78 47.5t114.5 20.5
q152 -13 152 -197q0 -16 -9 -90q-11 -79 -42.5 -146t-68 -120t-73.5 -107q-69 -126 -82 -205l-49 -266q2 10 65.5 133.5t152 275.5t183.5 287q111 156 178 238.5t150 139.5t176 57zM496 1348q-59 -3 -95 -49t-36 -103q0 -94 86 -94q61 0 98 45.5t37 101.5q0 99 -90 99z" />
    <glyph glyph-name="uni0E12" unicode="&#xe12;" horiz-adv-x="2613" 
d="M1778 1196l-62 -352q0 -79 25.5 -121.5t89.5 -83.5q94 -64 145 -119t64 -78l213 1196h327l-290 -1638h-336q0 23 -6.5 72.5t-30.5 103.5q-27 53 -50 79t-32 32q-16 -117 -98 -205q-117 -123 -291 -123q-112 0 -180 57q-95 73 -95 217q0 131 66 226q66 104 138 140t104 36
q-54 21 -86 90q-13 29 -13 61q0 24 8 57t9 38l41 241q16 82 16 99q0 29 -20 69q-42 62 -115 62l-275 -135l-221 135q-73 0 -131 -58q-40 -40 -69 -172l-152 -856q38 9 188 123q108 79 164 135q-34 0 -101 50.5t-67 158.5q0 53 17 107q37 122 136 192t228 70q136 -9 191 -83
t55 -220q-24 -147 -101 -241t-255 -243q-134 -108 -261 -193.5t-186 -121.5h-385l213 1200q32 189 205 324q153 123 332 123l250 -156l311 156q197 0 307 -115q78 -85 78 -213q0 -55 -12 -123zM1536 446q-68 -3 -110 -57t-42 -119q0 -110 103 -110q66 0 108.5 54t42.5 118
q0 49 -25.5 81.5t-76.5 32.5zM995 909q-62 0 -98.5 -42.5t-36.5 -96.5q0 -90 94 -90q60 0 98 42.5t38 96.5q0 38 -24 64t-71 26z" />
    <glyph glyph-name="uni0E13" unicode="&#xe13;" horiz-adv-x="2449" 
d="M1778 655q82 49 119 96t49 117l139 770h328l-132 -733q-14 -100 -49 -155q-38 -65 -118 -91q33 0 93.5 -35t90.5 -141q8 -40 8 -73q0 -99 -47.5 -203t-144.5 -166q-98 -61 -201 -61q-172 0 -246 126q-33 70 -33 205q-10 0 -118 -135q-48 -55 -72 -104t-31 -72h-336
l209 1196q0 122 -58 173.5t-216 51.5q-184 0 -264 -45.5t-97 -146.5l-4 -21h242l-33 -188q-86 0 -168 -86q-47 -55 -74 -164l-24 -135q151 0 205 -25q131 -65 131 -225q0 -110 -66 -213q-115 -184 -344 -184q-114 0 -201 53q-110 80 -110 217q0 61 8 98l70 394
q28 122 82 180q54 60 86.5 79.5t44.5 22.5h-205l41 225q33 181 216 285.5t496 104.5q594 0 594 -304q0 -15 -8 -65l-155 -872q28 34 105 105.5t198 143.5zM573 184q70 0 113 48t43 108q0 46 -28.5 76t-82.5 30q-71 0 -113 -47t-42 -108q0 -107 110 -107zM1942 184
q66 0 108.5 54.5t42.5 117.5q0 115 -102 115q-67 0 -109.5 -54.5t-42.5 -121.5q0 -111 103 -111z" />
    <glyph glyph-name="uni0E14" unicode="&#xe14;" horiz-adv-x="1884" 
d="M676 475q157 134 168 156q-33 0 -98.5 50t-65.5 155q0 55 16 110q37 123 135.5 192.5t229.5 69.5q135 -9 190.5 -84t55.5 -219q-26 -144 -107.5 -242t-273.5 -274q-160 -145 -276.5 -244.5t-170.5 -144.5h-385l217 1233q32 184 244.5 299t562.5 115q672 0 672 -394
l-221 -1253h-328l209 1196q0 225 -365 225q-199 -3 -315 -64.5t-135 -160.5l-156 -885q16 5 197 164zM1020 1016q-62 0 -98.5 -43t-36.5 -96q0 -91 94 -91q60 0 97.5 43t37.5 97q0 38 -24 64t-70 26z" />
    <glyph glyph-name="uni0E15" unicode="&#xe15;" horiz-adv-x="1884" 
d="M1434 1290q-42 62 -115 62l-275 -135l-221 135q-73 0 -131 -58q-40 -40 -69 -172l-152 -856q38 9 188 123q108 79 164 135q-34 0 -101 50.5t-67 158.5q0 53 17 107q37 122 136 192t228 70q138 -9 194 -83.5t56 -219.5q-24 -146 -101.5 -239t-258.5 -245
q-134 -108 -261 -193.5t-186 -121.5h-385l213 1200q32 189 205 324q153 123 332 123l250 -156l311 156q177 0 295 -123q90 -97 90 -238q0 -32 -8 -90l-209 -1196h-332l197 1122q16 82 16 99q0 29 -20 69zM995 909q-62 0 -98.5 -42.5t-36.5 -96.5q0 -90 94 -90q60 0 98 42.5
t38 96.5q0 38 -24 64t-71 26z" />
    <glyph glyph-name="uni0E16" unicode="&#xe16;" horiz-adv-x="1765" 
d="M270 750q30 124 82 180q52 57 85.5 78t45.5 24h-204l40 217q32 179 221.5 285.5t508.5 112.5q614 0 614 -381l-221 -1266h-328l209 1196q0 115 -70 170t-237 55q-347 0 -377 -192l-4 -21h242l-33 -188q-86 0 -168 -86q-51 -58 -74 -164l-24 -135q151 0 204 -25
q131 -65 131 -225q0 -112 -65 -213q-115 -184 -344 -184q-116 0 -201 53q-110 79 -110 217q0 61 8 98zM561 184q68 0 112 48t44 108q0 46 -28.5 76t-82.5 30q-71 0 -113 -47t-42 -108q0 -107 110 -107z" />
    <glyph glyph-name="uni0E17" unicode="&#xe17;" horiz-adv-x="1970" 
d="M717 0h-344l176 999q-152 0 -205 25q-135 61 -135 233q0 108 61 205q115 189 348 189q116 0 209 -58q107 -81 107 -213q0 -65 -8 -102l-54 -307l-53 -156q0 8 101 161t178 253q49 61 115.5 143.5t129 142t130 96t141.5 36.5q258 -6 258 -324l-234 -1323h-327l200 1135
q-1 31 -10.5 77.5t-38.5 49.5q-101 0 -413 -508q-72 -124 -145.5 -291t-130 -312t-56.5 -151zM565 1450q-71 0 -113 -48t-42 -108q0 -106 110 -106q68 0 112 48t44 107q0 107 -111 107z" />
    <glyph glyph-name="uni0E18" unicode="&#xe18;" horiz-adv-x="1667" 
d="M1438 1585q62 0 104.5 15t65 32.5t22.5 18.5v0l70 -254q-20 -20 -75 -51t-130 -31q-97 0 -215 23.5t-237.5 47t-215.5 23.5q-93 -11 -142 -41.5t-64 -61.5t-19 -40q83 -3 249.5 -17t287.5 -41q186 -43 277 -124.5t91 -247.5l-82 -463q-25 -154 -122 -258
q-108 -115 -254 -115h-570q-166 0 -237 102q-33 54 -33 140q0 65 12 127l94 549h328l-78 -447q0 -11 -2 -53t-2 -90q16 -70 123 -70h258q64 0 127 61q32 35 45 144l62 340q0 116 -95.5 155.5t-310.5 61.5q-114 12 -260 13q-147 1 -203.5 8t-56.5 40q0 179 110 332
q146 208 443 238q82 8 110 8q106 0 269.5 -36t255.5 -38z" />
    <glyph glyph-name="uni0E19" unicode="&#xe19;" horiz-adv-x="1933" 
d="M778 418q28 40 133 116t322 130q85 21 119.5 72t48.5 132l139 770h328l-131 -733q-14 -100 -49 -155q-34 -58 -82 -99q29 0 82 -35.5t81 -140.5q13 -29 13 -78q0 -97 -49.5 -200.5t-143.5 -163.5q-86 -58 -200 -58q-179 0 -250 123q-37 63 -37 152q0 40 6 71.5t10 43.5
q-41 -14 -121 -57t-137 -107q-62 -67 -92.5 -122t-38.5 -79h-352l176 999q-152 0 -205 25q-135 61 -135 233q0 108 61 205q115 189 349 189q115 0 208 -58q107 -81 107 -213q0 -65 -8 -102zM1417 176q66 0 109 53.5t43 118.5q0 115 -103 115q-67 0 -109 -54.5t-42 -121.5
q0 -111 102 -111zM569 1450q-71 0 -113 -48t-42 -108q0 -106 110 -106q70 0 113 48t43 107q0 107 -111 107z" />
    <glyph glyph-name="uni0E1A" unicode="&#xe1a;" horiz-adv-x="1978" 
d="M549 999q-152 0 -205 25q-135 61 -135 233q0 108 61 205q115 189 348 189q116 0 209 -58q107 -81 107 -213q0 -65 -8 -102l-144 -807q0 -11 -2 -53t-2 -90q17 -70 123 -70h316q65 0 126 61q37 41 50 144l209 1175h327l-225 -1265q-24 -150 -127 -258q-108 -115 -254 -115
h-627q-166 0 -237 102q-33 54 -33 140q0 65 12 127zM565 1450q-71 0 -113 -48t-42 -108q0 -106 110 -106q68 0 112 48t44 107q0 107 -111 107z" />
    <glyph glyph-name="uni0E1B" unicode="&#xe1b;" horiz-adv-x="1978" 
d="M549 999q-152 0 -205 25q-135 61 -135 233q0 108 61 205q115 189 348 189q116 0 209 -58q107 -81 107 -213q0 -65 -8 -102l-144 -807q0 -11 -2 -53t-2 -90q17 -70 123 -70h316q65 0 126 61q37 41 50 144l340 1921h327l-356 -2011q-24 -150 -127 -258q-108 -115 -254 -115
h-627q-166 0 -237 102q-33 54 -33 140q0 65 12 127zM565 1450q-71 0 -113 -48t-42 -108q0 -106 110 -106q68 0 112 48t44 107q0 107 -111 107z" />
    <glyph glyph-name="uni0E1C" unicode="&#xe1c;" horiz-adv-x="1782" 
d="M1204 365l226 1273h327l-291 -1638h-397l-209 418l-352 -418h-397l225 1278q19 110 66 186.5t147 128.5q114 58 225 58q102 0 180 -46.5t103 -142.5q12 -42 12 -82q0 -111 -66.5 -212t-175.5 -144q-61 -25 -213 -25l-110 -634l323 380h185zM754 1450q-70 0 -113 -48
t-43 -108q0 -106 111 -106q69 0 112 48t43 107q0 47 -28.5 77t-81.5 30z" />
    <glyph glyph-name="uni0E1D" unicode="&#xe1d;" horiz-adv-x="1790" 
d="M1204 365l357 2019h327l-422 -2384h-397l-209 418l-352 -418h-397l225 1278q19 110 66 186.5t147 128.5q114 58 225 58q102 0 180 -46.5t103 -142.5q12 -42 12 -82q0 -111 -66.5 -212t-175.5 -144q-61 -25 -213 -25l-110 -634l323 380h185zM754 1450q-70 0 -113 -48
t-43 -108q0 -106 111 -106q69 0 112 48t43 107q0 47 -28.5 77t-81.5 30z" />
    <glyph glyph-name="uni0E1E" unicode="&#xe1e;" horiz-adv-x="2105" 
d="M549 999q-152 0 -205 25q-135 61 -135 233q0 108 61 205q115 189 348 189q116 0 209 -58q107 -81 107 -213q0 -65 -8 -102l-99 -553l439 913h209l118 -913l164 913h328l-291 -1638h-381l-151 1016l-508 -1016h-381zM565 1450q-71 0 -113 -48t-42 -108q0 -106 110 -106
q68 0 112 48t44 107q0 107 -111 107z" />
    <glyph glyph-name="uni0E1F" unicode="&#xe1f;" horiz-adv-x="2126" 
d="M549 999q-152 0 -205 25q-135 61 -135 233q0 108 61 205q115 189 348 189q116 0 209 -58q107 -81 107 -213q0 -65 -8 -102l-99 -553l439 913h209l118 -913l295 1659h328l-422 -2384h-381l-151 1016l-508 -1016h-381zM565 1450q-71 0 -113 -48t-42 -108q0 -106 110 -106
q68 0 112 48t44 107q0 107 -111 107z" />
    <glyph glyph-name="uni0E20" unicode="&#xe20;" horiz-adv-x="1974" 
d="M778 348q-20 -114 -67 -188.5t-146 -126.5q-114 -58 -225 -58q-99 0 -177.5 46.5t-105.5 142.5q-12 43 -12 82q0 109 67.5 212.5t174.5 143.5q61 25 213 25l20 123q27 120 82 180q52 57 85.5 78t45.5 24h-237l41 225q32 179 227 284.5t510 105.5q302 0 448 -85.5
t146 -283.5l-226 -1278h-327l209 1196q0 121 -61 173t-222 52q-353 0 -385 -192l-4 -21h274l-32 -188q-88 0 -168 -86q-51 -58 -74 -164zM360 176q70 0 113 48t43 108q0 46 -28.5 76t-81.5 30q-70 0 -113 -48t-43 -107q0 -107 110 -107z" />
    <glyph glyph-name="uni0E21" unicode="&#xe21;" horiz-adv-x="1966" 
d="M934 815h1q8 0 93 -25q94 -29 172 -81q80 -57 130 -131q46 -69 46 -74v0l201 1134h328l-291 -1638h-340q0 214 -135 393q-56 75 -144 123.5t-106 48.5l-53 -311q-21 -113 -112 -185.5t-228 -84.5q-394 0 -394 290q0 28 9 86q26 171 100.5 270t158 137.5t149 47.5t91.5 12
l29 172q-152 0 -205 25q-135 61 -135 233q0 108 61 205q115 189 349 189q114 0 209 -58q106 -81 106 -213q0 -65 -8 -102zM655 1450q-71 0 -113 -48t-42 -108q0 -106 110 -106q70 0 113 48t43 107q0 107 -111 107zM381 434q-25 -58 -25 -106q0 -93 78 -99q73 0 90 86l41 246
q-139 0 -184 -127z" />
    <glyph glyph-name="uni0E22" unicode="&#xe22;" horiz-adv-x="1761" 
d="M528 791q-68 0 -171 54.5t-103 231.5q0 70 33 193q103 348 467 381q178 0 269.5 -46.5t111.5 -166.5q0 -161 -76.5 -266.5t-194.5 -135.5q-55 -16 -110 -16q-63 0 -105.5 20t-64.5 46t-27 32v0l-4 -19q-4 -21 -4 -42q0 -72 53 -115q56 -41 135 -41q18 0 47 2t39 2h209
l-37 -209h-196q-88 0 -144 -37q-62 -47 -73 -110l-17 -78q0 -11 -2 -53t-2 -90q16 -70 123 -70h315q66 0 127 61q34 38 50 144l208 1175h328l-225 -1265q-26 -152 -127 -258q-108 -115 -254 -115h-627q-166 0 -237 102q-33 54 -33 140q0 65 12 127l21 110q21 142 106 217
q52 49 108 72t72 23zM831 1466q-71 0 -113 -48t-42 -107q0 -107 110 -107q70 0 113 48t43 108q0 46 -28.5 76t-82.5 30z" />
    <glyph glyph-name="uni0E23" unicode="&#xe23;" horiz-adv-x="1536" 
d="M721 1040q-159 26 -346 39.5t-195 18.5q0 47 46.5 153.5t139.5 209.5t224 149q143 45 254 45q86 0 233 -34t242 -36q61 0 103 15t65.5 32.5t23.5 18.5v0l66 -246q-21 -17 -77.5 -43.5t-131.5 -26.5q-63 1 -124 11.5t-152 30.5t-159.5 30t-141.5 10q-88 -12 -136.5 -42.5
t-64 -56.5t-21.5 -44q62 -5 197 -22t254 -44q332 -75 332 -307q0 -30 -9 -82l-81 -471q-40 -224 -213 -315q-116 -58 -226 -58q-230 0 -282 189q-13 42 -13 82q0 109 67.5 212t174.5 144q61 25 213 25l29 172q0 111 -62.5 162.5t-228.5 78.5zM844 176q69 0 112 48t43 108
q0 45 -28 75.5t-82 30.5q-70 0 -113 -48.5t-43 -106.5q0 -107 111 -107z" />
    <glyph glyph-name="uni0E24" unicode="&#xe24;" horiz-adv-x="1761" 
d="M279 750q28 122 81 180t86.5 78.5t45.5 23.5h-205l41 217q33 182 221 290t500 108q306 0 462 -86.5t156 -282.5l-344 -1950h-328l328 1868q0 115 -70 170t-237 55q-187 -3 -269.5 -48t-99.5 -144l-4 -21h242l-33 -188q-86 0 -168 -86q-51 -60 -74 -164l-24 -135
q151 0 205 -25q131 -65 131 -225q0 -110 -66 -213q-115 -184 -344 -184q-114 0 -201 53q-110 80 -110 217q0 61 8 98zM569 184q70 0 113 48t43 108q0 46 -28.5 76t-82.5 30q-71 0 -113 -47t-42 -108q0 -107 110 -107z" />
    <glyph glyph-name="uni0E25" unicode="&#xe25;" horiz-adv-x="1769" 
d="M1057 639q-62 133 -125 208t-166 75q-136 -4 -168 -152l-25 -135q152 0 205 -25q131 -65 131 -225q0 -112 -65 -213q-115 -184 -344 -184q-116 0 -201 53q-111 79 -111 217q0 61 9 98l49 262q76 432 426 512q64 17 135 17q145 0 244 -70.5t148.5 -152.5t49.5 -97l62 369
q0 116 -65 170.5t-226 54.5q-185 0 -268.5 -46t-100.5 -146l-4 -25h-323l8 53q33 182 218 286t503 104q303 0 452.5 -86t149.5 -283l-225 -1278h-328l28 168q17 85 17 135q0 120 -90 336zM557 184q68 0 112 48t44 108q0 46 -28.5 76t-82.5 30q-70 0 -113 -48t-43 -107
q0 -107 111 -107z" />
    <glyph glyph-name="uni0E26" unicode="&#xe26;" horiz-adv-x="1950" 
d="M766 348q-40 -224 -213 -315q-116 -58 -225 -58q-99 0 -177.5 46.5t-105.5 142.5q-12 43 -12 82q0 109 67 212t174 144q62 25 213 25l21 123q28 122 82 180q52 57 85.5 78t45.5 24h-238l41 225q32 179 227.5 284.5t510.5 105.5q302 0 447.5 -86t145.5 -283l-344 -1950
h-327l327 1868q0 121 -60.5 173t-221.5 52q-355 0 -385 -192l-4 -21h274l-33 -188q-86 0 -168 -86q-50 -58 -73 -164zM348 176q68 0 112 48t44 108q0 46 -28.5 76t-82.5 30q-71 0 -113 -48t-42 -107q0 -107 110 -107z" />
    <glyph glyph-name="uni0E27" unicode="&#xe27;" horiz-adv-x="1548" 
d="M1077 1196q8 50 8 74q0 75 -54.5 113t-199.5 38q-170 0 -236 -53.5t-83 -155.5l-8 -61h-324l17 102q33 182 198.5 286.5t468.5 107.5q566 0 566 -295q0 -18 -9 -74l-164 -930q-20 -114 -67 -188.5t-146 -126.5q-114 -58 -225 -58q-99 0 -177.5 46.5t-104.5 142.5
q-13 42 -13 82q0 109 67.5 212.5t174.5 143.5q61 25 213 25zM840 176q69 0 112 48t43 108q0 46 -28.5 76t-81.5 30q-70 0 -113 -48t-43 -107q0 -107 111 -107z" />
    <glyph glyph-name="uni0E28" unicode="&#xe28;" horiz-adv-x="1917" 
d="M1130 1647q148 0 246.5 -11t139.5 -18q61 0 106 53q30 32 39 62.5t10 44.5h385q-22 -116 -127 -226q-42 -42 -82.5 -63t-60.5 -27q24 -48 24 -86q0 -94 -8 -164l-213 -1212h-327l208 1196q0 225 -364 225q-201 -3 -316 -64.5t-135 -160.5l-57 -336l-70 -225l111 213
q181 344 430 352q270 0 270 -262q-11 -161 -109 -251t-239 -93q-76 0 -118 20t-54 33q-14 -19 -33.5 -47t-56.5 -94t-86 -166q-70 -149 -102 -230t-41 -110h-385l213 1212q34 192 234.5 310.5t567.5 124.5zM1053 1008q-62 0 -98.5 -43t-36.5 -97q0 -90 94 -90q60 0 97.5 43
t37.5 97q0 38 -24 64t-70 26z" />
    <glyph glyph-name="uni0E29" unicode="&#xe29;" horiz-adv-x="2032" 
d="M1790 598l-41 -225q-24 -150 -127 -258q-108 -115 -254 -115h-668q-166 0 -237 102q-33 54 -33 140q0 65 12 127l111 630q-152 0 -205 25q-135 61 -135 233q0 108 61 205q115 189 349 189q115 0 208 -58q107 -81 107 -213q0 -65 -8 -102l-144 -807q0 -11 -2 -53t-2 -90
q17 -70 123 -70h357q64 0 127 61q36 41 49 144l16 86v0l-63 -7q-65 -7 -113 -10q-280 0 -340 156q-16 44 -16 98q0 99 57 184.5t151 114.5q66 21 119 21q91 0 150.5 -48.5t62.5 -127.5q0 -43 -3 -65.5t-7 -34.5t-6 -19h53l148 827h327l-135 -766q29 0 111 62
q59 43 83.5 80.5t30.5 54.5l66 -315q-16 -16 -58.5 -48.5t-109.5 -62.5q-105 -45 -172 -45zM569 1450q-71 0 -113 -48t-42 -108q0 -106 110 -106q70 0 113 48t43 107q0 107 -111 107zM1212 946q-55 0 -88.5 -37.5t-33.5 -85.5q0 -82 86 -82q53 0 87.5 38.5t34.5 84.5
q0 82 -86 82z" />
    <glyph glyph-name="uni0E2A" unicode="&#xe2a;" horiz-adv-x="1786" 
d="M1483 1671q30 32 39 62.5t10 44.5h385q-22 -116 -127 -226q-43 -41 -83.5 -62.5t-59.5 -27.5q24 -48 24 -86q0 -86 -4 -123l-221 -1253h-328l29 168q8 58 8 102q-8 209 -78 357q-65 135 -131.5 210.5t-171.5 75.5q-78 0 -118.5 -52.5t-45.5 -98.5l-24 -135q151 0 205 -25
q131 -62 131 -225q0 -102 -66 -213q-115 -184 -344 -184q-120 0 -205 53q-106 81 -106 213q0 65 8 102l45 262q76 432 426 512q69 17 143 17q146 0 245.5 -69t148.5 -147.5t49 -95.5l61 369q0 115 -69.5 170t-233.5 55q-189 -3 -274.5 -50.5t-102.5 -149.5l-4 -17h-324l9 53
q31 170 215.5 280t513.5 110q129 0 207 -12.5t108 -20.5q63 0 111 57zM569 176q70 0 113 48t43 108q0 46 -28.5 76t-82.5 30q-71 0 -113 -48t-42 -107q0 -107 110 -107z" />
    <glyph glyph-name="uni0E2B" unicode="&#xe2b;" horiz-adv-x="1982" 
d="M1401 803q-165 0 -430 -299q-96 -109 -167 -234t-83 -204l-12 -66h-328l176 999q-151 0 -205 25q-135 61 -135 233q0 107 62 205q113 189 348 189q114 0 209 -58q106 -81 106 -213q0 -65 -8 -102l-103 -578q16 22 66.5 77.5t142.5 131.5q189 156 308 156
q-111 71 -111 188q0 20 8 70q27 139 137 233.5t273 94.5q144 0 219.5 -72.5t75.5 -185.5q0 -16 -8 -66q-19 -109 -68.5 -174.5t-97 -91t-60.5 -25.5q12 0 38.5 -19.5t39.5 -58.5q21 -42 21 -86l-9 -65l-143 -807h-328l123 692q0 102 -57 111zM573 1450q-71 0 -113 -48
t-42 -108q0 -106 110 -106q70 0 113 48t43 107q0 107 -111 107zM1614 1450q-70 0 -113 -48.5t-43 -107.5q0 -106 111 -106q69 0 112 48t43 107q0 46 -28 76.5t-82 30.5z" />
    <glyph glyph-name="uni0E2C" unicode="&#xe2c;" horiz-adv-x="2163" 
d="M2028 1294l-230 -1294h-381l-229 573l-430 -573h-381l176 999q-152 0 -205 25q-135 61 -135 233q0 108 61 205q115 189 349 189q115 0 208 -58q107 -81 107 -213q0 -65 -8 -102l-144 -823l361 487h209l200 -487l127 725q-28 -10 -100 -25.5t-170 -15.5q-138 3 -233 69
t-95 205q51 300 418 307q132 0 224.5 -23.5t136 -52.5t49.5 -34q9 14 26.5 47.5t30.5 79.5q33 118 33 147h324q-6 -50 -30.5 -152t-76.5 -196q-51 -91 -86.5 -133.5t-105.5 -108.5zM569 1450q-71 0 -113 -48t-42 -108q0 -106 110 -106q70 0 113 48t43 107q0 107 -111 107z
M1479 1528q-61 -3 -104.5 -38.5t-43.5 -72.5q0 -65 123 -65q113 0 168.5 27.5t69.5 45.5q0 27 -43 65t-170 38z" />
    <glyph glyph-name="uni0E2D" unicode="&#xe2d;" horiz-adv-x="1696" 
d="M242 725q41 239 233 344q92 53 217 53q99 0 176 -43t99 -133q12 -42 12 -86q0 -113 -64 -208.5t-174 -135.5q-77 -29 -131 -29q-21 0 -43.5 2.5t-38.5 2.5l-12 -82q0 -16 -8 -58q0 -28 8 -45q17 -49 127 -49h315q66 0 127 61q34 38 50 144l127 733q8 42 8 61
q0 164 -303 164q-185 0 -269.5 -46.5t-99.5 -145.5l-4 -25h-324l9 53q31 180 216.5 285t503.5 105q305 0 456 -86t151 -283l-160 -905q-24 -150 -127 -258q-108 -115 -254 -115h-627q-166 0 -237 102q-33 54 -33 140q0 65 12 127zM668 934q-70 0 -113 -48t-43 -108
q0 -106 111 -106q69 0 112 48t43 107q0 47 -28.5 77t-81.5 30z" />
    <glyph glyph-name="uni0E2E" unicode="&#xe2e;" horiz-adv-x="1696" 
d="M1606 1298q-5 -54 -13 -86l-147 -839q-24 -150 -127 -258q-108 -115 -254 -115h-627q-166 0 -237 102q-33 54 -33 140q0 65 12 127l41 233q44 244 234 344q92 53 217 53q98 0 172.5 -43t97.5 -133q12 -42 12 -94q0 -110 -63.5 -203t-169.5 -133q-91 -33 -152 -33
q-26 0 -41 3.5t-20 5.5q-4 0 -4 -82q23 -29 139 -29h315q66 0 127 61q34 38 50 144l127 733v0q0 -1 -57.5 -30.5t-151.5 -54.5t-234 -30q-528 0 -528 238q46 315 700 328q155 0 249 -23t128 -39v0q1 0 23 27q22 29 39 71q14 33 22.5 60.5t9.5 34.5h353q-36 -132 -99 -242
q-30 -55 -64 -92.5t-50 -50.5q0 -2 2 -39t2 -56zM1184 1389q0 7 -77.5 28t-180.5 21q-58 0 -86 -4q-189 -20 -189 -95q0 -61 144 -61q194 0 284.5 41t104.5 70zM647 811q-71 0 -113 -48t-42 -108q0 -106 110 -106q68 0 112 48t44 108q0 46 -28.5 76t-82.5 30z" />
    <glyph glyph-name="uni0E2F" unicode="&#xe2f;" horiz-adv-x="1720" 
d="M848 -16l-103 229q205 0 299 90q24 21 37.5 59t22.5 98t10 64l94 553q0 -8 -56.5 -51t-154 -80t-231.5 -41q-204 0 -335.5 94.5t-131.5 278.5q3 140 102 249t267 115q115 0 174 -55.5t59 -140.5q0 -51 -24 -107q-46 -102 -134.5 -135t-144.5 -33q10 -16 50 -40.5
t118 -24.5q16 0 82 8q135 26 203 78t145 151q35 48 62 110.5t43.5 114.5t21.5 70q192 0 250 -94q24 -36 24 -86q0 -12 -20 -135l-147 -827q-30 -172 -79 -270.5t-184 -168.5q-155 -73 -319 -73zM668 1524q-59 0 -97.5 -41.5t-38.5 -89.5q0 -90 95 -90q59 0 97 40.5t38 90.5
q0 90 -94 90z" />
    <glyph glyph-name="uni0E30" unicode="&#xe30;" horiz-adv-x="1532" 
d="M934 328q91 57 137.5 192.5t46.5 184.5h279q-37 -214 -131.5 -357.5t-290.5 -225t-434 -81.5q-321 0 -414 156q-37 61 -37 139q0 76 33.5 155.5t95 139t137.5 82.5q68 20 131 20q120 0 195.5 -67t75.5 -211q-8 -75 -32 -121t-51 -69t-32 -27q152 0 291 90zM1085 1180
q64 40 104.5 121.5t60 165t20.5 89.5h278q-37 -213 -130.5 -356.5t-291.5 -224.5q-196 -82 -434 -82q-322 0 -413 156q-37 61 -37 143q0 117 75 227.5t187 145.5q75 20 131 20q119 0 194.5 -67.5t75.5 -210.5q-7 -72 -30.5 -119t-47.5 -69t-32 -29q151 0 290 90zM598 1401
q-70 0 -113 -48.5t-43 -107.5q0 -106 111 -106q68 0 112 48t44 107q0 107 -111 107zM451 549q-70 0 -113 -49.5t-43 -110.5q0 -102 106 -102q70 0 113 49.5t43 109.5q0 103 -106 103z" />
    <glyph glyph-name="uni0E31" unicode="&#xe31;" 
d="M250 2286q97 60 141 149t51 145h328q-19 -113 -142 -304t-435 -261q-211 -41 -390 -41q-327 0 -454 127q-58 58 -58 160q0 104 62.5 202.5t171.5 137.5q61 25 147 25q103 -3 175 -52t83 -141q0 -99 -24.5 -150.5t-40.5 -66.5h-1q0 -1 30 -4q35 -4 73 -4q157 0 283 78z
M-365 2454q-63 0 -101 -44t-38 -100q0 -94 98 -94q62 0 101 44t39 99q0 95 -99 95z" />
    <glyph glyph-name="uni0E32" unicode="&#xe32;" horiz-adv-x="1393" 
d="M762 0l209 1196q12 49 12 90q0 68 -48.5 101.5t-176.5 33.5q-157 0 -217.5 -52.5t-77.5 -156.5l-8 -61h-324l16 102q69 394 644 394q285 0 408.5 -71.5t123.5 -219.5q0 -20 -8 -78l-225 -1278h-328z" />
    <glyph glyph-name="uni0E33" unicode="&#xe33;" horiz-adv-x="1389" 
d="M-143 1905q-147 0 -227.5 84t-80.5 206q0 104 53 205.5t151.5 165.5t230.5 64q148 0 227.5 -84t79.5 -207q0 -104 -53 -206t-152.5 -165t-228.5 -63zM770 0l209 1196q12 49 12 90q0 68 -48.5 101.5t-176.5 33.5q-156 0 -216 -52.5t-79 -156.5l-8 -61h-324l17 102
q69 394 643 394q285 0 408.5 -71.5t123.5 -219.5q0 -20 -8 -78l-225 -1278h-328zM-53 2413q-74 0 -121 -52t-47 -116q0 -115 119 -115q74 0 121 52t47 116q0 50 -29.5 82.5t-89.5 32.5z" />
    <glyph glyph-name="uni0E34" unicode="&#xe34;" 
d="M8 1905h-1290l37 204q35 201 225.5 299.5t462.5 98.5q192 0 326 -50.5t201 -147.5t67 -232zM-266 2134q0 55 -63 108t-240 56q-319 0 -349 -160l-8 -49h652z" />
    <glyph glyph-name="uni0E35" unicode="&#xe35;" 
d="M-229 2433l41 238h327l-135 -766h-1290l37 204q35 201 225.5 299.5t462.5 98.5q167 0 241 -27.5t91 -46.5zM-270 2134q0 55 -63 108t-240 56q-319 0 -349 -160l-8 -49h651z" />
    <glyph glyph-name="uni0E36" unicode="&#xe36;" 
d="M53 1905h-1290l37 204q25 139 132.5 233.5t268.5 131.5q130 29 250 29q68 0 124 -6q46 -6 46 -7h-2q0 36 78 119q91 98 262 98q166 0 234 -98q45 -69 45 -147q0 -54 -33 -135q-43 -103 -168 -173v0q1 0 14 -31q14 -35 19 -83q0 -34 -8.5 -84.5zM-61 2531
q-64 0 -102 -42.5t-38 -100.5q0 -98 103 -98q65 0 102 42.5t37 100.5q0 41 -26.5 69.5t-75.5 28.5zM-520 2294q-325 0 -352 -156l-9 -49h652q0 9 -33.5 57t-98 92.5t-159.5 55.5z" />
    <glyph glyph-name="uni0E37" unicode="&#xe37;" 
d="M-475 2499l29 172h233l-37 -205l115 -53l45 258h233l-135 -766h-1290l37 204q21 131 121.5 227t263.5 134q152 37 282 37q42 0 68 -3t35 -5zM-266 2134q0 55 -63 108t-240 56q-319 0 -349 -160l-8 -49h652z" />
    <glyph glyph-name="uni0E38" unicode="&#xe38;" 
d="M-766 -774q-164 0 -225 45q-82 58 -82 172q0 122 98 233q97 103 270 103q78 0 115 -17q184 -67 184 -270q0 -28 -8 -94l-86 -492h-323zM-754 -369q-71 0 -115 -48t-44 -107q0 -107 114 -107q70 0 113 48t43 108q0 46 -28.5 76t-82.5 30z" />
    <glyph glyph-name="uni0E39" unicode="&#xe39;" 
d="M-1335 -815q-148 0 -225.5 63.5t-77.5 223.5q22 129 129.5 216t275.5 87q262 -18 262 -279q-16 -110 -28.5 -193t-20.5 -139h229q34 186 51 283.5t56 314.5h328q-37 -202 -67 -375t-77 -436h-876q6 39 16.5 97.5zM-1307 -401q-68 0 -109.5 -47.5t-41.5 -104.5
q0 -102 106 -102q67 0 109.5 47.5t42.5 103.5q0 103 -107 103z" />
    <glyph glyph-name="uni0E3A" unicode="&#xe3a;" 
d="M-680 -696q-92 0 -142 52.5t-50 131.5q0 103 76.5 188.5t197.5 85.5q95 0 143.5 -52.5t48.5 -131.5q0 -104 -76 -189t-198 -85z" />
    <glyph glyph-name="glyph190" horiz-adv-x="909" 
d="M0 0v8l8 -8h-8z" />
    <glyph glyph-name="glyph191" horiz-adv-x="909" 
d="M639 -397l20 139h-454l-20 -139h-164l73 389h778l-73 -389h-160z" />
    <glyph glyph-name="uni0E3F" unicode="&#xe3f;" horiz-adv-x="1761" 
d="M1155 1638q76 0 184.5 -24t205.5 -112t97 -257q-16 -142 -87.5 -236t-178 -138t-225.5 -44q160 0 256 -90t96 -278q-32 -214 -172 -313.5t-288 -120.5t-179 -25l-41 -221h-164l41 221h-507l290 1638h508l37 230h164zM737 205l90 524h-204l-91 -524h205zM954 1450h-204
l-95 -532h205zM1028 926q64 1 169.5 54.5t137.5 223.5q0 144 -68.5 193t-148.5 49zM901 201q61 0 161 52t130 222q0 139 -75.5 189.5t-125.5 56.5z" />
    <glyph glyph-name="uni0E40" unicode="&#xe40;" horiz-adv-x="1028" 
d="M733 1638l-180 -1003q152 0 205 -25q135 -61 135 -233q0 -105 -62 -205q-113 -188 -348 -188q-112 0 -204 57q-111 79 -111 217q0 61 8 98l230 1282h327zM537 184q69 0 112 48t43 108q0 46 -28.5 76t-81.5 30q-70 0 -113 -47t-43 -108q0 -107 111 -107z" />
    <glyph glyph-name="uni0E41" unicode="&#xe41;" horiz-adv-x="1901" 
d="M1622 1638l-180 -1003q151 0 205 -25q135 -61 135 -233q0 -105 -62 -205q-114 -188 -348 -188q-112 0 -205 57q-110 80 -110 217q0 61 8 98l229 1282h328zM762 1638l-180 -1003q151 0 204 -25q136 -61 136 -233q0 -105 -62 -205q-114 -188 -348 -188q-113 0 -205 57
q-110 79 -110 217q0 61 8 98l229 1282h328zM565 184q70 0 113 48t43 108q0 46 -28.5 76t-82.5 30q-71 0 -113 -47t-42 -108q0 -107 110 -107zM1425 184q70 0 113 48t43 108q0 46 -28.5 76t-82.5 30q-71 0 -113 -47t-42 -108q0 -107 110 -107z" />
    <glyph glyph-name="uni0E42" unicode="&#xe42;" horiz-adv-x="1192" 
d="M979 2228l-283 -1593q152 0 205 -25q135 -61 135 -233q0 -107 -61 -205q-114 -188 -348 -188q-113 0 -205 57q-111 79 -111 217q0 61 8 98l328 1848q0 72 -35 105.5t-108 53.5q-119 33 -262 33q1 5 20 69.5t60 138.5t120.5 149t192.5 118q150 58 270 58
q101 0 280.5 -53.5t293.5 -61.5q67 0 110.5 19.5t65.5 40t37 34.5l61 -221v0q0 -2 -33 -25q-36 -26 -93.5 -47t-135.5 -22q-58 0 -109 13.5t-159.5 50t-174.5 54t-135 17.5q-65 0 -114 -16q-85 -29 -127 -81.5t-54 -82.5q78 0 246 -86q123 -61 123 -160q0 -24 -8 -74z
M680 184q68 0 112 48t44 108q0 46 -28.5 76t-82.5 30q-70 0 -113 -48t-43 -107q0 -107 111 -107z" />
    <glyph glyph-name="uni0E43" unicode="&#xe43;" horiz-adv-x="1319" 
d="M750 1843q31 176 139 320q147 183 147 389q0 172 -151 201q-66 8 -90 8q-107 0 -179 -46t-106.5 -100t-34.5 -67v0q0 1 26 8q30 8 60 8q66 0 135 -41q74 -44 74 -160q0 -168 -127 -254q-90 -57 -188 -57q-108 0 -181 74.5t-73 191.5q15 273 184 450.5t442 192.5
q218 0 353 -72t168 -202q16 -55 16 -123q0 -197 -143 -397q-115 -170 -140 -316l-217 -1216q152 0 205 -25q135 -61 135 -233q0 -107 -61 -205q-114 -188 -348 -188q-113 0 -205 57q-111 79 -111 217q0 61 8 98zM524 2417q-59 0 -93 -40t-34 -91q0 -86 90 -86q59 0 93 39.5
t34 91.5q0 86 -90 86zM848 184q68 0 112 48t44 108q0 46 -28.5 76t-82.5 30q-70 0 -113 -48t-43 -107q0 -107 111 -107z" />
    <glyph glyph-name="uni0E44" unicode="&#xe44;" horiz-adv-x="1278" 
d="M815 635q152 0 205 -25q135 -61 135 -233q0 -107 -61 -205q-114 -188 -349 -188q-112 0 -204 57q-111 79 -111 217q0 61 8 98l283 1598q22 124 131 291q131 219 131 299q0 32 -25 45q-16 8 -28 8q-22 0 -46 -22.5t-69.5 -81t-64.5 -80.5q-102 -124 -157 -179t-110 -55
q-52 4 -70.5 46.5t-44.5 159.5t-61 195q-18 37 -102 37l127 349q122 0 168 -82q23 -41 36.5 -144.5t20.5 -133.5t37 -34q36 0 127.5 104t181 172t223.5 68q177 -30 177 -200q0 -53 -17 -111q-22 -106 -96.5 -262.5t-87.5 -188.5q-36 -97 -53 -204zM799 184q69 0 112 48
t43 108q0 45 -28 75.5t-82 30.5q-70 0 -113 -47t-43 -108q0 -107 111 -107z" />
    <glyph glyph-name="uni0E45" unicode="&#xe45;" horiz-adv-x="1466" 
d="M709 -672l327 1868q8 50 8 74q0 75 -54.5 113t-198.5 38q-171 0 -236 -52.5t-84 -156.5l-8 -61h-324l17 102q33 182 198.5 286.5t468.5 107.5q566 0 566 -295q0 -18 -9 -74l-344 -1950h-327z" />
    <glyph glyph-name="uni0E46" unicode="&#xe46;" horiz-adv-x="2413" 
d="M1139 1188v0q0 1 27 6q31 6 59 6q107 0 168 -90q24 -37 24 -90q0 -101 -75.5 -192.5t-194.5 -102.5q-328 0 -328 324q0 125 53 254q58 140 174 231.5t265 112.5l213 -148l278 148q168 0 266 -91q107 -96 107 -233q0 -69 -16 -127l-168 -963q-34 -199 -57 -302.5t-77 -210
t-153 -191.5q-122 -105 -227 -142.5t-142 -37.5l-164 225q28 0 135.5 37t168.5 90q73 62 103 129.5t48 173.5l209 1184q8 58 8 82q0 49 -16 82q-17 35 -42 56.5t-32 21.5l-270 -156l-205 143q-11 0 -50 -25t-61 -73q-28 -66 -28 -131zM1184 1073q-56 0 -89.5 -37.5
t-33.5 -85.5q0 -82 86 -82q54 0 88.5 38.5t34.5 84.5q0 82 -86 82z" />
    <glyph glyph-name="uni0E47" unicode="&#xe47;" 
d="M-438 2154q0 119 41 189q84 127 245 127q88 0 152 -45q74 -56 74 -160q0 -75 -41 -146t-115 -116q-89 -57 -225 -57q-125 0 -221 41q-49 21 -102.5 66t-65.5 65l-201 -164h-348l45 246q42 251 143 364q76 81 190 119t233 47.5t302 9.5q173 0 274 34t150 78q40 37 40 43
q0 1 -1 1l94 -164v0q0 -3 -27 -31q-30 -31 -84 -65.5t-134 -55.5q-94 -24 -230 -24q-34 0 -101 2t-100 2q-201 0 -303 -66q-119 -73 -147 -340l237 181q30 -49 103 -107q59 -52 123 -74zM-168 2339q-62 0 -98.5 -43t-36.5 -96q0 -91 94 -91q60 0 97.5 43t37.5 97
q0 37 -23.5 63.5t-70.5 26.5z" />
    <glyph glyph-name="glyph201" 
d="M-143 2814l98 557l328 4l-99 -569z" />
    <glyph glyph-name="glyph202" 
d="M-53 2966q-150 0 -201 69q-25 33 -25 103q0 134 111 229q81 70 201 70q154 0 200 -95q29 -51 29 -114q0 -100 -55 -180.5t-92 -114.5q127 0 254 65q103 60 149.5 160t50.5 188h246q0 -36 -43 -155t-137 -221q-83 -92 -210 -146t-269 -63q-156 -8 -213 -8q-80 0 -137 3
t-80 5l24 131q74 0 115 12q20 7 45 28.5t37 33.5zM4 3293q-54 0 -86.5 -37.5t-32.5 -85.5q0 -78 82 -78q52 0 85.5 38.5t33.5 84.5q0 78 -82 78z" />
    <glyph glyph-name="glyph203" 
d="M-336 3158q8 1 36.5 2.5t82.5 1.5q53 -12 84 -54t31 -97q0 -74 -62 -160q-68 -86 -192 -86q-125 0 -185 74q-41 47 -41 143q0 113 59.5 225.5t166.5 155.5q61 24 110 24q48 0 82.5 -15.5t58.5 -36.5q23 -20 23 -21v0q8 16 55 46.5t113 30.5q90 -3 125 -66t35 -196
q-12 -71 -49 -143q-34 -66 -37 -66v0q5 3 26.5 16t44.5 33.5t43 57.5q44 80 54.5 122t36.5 185q15 87 46 145q27 49 30 49q1 0 1 -1h205q-15 -9 -43 -41.5t-47 -102.5q-25 -103 -43 -174t-43.5 -136t-69.5 -132q-108 -168 -467 -168q49 39 86 172q41 169 41 209q0 80 -53 86
q-25 0 -69.5 -24t-44.5 -29q-12 12 -45.5 30.5t-86.5 18.5q-49 -5 -71 -32.5t-27 -45.5zM-303 3060q-48 0 -75.5 -33t-27.5 -74q0 -69 70 -69q48 0 75.5 32.5t27.5 73.5q0 70 -70 70z" />
    <glyph glyph-name="glyph204" 
d="M205 2990l-37 -205h-328l37 205h-295l33 201h295l37 205h327l-36 -205h294l-32 -201h-295z" />
    <glyph glyph-name="glyph205" 
d="M131 3031q53 -53 53 -135q0 -20 -8 -70q-56 -250 -356 -250q-107 7 -162 68.5t-55 153.5q0 74 37 147q43 87 111 131.5t133 57.5t193 27.5t202 33.5q86 24 126 73.5t50 77.5l90 -155q-50 -99 -164 -123q-173 -37 -250 -37zM-82 2957q-59 0 -97 -42t-38 -93q0 -90 94 -90
q58 0 96.5 42.5t38.5 92.5q0 90 -94 90z" />
    <glyph glyph-name="uni0E4D" unicode="&#xe4d;" 
d="M-389 1905q-147 0 -227 84.5t-80 205.5q0 104 52.5 205.5t151 165.5t230.5 64q148 0 227.5 -84t79.5 -207q0 -104 -53 -206t-152.5 -165t-228.5 -63zM-299 2413q-74 0 -121 -52t-47 -116q0 -115 119 -115q74 0 121 52t47 116q0 50 -29.5 82.5t-89.5 32.5z" />
    <glyph glyph-name="uni0E4E" unicode="&#xe4e;" 
d="M12 2048q-129 -94 -348 -94q-160 0 -213 65q-33 40 -33 103q0 117 95 205q136 127 360 127q-61 4 -114.5 38.5t-53.5 92.5q0 7 8 41q70 174 385 217q33 4 95 4q124 0 192 -33l-115 -78q-6 1 -39 9.5t-63 11.5q-38 0 -86 -13q-140 -36 -168 -139q0 -64 52.5 -95.5
t123.5 -31.5l-61 -94q-176 0 -295 -82q-86 -58 -86 -143q0 -24 16 -50q30 -45 103 -45q103 0 167 58z" />
    <glyph glyph-name="uni0E4F" unicode="&#xe4f;" horiz-adv-x="2089" 
d="M942 0q-228 0 -383 89t-230 238t-75 332q0 234 120 461.5t343.5 372.5t515.5 145q228 0 383 -89t230 -238t75 -332q0 -234 -120 -461.5t-344 -372.5t-515 -145zM1212 1528q-253 0 -445 -125.5t-295 -322t-103 -400.5q0 -157 64.5 -286t198.5 -206t331 -77
q252 0 444.5 125.5t295.5 321.5t103 400q0 246 -150.5 408t-443.5 162zM1004 352q-193 0 -293.5 107.5t-100.5 269.5q0 132 67.5 262t195 212.5t294.5 82.5q193 0 293.5 -107.5t100.5 -269.5q0 -211 -154.5 -384t-402.5 -173z" />
    <glyph glyph-name="uni0E50" unicode="&#xe50;" horiz-adv-x="1843" 
d="M1020 1184q305 0 472 -129.5t167 -354.5q0 -56 -12 -118q-33 -185 -143 -322t-287.5 -211t-409.5 -74q-314 4 -476.5 130.5t-162.5 353.5q0 55 12 123q50 278 270.5 440t569.5 162zM492 578q-9 -52 -9 -82q0 -138 91 -225t262 -87q210 0 339 109.5t160 284.5q8 56 8 86
q0 307 -360 307q-209 0 -336 -109t-155 -284z" />
    <glyph glyph-name="uni0E51" unicode="&#xe51;" horiz-adv-x="1839" 
d="M770 213q-147 19 -147 221q15 100 97 167t202 67q94 -3 145.5 -60.5t54.5 -144.5q0 -47 -20 -115q-24 -87 -96.5 -169.5t-186 -134.5t-258.5 -52q-188 9 -296.5 117t-108.5 301q0 79 16 155q28 135 94 244.5t172 190t253 124t329 43.5q333 0 490 -134t157 -361
q0 -37 -8 -111q-22 -161 -100 -305.5t-190 -250.5t-230 -157l-152 136q49 16 112 55t142 165.5t107 356.5q0 208 -80.5 311.5t-280.5 106.5q-201 0 -340 -115.5t-184 -302.5q-12 -55 -12 -123q4 -115 52.5 -192.5t151.5 -77.5q28 1 47 6t32.5 14.5t35.5 24.5zM889 537
q-59 0 -93 -40t-34 -91q0 -87 90 -87q58 0 92.5 40t34.5 92q0 37 -23 61.5t-67 24.5z" />
    <glyph glyph-name="uni0E52" unicode="&#xe52;" horiz-adv-x="2114" 
d="M1073 737q38 17 78 17q61 0 127 -45q45 -34 45 -111q0 -73 -40.5 -142t-111.5 -96q-61 -24 -114 -24q-106 0 -172 80t-66 219q0 74 17 143q88 367 364 385q112 0 155.5 -49t49.5 -82q0 25 81 78t206 53q114 -6 175.5 -75.5t61.5 -182.5q0 -28 -8 -78l-78 -430
q-30 -186 -127 -278q-119 -119 -286 -119h-803q-169 0 -267 102q-65 72 -65 197q0 66 8 102l127 709q2 16 7 55t5 60q0 85 -41 131q-77 90 -241 90l217 237q152 -5 287 -127q106 -106 106 -274q0 -85 -16 -168l-115 -639q-2 -25 -11.5 -63.5t-9.5 -59.5q0 -24 13 -57
q40 -82 131 -82h504q114 0 180 53q58 42 74 140l73 409q9 56 9 78q0 78 -50 78q-53 0 -83.5 -35.5t-30.5 -79.5h-148q0 111 -86 111q-78 -5 -110 -103q-21 -69 -21 -127zM1135 639q-50 0 -80.5 -35.5t-30.5 -79.5q0 -73 74 -73q49 0 79.5 35.5t30.5 78.5q0 74 -73 74z" />
    <glyph glyph-name="uni0E53" unicode="&#xe53;" horiz-adv-x="1876" 
d="M475 -16q-160 6 -241.5 121.5t-81.5 300.5q0 53 16 167q41 270 190 432t367 162q143 -3 195.5 -56t87.5 -173q69 116 154.5 172.5t226.5 56.5q299 0 299 -303q0 -62 -13 -135l-127 -729h-319l131 737q8 42 8 66q0 123 -94 123q-135 -5 -172 -221l-25 -156h-274l24 156
q0 225 -118 225q-153 -6 -205 -271q-8 -57 -8 -122q0 -30 4 -48q3 -15 4 -15v1q9 4 31.5 10.5t58.5 6.5q32 0 86 -13q139 -37 139 -184q0 -17 -8 -57q-22 -113 -109 -183.5t-227 -70.5zM573 348q-58 0 -96.5 -41t-38.5 -90q0 -90 94 -90q58 0 97 41t39 90q0 90 -95 90z" />
    <glyph glyph-name="uni0E54" unicode="&#xe54;" horiz-adv-x="1913" 
d="M1196 287q52 -19 115.5 -27.5t101.5 -17.5q69 -14 112 -52q37 -33 37 -37q0 -1 -1 -1l-160 -168q-16 16 -71 41t-159 28q-93 0 -285.5 -34.5t-287.5 -34.5q-136 0 -233 49q-213 106 -213 356q0 78 8 123q23 165 97 299.5t179.5 219t227.5 112.5q126 28 245 28
q82 0 220 -14t198 -14q81 0 148 16q145 39 217.5 163.5t117.5 315.5l230 -139q-29 -157 -121.5 -296.5t-235.5 -207.5q-129 -57 -294 -57q-70 0 -203 9.5t-178 10.5q-472 0 -533 -421q0 -177 48.5 -267t172.5 -90q57 0 135 25q107 33 140 33q-16 0 -73 31.5t-105 100.5
t-48 175q15 103 88.5 190.5t223.5 87.5q196 0 196 -225q-17 -103 -73 -148t-90 -53q4 -12 12.5 -31t30 -41.5t63.5 -37.5zM1028 692q-53 0 -86 -37t-33 -82q0 -77 82 -77q53 0 86 37t33 81q0 78 -82 78z" />
    <glyph glyph-name="uni0E55" unicode="&#xe55;" horiz-adv-x="1974" 
d="M971 238q-16 0 -73 31.5t-105 100.5t-48 175q15 103 88.5 190.5t223.5 87.5q196 0 196 -225q-17 -103 -73 -148t-90 -53q4 -12 12.5 -31t30 -41.5t63.5 -37.5q52 -19 115.5 -27.5t101.5 -17.5q69 -14 112 -52q37 -33 37 -37q0 -1 -1 -1l-160 -168q-27 17 -89 43t-141 26
q-58 0 -120.5 -9t-180.5 -32t-168 -30t-112 -7q-132 0 -225 50q-213 102 -213 364q0 82 8 127q66 483 446 602q180 53 328 53q-16 13 -41 51t-25 97q0 64 33 131q100 205 361 205q224 -6 249 -189q0 -93 -21.5 -141.5t-35.5 -62.5q115 0 184 17.5t119 72.5q68 69 98.5 162.5
t36.5 140.5l242 -131q-11 -33 -30.5 -80t-61 -114t-100.5 -118q-188 -163 -467 -163q-72 0 -142 12q-60 10 -60 12h1q-14 -20 -75.5 -52.5t-190.5 -37.5q-258 -8 -377.5 -124.5t-151.5 -317.5q-4 -29 -4 -86q0 -279 221 -279q70 0 131 21q142 41 144 41zM1028 692
q-53 0 -86 -37t-33 -82q0 -77 82 -77q53 0 86 37t33 81q0 78 -82 78zM1217 1503q-73 0 -118.5 -50.5t-45.5 -113.5q0 -106 114 -106q73 0 118.5 50.5t45.5 113.5q0 46 -29 76t-85 30z" />
    <glyph glyph-name="uni0E56" unicode="&#xe56;" horiz-adv-x="1946" 
d="M1249 242q105 61 161 193.5t56 285.5q-31 278 -385 278q-280 -6 -454 -192h-160q12 0 12 192q0 193 -49 295q-72 140 -142.5 187t-103.5 51l295 176q2 -2 43.5 -38t83.5 -98.5t70 -150.5q37 -110 37 -250q0 -106 -8 -114q5 3 65.5 37t167.5 60t254 26q15 0 46 -2t48 -2
q262 -17 379 -150t117 -321q0 -203 -99 -361q-126 -205 -292 -280.5t-433 -75.5q-520 0 -520 381q12 120 99.5 211.5t232.5 91.5q197 0 197 -262q-20 -89 -68 -135t-76 -58v0q0 -1 59 -19q63 -19 134 -22q117 0 233 66zM733 541q-60 0 -95.5 -40.5t-35.5 -90.5q0 -91 94 -91
q58 0 94.5 40.5t36.5 91.5q0 90 -94 90z" />
    <glyph glyph-name="uni0E57" unicode="&#xe57;" horiz-adv-x="2204" 
d="M455 418h-1q0 3 46 23q54 22 110 22q60 0 111 -29q82 -40 82 -160q0 -98 -66.5 -181.5t-187.5 -100.5q-397 0 -397 450q0 44 8 136q28 229 166 402.5t346 182.5q89 0 147 -25t85.5 -59t38 -66.5t11.5 -37.5q21 45 88.5 114.5t190.5 77.5q356 0 356 -385
q-17 -237 -84 -354.5t-108 -148.5q12 3 64 21.5t119.5 85t127.5 192.5q56 121 85 223t62 266t58 260q35 137 90.5 225t104 128.5t59.5 48.5l221 -156q-32 -11 -92 -72.5t-101 -210.5q-13 -49 -66 -272t-101 -349t-140 -255q-119 -168 -258.5 -261.5t-294.5 -127t-348 -33.5
v0q2 0 47 58q46 60 107.5 173t120.5 277q45 129 45 274q0 201 -115 201q-64 -4 -109.5 -75.5t-70.5 -153t-25 -95.5h-188v0q1 0 6 42q6 47 6 89q0 188 -111 193q-76 0 -137.5 -79t-87.5 -183q-29 -115 -29 -209q0 -35 4.5 -60.5zM578 336q-56 0 -89.5 -40t-33.5 -87
q0 -86 86 -86q53 0 88 39.5t35 87.5q0 86 -86 86z" />
    <glyph glyph-name="uni0E58" unicode="&#xe58;" horiz-adv-x="1950" 
d="M1364 242q-43 0 -111.5 46.5t-68.5 178.5q12 73 54.5 134t106 96.5t138.5 35.5q58 0 102 -16q139 -41 139 -205q0 -167 -122 -319q-163 -201 -390 -201q-36 0 -110 16q-65 20 -107 50t-90 79.5t-78 72.5t-69 23q-64 -5 -83.5 -91t-19.5 -142h1q0 -1 -35 -6q-40 -6 -80 -6
q-254 0 -357 221q-37 82 -37 197q0 222 118 433.5t337 282.5q133 41 283 41q55 0 169 -8t179 -8q84 0 176 12q150 25 243.5 149t134 253.5t40.5 158.5l237 -180q-28 -110 -138 -297.5t-333 -259.5q-110 -37 -258 -37q-68 0 -187.5 10.5t-184.5 10.5q-113 0 -201 -29
q-217 -74 -279 -397q-12 -67 -12 -119q0 -88 23 -126.5t38 -45.5q0 38 70 147.5t180 114.5q61 0 101.5 -28t90 -95t87.5 -109.5t110 -86.5q36 -21 74 -21q33 0 57.5 14.5t42 34.5t19.5 21zM1466 602q-62 0 -98.5 -43t-36.5 -96q0 -90 94 -90q62 0 99 42t37 97q0 38 -24 64
t-71 26z" />
    <glyph glyph-name="uni0E59" unicode="&#xe59;" horiz-adv-x="2154" 
d="M659 197q-77 52 -77 163q0 45 20 107q63 184 262 184q180 -5 180 -196q0 -66 -28 -152q-51 -147 -166 -229t-281 -82q-195 6 -306 129.5t-111 329.5q0 87 16 163q48 226 204 377t349 176q92 9 115 9q243 0 336 -110.5t106 -184.5q0 58 33 154t131 124q40 8 57 8
q56 0 145 -34.5t130 -34.5q11 0 45 8q60 20 85.5 102t53.5 234q29 172 29 287l262 -111q-6 -65 -33.5 -203.5t-103 -295.5t-199.5 -210q-61 -24 -115 -24q-56 0 -129.5 28.5t-103.5 28.5q-31 0 -54 -16q-94 -63 -94 -275q0 -62 13 -114q75 -271 212 -340l-188 -205
q-43 15 -121.5 108.5t-124.5 325.5q-30 164 -69.5 284.5t-118.5 200.5t-209 80q-140 -5 -221.5 -108.5t-114.5 -239.5q-29 -125 -29 -225q0 -141 70 -205q42 -37 82 -37q21 0 41 10.5zM836 524q-53 0 -86 -45t-33 -98q0 -86 78 -86q51 0 84.5 43t33.5 96q0 37 -19.5 63.5
t-57.5 26.5z" />
    <glyph glyph-name="uni0E5A" unicode="&#xe5a;" horiz-adv-x="2097" 
d="M668 -16l-103 229q205 0 299 90q24 21 37.5 59t22.5 98t10 64l94 553q0 -11 -39 -52t-123 -78.5t-219 -41.5q-204 0 -335.5 94.5t-131.5 278.5q3 140 102 249t267 115q115 0 174 -55.5t59 -140.5q0 -51 -24 -107q-47 -102 -134.5 -135t-144.5 -33q10 -16 50 -40.5
t118 -24.5q16 0 82 8q90 17 137.5 48t77 74.5t72.5 106.5q35 48 62 110.5t43.5 114.5t21.5 70q191 0 250 -94q24 -36 24 -86q0 -12 -20 -135l-148 -827q-30 -175 -78 -272t-184 -167q-156 -73 -319 -73zM549 1524q-60 0 -97.5 -41t-37.5 -90q0 -90 94 -90q59 0 97 40.5
t38 90.5q0 90 -94 90zM2150 1573l-192 -1086q-30 -172 -79 -270t-183 -168q-156 -74 -320 -74l-102 230q205 0 299 90q41 38 65 221l193 1094q12 1 42 3q30 1 69 1q208 0 208 -41z" />
    <glyph glyph-name="uni0E5B" unicode="&#xe5b;" horiz-adv-x="3224" 
d="M684 16q-157 0 -294 63t-218.5 182t-81.5 271q2 245 86.5 450t250.5 339.5t400 173.5q50 8 78 8q136 0 250.5 -50.5t163.5 -84.5l-45 -180q-4 0 -60 40.5t-138.5 71.5t-198.5 31q-54 0 -86 -4q-138 -16 -257.5 -130t-189.5 -277.5t-70 -321.5q0 -181 101.5 -297.5
t312.5 -116.5q169 0 301 89.5t216 202t154 232t87 119.5q13 0 60 -99t76 -151t56 -53q19 0 53 38t89 110.5t93.5 115t59.5 43.5q30 0 56.5 -63t56.5 -159.5t39 -96.5t96 102.5t135.5 155.5t71.5 53q32 0 90.5 -135t95.5 -198.5t105 -63.5q11 0 37 8q126 44 198.5 131.5
t109 179l36.5 91.5h147q-24 -76 -79 -206.5t-113 -183.5q-186 -167 -336 -167q-107 0 -179 72t-114 164q-39 83 -39 90v1q-53 -63 -148 -164t-143 -118q-35 0 -65.5 44t-57 108.5t-53.5 133.5q-60 -69 -161 -173.5t-130 -104.5q-54 23 -147 233q-7 0 -66 -93.5t-146 -192.5
t-226 -177t-320 -86z" />
    <glyph glyph-name="glyph221" 
d="M-872 -1454q-164 0 -226 45q-78 60 -78 172q0 129 99 233q90 103 270 103q135 0 217 -79t82 -208l-74 -463h-323zM-856 -1049q-70 0 -115 -50.5t-45 -108.5q0 -103 111 -103q69 0 112 49t43 107q0 106 -106 106z" />
    <glyph glyph-name="glyph222" 
d="M-1442 -1511q-145 0 -222 64t-77 222q21 130 128.5 216.5t277.5 86.5q262 -16 262 -278q-6 -52 -15 -110.5t-14 -98.5h230q18 106 29 171.5t22.5 131.5t29.5 172h328q-21 -114 -41 -229t-41 -230t-41 -229h-876q5 22 11 59t9 52zM-1413 -1098q-68 0 -110 -48t-42 -103
q0 -103 107 -103q66 0 108.5 47.5t42.5 104.5q0 43 -26.5 72.5t-79.5 29.5z" />
    <glyph glyph-name="glyph223" 
d="M-774 -1335q-93 0 -143 53.5t-50 130.5q0 103 76.5 188.5t198.5 85.5q95 0 143.5 -52.5t48.5 -131.5q0 -104 -76 -189t-198 -85z" />
    <glyph glyph-name="exclamdown" unicode="&#xa1;" horiz-adv-x="909" 
d="M408 -458h-315l72 406l213 786h168l-66 -786zM483 913q-42 0 -75 13t-56 36t-35.5 54.5t-12.5 68.5q0 48 19.5 93.5t53.5 81.5t81 57.5t101 21.5q44 0 77.5 -13t56 -36.5t34 -54.5t11.5 -67q0 -50 -19 -96.5t-53 -81.5t-81 -56t-102 -21z" />
    <glyph glyph-name="cent" unicode="&#xa2;" horiz-adv-x="1375" 
d="M947 979l-349 -728l84 -3q43 0 80.5 19t69.5 52t59 77.5t50 95.5l321 -58q-188 -464 -673 -464q-27 0 -57 2.5t-63 7.5l-225 -466l-138 41l220 463q-251 129 -251 448q0 42 4.5 86.5t12.5 92.5q117 665 804 665q16 -2 27 -4t18 -3l218 454l140 -42l-214 -447
q213 -89 244 -366l-345 -59v6q0 78 -37 130zM816 1042l-28 2q-279 0 -346 -382q-15 -84 -15 -151q0 -118 47 -186z" />
    <glyph glyph-name="sterling" unicode="&#xa3;" horiz-adv-x="1375" 
d="M1141 344l81 -287q-183 -85 -348 -85q-32 0 -77.5 7.5t-97 19t-105.5 24.5t-103 24.5t-90 19t-67 7.5q-147 0 -320 -104l-77 292q289 183 331 418l6 70h-251l47 266h190q-6 34 -8.5 68t-2.5 69q0 79 12.5 148.5t40.5 131.5t72 117.5t106 105.5q180 144 433 144
q469 0 469 -441v-25l-337 -48v11q0 231 -191 231q-53 0 -98 -20t-79.5 -52t-57 -72.5t-29.5 -80.5q-9 -51 -9 -108q0 -44 4.5 -88.5t14.5 -90.5h375l-47 -266h-319l-8 -53q-14 -88 -78.5 -183.5t-173.5 -204.5q33 12 70 23t82 11h10q10 0 11 -1l75 -6q10 -1 33.5 -6.5
t60.5 -15.5q139 -37 193 -37q102 0 257 67z" />
    <glyph glyph-name="currency" unicode="&#xa4;" horiz-adv-x="1375" 
d="M290 1135l-131 159l239 214l134 -165q131 71 276 71q144 0 251 -71l190 163l167 -203l-189 -161q30 -84 30 -171q0 -97 -32 -187.5t-92 -168.5l135 -160l-237 -206l-137 163q-154 -68 -274 -68q-145 0 -249 68l-185 -159l-169 203l185 159q-31 78 -31 173q0 100 32.5 189
t86.5 158zM471 878q-2 -14 -3.5 -26t-1.5 -24q0 -46 18.5 -82t48 -61t66.5 -38t73 -13q48 0 99 20.5t94 58t70.5 90.5t27.5 118q0 43 -15 80t-42.5 64t-65 42t-82.5 15q-58 0 -107 -21.5t-86.5 -56.5t-61.5 -78.5t-32 -87.5z" />
    <glyph glyph-name="yen" unicode="&#xa5;" horiz-adv-x="1375" 
d="M444 329h-449l47 268h449l26 144h-449l47 266h316l-240 762h371l150 -514q15 -51 22.5 -93t13.5 -77q16 37 39.5 79t55.5 91l337 514h371l-514 -762h320l-47 -266h-455l-26 -144h455l-47 -268h-455l-58 -329h-338z" />
    <glyph glyph-name="brokenbar" unicode="&#xa6;" horiz-adv-x="691" 
d="M238 846l169 954h269l-169 -954h-269zM-3 -519l168 953h269l-168 -953h-269z" />
    <glyph glyph-name="section" unicode="&#xa7;" horiz-adv-x="1375" 
d="M1312 1393l-339 -35q2 14 3.5 26.5t1.5 23.5q0 133 -157 133q-88 0 -134 -34t-46 -103q0 -24 7 -45t32.5 -48.5t76 -66.5t136.5 -100q106 -75 178.5 -135.5t117.5 -116.5t65 -111t20 -118q0 -275 -292 -456q98 -113 98 -242q0 -98 -43.5 -185.5t-122 -154t-189 -105.5
t-244.5 -39q-482 0 -482 410q0 7 0.5 14t0.5 14l337 38q6 -218 198 -218q45 0 82 10.5t63.5 31.5t41.5 52t15 73q0 27 -10 49.5t-42.5 52.5t-94 75.5t-165.5 119.5q-108 77 -176 138t-107 115.5t-53.5 107t-14.5 111.5q0 79 21 148.5t60 128t93.5 106t122.5 82.5
q-78 109 -78 219q0 90 42 170t116.5 140.5t177 95.5t223.5 35q460 0 460 -404v-3zM825 353q66 51 101.5 98.5t35.5 92.5q0 40 -35 91t-108 112l-287 238q-135 -83 -135 -198q0 -54 30.5 -101.5t93.5 -95.5z" />
    <glyph glyph-name="dieresis" unicode="&#xa8;" horiz-adv-x="979" 
d="M205 1442l52 292h292l-52 -292h-292zM744 1442l52 292h292l-52 -292h-292z" />
    <glyph glyph-name="copyright" unicode="&#xa9;" horiz-adv-x="1820" 
d="M1108 1805q108 0 208 -25t186.5 -72t157.5 -114t121.5 -150t78 -181t27.5 -207q0 -242 -102.5 -448t-297.5 -376q-317 -276 -706 -276q-108 0 -207.5 25.5t-185.5 73t-156.5 115t-121 151t-78 181t-27.5 205.5q0 145 41.5 282.5t116 259.5t177.5 224t225.5 176t260.5 115
t282 41zM1076 1623q-114 0 -224 -32.5t-208.5 -91.5t-181.5 -141t-143 -180t-94 -209.5t-34 -229.5q0 -131 48.5 -241t133 -189.5t198 -124.5t242.5 -45q114 0 224.5 33.5t209 93.5t182 142.5t144 180.5t94.5 208t34 224q0 131 -48.5 241.5t-133 190.5t-198.5 125t-245 45z
M1145 743l183 -65q-152 -314 -460 -314q-75 0 -145.5 21.5t-125 66t-88 114t-33.5 165.5q0 158 47.5 281t127 208t183.5 129t218 44q299 0 350 -293l-203 -47q-33 169 -185 169q-68 0 -126.5 -29.5t-102 -88t-68.5 -146t-25 -203.5q0 -217 185 -217q171 0 268 205z" />
    <glyph glyph-name="ordfeminine" unicode="&#xaa;" horiz-adv-x="915" 
d="M450 1512l-221 44q96 244 409 244q99 0 162.5 -11t100.5 -36.5t51 -66t14 -99.5q0 -67 -13 -129l-51 -288q-21 -117 -21 -183q0 -42 11 -69h-229q-5 16 -8 37.5t-5 47.5q-128 -107 -280 -107q-252 0 -252 194q0 82 22.5 138t74 95.5t134.5 66.5t203 51q51 11 90.5 22
t68.5 19l3 26q1 1 1 9v8q0 85 -105 85q-110 0 -160 -98zM682 1321q-25 -9 -49.5 -16.5t-49.5 -12.5q-56 -11 -95.5 -24.5t-64 -30.5t-36 -38t-11.5 -48q0 -37 24 -55.5t78 -18.5q163 0 196 196z" />
    <glyph glyph-name="guillemotleft" unicode="&#xab;" horiz-adv-x="1375" 
d="M849 1186l-409 -545l214 -556h-266l-283 556l478 545h266zM1322 1186l-409 -545l214 -556h-266l-282 556l477 545h266z" />
    <glyph glyph-name="logicalnot" unicode="&#xac;" horiz-adv-x="1443" 
d="M985 455l94 532h-926l55 308h1237l-149 -840h-311z" />
    <glyph glyph-name="minus" unicode="&#xad;" horiz-adv-x="822" 
d="M37 471l60 340h667l-60 -340h-667z" />
    <glyph glyph-name="registered" unicode="&#xae;" horiz-adv-x="1820" 
d="M1108 1805q108 0 208 -25t186.5 -71t157.5 -112.5t122 -149t78.5 -180.5t27.5 -207q0 -141 -41.5 -277.5t-115.5 -259t-177 -226.5t-226 -180t-262 -118.5t-285 -42.5q-108 0 -207.5 25.5t-185.5 73t-156.5 115t-121 151t-78 181t-27.5 205.5q0 145 41.5 282.5
t115.5 259.5t177 224.5t225.5 176t260.5 114.5t283 41zM1078 1624q-119 0 -231 -35t-210.5 -96t-180.5 -145t-141 -181.5t-91.5 -205.5t-32.5 -217q0 -129 47.5 -240t131.5 -192.5t198 -128t247 -46.5q112 0 221.5 32.5t208 91t182.5 139.5t145.5 179.5t96 210t34.5 230.5
q0 129 -47 239.5t-130 191.5t-197.5 127t-250.5 46zM439 386l174 982l513 -2q55 0 99 -17t75.5 -46.5t48.5 -70.5t17 -90q0 -69 -22.5 -124t-64 -96t-100.5 -68t-132 -39q60 -17 115 -111l133 -318h-248l-53 159q-25 75 -48.5 122.5t-49.5 74.5t-58.5 37t-75.5 10h-52
l-71 -403h-200zM738 944h81q98 0 162 6.5t101 24t51.5 48t14.5 79.5q0 24 -8 44.5t-36.5 35t-85 22.5t-152.5 8h-81z" />
    <glyph glyph-name="macron" unicode="&#xaf;" horiz-adv-x="1366" 
d="M185 1872l39 222h1408l-39 -222h-1408z" />
    <glyph glyph-name="degree" unicode="&#xb0;" horiz-adv-x="989" 
d="M229 1414q14 79 57 149.5t104.5 123t137 83t154.5 30.5q73 0 132.5 -24t102 -66.5t66 -100.5t23.5 -125q0 -51 -15 -104t-43 -103.5t-68.5 -95.5t-91.5 -79t-112 -53.5t-130 -19.5q-57 0 -115 20t-104.5 58.5t-76 94.5t-29.5 129q0 19 2 39.5t6 43.5zM431 1414
q-3 -18 -3 -35q0 -32 12 -59.5t32.5 -47.5t48.5 -31.5t60 -11.5q43 0 83 18t71 48.5t49 70t18 83.5q0 32 -12.5 59.5t-33.5 47.5t-49.5 31.5t-59.5 11.5q-30 0 -65 -12.5t-66 -36.5t-54.5 -58.5t-30.5 -77.5z" />
    <glyph glyph-name="plusminus" unicode="&#xb1;" horiz-adv-x="1356" 
d="M474 429l82 460h-462l56 318h462l82 460h310l-82 -460h464l-56 -318h-464l-82 -460h-310zM-63 0l56 318h1236l-56 -318h-1236z" />
    <glyph glyph-name="twosuperior" unicode="&#xb2;" horiz-adv-x="822" 
d="M828 1068l-34 -190h-733q46 181 373 406q68 47 115 85t76.5 69.5t42.5 57t13 47.5q0 76 -107 76q-113 0 -153 -139l-226 19q81 292 416 292q75 0 131.5 -17t94.5 -47t57 -70t19 -85q0 -59 -16 -104t-56 -90t-107.5 -98.5t-170.5 -128.5l-114 -83h379z" />
    <glyph glyph-name="threesuperior" unicode="&#xb3;" horiz-adv-x="822" 
d="M126 1142l226 24v-6q0 -125 114 -125q69 0 113 41t44 122q0 86 -106 86q-20 0 -48.5 -4t-63.5 -12l59 175q88 0 134.5 28.5t46.5 85.5q0 62 -88 62q-103 0 -139 -118l-210 31q100 259 386 259q75 0 128.5 -19t88 -50t51 -69t16.5 -77q0 -126 -150 -205q130 -55 130 -173
q0 -33 -12 -70.5t-36.5 -75t-60 -71.5t-83 -60.5t-106 -42t-127.5 -15.5q-307 0 -307 276v3z" />
    <glyph glyph-name="acute" unicode="&#xb4;" horiz-adv-x="979" 
d="M966 1647l-545 -205l-90 151l516 279z" />
    <glyph glyph-name="mu" unicode="&#xb5;" horiz-adv-x="1425" 
d="M235 1281h338l-103 -581q-11 -58 -15.5 -107.5t-4.5 -94.5q0 -256 179 -256q61 0 111 23t90.5 76.5t71.5 140.5t54 215l103 584h342l-226 -1281h-316l27 155q-129 -186 -290 -186t-222 186l-115 -647h-338z" />
    <glyph glyph-name="paragraph" unicode="&#xb6;" horiz-adv-x="1375" 
d="M556 -486h-294l224 1264q-81 0 -153.5 24.5t-127 72t-86.5 117.5t-32 161q0 111 33.5 206.5t88 170t124.5 126t143 74.5q124 39 354 39h721l-56 -315h-137l-344 -1940h-284l344 1940h-174z" />
    <glyph glyph-name="periodcentered" unicode="&#xb7;" horiz-adv-x="687" 
d="M175 691l60 340h339l-60 -340h-339z" />
    <glyph glyph-name="periodcentered" unicode="&#x2219;" horiz-adv-x="687" 
d="M175 691l60 340h339l-60 -340h-339z" />
    <glyph glyph-name="cedilla" unicode="&#xb8;" horiz-adv-x="979" 
d="M-51 -486l26 142q57 -7 112.5 -10t112.5 -3q109 0 165 33.5t56 99.5q0 82 -137 82q-79 0 -161 -24l50 120q97 31 209 31q274 0 274 -178q0 -78 -32 -136.5t-93 -98t-149.5 -59t-200.5 -19.5q-75 0 -132.5 5t-99.5 15z" />
    <glyph glyph-name="onesuperior" unicode="&#xb9;" horiz-adv-x="822" 
d="M628 878h-229l110 619q-116 -74 -280 -118l33 186q251 76 343 226h185z" />
    <glyph glyph-name="ordmasculine" unicode="&#xba;" horiz-adv-x="902" 
d="M145 1345q19 106 63.5 190.5t109.5 143.5t148 90t179 31q79 0 143 -23t110 -67t71 -107.5t25 -143.5q0 -102 -21.5 -183.5t-58.5 -144.5t-87 -108t-106.5 -74t-117 -42.5t-118.5 -13.5q-80 0 -145 23t-111 66t-70.5 105.5t-24.5 142.5q0 27 3 55.5t8 59.5zM399 1343
q-9 -51 -9 -92q0 -153 127 -153q43 0 81.5 21.5t68 64t46.5 105.5t17 147q0 151 -126 151q-162 0 -205 -244z" />
    <glyph glyph-name="guillemotright" unicode="&#xbb;" horiz-adv-x="1375" 
d="M492 85l410 545l-215 556h268l281 -556l-476 -545h-268zM19 85l410 545l-215 556h267l282 -556l-477 -545h-267z" />
    <glyph glyph-name="onequarter" unicode="&#xbc;" horiz-adv-x="2061" 
d="M1560 -50l31 176h-435l30 170l562 567h187l-99 -562h129l-31 -175h-129l-31 -176h-214zM466 -65l-192 15l1377 1841h192zM630 878h-229l110 619q-63 -38 -132.5 -68t-147.5 -50l33 186q256 78 341 226h187zM1622 301l48 272l-268 -272h220z" />
    <glyph glyph-name="onehalf" unicode="&#xbd;" horiz-adv-x="2061" 
d="M1898 139l-55 -189h-710q42 178 373 407q68 47 115 85t76 69.5t42 57t13 46.5q0 76 -107 76q-112 0 -153 -140l-225 20q88 292 415 292q83 0 140.5 -19.5t93 -51t51.5 -71.5t16 -82q0 -55 -22 -106t-57 -93q-30 -35 -97 -88t-173 -128q-42 -30 -69.5 -51t-43.5 -34h377z
M466 -65h-192l1377 1856h192zM630 878h-229l110 619q-63 -38 -132.5 -68t-147.5 -50l33 186q256 78 341 226h187z" />
    <glyph glyph-name="threequarters" unicode="&#xbe;" horiz-adv-x="2061" 
d="M1560 -50l31 176h-436l30 170l562 567h188l-99 -562h129l-31 -175h-129l-31 -176h-214zM126 1142l226 24v-6q0 -125 114 -125q69 0 113 41t44 122q0 86 -106 86q-20 0 -48.5 -4t-63.5 -12l59 175q88 0 134.5 28.5t46.5 85.5q0 62 -88 62q-103 0 -139 -118l-210 31
q100 259 386 259q75 0 128.5 -19t88 -50t51 -69t16.5 -77q0 -126 -150 -205q130 -55 130 -173q0 -33 -12 -70.5t-36.5 -75t-60 -71.5t-83 -60.5t-106 -42t-127.5 -15.5q-307 0 -307 276v3zM496 -65h-192l1377 1856h190zM1622 301l48 272l-268 -272h220z" />
    <glyph glyph-name="questiondown" unicode="&#xbf;" horiz-adv-x="1802" 
d="M714 -117h306l-9 -72q-16 -126 -106 -240t-234 -220q-97 -55 -153 -95t-70 -66q-15 -28 -26.5 -61t-11.5 -59t14 -59.5t45 -62.5t80 -49t120 -20q139 0 239.5 64t163.5 203l284 -38q-166 -487 -720 -487q-144 0 -249.5 33t-174.5 88.5t-102.5 129t-33.5 154.5
q0 79 28.5 152t79.5 137q42 51 120.5 111.5t196.5 138.5q62 41 98.5 71.5t58 64t33 75.5t23.5 107zM864 0q-42 0 -75 13t-56.5 36t-36 54.5t-12.5 68.5q0 48 19.5 93.5t53.5 81.5t81 57.5t101 21.5q43 0 76.5 -13t56.5 -35.5t34.5 -53.5t11.5 -67q0 -51 -18.5 -97.5t-52 -82
t-80.5 -56.5t-103 -21z" />
    <glyph glyph-name="Agrave" unicode="&#xc0;" horiz-adv-x="1651" 
d="M1495 0h-446l-41 365h-574l-176 -365h-364l876 1769h483zM967 688l-82 623l-295 -623h377zM1354 2051l-90 -151l-545 205l119 225z" />
    <glyph glyph-name="Aacute" unicode="&#xc1;" horiz-adv-x="1651" 
d="M1495 0h-446l-41 365h-574l-176 -365h-364l876 1769h483zM967 688l-82 623l-295 -623h377zM1340 2105l-545 -205l-90 151l516 279z" />
    <glyph glyph-name="Acircumflex" unicode="&#xc2;" horiz-adv-x="1651" 
d="M1495 0h-446l-41 365h-574l-176 -365h-364l876 1769h483zM967 688l-82 623l-295 -623h377zM575 1900l338 367h314l205 -367h-274l-118 230l-192 -230h-273z" />
    <glyph glyph-name="Atilde" unicode="&#xc3;" horiz-adv-x="1651" 
d="M1495 0h-446l-41 365h-574l-176 -365h-364l876 1769h483zM967 688l-82 623l-295 -623h377zM737 1900h-155l7 43q22 134 89 199t176 65q33 0 78 -16t92.5 -35.5t93 -35.5t80.5 -16q84 0 115 103h157q-53 -303 -268 -303q-31 0 -80 9l-130 50q-54 20 -90.5 31t-58.5 12h-3
q-84 0 -103 -106z" />
    <glyph glyph-name="Adieresis" unicode="&#xc4;" horiz-adv-x="1651" 
d="M1495 0h-446l-41 365h-574l-176 -365h-364l876 1769h483zM967 688l-82 623l-295 -623h377zM609 1900l52 292h292l-52 -292h-292zM1148 1900l52 292h292l-52 -292h-292z" />
    <glyph glyph-name="Aring" unicode="&#xc5;" horiz-adv-x="1651" 
d="M1495 0h-446l-41 365h-574l-176 -365h-364l876 1769h483zM967 688l-82 623l-295 -623h377zM1280 2112q-8 -49 -34.5 -92t-65 -75.5t-85 -51t-94.5 -18.5q-42 0 -78.5 14.5t-63 40t-41.5 61t-15 77.5q0 57 24 108t63.5 89.5t90 60.5t104.5 22q43 0 80 -15t63 -41t41 -61.5
t15 -76.5q0 -29 -4 -42zM1150 2112q3 16 3 30q0 77 -91 77q-58 0 -93.5 -34t-35.5 -103q0 -77 91 -77q106 0 126 107z" />
    <glyph glyph-name="AE" unicode="&#xc6;" horiz-adv-x="2487" 
d="M1665 1425l-63 -356h672l-59 -332h-672l-70 -393h852l-60 -344h-1265l64 365h-687l-225 -365h-364l1122 1769h1668l-61 -344h-852zM577 688h544l128 722h-229z" />
    <glyph glyph-name="Ccedilla" unicode="&#xc7;" horiz-adv-x="1704" 
d="M1229 1085q8 74 8 111q0 266 -242 266q-312 0 -426 -594q-24 -154 -24 -241q0 -316 266 -316q137 0 230 95t139 237l401 -25q-61 -203 -182 -347t-291.5 -220t-374.5 -76q-317 0 -478 191t-161 498q0 95 21 221q68 390 320 649.5t634 259.5q310 0 454 -168t144 -512z
M338 -486l26 142q57 -7 112.5 -10t112.5 -3q109 0 165 33.5t56 99.5q0 82 -137 82q-79 0 -161 -24l50 120q97 31 209 31q274 0 274 -178q0 -78 -32 -136.5t-93 -98t-149.5 -59t-200.5 -19.5q-75 0 -132.5 5t-99.5 15z" />
    <glyph glyph-name="Egrave" unicode="&#xc8;" horiz-adv-x="1495" 
d="M700 1425l-61 -356h672l-58 -332h-671l-70 -393h852l-61 -344h-1266l311 1769h1266l-62 -344h-852zM1249 2051l-90 -151l-545 205l119 225z" />
    <glyph glyph-name="Eacute" unicode="&#xc9;" horiz-adv-x="1495" 
d="M700 1425l-61 -356h672l-58 -332h-671l-70 -393h852l-61 -344h-1266l311 1769h1266l-62 -344h-852zM1346 2105l-545 -205l-90 151l516 279z" />
    <glyph glyph-name="Ecircumflex" unicode="&#xca;" horiz-adv-x="1495" 
d="M700 1425l-61 -356h672l-58 -332h-671l-70 -393h852l-61 -344h-1266l311 1769h1266l-62 -344h-852zM569 1900l338 367h314l205 -367h-274l-118 230l-192 -230h-273z" />
    <glyph glyph-name="Edieresis" unicode="&#xcb;" horiz-adv-x="1495" 
d="M700 1425l-61 -356h672l-58 -332h-671l-70 -393h852l-61 -344h-1266l311 1769h1266l-62 -344h-852zM584 1900l52 292h292l-52 -292h-292zM1123 1900l52 292h292l-52 -292h-292z" />
    <glyph glyph-name="Igrave" unicode="&#xcc;" horiz-adv-x="774" 
d="M459 0h-414l311 1769h414zM862 2051l-90 -151l-545 205l119 225z" />
    <glyph glyph-name="Iacute" unicode="&#xcd;" horiz-adv-x="774" 
d="M459 0h-414l311 1769h414zM925 2105l-545 -205l-90 151l516 279z" />
    <glyph glyph-name="Icircumflex" unicode="&#xce;" horiz-adv-x="774" 
d="M459 0h-414l311 1769h414zM134 1900l338 367h314l205 -367h-274l-118 230l-192 -230h-273z" />
    <glyph glyph-name="Idieresis" unicode="&#xcf;" horiz-adv-x="774" 
d="M459 0h-414l311 1769h414zM151 1900l52 292h292l-52 -292h-292zM690 1900l52 292h292l-52 -292h-292z" />
    <glyph glyph-name="Eth" unicode="&#xd0;" horiz-adv-x="1704" 
d="M6 758l42 238h160l137 773h512q115 0 207.5 -7t168 -28t138 -59.5t118.5 -101.5q173 -194 173 -482q0 -114 -22.5 -226t-65 -216t-103 -198t-136 -171t-164.5 -135t-188 -91q-165 -54 -370 -54h-581l134 758h-160zM503 332h140q70 0 126.5 8.5t105 30t91.5 57.5t87 92
q41 52 74 113t56.5 127.5t36 136.5t12.5 140q0 63 -13.5 124t-39 112t-61.5 89t-80 55q-79 29 -197 29h-140l-80 -450h266l-42 -238h-266z" />
    <glyph glyph-name="Ntilde" unicode="&#xd1;" horiz-adv-x="1700" 
d="M1401 0h-357l-466 1188h-13l-209 -1188h-319l311 1769h447l405 -1040h8l185 1040h319zM806 1900h-155l7 43q22 134 89 199t176 65q33 0 78 -16t92.5 -35.5t93 -35.5t80.5 -16q84 0 115 103h157q-53 -303 -268 -303q-31 0 -80 9l-130 50q-54 20 -90.5 31t-58.5 12h-3
q-84 0 -103 -106z" />
    <glyph glyph-name="Ograve" unicode="&#xd2;" horiz-adv-x="1704" 
d="M193 254q-91 170 -91 418q0 125 17 217q33 184 106.5 344t190.5 288t272.5 200.5t347.5 72.5q370 0 516 -270q95 -171 95 -430q0 -113 -17 -205q-60 -363 -274 -615q-257 -299 -639 -299q-380 0 -524 279zM672 1257q-78 -143 -119 -368q-25 -154 -25 -242
q0 -336 246 -336q197 0 303 201q79 141 119 373q25 152 25 233q0 75 -21 168q-42 172 -221 172q-191 0 -307 -201zM1169 2051l-90 -151l-545 205l119 225z" />
    <glyph glyph-name="Oacute" unicode="&#xd3;" horiz-adv-x="1704" 
d="M193 254q-91 170 -91 418q0 125 17 217q33 184 106.5 344t190.5 288t272.5 200.5t347.5 72.5q370 0 516 -270q95 -171 95 -430q0 -113 -17 -205q-60 -363 -274 -615q-257 -299 -639 -299q-380 0 -524 279zM672 1257q-78 -143 -119 -368q-25 -154 -25 -242
q0 -336 246 -336q197 0 303 201q79 141 119 373q25 152 25 233q0 75 -21 168q-42 172 -221 172q-191 0 -307 -201zM1515 2105l-545 -205l-90 151l516 279z" />
    <glyph glyph-name="Ocircumflex" unicode="&#xd4;" horiz-adv-x="1704" 
d="M193 254q-91 170 -91 418q0 125 17 217q33 184 106.5 344t190.5 288t272.5 200.5t347.5 72.5q370 0 516 -270q95 -171 95 -430q0 -113 -17 -205q-60 -363 -274 -615q-257 -299 -639 -299q-380 0 -524 279zM672 1257q-78 -143 -119 -368q-25 -154 -25 -242
q0 -336 246 -336q197 0 303 201q79 141 119 373q25 152 25 233q0 75 -21 168q-42 172 -221 172q-191 0 -307 -201zM636 1900l338 367h314l205 -367h-274l-118 230l-192 -230h-273z" />
    <glyph glyph-name="Otilde" unicode="&#xd5;" horiz-adv-x="1704" 
d="M193 254q-91 170 -91 418q0 125 17 217q33 184 106.5 344t190.5 288t272.5 200.5t347.5 72.5q370 0 516 -270q95 -171 95 -430q0 -113 -17 -205q-60 -363 -274 -615q-257 -299 -639 -299q-380 0 -524 279zM672 1257q-78 -143 -119 -368q-25 -154 -25 -242
q0 -336 246 -336q197 0 303 201q79 141 119 373q25 152 25 233q0 75 -21 168q-42 172 -221 172q-191 0 -307 -201zM798 1900h-155l7 43q22 134 89 199t176 65q33 0 78 -16t92.5 -35.5t93 -35.5t80.5 -16q84 0 115 103h157q-53 -303 -268 -303q-31 0 -80 9l-130 50
q-54 20 -90.5 31t-58.5 12h-3q-84 0 -103 -106z" />
    <glyph glyph-name="Odieresis" unicode="&#xd6;" horiz-adv-x="1704" 
d="M193 254q-91 170 -91 418q0 125 17 217q33 184 106.5 344t190.5 288t272.5 200.5t347.5 72.5q370 0 516 -270q95 -171 95 -430q0 -113 -17 -205q-60 -363 -274 -615q-257 -299 -639 -299q-380 0 -524 279zM672 1257q-78 -143 -119 -368q-25 -154 -25 -242
q0 -336 246 -336q197 0 303 201q79 141 119 373q25 152 25 233q0 75 -21 168q-42 172 -221 172q-191 0 -307 -201zM627 1900l52 292h292l-52 -292h-292zM1166 1900l52 292h292l-52 -292h-292z" />
    <glyph glyph-name="multiply" unicode="&#xd7;" horiz-adv-x="1443" 
d="M98 506l431 364l-304 366l266 226l302 -366l428 364l181 -220l-430 -364l303 -368l-264 -225l-303 369l-429 -366z" />
    <glyph glyph-name="Oslash" unicode="&#xd8;" horiz-adv-x="1704" 
d="M-93 0l269 283q-79 162 -79 374q0 138 28.5 275.5t84 264t136 235.5t185 189.5t231.5 126.5t275 46q280 0 430 -155l125 131h262l-280 -293q38 -81 56 -181t18 -206q0 -103 -21 -213.5t-59 -218t-92.5 -206.5t-121.5 -178q-130 -153 -287.5 -226t-351.5 -73
q-279 0 -430 151l-120 -126h-258zM671 1257q-27 -49 -52.5 -121t-45 -154.5t-32 -168t-13.5 -160.5l655 687q-54 118 -205 118q-192 0 -307 -201zM775 311q84 0 151.5 38.5t119.5 112t89 180t60 243.5q10 58 16.5 110t6.5 100v9l-647 -679q60 -114 204 -114z" />
    <glyph glyph-name="Ugrave" unicode="&#xd9;" horiz-adv-x="1704" 
d="M1548 700q-32 -198 -77.5 -321.5t-159.5 -218.5q-216 -185 -578 -185q-368 0 -520 152q-107 112 -107 307q0 96 29 266l189 1069h446l-188 -1069q-3 -37 -11 -93t-10 -91q0 -52 12 -90q47 -119 246 -119q181 0 271 94q48 53 64.5 116t37.5 183l188 1069h357zM1315 2051
l-90 -151l-545 205l119 225z" />
    <glyph glyph-name="Uacute" unicode="&#xda;" horiz-adv-x="1704" 
d="M1548 700q-32 -198 -77.5 -321.5t-159.5 -218.5q-216 -185 -578 -185q-368 0 -520 152q-107 112 -107 307q0 96 29 266l189 1069h446l-188 -1069q-3 -37 -11 -93t-10 -91q0 -52 12 -90q47 -119 246 -119q181 0 271 94q48 53 64.5 116t37.5 183l188 1069h357zM1453 2105
l-545 -205l-90 151l516 279z" />
    <glyph glyph-name="Ucircumflex" unicode="&#xdb;" horiz-adv-x="1704" 
d="M1548 700q-32 -198 -77.5 -321.5t-159.5 -218.5q-216 -185 -578 -185q-368 0 -520 152q-107 112 -107 307q0 96 29 266l189 1069h446l-188 -1069q-3 -37 -11 -93t-10 -91q0 -52 12 -90q47 -119 246 -119q181 0 271 94q48 53 64.5 116t37.5 183l188 1069h357zM641 1900
l338 367h314l205 -367h-274l-118 230l-192 -230h-273z" />
    <glyph glyph-name="Udieresis" unicode="&#xdc;" horiz-adv-x="1704" 
d="M1548 700q-32 -198 -77.5 -321.5t-159.5 -218.5q-216 -185 -578 -185q-368 0 -520 152q-107 112 -107 307q0 96 29 266l189 1069h446l-188 -1069q-3 -37 -11 -93t-10 -91q0 -52 12 -90q47 -119 246 -119q181 0 271 94q48 53 64.5 116t37.5 183l188 1069h357zM649 1900
l52 292h292l-52 -292h-292zM1188 1900l52 292h292l-52 -292h-292z" />
    <glyph glyph-name="Yacute" unicode="&#xdd;" horiz-adv-x="1548" 
d="M991 745l-131 -745h-414l132 745l-377 1024h479l221 -671l455 671h368zM1439 2105l-545 -205l-90 151l516 279z" />
    <glyph glyph-name="Thorn" unicode="&#xde;" horiz-adv-x="1648" 
d="M55 0l313 1769h359l-59 -333h214q104 0 184 -1.5t141.5 -7.5t107.5 -18t82.5 -33t66.5 -53.5t59 -78.5q58 -92 58 -224q0 -116 -32.5 -217t-88.5 -183t-131.5 -141.5t-160.5 -91.5q-146 -54 -463 -54h-233l-58 -333h-359zM615 1137l-89 -503h194q130 0 216 12.5t140 42
t82 78.5t41 122q6 34 6 65q0 51 -16 85.5t-61.5 56.5t-127.5 31.5t-213 9.5h-172z" />
    <glyph glyph-name="germandbls" unicode="&#xdf;" horiz-adv-x="1510" 
d="M44 0l203 1149q29 165 75 287t120.5 203t184 121t264.5 40q109 0 190 -22.5t134 -63t79.5 -96t26.5 -121.5t-27 -138t-84 -150q-37 -51 -62.5 -87t-39.5 -59l-18 -47q-1 -5 -1.5 -10t-0.5 -10q0 -32 19 -63q0 -12 116 -155q148 -181 148 -340q0 -63 -19.5 -122t-54 -111
t-82.5 -95.5t-104 -74.5t-119 -48t-128 -17q-264 0 -351 230l261 138q37 -96 109 -96q28 0 53.5 8.5t45 26t31.5 43t12 60.5q0 42 -39 102.5t-117 151.5q-153 177 -153 286q0 34 29 97t95 160q37 55 61.5 96.5t38.5 72.5t20 53t6 39q0 96 -126 96q-55 0 -93.5 -15
t-67.5 -57.5t-51 -117.5t-43 -195l-203 -1149h-338z" />
    <glyph glyph-name="agrave" unicode="&#xe0;" horiz-adv-x="1393" 
d="M803 0q0 117 20 205q-106 -120 -211 -175t-247 -55q-159 0 -258 75.5t-99 215.5q0 20 8 78q47 281 365 393q53 19 121.5 33t140 22.5t143 15t123.5 11.5l4 29q17 62 17 106q0 45 -17 66q-35 65 -143 65q-95 0 -170 -50.5t-92 -141.5l-352 33q67 220 259 314.5t437 94.5
q275 0 393 -118q82 -77 82 -197q0 -48 -29 -213l-110 -610q-8 -70 -8 -197h-377zM877 627q-171 -19 -300 -67t-151 -175q0 -172 135 -172q123 0 213 111q64 79 94 249zM1123 1593l-90 -151l-545 205l119 225z" />
    <glyph glyph-name="aacute" unicode="&#xe1;" horiz-adv-x="1393" 
d="M803 0q0 117 20 205q-106 -120 -211 -175t-247 -55q-159 0 -258 75.5t-99 215.5q0 20 8 78q47 281 365 393q53 19 121.5 33t140 22.5t143 15t123.5 11.5l4 29q17 62 17 106q0 45 -17 66q-35 65 -143 65q-95 0 -170 -50.5t-92 -141.5l-352 33q67 220 259 314.5t437 94.5
q275 0 393 -118q82 -77 82 -197q0 -48 -29 -213l-110 -610q-8 -70 -8 -197h-377zM877 627q-171 -19 -300 -67t-151 -175q0 -172 135 -172q123 0 213 111q64 79 94 249zM1233 1647l-545 -205l-90 151l516 279z" />
    <glyph glyph-name="acircumflex" unicode="&#xe2;" horiz-adv-x="1393" 
d="M803 0q0 117 20 205q-106 -120 -211 -175t-247 -55q-159 0 -258 75.5t-99 215.5q0 20 8 78q47 281 365 393q53 19 121.5 33t140 22.5t143 15t123.5 11.5l4 29q17 62 17 106q0 45 -17 66q-35 65 -143 65q-95 0 -170 -50.5t-92 -141.5l-352 33q67 220 259 314.5t437 94.5
q275 0 393 -118q82 -77 82 -197q0 -48 -29 -213l-110 -610q-8 -70 -8 -197h-377zM877 627q-171 -19 -300 -67t-151 -175q0 -172 135 -172q123 0 213 111q64 79 94 249zM465 1442l338 367h314l205 -367h-274l-118 230l-192 -230h-273z" />
    <glyph glyph-name="atilde" unicode="&#xe3;" horiz-adv-x="1393" 
d="M803 0q0 117 20 205q-106 -120 -211 -175t-247 -55q-159 0 -258 75.5t-99 215.5q0 20 8 78q47 281 365 393q53 19 121.5 33t140 22.5t143 15t123.5 11.5l4 29q17 62 17 106q0 45 -17 66q-35 65 -143 65q-95 0 -170 -50.5t-92 -141.5l-352 33q67 220 259 314.5t437 94.5
q275 0 393 -118q82 -77 82 -197q0 -48 -29 -213l-110 -610q-8 -70 -8 -197h-377zM877 627q-171 -19 -300 -67t-151 -175q0 -172 135 -172q123 0 213 111q64 79 94 249zM585 1442h-155l7 43q22 134 89 199t176 65q33 0 78 -16t92.5 -35.5t93 -35.5t80.5 -16q84 0 115 103h157
q-53 -303 -268 -303q-31 0 -80 9l-130 50q-54 20 -90.5 31t-58.5 12h-3q-84 0 -103 -106z" />
    <glyph glyph-name="adieresis" unicode="&#xe4;" horiz-adv-x="1393" 
d="M803 0q0 117 20 205q-106 -120 -211 -175t-247 -55q-159 0 -258 75.5t-99 215.5q0 20 8 78q47 281 365 393q53 19 121.5 33t140 22.5t143 15t123.5 11.5l4 29q17 62 17 106q0 45 -17 66q-35 65 -143 65q-95 0 -170 -50.5t-92 -141.5l-352 33q67 220 259 314.5t437 94.5
q275 0 393 -118q82 -77 82 -197q0 -48 -29 -213l-110 -610q-8 -70 -8 -197h-377zM877 627q-171 -19 -300 -67t-151 -175q0 -172 135 -172q123 0 213 111q64 79 94 249zM433 1442l52 292h292l-52 -292h-292zM972 1442l52 292h292l-52 -292h-292z" />
    <glyph glyph-name="aring" unicode="&#xe5;" horiz-adv-x="1393" 
d="M803 0q0 117 20 205q-106 -120 -211 -175t-247 -55q-159 0 -258 75.5t-99 215.5q0 20 8 78q47 281 365 393q53 19 121.5 33t140 22.5t143 15t123.5 11.5l4 29q17 62 17 106q0 45 -17 66q-35 65 -143 65q-95 0 -170 -50.5t-92 -141.5l-352 33q67 220 259 314.5t437 94.5
q275 0 393 -118q82 -77 82 -197q0 -48 -29 -213l-110 -610q-8 -70 -8 -197h-377zM877 627q-171 -19 -300 -67t-151 -175q0 -172 135 -172q123 0 213 111q64 79 94 249zM1116 1654q-8 -49 -34.5 -92t-65 -75.5t-85 -51t-94.5 -18.5q-42 0 -78.5 14.5t-63 40t-41.5 61
t-15 77.5q0 57 24 108t63.5 89.5t90 60.5t104.5 22q43 0 80 -15t63 -41t41 -61.5t15 -76.5q0 -29 -4 -42zM986 1654q3 16 3 30q0 77 -91 77q-58 0 -93.5 -34t-35.5 -103q0 -77 91 -77q106 0 126 107z" />
    <glyph glyph-name="ae" unicode="&#xe6;" horiz-adv-x="2197" 
d="M1248 590l-15 -62q-5 -19 -6.5 -34.5t-1.5 -28.5q0 -49 14.5 -89.5t41.5 -69t66.5 -44.5t89.5 -16q43 0 87.5 15.5t82 43.5t64.5 65t35 81l345 -25q-4 -24 -27 -66.5t-64 -92.5t-99 -102t-131.5 -94t-162 -69t-190.5 -27q-77 0 -146.5 14t-128 41.5t-103 67.5t-71.5 92
q-64 -52 -137.5 -92t-148.5 -67.5t-147 -41.5t-132 -14q-78 0 -143.5 19t-113 55.5t-74 90.5t-26.5 124q0 85 25.5 158t73.5 132.5t117.5 105.5t156.5 77q60 21 191 41t340 41l5 29q5 30 8 55t3 46q0 72 -40 104t-118 32q-45 0 -88 -12.5t-78.5 -37t-60 -60.5t-32.5 -82
l-355 33q34 111 103 189t162 127t204 71t230 22q259 0 377 -103q46 23 89.5 42t88.5 32.5t93.5 21t103.5 7.5q114 0 207 -33.5t159 -99t102 -162t36 -222.5q0 -105 -21 -228h-840zM876 627q-87 -10 -169.5 -26.5t-146 -47.5t-102.5 -81t-39 -127q0 -60 36 -96t105 -36
q53 0 100.5 19.5t87 62t69.5 111t49 167.5zM1751 815q2 20 3.5 38t1.5 35q0 202 -177 202q-224 0 -295 -275h467z" />
    <glyph glyph-name="ccedilla" unicode="&#xe7;" horiz-adv-x="1393" 
d="M958 811q0 238 -155 238q-240 0 -303 -377q-21 -94 -21 -185q0 -200 172 -200q95 0 161.5 64t92.5 161l361 -20q-66 -239 -255 -378t-433 -139q-255 0 -392 139t-137 373q0 56 17 156q54 309 262 500.5t512 191.5q220 0 353.5 -131.5t133.5 -372.5zM141 -486l26 142
q57 -7 112.5 -10t112.5 -3q109 0 165 33.5t56 99.5q0 82 -137 82q-79 0 -161 -24l50 120q97 31 209 31q274 0 274 -178q0 -78 -32 -136.5t-93 -98t-149.5 -59t-200.5 -19.5q-75 0 -132.5 5t-99.5 15z" />
    <glyph glyph-name="egrave" unicode="&#xe8;" horiz-adv-x="1393" 
d="M455 590l-13 -62q-8 -48 -8 -65q0 -95 56.5 -156t156.5 -61q88 0 169.5 59t96.5 146l344 -25q-7 -50 -90 -160.5t-232 -200.5t-349 -90q-254 0 -397.5 140t-143.5 377q0 73 12 147q33 195 135.5 353.5t262.5 250.5t356 92q142 0 262.5 -60t183.5 -169q62 -116 62 -287
q0 -114 -25 -229h-839zM958 815q0 145 -37 210t-135 65q-222 0 -294 -275h466zM1014 1593l-90 -151l-545 205l119 225z" />
    <glyph glyph-name="eacute" unicode="&#xe9;" horiz-adv-x="1393" 
d="M455 590l-13 -62q-8 -48 -8 -65q0 -95 56.5 -156t156.5 -61q88 0 169.5 59t96.5 146l344 -25q-7 -50 -90 -160.5t-232 -200.5t-349 -90q-254 0 -397.5 140t-143.5 377q0 73 12 147q33 195 135.5 353.5t262.5 250.5t356 92q142 0 262.5 -60t183.5 -169q62 -116 62 -287
q0 -114 -25 -229h-839zM958 815q0 145 -37 210t-135 65q-222 0 -294 -275h466zM1219 1647l-545 -205l-90 151l516 279z" />
    <glyph glyph-name="ecircumflex" unicode="&#xea;" horiz-adv-x="1393" 
d="M455 590l-13 -62q-8 -48 -8 -65q0 -95 56.5 -156t156.5 -61q88 0 169.5 59t96.5 146l344 -25q-7 -50 -90 -160.5t-232 -200.5t-349 -90q-254 0 -397.5 140t-143.5 377q0 73 12 147q33 195 135.5 353.5t262.5 250.5t356 92q142 0 262.5 -60t183.5 -169q62 -116 62 -287
q0 -114 -25 -229h-839zM958 815q0 145 -37 210t-135 65q-222 0 -294 -275h466zM390 1442l338 367h314l205 -367h-274l-118 230l-192 -230h-273z" />
    <glyph glyph-name="edieresis" unicode="&#xeb;" horiz-adv-x="1393" 
d="M455 590l-13 -62q-8 -48 -8 -65q0 -95 56.5 -156t156.5 -61q88 0 169.5 59t96.5 146l344 -25q-7 -50 -90 -160.5t-232 -200.5t-349 -90q-254 0 -397.5 140t-143.5 377q0 73 12 147q33 195 135.5 353.5t262.5 250.5t356 92q142 0 262.5 -60t183.5 -169q62 -116 62 -287
q0 -114 -25 -229h-839zM958 815q0 145 -37 210t-135 65q-222 0 -294 -275h466zM423 1442l52 292h292l-52 -292h-292zM962 1442l52 292h292l-52 -292h-292z" />
    <glyph glyph-name="igrave" unicode="&#xec;" horiz-adv-x="672" 
d="M397 0h-377l230 1311h377zM655 1593l-90 -151l-545 205l119 225z" />
    <glyph glyph-name="iacute" unicode="&#xed;" horiz-adv-x="672" 
d="M397 0h-377l230 1311h377zM813 1647l-545 -205l-90 151l516 279z" />
    <glyph glyph-name="icircumflex" unicode="&#xee;" horiz-adv-x="672" 
d="M397 0h-377l230 1311h377zM12 1442l338 367h314l205 -367h-274l-118 230l-192 -230h-273z" />
    <glyph glyph-name="idieresis" unicode="&#xef;" horiz-adv-x="672" 
d="M397 0h-377l230 1311h377zM24 1442l52 292h292l-52 -292h-292zM563 1442l52 292h292l-52 -292h-292z" />
    <glyph glyph-name="eth" unicode="&#xf0;" horiz-adv-x="1510" 
d="M590 1769h353l112 -108l237 108l35 -119l-188 -79q286 -355 286 -731q0 -129 -28.5 -243.5t-80.5 -211t-125.5 -173.5t-162.5 -131t-192 -82.5t-214 -28.5q-140 0 -242.5 43t-169.5 117t-100 173t-33 210q0 107 28.5 205.5t77.5 184t116 155t143 119.5t158.5 77t163.5 27
q132 0 254 -83q-23 52 -38.5 85.5t-29 60t-27.5 52.5t-35 64l-326 -144l-32 116l284 124q-51 55 -106 108t-118 105zM444 639q-12 -65 -12 -120q0 -67 18.5 -118t51 -85.5t77 -52t96.5 -17.5q69 0 138 34.5t124.5 97.5t90 151.5t34.5 196.5q0 67 -20 120.5t-55 91
t-81.5 57.5t-98.5 20q-62 0 -120.5 -25t-107 -73t-84 -118t-51.5 -160z" />
    <glyph glyph-name="ntilde" unicode="&#xf1;" horiz-adv-x="1393" 
d="M594 1311l-37 -221h4q157 245 418 245q222 0 299 -143q33 -59 33 -160q0 -83 -25 -221l-143 -811h-381l123 705q24 114 24 184q0 147 -135 147q-110 0 -180 -98q-56 -83 -86 -233l-123 -705h-381l229 1311h361zM540 1442h-155l7 43q22 134 89 199t176 65q33 0 78 -16
t92.5 -35.5t93 -35.5t80.5 -16q84 0 115 103h157q-53 -303 -268 -303q-31 0 -80 9l-130 50q-54 20 -90.5 31t-58.5 12h-3q-84 0 -103 -106z" />
    <glyph glyph-name="ograve" unicode="&#xf2;" horiz-adv-x="1393" 
d="M1315 643q-33 -184 -138.5 -338t-265.5 -242t-346 -88q-249 0 -382.5 146t-133.5 383q0 75 12 155q35 191 135.5 346t257 242.5t349.5 87.5q256 0 390 -145.5t134 -386.5q0 -80 -12 -160zM479 696q-28 -142 -28 -241q0 -230 159 -230q226 0 299 418q21 120 21 234
q0 61 -4 90q-29 118 -164 118q-219 0 -283 -389zM1014 1593l-90 -151l-545 205l119 225z" />
    <glyph glyph-name="oacute" unicode="&#xf3;" horiz-adv-x="1393" 
d="M1315 643q-33 -184 -138.5 -338t-265.5 -242t-346 -88q-249 0 -382.5 146t-133.5 383q0 75 12 155q35 191 135.5 346t257 242.5t349.5 87.5q256 0 390 -145.5t134 -386.5q0 -80 -12 -160zM479 696q-28 -142 -28 -241q0 -230 159 -230q226 0 299 418q21 120 21 234
q0 61 -4 90q-29 118 -164 118q-219 0 -283 -389zM1282 1647l-545 -205l-90 151l516 279z" />
    <glyph glyph-name="ocircumflex" unicode="&#xf4;" horiz-adv-x="1393" 
d="M1315 643q-33 -184 -138.5 -338t-265.5 -242t-346 -88q-249 0 -382.5 146t-133.5 383q0 75 12 155q35 191 135.5 346t257 242.5t349.5 87.5q256 0 390 -145.5t134 -386.5q0 -80 -12 -160zM479 696q-28 -142 -28 -241q0 -230 159 -230q226 0 299 418q21 120 21 234
q0 61 -4 90q-29 118 -164 118q-219 0 -283 -389zM382 1442l338 367h314l205 -367h-274l-118 230l-192 -230h-273z" />
    <glyph glyph-name="otilde" unicode="&#xf5;" horiz-adv-x="1393" 
d="M1315 643q-33 -184 -138.5 -338t-265.5 -242t-346 -88q-249 0 -382.5 146t-133.5 383q0 75 12 155q35 191 135.5 346t257 242.5t349.5 87.5q256 0 390 -145.5t134 -386.5q0 -80 -12 -160zM479 696q-28 -142 -28 -241q0 -230 159 -230q226 0 299 418q21 120 21 234
q0 61 -4 90q-29 118 -164 118q-219 0 -283 -389zM547 1442h-155l7 43q22 134 89 199t176 65q33 0 78 -16t92.5 -35.5t93 -35.5t80.5 -16q84 0 115 103h157q-53 -303 -268 -303q-31 0 -80 9l-130 50q-54 20 -90.5 31t-58.5 12h-3q-84 0 -103 -106z" />
    <glyph glyph-name="odieresis" unicode="&#xf6;" horiz-adv-x="1393" 
d="M1315 643q-33 -184 -138.5 -338t-265.5 -242t-346 -88q-249 0 -382.5 146t-133.5 383q0 75 12 155q35 191 135.5 346t257 242.5t349.5 87.5q256 0 390 -145.5t134 -386.5q0 -80 -12 -160zM479 696q-28 -142 -28 -241q0 -230 159 -230q226 0 299 418q21 120 21 234
q0 61 -4 90q-29 118 -164 118q-219 0 -283 -389zM411 1442l52 292h292l-52 -292h-292zM950 1442l52 292h292l-52 -292h-292z" />
    <glyph glyph-name="divide" unicode="&#xf7;" horiz-adv-x="1356" 
d="M61 715l56 316h1236l-56 -316h-1236zM593 1185l60 338h338l-60 -338h-338zM423 224l60 338h338l-60 -338h-338z" />
    <glyph glyph-name="oslash" unicode="&#xf8;" horiz-adv-x="1393" 
d="M-109 0l223 212q-35 61 -51 134t-16 154q0 111 25 216t72 198t114 170.5t151.5 133t184 86.5t210.5 31q115 0 205 -29t157 -92l102 97h212l-222 -210q36 -64 52.5 -138.5t16.5 -155.5q0 -113 -26.5 -218.5t-75.5 -198t-118 -169t-153.5 -131.5t-183.5 -85t-207 -30
q-227 0 -360 124l-104 -99h-208zM607 225q129 0 211.5 140t108.5 421l-468 -444q21 -117 148 -117zM478 696q-15 -83 -21 -157l463 441q-29 105 -160 105q-213 0 -282 -389z" />
    <glyph glyph-name="ugrave" unicode="&#xf9;" horiz-adv-x="1393" 
d="M778 0l41 225h-4q-140 -250 -418 -250q-228 0 -295 148q-28 63 -28 139q0 51 28 221l144 828h381l-144 -828q-12 -48 -12 -94q0 -110 119 -110q133 0 213 127q28 43 57 200l123 705h377l-230 -1311h-352zM1014 1593l-90 -151l-545 205l119 225z" />
    <glyph glyph-name="uacute" unicode="&#xfa;" horiz-adv-x="1393" 
d="M778 0l41 225h-4q-140 -250 -418 -250q-228 0 -295 148q-28 63 -28 139q0 51 28 221l144 828h381l-144 -828q-12 -48 -12 -94q0 -110 119 -110q133 0 213 127q28 43 57 200l123 705h377l-230 -1311h-352zM1238 1647l-545 -205l-90 151l516 279z" />
    <glyph glyph-name="ucircumflex" unicode="&#xfb;" horiz-adv-x="1393" 
d="M778 0l41 225h-4q-140 -250 -418 -250q-228 0 -295 148q-28 63 -28 139q0 51 28 221l144 828h381l-144 -828q-12 -48 -12 -94q0 -110 119 -110q133 0 213 127q28 43 57 200l123 705h377l-230 -1311h-352zM387 1442l338 367h314l205 -367h-274l-118 230l-192 -230h-273z
" />
    <glyph glyph-name="udieresis" unicode="&#xfc;" horiz-adv-x="1393" 
d="M778 0l41 225h-4q-140 -250 -418 -250q-228 0 -295 148q-28 63 -28 139q0 51 28 221l144 828h381l-144 -828q-12 -48 -12 -94q0 -110 119 -110q133 0 213 127q28 43 57 200l123 705h377l-230 -1311h-352zM368 1442l52 292h292l-52 -292h-292zM907 1442l52 292h292
l-52 -292h-292z" />
    <glyph glyph-name="yacute" unicode="&#xfd;" horiz-adv-x="1237" 
d="M709 82q-106 -207 -167.5 -306t-169.5 -167t-282 -68l-184 17l53 299l188 -21q96 0 147.5 36.5t90.5 127.5l-246 1311h410l115 -779l372 779h287zM1123 1647l-545 -205l-90 151l516 279z" />
    <glyph glyph-name="thorn" unicode="&#xfe;" horiz-adv-x="1510" 
d="M357 1769h338l-113 -636q207 177 408 177q90 0 169.5 -32t138 -93.5t92.5 -151.5t34 -206q0 -131 -27 -245t-74 -209.5t-111.5 -170t-139.5 -126.5t-157 -79t-164 -27q-206 0 -341 189l-115 -647h-338zM499 669q-8 -45 -12 -84t-4 -74q0 -273 237 -273q270 0 340 400
q15 85 15 153q0 261 -226 261q-282 0 -350 -383z" />
    <glyph glyph-name="ydieresis" unicode="&#xff;" horiz-adv-x="1237" 
d="M709 82q-106 -207 -167.5 -306t-169.5 -167t-282 -68l-184 17l53 299l188 -21q96 0 147.5 36.5t90.5 127.5l-246 1311h410l115 -779l372 779h287zM349 1442l52 292h292l-52 -292h-292zM888 1442l52 292h292l-52 -292h-292z" />
    <glyph glyph-name="OE" unicode="&#x152;" horiz-adv-x="2508" 
d="M1706 1425l-63 -356h672l-59 -332h-672l-70 -393h852l-60 -344h-1265l14 81q-157 -106 -340 -106q-152 0 -267.5 48.5t-193.5 137.5t-117.5 215t-39.5 281q0 139 29 277t84 264.5t136.5 235t185.5 189t231 126t274 45.5q179 0 301 -114l16 89h1265l-61 -344h-852z
M671 1257q-28 -50 -53.5 -123.5t-45 -157.5t-31.5 -170t-12 -161q0 -334 246 -334q84 0 151.5 38.5t119.5 112t89 180t60 243.5q11 69 17 128t6 113q0 82 -13 144t-42 104t-74.5 63t-110.5 21q-192 0 -307 -201z" />
    <glyph glyph-name="oe" unicode="&#x153;" horiz-adv-x="2211" 
d="M1270 590l-15 -62q-5 -19 -6.5 -34.5t-1.5 -28.5q0 -49 14.5 -89.5t41.5 -69t66.5 -44.5t89.5 -16q43 0 87.5 15.5t82 43.5t64.5 65t35 81l345 -25q-4 -24 -27 -66.5t-64 -92.5t-99 -102t-131.5 -94t-162 -69t-190.5 -27q-63 0 -123.5 9.5t-114 29t-95.5 48t-67 66.5
q-170 -153 -436 -153q-125 0 -221 39t-161.5 108.5t-99.5 166t-34 212.5q0 110 25 214.5t71.5 197t113.5 170t151 133.5t184 87.5t212 31.5q61 0 118 -9t106.5 -27.5t90.5 -46.5t70 -66q88 75 200.5 112t237.5 37q114 0 207 -33.5t159 -99t102 -162t36 -222.5
q0 -105 -21 -228h-840zM478 696q-13 -70 -19 -133.5t-6 -120.5q0 -54 7 -94.5t24 -67.5t47 -41t76 -14q227 0 300 418q11 66 17.5 123t6.5 108q0 53 -8.5 92.5t-28 66t-52.5 39.5t-82 13q-213 0 -282 -389zM1773 815q2 20 3.5 38t1.5 35q0 202 -177 202q-224 0 -295 -275
h467z" />
    <glyph glyph-name="Scaron" unicode="&#x160;" horiz-adv-x="1548" 
d="M1155 1266q-36 209 -270 209q-245 0 -275 -168q0 -85 62.5 -121t167.5 -56q195 -46 279 -70.5t155 -80.5q164 -125 164 -328q0 -24 -8 -90q-46 -272 -295 -442q-213 -144 -541 -144q-266 0 -440 121t-187 367l398 90q14 -134 96 -192t227 -58q110 0 202.5 44.5
t108.5 144.5q0 98 -67.5 131.5t-206.5 68.5q-257 54 -399 145.5t-142 292.5q0 48 13 107q44 256 262 414q196 143 471 143q528 0 594 -414zM882 2267l110 -230l200 230h274l-335 -367h-314l-208 367h273z" />
    <glyph glyph-name="scaron" unicode="&#x161;" horiz-adv-x="1290" 
d="M909 918q-11 176 -221 176q-197 0 -217 -115q0 -70 128 -98.5t254.5 -51.5t220 -90t93.5 -219q0 -61 -8 -98q-36 -209 -233 -340q-176 -107 -430 -107q-507 0 -529 385l336 50q3 -93 77 -135t181 -42q80 0 159.5 29t90.5 94q0 61 -33.5 82t-93.5 29q-268 37 -377 78
q-192 70 -192 352q40 226 219 332t416 106q198 0 310.5 -81t147.5 -259zM688 1809l110 -230l200 230h274l-335 -367h-314l-208 367h273z" />
    <glyph glyph-name="Ydieresis" unicode="&#x178;" horiz-adv-x="1548" 
d="M991 745l-131 -745h-414l132 745l-377 1024h479l221 -671l455 671h368zM562 1900l52 292h292l-52 -292h-292zM1101 1900l52 292h292l-52 -292h-292z" />
    <glyph glyph-name="florin" unicode="&#x192;" horiz-adv-x="1375" 
d="M390 1027l89 254h244l38 109q40 117 79.5 195.5t93 126t129 68t186.5 20.5q157 0 315 -50l-115 -273q-116 35 -184 35q-27 0 -50 -3.5t-44 -19.5t-41.5 -49t-41.5 -91l-25 -68h251l-91 -254h-246l-418 -1180q-41 -117 -87.5 -188.5t-102 -111t-122.5 -53t-149 -13.5
q-194 0 -329 48l114 266q122 -28 197 -28q34 0 58.5 7t45 28.5t39.5 62.5t43 109l368 1053h-244z" />
    <glyph glyph-name="circumflex" unicode="&#x2c6;" horiz-adv-x="979" 
d="M192 1442l338 367h314l205 -367h-274l-118 230l-192 -230h-273z" />
    <glyph glyph-name="tilde" unicode="&#x2dc;" horiz-adv-x="979" 
d="M358 1442h-155l7 43q22 134 89 199t176 65q33 0 78 -16t92.5 -35.5t93 -35.5t80.5 -16q84 0 115 103h157q-53 -303 -268 -303q-31 0 -80 9l-130 50q-54 20 -90.5 31t-58.5 12h-3q-84 0 -103 -106z" />
    <glyph glyph-name="quotesinglbase" unicode="&#x201a;" horiz-adv-x="774" 
d="M315 29q-17 -4 -30.5 -6t-24.5 -2q-28 0 -56.5 9.5t-52 29t-38.5 48.5t-15 67q0 63 21 109.5t56.5 77t82.5 45.5t98 15q88 0 133.5 -46t45.5 -137q0 -102 -40.5 -197t-108 -172t-155 -130t-181.5 -71l19 110q28 6 67 27.5t76 55t66 76.5t37 91z" />
    <glyph glyph-name="uni201E" unicode="&#x201e;" horiz-adv-x="1343" 
d="M315 32q-43 -8 -54 -8q-27 0 -56 9.5t-52.5 28.5t-38.5 47.5t-15 66.5q0 63 20.5 109.5t55.5 77.5t82 46.5t100 15.5q178 0 178 -183q0 -100 -40 -195t-107.5 -173t-155 -131.5t-182.5 -70.5l20 110q28 6 67.5 28t76.5 55.5t65.5 76t35.5 90.5zM887 32q-43 -8 -54 -8
q-27 0 -56 9.5t-52.5 28.5t-38.5 47.5t-15 66.5q0 63 20.5 109.5t55.5 77.5t82 46.5t100 15.5q178 0 178 -183q0 -100 -40 -195t-107.5 -173t-155 -131.5t-182.5 -70.5l20 110q28 6 67.5 28t76.5 55.5t65.5 76t35.5 90.5z" />
    <glyph glyph-name="uni2020" unicode="&#x2020;" horiz-adv-x="1375" 
d="M324 -423l252 1425h-442l49 279h442l83 467h316l-83 -467h440l-49 -279h-440l-252 -1425h-316z" />
    <glyph glyph-name="uni2021" unicode="&#x2021;" horiz-adv-x="1375" 
d="M328 -423l71 403h-446l50 281h446l140 791h-446l50 282h446l73 414h316l-73 -414h436l-50 -282h-436l-140 -791h436l-50 -281h-436l-71 -403h-316z" />
    <glyph glyph-name="uni2030" unicode="&#x2030;" horiz-adv-x="2471" 
d="M1720 408q80 449 430 449q284 0 284 -299q0 -67 -15 -151q-86 -479 -436 -479q-280 0 -280 310q0 38 4.5 80t12.5 90zM117 1351q80 449 428 449q283 0 283 -300q0 -69 -15 -153q-84 -475 -434 -475q-279 0 -279 309q0 37 4.5 79t12.5 91zM913 408q80 449 428 449
q283 0 283 -298q0 -68 -15 -152q-86 -479 -434 -479q-279 0 -279 310q0 38 4.5 80t12.5 90zM202 -63l1069 1863h237l-1069 -1863h-237zM1155 137q25 -19 51 -19q112 0 162 276q15 82 15 141q0 134 -79 134q-113 0 -161 -275q-8 -45 -11.5 -82t-3.5 -67q0 -80 27 -108z
M2193 584q-18 85 -79 85q-28 0 -59 -27.5t-56.5 -80.5t-42.5 -132t-17 -181q0 -132 75 -132q112 0 162 278q18 100 18 163v14q0 11 -1 13zM359 1079q25 -18 51 -18q112 0 162 275q15 82 15 141q0 134 -79 134q-54 0 -94.5 -68t-64.5 -207q-9 -51 -13 -89.5t-4 -66.5
q0 -77 27 -101z" />
    <glyph glyph-name="uni2039" unicode="&#x2039;" horiz-adv-x="822" 
d="M825 1186l-411 -545l216 -556h-268l-282 556l477 545h268z" />
    <glyph glyph-name="uni203A" unicode="&#x203a;" horiz-adv-x="822" 
d="M-18 85l410 545l-215 556h266l283 -556l-478 -545h-266z" />
    <glyph glyph-name="uni2122" unicode="&#x2122;" horiz-adv-x="2471" 
d="M1197 780l175 989h312l58 -681l302 681h313l-175 -989h-191l139 789l-351 -789h-181l-74 789l-139 -789h-188zM579 780l145 819h-304l30 170h802l-30 -170h-296l-145 -819h-202z" />
    <glyph glyph-name="ring" unicode="&#x2da;" horiz-adv-x="979" 
d="M894 1654q-8 -49 -34.5 -92t-65 -75.5t-85 -51t-94.5 -18.5q-42 0 -78.5 14.5t-63 40t-41.5 61t-15 77.5q0 57 24 108t63.5 89.5t90 60.5t104.5 22q43 0 80 -15t63 -41t41 -61.5t15 -76.5q0 -29 -4 -42zM764 1654q3 16 3 30q0 77 -91 77q-58 0 -93.5 -34t-35.5 -103
q0 -77 91 -77q106 0 126 107z" />
    <glyph glyph-name="ring" unicode="&#x25e6;" horiz-adv-x="979" 
d="M894 1654q-8 -49 -34.5 -92t-65 -75.5t-85 -51t-94.5 -18.5q-42 0 -78.5 14.5t-63 40t-41.5 61t-15 77.5q0 57 24 108t63.5 89.5t90 60.5t104.5 22q43 0 80 -15t63 -41t41 -61.5t15 -76.5q0 -29 -4 -42zM764 1654q3 16 3 30q0 77 -91 77q-58 0 -93.5 -34t-35.5 -103
q0 -77 91 -77q106 0 126 107z" />
    <glyph glyph-name="dotlessi" unicode="&#x131;" horiz-adv-x="672" 
d="M397 0h-377l230 1311h377z" />
    <glyph glyph-name="caron" unicode="&#x2c7;" horiz-adv-x="979" 
d="M530 1809l110 -230l200 230h274l-335 -367h-314l-208 367h273z" />
    <glyph glyph-name="Euro" unicode="&#x20ac;" horiz-adv-x="1375" 
d="M1161 37q-66 -32 -114.5 -49.5t-93.5 -26t-93 -10t-112 -1.5q-130 0 -243 47t-197 133t-132 208t-48 272l-153 2l91 184l77 4q2 21 5 40.5t7 40.5t9 45t11 53h-135l91 180h98q63 165 160 287.5t211.5 203t238.5 120t242 39.5q74 0 125 -3.5t91.5 -13t76.5 -25.5t80 -41
l-50 -281h-42q-36 37 -67.5 61.5t-67 39t-81 20t-109.5 5.5q-78 0 -156.5 -29.5t-150 -83.5t-131.5 -130t-102 -169h508l-93 -180h-479q-13 -51 -19 -81.5t-8.5 -49.5t-3 -30t-2.5 -22h416l-91 -184h-329q12 -114 53 -194t97.5 -130.5t121.5 -73t125 -22.5q62 0 108.5 4.5
t88 18t83 38.5t92.5 65h46z" />
    <glyph glyph-name="delete" horiz-adv-x="2048" 
 />
    <glyph glyph-name="Zcaron" unicode="&#x17d;" horiz-adv-x="1704" 
d="M623 340h921l-61 -340h-1430l53 303l1094 1131h-827l57 335h1339l-53 -303zM967 2267l110 -230l200 230h274l-335 -367h-314l-208 367h273z" />
    <glyph glyph-name="zcaron" unicode="&#x17e;" horiz-adv-x="1085" 
d="M1081 1069l-721 -786h611l-49 -283h-1033l50 283l712 766h-532l45 262h958zM559 1809l110 -230l200 230h274l-335 -367h-314l-208 367h273z" />
    <glyph glyph-name="uni200B" unicode="&#x200b;" 
 />
    <glyph glyph-name="uni25CC" unicode="&#x25cc;" horiz-adv-x="2040" 
d="M1841 652q-15 -86 -105 -86q-71 0 -71 62q0 57 28.5 84.5t73.5 27.5q77 0 77 -63q0 -12 -3 -25zM501 390q-17 -86 -102 -86q-73 0 -73 61q0 57 30 86t75 29q73 0 73 -64q0 -13 -3 -26zM990 1684q-15 -84 -103 -84q-73 0 -73 61q0 57 29.5 85t74.5 28q75 0 75 -64
q0 -13 -3 -26zM1948 1256q-16 -88 -106 -88q-71 0 -71 62q0 55 28.5 83.5t77.5 28.5q73 0 73 -63q0 -5 -0.5 -11t-1.5 -12zM1020 162q-17 -90 -102 -90q-73 0 -73 64q0 55 28 83.5t76 28.5q73 0 73 -63q0 -5 -0.5 -11t-1.5 -12zM1301 1750q-17 -92 -102 -92q-73 0 -73 65
q0 55 28 83t76 28q73 0 73 -61q0 -5 -0.5 -11t-1.5 -12zM370 954q-15 -86 -101 -86q-77 0 -77 63q0 54 30 81.5t78 27.5q73 0 73 -61q0 -12 -3 -25zM732 226q-16 -88 -104 -88q-74 0 -74 60q0 55 29.5 82.5t74.5 27.5q76 0 76 -61q0 -5 -0.5 -10.5t-1.5 -10.5zM482 1256
q-16 -88 -98 -88q-75 0 -75 62q0 55 28 83.5t76 28.5q71 0 71 -62v-11q0 -3 -0.5 -6t-1.5 -7zM1592 1684q-15 -84 -95 -84q-77 0 -77 62q0 57 30 84.5t78 27.5q67 0 67 -62q0 -13 -3 -28zM375 652q-15 -86 -99 -86q-73 0 -73 63q0 57 29.5 84t74.5 27q71 0 71 -62
q0 -11 -3 -26zM1621 390q-17 -86 -98 -86q-73 0 -73 61q0 57 30 86t75 29q69 0 69 -63q0 -12 -3 -27zM1956 954q-15 -86 -97 -86q-77 0 -77 63q0 54 30 81.5t78 27.5q69 0 69 -60q0 -13 -3 -26zM1819 1512q-14 -80 -96 -80q-78 0 -78 60q0 54 30 81t78 27q69 0 69 -61
q0 -12 -3 -27zM699 1512q-14 -80 -100 -80q-74 0 -74 58q0 55 29.5 82.5t74.5 27.5q73 0 73 -62q0 -13 -3 -26zM1332 218q-14 -80 -94 -80q-74 0 -74 60q0 55 29.5 82.5t74.5 27.5q67 0 67 -62q0 -13 -3 -28z" />
    <glyph glyph-name="zero.alt1" horiz-adv-x="1880" 
d="M1651 1093q0 -82 -13.5 -173.5t-36 -182t-52.5 -175.5t-63 -154q-100 -206 -278.5 -310.5t-417.5 -104.5q-561 0 -561 542q0 131 21 258.5t58 241.5t87.5 209.5t109.5 163.5q211 237 577 238q569 0 569 -553zM1321 1062q0 179 -66 269.5t-204 90.5q-110 0 -187 -44
t-130.5 -123.5t-89 -190.5t-62.5 -244q-31 -152 -31 -259q0 -176 70 -264.5t215 -88.5q276 0 405 380q18 51 32.5 109t25.5 118.5t16.5 121.5t5.5 119v6z" />
    <glyph glyph-name="one.alt1" horiz-adv-x="1880" 
d="M1379 1646l-292 -1646h-330l246 1399q-11 -16 -41.5 -42.5t-70.5 -57.5t-84.5 -64t-83 -61.5t-67 -49.5t-35.5 -28l-121 152q64 47 137.5 101t143 107.5t129.5 103t97 86.5h372z" />
    <glyph glyph-name="two.alt1" horiz-adv-x="1880" 
d="M1697 1236q0 -134 -80 -259q-38 -60 -81.5 -100.5t-94 -71.5t-108.5 -57t-124 -57q-49 -23 -87 -41t-71 -34t-63.5 -31.5t-63.5 -33t-72 -39t-89 -49.5q-142 -81 -174 -213h899l-45 -250h-1260q27 188 73 299q21 51 57.5 101.5t82.5 96t98 85t102 69.5q56 33 107 59
t102.5 50t106 50t117.5 59q91 48 151.5 91t96.5 90.5t51 103.5t16 128q-9 42 -37.5 69.5t-67 44t-83 23.5t-85.5 7q-46 0 -95 -8t-94.5 -25.5t-84.5 -45t-64 -65.5q-43 -66 -65 -143t-22 -168v-4h-334q13 88 36 176.5t62 166.5t98.5 141t145.5 100q186 99 458 99
q68 0 138 -7.5t135 -26t122 -49t99 -76.5t66.5 -109t24.5 -146z" />
    <glyph glyph-name="three.alt1" horiz-adv-x="1880" 
d="M1666 1316q0 -162 -140 -296q-21 -20 -57.5 -44t-78 -44t-83.5 -34q-38 -13 -67 -15q78 -2 139 -23q63 -21 106.5 -60.5t66.5 -96t23 -126.5q0 -104 -33 -188.5t-90.5 -150.5t-135 -113.5t-165.5 -78.5t-182 -46t-186 -15q-66 0 -134 7t-131 24t-119 45t-97 69.5
t-65 98.5t-24 131q0 29 4 64t12 77h311q0 -71 11 -122.5t44.5 -85t94.5 -49.5t161 -16q93 0 167 19t125 57.5t78.5 95t27.5 131.5q0 69 -32.5 113.5t-85 70.5t-119.5 36.5t-135 10.5q-38 0 -64.5 -1.5t-37.5 -2.5l46 243q0 -11 105 -11q81 0 159 13.5t138.5 45t98 82.5
t37.5 125q0 174 -277 174q-109 0 -177 -26.5t-106.5 -65t-52 -81t-13.5 -74.5h-323q25 112 54 183q35 84 100 140t151 90t187.5 48t209.5 14q134 0 237.5 -23t174 -67t106.5 -107.5t36 -144.5z" />
    <glyph glyph-name="four.alt1" horiz-adv-x="1880" 
d="M1689 622l-38 -220h-258l-72 -402h-326l72 402h-876l38 231l974 1005h405l-177 -1016h258zM1233 1366l-689 -744h561z" />
    <glyph glyph-name="five.alt1" horiz-adv-x="1880" 
d="M1655 1638l-46 -254h-857l-114 -360q32 20 58.5 36t52 28t54.5 20t66.5 13t86.5 7.5t115 2.5q118 0 211.5 -29t158.5 -84t99.5 -134t34.5 -178q0 -74 -14 -147.5t-39.5 -141t-60.5 -126t-77 -102.5q-198 -208 -587 -208q-572 0 -572 387q0 6 0.5 19.5t1.5 28t1.5 28
t0.5 19.5h311q0 -239 295 -239q103 0 182 33t133 90t82 132.5t28 161.5q0 262 -364 262q-53 0 -100 -11t-88 -30.5t-76.5 -45t-65.5 -54.5h-281l259 876h1111z" />
    <glyph glyph-name="six.alt1" horiz-adv-x="1880" 
d="M1653 1248h-311q0 156 -258 156q-59 0 -108 -8.5t-92 -29t-80.5 -54t-72.5 -83.5q-21 -30 -42 -74t-38 -90.5t-28 -89t-13 -68.5q33 30 74.5 59.5t92 53.5t109 38.5t126.5 14.5q539 0 539 -409q0 -77 -16.5 -151t-47.5 -141.5t-75.5 -126.5t-100.5 -106
q-184 -154 -530 -154q-156 0 -262.5 34.5t-171 97.5t-92.5 151t-28 195q0 66 9 146.5t26.5 166.5t42 173.5t55.5 168t67.5 150t77.5 119.5q216 263 606 263q542 0 542 -402zM553 519q0 -148 67 -221.5t214 -73.5q95 0 169.5 29t126.5 80t79 119.5t27 146.5q0 57 -18 103.5
t-53.5 79t-88 50.5t-121.5 18q-80 0 -149 -24t-122.5 -68t-87.5 -105t-43 -134z" />
    <glyph glyph-name="seven.alt1" horiz-adv-x="1880" 
d="M1577 1638l-38 -223q-98 -80 -193 -175.5t-182 -201t-164.5 -218t-139.5 -225.5q-48 -87 -80 -155.5t-55.5 -134.5t-41.5 -138t-38 -167h-342q109 432 387 812q126 173 260.5 318t293.5 262h-918l42 246h1209z" />
    <glyph glyph-name="eight.alt1" horiz-adv-x="1880" 
d="M1635 1278q-11 -87 -46 -151t-87.5 -107.5t-118.5 -69t-138 -36.5q57 -5 114.5 -31.5t104.5 -76t76.5 -124t29.5 -174.5q-24 -263 -212.5 -393t-537.5 -130q-288 0 -432 94.5t-144 280.5q0 54 11 112.5t31.5 113t50.5 102t68 80.5q37 32 78.5 58t85 45t87.5 30
q43 10 83 13q-51 1 -100 19q-51 19 -91 53t-64.5 83.5t-24.5 113.5q0 109 44.5 196.5t128.5 148.5t206 93.5t278 32.5q129 0 226 -19.5t162 -64t98 -116.5t33 -176zM1248 505q0 253 -291 253q-89 0 -162 -22.5t-125 -65t-80 -105.5t-28 -144q0 -201 300 -201q183 0 278 72
t108 213zM1324 1252q0 189 -246 189q-68 0 -126 -15.5t-100 -45.5t-65.5 -75t-23.5 -103q0 -78 64 -122.5t179 -44.5q148 0 226 55.5t92 161.5z" />
    <glyph glyph-name="nine.alt1" horiz-adv-x="1880" 
d="M1653 1172q0 -69 -13 -168.5t-41 -236.5q-162 -778 -829 -778q-543 0 -543 402h311q0 -156 254 -156q88 0 160 19.5t130.5 74t105 151.5t82.5 252q-79 -74 -177 -119.5t-220 -45.5h-23q-520 0 -520 401q0 105 17.5 181t46 133.5t64.5 101t72 84.5q222 186 566 186
q157 0 264 -35t172 -98.5t93 -152t28 -196.5zM1327 1119q0 296 -280 296q-60 -5 -103.5 -12t-77.5 -20t-62.5 -33.5t-56.5 -51.5q-86 -96 -102 -259q1 -62 21.5 -108.5t57.5 -78t88 -47.5t113 -16q75 0 144.5 23t124 66t90.5 104t43 137z" />
    <glyph glyph-name="uni0E47.sm" 
d="M258 3413q-42 -41 -89.5 -67.5t-95.5 -41.5t-94.5 -20.5t-87.5 -5.5q-12 0 -34 0.5t-45 0.5q-24 0 -45 0.5t-30 0.5q-152 0 -235 -50q-77 -47 -117 -264l186 140q3 -8 19 -26.5t40 -40.5t53.5 -42t59.5 -31l-2 42q0 46 19.5 83.5t51 64.5t72.5 41.5t84 14.5
q79 0 125 -40.5t46 -112.5q0 -51 -20.5 -97t-58.5 -81t-93 -55.5t-124 -20.5q-44 0 -86.5 7t-81.5 23t-72.5 41.5t-57.5 61.5l-156 -127h-270l34 190q19 102 50 173t74.5 117.5t99.5 72.5t125 38.5t151 15t177 2.5q101 0 167.5 17t107.5 38.5t59.5 41t23.5 24.5zM-47 3109
q-24 0 -43.5 -9t-33.5 -24t-21.5 -34.5t-7.5 -40.5q0 -29 18.5 -49t55.5 -20q21 0 40 9t33.5 24t22.5 34t8 39q0 30 -18 50.5t-54 20.5z" />
    <glyph glyph-name="uni0E48.small" 
d="M254 3371l-105 -564h-324l101 564h328z" />
    <glyph glyph-name="uni0E49.small" 
d="M635 3346q0 -31 -14 -82t-44.5 -110t-77.5 -121.5t-113 -116.5q-50 -53 -124.5 -85t-159.5 -50t-173.5 -24t-165.5 -6q-81 0 -137.5 4t-79.5 6l24 131q37 0 63 2t47 9.5t41 22t46 40.5q-57 0 -99 8.5t-70.5 29t-42.5 53.5t-14 81q0 55 22 108.5t62.5 96t98 68.5t129.5 26
q59 0 102.5 -15t71.5 -43t41.5 -66.5t13.5 -84.5q0 -49 -16 -95t-39.5 -85t-48.5 -69t-43 -46q82 0 161 26t142.5 78t104 129.5t46.5 179.5h246zM-176 3293q-27 0 -49 -10.5t-37.5 -28t-24 -39.5t-8.5 -45q0 -78 82 -78q27 0 48.5 11t37.5 28.5t24.5 39.5t8.5 44
q0 78 -82 78z" />
    <glyph glyph-name="uni0E4A.small" 
d="M547 3527q-7 -5 -18.5 -15t-24.5 -27t-25.5 -42t-21.5 -60q-21 -82 -38.5 -158.5t-43 -144.5t-64 -124.5t-100.5 -97t-153.5 -63t-223.5 -22.5q19 15 36 47.5t31 73t25 84t19 81t12 63.5t4 32q0 40 -13.5 63t-39.5 23q-11 0 -30.5 -7.5t-38 -17t-32 -18t-13.5 -10.5
q-6 6 -17.5 14.5t-28 16t-38 13t-48.5 5.5q-24 0 -41.5 -9.5t-29.5 -22.5t-18.5 -26t-8.5 -20q9 2 16 3.5t15.5 2.5t20.5 1.5t32 0.5q28 0 55 -10.5t48 -31t34 -49t13 -64.5q0 -38 -16 -81t-48 -79.5t-79.5 -61t-110.5 -24.5q-51 0 -92.5 12t-71.5 38.5t-46 67.5t-16 99
q0 69 24 141t67.5 130.5t105.5 96t139 37.5q32 0 61.5 -10t52.5 -22.5t36.5 -24.5t13.5 -16q4 8 19 21t37.5 25.5t51 21.5t60.5 9q45 0 74.5 -14t47 -44t24.5 -76.5t7 -111.5q0 -32 -4 -57.5t-13 -51t-24 -53t-37 -63.5q49 42 83.5 80.5t58.5 85t38.5 106t23.5 142.5
q13 76 36 122.5t41 70.5h205zM-403 3060q-24 0 -43 -9.5t-32.5 -24.5t-20.5 -34.5t-7 -38.5q0 -69 70 -69q24 0 43 9t32.5 23.5t20.5 33.5t7 40q0 70 -70 70z" />
    <glyph glyph-name="uni0E4B.small" 
d="M214 3016l-37 -205h-328l37 205h-295l33 201h295l37 205h327l-36 -205h294l-32 -201h-295z" />
    <glyph glyph-name="uni0E4C.small" 
d="M511 3290q-49 -99 -164 -123q-170 -37 -250 -37q53 -53 53 -135q0 -80 -26.5 -139.5t-74.5 -100t-115 -60.5t-148 -20q-53 0 -93 18t-68 48.5t-42 71t-14 84.5q0 66 25 123t65 100.5t90.5 72.5t100.5 40q28 6 81 13t112.5 14.5t114.5 16t87 17.5q42 12 73 31.5t52 41.5
t33.5 43t17.5 35zM-116 3056q-29 0 -54 -11.5t-43 -30.5t-28 -43.5t-10 -49.5q0 -90 94 -90q29 0 54 12t43 31t28 43t10 49q0 90 -94 90z" />
    <glyph glyph-name="uni0E4D.small" 
d="M405 3150q-2 -78 -31 -149t-80.5 -125.5t-122.5 -87t-157 -32.5q-68 0 -120 20.5t-86.5 56t-52 83.5t-17.5 103q0 73 28.5 143.5t80.5 125.5t124.5 89t161.5 34q67 0 117.5 -20.5t85 -55.5t52 -83t17.5 -102zM98 3215q-35 0 -63.5 -13t-49 -34t-31.5 -48.5t-11 -56.5
q0 -45 27 -74.5t81 -29.5q32 0 59.5 12.5t48 34t32 49.5t11.5 60q0 43 -25 71.5t-79 28.5z" />
    <glyph glyph-name="uni0E4E.small" 
d="M471 3423l-97 -64q-17 5 -32.5 9.5t-42.5 4.5q-33 0 -63 -9t-53 -24t-36.5 -33.5t-13.5 -37.5q0 -17 11.5 -30t30 -21.5t42 -13t48.5 -4.5l-54 -84q-47 0 -93.5 -10t-84 -28.5t-60.5 -46t-23 -62.5q0 -28 21 -42t51 -14q65 0 118 45l69 -65q-110 -78 -262 -78
q-49 0 -83.5 9.5t-56 26t-31.5 39.5t-10 49q0 45 21 86t57 73t84.5 54t103.5 28q-25 15 -40.5 38t-15.5 55q0 37 25.5 70.5t71.5 58.5t110 40t142 15q84 0 146 -34z" />
  </font>
</defs>
</svg>
