<?xml version="1.0" standalone="no"?>
<!DOCTYPE svg PUBLIC "-//W3C//DTD SVG 1.1//EN" "http://www.w3.org/Graphics/SVG/1.1/DTD/svg11.dtd" >
<svg>
<metadata>
Created by FontForge 20120731 at Mon Feb 18 09:26:35 2019
 By www
(c) 1992 Unity Progress. Portions (c) 2004 The Monotype Corporation. Portions (c) 2004 Microsoft Corporation. All Rights Reserved.
</metadata>
<defs>
<font id="FreesiaUPCItalic" horiz-adv-x="0" >
  <font-face 
    font-family="FreesiaUPC"
    font-weight="400"
    font-style="italic"
    font-stretch="normal"
    units-per-em="4096"
    panose-1="2 11 6 4 2 2 2 9 2 4"
    ascent="3276"
    descent="-820"
    x-height="1364"
    cap-height="1839"
    bbox="-1565 -1495 3265 3432"
    underline-thickness="20"
    underline-position="-123"
    unicode-range="U+0020-25CC"
  />
    <missing-glyph />
    <glyph glyph-name="000a" horiz-adv-x="3072" 
d="M512 0v2560h2048v-2560h-2048zM2496 64v2432h-1920v-2432h1920z" />
    <glyph glyph-name="glyph1" 
 />
    <glyph glyph-name="glyph2" 
 />
    <glyph glyph-name="space" unicode=" " horiz-adv-x="909" 
 />
    <glyph glyph-name="space" unicode="&#xa0;" horiz-adv-x="909" 
 />
    <glyph glyph-name="exclam" unicode="!" horiz-adv-x="909" 
d="M512 1786h287l-86 -496l-217 -844h-156l86 844zM340 -8q-135 0 -135 131q0 71 52 129.5t136 58.5q135 0 135 -131q0 -71 -52 -129.5t-136 -58.5z" />
    <glyph glyph-name="quotedbl" unicode="&#x22;" horiz-adv-x="1016" 
d="M803 1864l-352 -590h-123l270 590h205zM1114 1864l-352 -590h-123l270 590h205z" />
    <glyph glyph-name="numbersign" unicode="#" horiz-adv-x="1802" 
d="M430 1249h311l197 500h160l-201 -500h340l197 484h163l-196 -484h348l-57 -127h-344l-152 -381h369l-58 -131h-356l-238 -610h-159l241 610h-344l-237 -610h-156l234 610h-316l53 131h316l143 381h-319zM844 1122l-144 -381h344l148 381h-348z" />
    <glyph glyph-name="dollar" unicode="$" horiz-adv-x="1597" 
d="M1466 1188h-196q8 0 8 69q0 58 -29 115q-51 94 -188 94l-94 -528q34 0 165.5 -59t190.5 -142q53 -76 53 -196q0 -216 -139 -361q-98 -104 -225 -144t-209 -40l-37 -209h-123l37 209q-217 0 -344 123q-78 72 -78 241q0 107 16 107h193q0 -167 29 -201q90 -94 213 -94
l106 598q-48 0 -182.5 47.5t-206.5 140.5q-37 49 -37 152q0 100 41.5 203.5t122.5 173.5q173 155 418 155l28 164h123l-28 -164q56 0 152 -24t163 -102q74 -80 74 -213q0 -115 -17 -115zM598 1212q0 -129 101.5 -187t152.5 -58l86 499q-113 0 -215 -63.5t-125 -190.5z
M934 733l-103 -565q100 0 204 69t128 222q0 98 -44 160t-98 88t-87 26z" />
    <glyph glyph-name="percent" unicode="%" horiz-adv-x="2413" 
d="M471 0l1278 1638h180l-1282 -1638h-176zM999 1110q-45 -222 -160.5 -373t-301.5 -151q-275 5 -275 356q0 98 21 205q39 196 161 343.5t306 147.5q266 -10 266 -348q0 -100 -17 -180zM2114 520q-47 -224 -160.5 -374t-298.5 -150q-275 5 -275 356q0 91 21 205
q39 199 160 345.5t303 146.5q143 -3 206.5 -97.5t63.5 -242.5q0 -86 -20 -189zM1839 922q-99 0 -157.5 -113t-84.5 -260q-24 -148 -24 -230q0 -184 119 -184q158 0 225 406q25 135 25 213q0 163 -103 168zM721 1511q-98 0 -157 -112.5t-85 -259.5q-24 -148 -24 -230
q0 -184 118 -184q154 0 230 405q24 132 24 213q0 163 -106 168z" />
    <glyph glyph-name="ampersand" unicode="&#x26;" horiz-adv-x="1688" 
d="M1475 0h-283l-82 123q-33 -35 -147 -87t-328 -52q-163 6 -277.5 92.5t-124.5 238.5q0 144 52.5 262.5t125 199t134.5 125t69 44.5q-22 30 -57 102t-37 160q0 151 84 272t215 154q29 8 103 8q295 0 295 -319q-29 -168 -147.5 -274.5t-192.5 -143.5q17 -28 63.5 -108
t63.5 -113q58 -96 98.5 -152t52.5 -69q9 15 21 36t28 83q21 77 21 114h213q-1 -13 -7 -73.5t-51 -167.5q-19 -45 -40.5 -79t-40.5 -58t-25 -31zM700 766q-46 -24 -123.5 -101t-105.5 -206q-8 -42 -8 -62q0 -96 58.5 -153t150.5 -60q148 0 237.5 48t89.5 67
q-21 25 -70.5 89.5t-105.5 156.5q-49 82 -81.5 143t-41.5 78zM991 1278q13 41 13 70q0 51 -27.5 82.5t-79.5 31.5q-62 -3 -104 -49.5t-56 -126.5q0 -85 25 -141t41 -76q33 18 93 70t95 139z" />
    <glyph glyph-name="quotesingle" unicode="'" horiz-adv-x="778" 
d="M758 1864l-352 -590h-123l270 590h205z" />
    <glyph glyph-name="parenleft" unicode="(" horiz-adv-x="1303" 
d="M508 819q-41 -213 -41 -418q1 -195 45 -371.5t131.5 -332.5t228.5 -311l-127 -115q-495 465 -495 1114q0 193 45 434q61 324 183 586t321.5 487t482.5 426l98 -98q-253 -198 -427.5 -408t-281.5 -451.5t-163 -541.5z" />
    <glyph glyph-name="parenright" unicode=")" horiz-adv-x="1303" 
d="M500 2220l147 98q244 -240 359.5 -507t115.5 -594q0 -185 -37 -398q-57 -332 -176.5 -599t-316.5 -497t-481 -436l-103 99q251 199 425.5 416t280.5 464t158 553q37 206 37 385q0 295 -100.5 542.5t-308.5 473.5z" />
    <glyph glyph-name="asterisk" unicode="*" horiz-adv-x="1339" 
d="M397 1135l-57 131l426 180l-365 176l103 135l307 -250l33 430h155l-110 -430l397 250l53 -135l-430 -176l361 -180l-99 -131l-311 245l-33 -430h-155l114 426z" />
    <glyph glyph-name="plus" unicode="+" horiz-adv-x="1642" 
d="M1040 1425l-90 -507h508l-33 -193h-507l-91 -508h-192l90 508h-508l33 193h508l90 507h192z" />
    <glyph glyph-name="comma" unicode="," horiz-adv-x="827" 
d="M348 12q-5 -3 -27.5 -7.5t-74.5 -4.5q-86 18 -86 115q0 76 65 135q54 49 135 49q109 0 132 -57q36 -61 36 -127q0 -93 -82 -254q-58 -112 -160.5 -160t-158.5 -57l20 114q78 0 148 86q53 67 53 168z" />
    <glyph glyph-name="hyphen" unicode="-" horiz-adv-x="1642" 
d="M360 918h1053l-33 -193h-1052z" />
    <glyph glyph-name="period" unicode="." horiz-adv-x="709" 
d="M238 0q-136 0 -136 131q0 73 53 135t140 62q135 0 135 -131q0 -75 -53.5 -136t-138.5 -61z" />
    <glyph glyph-name="slash" unicode="/" horiz-adv-x="1434" 
d="M61 0l1278 1638h181l-1282 -1638h-177z" />
    <glyph glyph-name="zero" unicode="0" horiz-adv-x="1802" 
d="M1663 926q-45 -252 -145 -462t-282 -341t-450 -131q-585 0 -585 614q0 132 28 312q169 925 881 925q582 0 582 -618q0 -121 -29 -299zM1077 1659q-269 0 -399 -207.5t-186 -525.5q-33 -192 -33 -303q0 -447 360 -447q265 0 399.5 215.5t190.5 534.5q29 170 29 291
q0 442 -361 442z" />
    <glyph glyph-name="one" unicode="1" horiz-adv-x="1802" 
d="M946 0h-217l283 1602l-459 -328l41 246l463 315h213z" />
    <glyph glyph-name="two" unicode="2" horiz-adv-x="1802" 
d="M586 1176h-217q1 8 19.5 123t89.5 238t228.5 214t415.5 92q570 0 570 -381q0 -34 -9 -86q-19 -145 -84.5 -243t-163 -162t-232 -125t-331.5 -150q-217 -99 -316.5 -178.5t-125.5 -226.5l-20 -98h1060l-32 -193h-1278l45 246q20 134 60.5 228.5t180.5 189.5
q125 91 213 133.5t287 130t316 153.5q204 120 204 320q0 115 -73 188q-74 74 -295 74q-259 0 -381 -127q-81 -89 -106 -195.5t-25 -164.5z" />
    <glyph glyph-name="three" unicode="3" horiz-adv-x="1802" 
d="M635 1294h-213q1 7 20.5 102.5t86 196t212.5 175t385 75.5q285 0 425.5 -81.5t140.5 -262.5q0 -35 -9 -94q-58 -366 -446 -418q90 -6 225 -76.5t135 -275.5q0 -20 -8 -86q-50 -277 -231.5 -416t-566.5 -145q-562 0 -562 418q0 59 9.5 104t15.5 63h213l-8 -41
q-9 -44 -13 -86q0 -286 377 -286q259 0 394.5 99t162.5 319q0 172 -115.5 247.5t-293.5 75.5h-217l32 180h209q404 0 463 299q12 43 12 82q0 217 -335 217q-306 0 -403 -128t-97 -257z" />
    <glyph glyph-name="four" unicode="4" horiz-adv-x="1802" 
d="M995 0l90 504h-1003l33 188l1147 1143h274l-201 -1143h336l-33 -188h-335l-91 -504h-217zM1118 692l164 930l-913 -930h749z" />
    <glyph glyph-name="five" unicode="5" horiz-adv-x="1802" 
d="M1630 1651h-897l-131 -496q36 36 148 89.5t307 53.5q71 0 151 -12q183 -23 276 -143t93 -307q0 -50 -16 -164q-37 -210 -124 -361t-246.5 -235t-399.5 -84q-324 0 -441 130t-117 288q0 29 3.5 49t5.5 28h221l-4 -22q-4 -25 -4 -51q0 -253 364 -258q439 0 524 516
q13 65 13 123q0 335 -373 335q-211 0 -319.5 -90.5t-139.5 -150.5h-213l250 946h1102z" />
    <glyph glyph-name="six" unicode="6" horiz-adv-x="1802" 
d="M1102 1249q236 -3 359.5 -121.5t123.5 -336.5q0 -76 -20 -193q-43 -216 -156.5 -352.5t-270 -197t-335.5 -60.5q-570 0 -570 573q0 144 46 385q45 239 143.5 438t273.5 326t430 133q336 0 444.5 -131t108.5 -328h-221q0 295 -356 295q-165 -3 -280.5 -93.5t-178.5 -215
t-89 -229t-26 -137.5q36 61 170.5 153t403.5 92zM504 614q-17 -75 -17 -143q0 -315 361 -315q411 0 487 458q13 81 13 140q0 331 -336 331q-426 0 -508 -471z" />
    <glyph glyph-name="seven" unicode="7" horiz-adv-x="1802" 
d="M496 1835h1220l-33 -188q-36 -29 -118.5 -114t-210 -249.5t-264.5 -394.5q-149 -253 -226 -449.5t-135 -439.5h-266q5 37 32.5 138.5t103 282.5t200.5 386q134 220 285 408.5t271 313.5q117 122 120 122h-1012z" />
    <glyph glyph-name="eight" unicode="8" horiz-adv-x="1802" 
d="M1679 1380q-26 -159 -111 -247t-167 -117t-115 -29q26 0 99 -33.5t136.5 -113.5t63.5 -209q0 -47 -12 -103q-56 -290 -276 -415t-511 -125q-260 0 -433 101.5t-173 328.5q0 51 13 110q29 171 127 273.5t194.5 144t120.5 41.5q-56 0 -159 64.5t-103 226.5q0 46 12 102
q49 228 240 346t493 121q570 0 570 -372q0 -21 -9 -95zM1442 1380q0 299 -357 299q-192 0 -311.5 -77.5t-150.5 -221.5q-9 -43 -9 -65q0 -234 369 -234q183 0 312.5 79t146.5 220zM950 905q-446 -5 -508 -377q-8 -56 -8 -82q0 -284 385 -290q216 0 344.5 101t159.5 271
q8 66 8 95q0 282 -381 282z" />
    <glyph glyph-name="nine" unicode="9" horiz-adv-x="1802" 
d="M791 586q-238 3 -361 123t-123 340q0 75 21 188q43 216 156.5 352.5t270 197t335.5 60.5q569 0 569 -569q0 -178 -45 -389q-72 -380 -274.5 -634.5t-573.5 -262.5q-326 0 -441.5 120.5t-115.5 268.5q0 26 3 44.5t5 25.5h221q0 -126 69.5 -210.5t283.5 -84.5
q208 4 337 137.5t182.5 293t53.5 244.5q-35 -61 -168.5 -153t-404.5 -92zM1393 1221q12 73 12 139q0 319 -356 319q-416 0 -492 -458q-12 -75 -12 -136q0 -335 340 -335q205 0 334.5 121t173.5 350z" />
    <glyph glyph-name="colon" unicode=":" horiz-adv-x="922" 
d="M582 1311q-136 0 -136 131q0 72 54.5 134t142.5 62q135 0 135 -131q0 -74 -54.5 -135t-141.5 -61zM352 0q-135 0 -135 131q0 73 53 135t140 62q135 0 135 -131q0 -75 -53.5 -136t-139.5 -61z" />
    <glyph glyph-name="semicolon" unicode=";" horiz-adv-x="827" 
d="M352 12q-5 -3 -27.5 -7.5t-74.5 -4.5q-86 18 -86 111q0 80 65 139q58 53 140 53q92 0 127 -61q32 -49 32 -123q0 -104 -77 -258q-59 -112 -161.5 -160t-158.5 -57l21 114q77 0 147 86q53 67 53 168zM545 1311q-135 0 -135 131q0 74 54.5 135t141.5 61q135 0 135 -131
q0 -74 -54.5 -135t-141.5 -61z" />
    <glyph glyph-name="less" unicode="&#x3c;" horiz-adv-x="1311" 
d="M1012 254l-824 553l1016 561l-33 -184l-716 -377l589 -369z" />
    <glyph glyph-name="equal" unicode="=" horiz-adv-x="1642" 
d="M389 1155h1053l-37 -192h-1053zM307 688h1053l-37 -192h-1053z" />
    <glyph glyph-name="greater" unicode="&#x3e;" horiz-adv-x="1282" 
d="M225 455l717 368l-582 377l33 184l815 -561l-1015 -553z" />
    <glyph glyph-name="question" unicode="?" horiz-adv-x="1638" 
d="M410 1118v-1q-2 0 -27 66q-27 71 -27 144q0 204 201 389q74 73 205 112.5t278 39.5q307 0 435 -156q86 -104 86 -217q0 -236 -361 -496q-166 -120 -209 -200t-65 -205l-33 -168h-197l41 217q26 143 94 237.5t213 196.5q127 91 199.5 173.5t91.5 187.5q0 268 -311 274
q-167 0 -284.5 -63t-153.5 -195q-17 -54 -17 -98q0 -62 29 -101q24 -32 28 -32q1 0 1 2zM725 -8q-135 0 -135 131q0 70 51 127t133 57q135 0 135 -131q0 -70 -51 -127t-133 -57z" />
    <glyph glyph-name="at" unicode="@" horiz-adv-x="2146" 
d="M1737 1356l-324 -639q-20 -48 -20 -82q0 -82 114 -82q119 22 222.5 112t166 214t62.5 235q0 177 -89 311t-239.5 207.5t-326.5 79.5q-220 0 -450.5 -133.5t-386 -342.5t-167.5 -417q0 -336 195 -510t501 -174q202 0 406 74l41 -143q-262 -91 -520 -91
q-337 0 -576.5 202.5t-239.5 555.5q13 220 120.5 427t287 365.5t409 250.5t478.5 92q195 -11 361.5 -99t267 -252.5t100.5 -386.5q-28 -212 -183.5 -424.5t-361.5 -279.5q-83 -25 -155 -25q-26 0 -107 13q-60 11 -87.5 56.5t-27.5 90.5q-18 -15 -49 -41t-71 -50t-101 -44
q-55 -16 -115 -16q-66 0 -110 24q-126 62 -164 217q-8 42 -8 70q7 116 49 205q95 241 307 381q184 102 307 102q42 0 78 -12q64 -20 108.5 -76.5t47.5 -108.5l74 144h176zM1282 1241q-32 8 -61 8q-84 0 -156 -45q-135 -79 -213 -241q-15 -40 -29 -76.5t-23 -69t-9 -72.5
q0 -62 28 -114q27 -46 71 -62t126 -16q102 31 188 143q60 66 117 190t63 208q0 64 -17.5 94t-84.5 53z" />
    <glyph glyph-name="A" unicode="A" horiz-adv-x="1503" 
d="M1130 0l-90 537h-680l-262 -537h-192l921 1839h263l278 -1839h-238zM897 1593l-442 -880h569z" />
    <glyph glyph-name="B" unicode="B" horiz-adv-x="1667" 
d="M807 197q200 0 311 77q128 77 156 246q8 50 8 74q0 133 -86 213q-78 65 -299 65h-418l-123 -675h451zM868 1053q242 0 349 69q132 88 159 242q0 178 -94 242q-74 49 -250 49h-418l-106 -602h360zM94 0l324 1839h696q130 0 209 -15t152 -71q139 -100 139 -283
q0 -29 -8 -77q-27 -156 -133.5 -266t-264.5 -148v-4q145 -30 226.5 -131t81.5 -246q0 -16 -9 -90q-46 -254 -245 -389q-112 -75 -217.5 -97t-253.5 -22h-697z" />
    <glyph glyph-name="C" unicode="C" horiz-adv-x="1667" 
d="M1520 573q-115 -278 -311 -438t-476 -160q-210 0 -344.5 99t-196 263t-61.5 363q0 112 21 238q46 249 166 460.5t315.5 340.5t451.5 129q180 0 303.5 -74.5t186 -206.5t67.5 -305l-225 -41q-37 434 -373 434q-272 0 -430 -228.5t-208 -524.5q-21 -120 -21 -234
q0 -128 25 -229q37 -130 128.5 -210.5t227.5 -80.5q358 0 557 455z" />
    <glyph glyph-name="D" unicode="D" horiz-adv-x="1774" 
d="M430 1839h582q214 0 352.5 -55t237.5 -203q122 -186 122 -451q0 -112 -16 -204q-66 -365 -303 -631q-260 -295 -643 -295h-656zM705 197q176 0 308 50.5t240 182.5q168 203 217 496q17 80 17 180q0 207 -86 356q-68 109 -172 147t-266 38h-336l-258 -1450h336z" />
    <glyph glyph-name="E" unicode="E" horiz-adv-x="1503" 
d="M1294 0h-1188l324 1839h1163l-32 -197h-934l-107 -585h742l-29 -185h-741l-119 -671h958z" />
    <glyph glyph-name="F" unicode="F" horiz-adv-x="1286" 
d="M98 0l324 1839h1126l-32 -197h-898l-106 -585h741l-28 -185h-742l-155 -872h-230z" />
    <glyph glyph-name="G" unicode="G" horiz-adv-x="1774" 
d="M1483 -12h-140l-24 225q-203 -238 -553 -238q-361 0 -520 279q-103 182 -103 422q0 88 21 225q46 253 173 474t331 357t462 136q261 0 407.5 -138.5t170.5 -390.5l-229 -53q-6 175 -112.5 282t-281.5 107q-284 0 -447 -225.5t-220 -536.5q-21 -128 -21 -229
q0 -144 37 -258q44 -119 147 -190.5t238 -71.5q212 0 360.5 129.5t184.5 341.5l20 102h-458l32 193h693z" />
    <glyph glyph-name="H" unicode="H" horiz-adv-x="1774" 
d="M1180 0l155 872h-856l-155 -872h-230l324 1839h229l-135 -762h856l135 762h230l-324 -1839h-229z" />
    <glyph glyph-name="I" unicode="I" horiz-adv-x="700" 
d="M106 0l324 1839h229l-323 -1839h-230z" />
    <glyph glyph-name="J" unicode="J" horiz-adv-x="1073" 
d="M848 602q-59 -316 -184 -446q-171 -181 -476 -181q-142 0 -262 37l33 189q126 -29 229 -29q220 0 312 107q32 32 53 71t31.5 79t18.5 84.5t15 88.5l218 1237h229z" />
    <glyph glyph-name="K" unicode="K" horiz-adv-x="1667" 
d="M1307 0l-369 1016l-516 -524l-86 -492h-230l324 1839h229l-188 -1069l1020 1069h250l-611 -643l435 -1196h-258z" />
    <glyph glyph-name="L" unicode="L" horiz-adv-x="1343" 
d="M1188 0h-1086l324 1839h229l-286 -1634h856z" />
    <glyph glyph-name="M" unicode="M" horiz-adv-x="2204" 
d="M287 0h-197l324 1839h344l295 -1474l807 1474h335l-323 -1839h-230l283 1606h-16l-860 -1606h-156l-315 1606h-9z" />
    <glyph glyph-name="N" unicode="N" horiz-adv-x="1774" 
d="M1229 0l-656 1606l-282 -1606h-193l324 1839h291l606 -1499l262 1499h197l-324 -1839h-225z" />
    <glyph glyph-name="O" unicode="O" horiz-adv-x="1774" 
d="M156 909q43 240 162.5 460.5t314 359.5t444.5 139q310 0 464.5 -200.5t154.5 -508.5q0 -97 -21 -217q-43 -236 -165 -459.5t-317.5 -365.5t-442.5 -142q-310 0 -462.5 197t-152.5 504q0 107 21 233zM1430 930q24 156 24 241q0 149 -41 259q-47 115 -139 182t-221 67
q-278 0 -442.5 -235.5t-217.5 -542.5q-20 -108 -20 -201q0 -225 98.5 -380.5t310.5 -155.5q269 0 431.5 235t216.5 531z" />
    <glyph glyph-name="P" unicode="P" horiz-adv-x="1503" 
d="M49 0l324 1839h614q300 0 426 -123q115 -115 115 -319q0 -74 -8 -111q-43 -238 -226 -389q-182 -147 -467 -147h-417l-131 -750h-230zM831 938q194 0 316 98q112 94 139 250q8 58 8 86q-7 136 -82 205q-75 70 -233 70h-410l-127 -709h389z" />
    <glyph glyph-name="Q" unicode="Q" horiz-adv-x="1774" 
d="M1425 918q25 126 25 258q0 491 -406 491q-308 0 -483 -287q-125 -212 -168 -479q-20 -130 -20 -237q0 -219 89.5 -359.5t299.5 -140.5q290 0 450 220.5t213 533.5zM1356 -221l-29 -180q-104 -37 -209 -37q-377 0 -377 319q0 36 9 94q-315 7 -469 198.5t-154 494.5
q0 138 20 241q74 399 287 643q272 316 643 316q212 0 352.5 -95.5t205.5 -255.5t65 -362q0 -109 -21 -233q-37 -208 -130.5 -398t-248 -330.5t-358.5 -189.5l-8 -41q0 -201 205 -201z" />
    <glyph glyph-name="R" unicode="R" horiz-adv-x="1667" 
d="M1176 0l-201 795h-512l-139 -795h-230l324 1839h692q269 0 393 -110q135 -111 135 -312q0 -28 -8 -94q-28 -166 -142.5 -295.5t-279.5 -175.5l209 -852h-241zM930 983q111 0 188 19.5t148 82.5q105 90 135 242q8 50 8 74q0 118 -90 184q-75 57 -242 57h-463l-118 -659
h434z" />
    <glyph glyph-name="S" unicode="S" horiz-adv-x="1667" 
d="M291 541q25 -184 152.5 -276.5t326.5 -92.5q214 0 344 86q131 87 160 242q0 234 -266 295l-291 77q-113 29 -181.5 58.5t-125.5 89.5q-95 100 -95 254q0 34 9 86q29 170 135.5 285t259 169t317.5 54q236 0 389 -116t185 -335l-217 -57q-3 149 -120.5 238.5t-273.5 89.5
q-148 0 -283.5 -77t-162.5 -218q0 -145 67 -198.5t211 -96.5l271 -62q231 -67 307 -147q119 -113 119 -283q0 -24 -8 -82q-51 -261 -283 -418q-200 -131 -504 -131q-572 0 -655 525z" />
    <glyph glyph-name="T" unicode="T" horiz-adv-x="1343" 
d="M430 0l291 1638h-524l32 201h1278l-32 -201h-525l-291 -1638h-229z" />
    <glyph glyph-name="U" unicode="U" horiz-adv-x="1716" 
d="M1688 1839l-205 -1163q-29 -162 -74 -280t-143 -216q-206 -205 -537 -205t-467 172q-78 118 -78 283q0 97 29 246l205 1163h229l-205 -1163q-20 -97 -20 -193q0 -103 33 -164q67 -139 327 -139q230 0 353 127q114 111 155 369l205 1163h193z" />
    <glyph glyph-name="V" unicode="V" horiz-adv-x="1503" 
d="M745 0h-221l-299 1839h246l242 -1515l778 1515h201z" />
    <glyph glyph-name="W" unicode="W" horiz-adv-x="2204" 
d="M1614 0h-234l-147 1425l-627 -1425h-229l-148 1839h234l110 -1491h5l651 1491h184l156 -1491h4l606 1491h201z" />
    <glyph glyph-name="X" unicode="X" horiz-adv-x="1450" 
d="M913 995l414 -995h-266l-324 782l-622 -782h-213l757 954l-368 885h254l286 -680l533 680h213z" />
    <glyph glyph-name="Y" unicode="Y" horiz-adv-x="1503" 
d="M885 774l-135 -774h-230l135 774l-426 1065h271l340 -848l643 848h209z" />
    <glyph glyph-name="Z" unicode="Z" horiz-adv-x="1450" 
d="M1225 0h-1303l37 201l1258 1446h-959l33 192h1225l-25 -151l-1274 -1487h1045z" />
    <glyph glyph-name="bracketleft" unicode="[" horiz-adv-x="807" 
d="M-29 -459l406 2298h475l-25 -135h-295l-356 -2019h295l-25 -144h-475z" />
    <glyph glyph-name="backslash" unicode="\" horiz-adv-x="1397" 
d="M1040 0l-790 1839h184l787 -1839h-181z" />
    <glyph glyph-name="bracketright" unicode="]" horiz-adv-x="807" 
d="M-29 -459l25 144h291l356 2019h-291l25 135h475l-406 -2298h-475z" />
    <glyph glyph-name="asciicircum" unicode="^" horiz-adv-x="1610" 
d="M946 1839h119l270 -1143h-164l-208 889l-525 -889h-155z" />
    <glyph glyph-name="underscore" unicode="_" horiz-adv-x="1343" 
d="M1241 -340h-1204l28 164h1205z" />
    <glyph glyph-name="grave" unicode="`" horiz-adv-x="1020" 
d="M369 1745l127 176l483 -319l-78 -107z" />
    <glyph glyph-name="a" unicode="a" horiz-adv-x="1450" 
d="M1094 684h-172q-548 0 -603 -307q0 -242 250 -242q188 0 333 137.5t179 325.5zM1122 844l13 57q8 37 8 103q0 125 -69.5 179t-225.5 54q-323 0 -414 -246l-192 37q41 130 145 213t238.5 119.5t267.5 36.5q303 0 397 -131q62 -85 62 -217q0 -51 -29 -230l-94 -532
q-17 -99 -17 -287h-208l16 254q-184 -279 -524 -279q-179 0 -294.5 86.5t-115.5 245.5q0 24 8 82q23 120 110 223.5t210 153.5q173 78 536 78h172z" />
    <glyph glyph-name="b" unicode="b" horiz-adv-x="1450" 
d="M356 569q-8 -64 -8 -98q0 -102 33 -172q90 -160 270 -160q189 0 301.5 159t149.5 366q16 114 16 188q0 381 -274 381q-103 0 -198.5 -60.5t-161.5 -159t-87 -198.5zM147 0h-102l324 1839h209l-123 -700h12q180 258 442 258q124 0 225.5 -60.5t155.5 -160.5
q62 -130 62 -299q0 -54 -17 -177q-31 -181 -122 -348.5t-238 -272t-336 -104.5q-133 0 -230.5 70t-146.5 188z" />
    <glyph glyph-name="c" unicode="c" horiz-adv-x="1286" 
d="M1151 451q-69 -211 -231 -343.5t-379 -132.5q-160 0 -266 70t-155.5 190t-49.5 269q0 93 16 176q35 187 128 351t242 265t339 101q215 0 328.5 -128t113.5 -343l-201 -37q0 332 -266 332q-188 0 -302.5 -158t-152.5 -367q-16 -76 -16 -180q0 -364 270 -364q271 0 398 335
z" />
    <glyph glyph-name="d" unicode="d" horiz-adv-x="1450" 
d="M1081 811q13 53 13 111q0 83 -41 155q-29 73 -105.5 114.5t-169.5 41.5q-173 0 -303 -172q-107 -133 -143 -352q-21 -100 -21 -201q0 -361 267 -361q194 0 331 164q101 111 135 283zM1262 1839h208l-323 -1839h-193l41 242h-4q-177 -267 -471 -267q-259 0 -377 230
q-61 117 -61 291q0 101 16 184q52 287 234 502t454 215q242 0 361 -217z" />
    <glyph glyph-name="e" unicode="e" horiz-adv-x="1450" 
d="M1245 377q-92 -185 -270.5 -293.5t-376.5 -108.5q-253 0 -386.5 151.5t-133.5 393.5q0 54 16 160q34 192 137.5 356.5t264.5 262.5t356 98q247 0 369 -144t122 -376q0 -103 -24 -213h-987q-21 -94 -21 -172q0 -80 21 -136q32 -95 118 -152t193 -57q130 0 239 70.5
t175 196.5zM1114 823q12 55 12 107q0 140 -77.5 223.5t-225.5 83.5q-163 0 -291 -123t-167 -291h749z" />
    <glyph glyph-name="f" unicode="f" horiz-adv-x="807" 
d="M877 1196h-316l-209 -1196h-205l209 1196h-245l32 168h246q63 504 500 504l188 -21l-33 -168q-79 21 -163 21q-155 0 -205.5 -81.5t-81.5 -254.5h315z" />
    <glyph glyph-name="g" unicode="g" horiz-adv-x="1343" 
d="M1389 1577l53 -4l-33 -172h-20q-109 0 -170.5 -28.5t-92.5 -123.5q78 -108 78 -254q0 -24 -8 -82q-38 -204 -233 -344q-170 -102 -369 -102q-66 0 -94 8q-10 0 -40.5 8.5t-45.5 8.5q-50 0 -102.5 -41t-61.5 -91q0 -95 82 -114q40 -9 315 -21q296 -10 393 -45
q156 -71 156 -303q-70 -393 -745 -393q-260 0 -394 57q-176 75 -176 295q35 206 254 279q-94 74 -94 213q30 161 233 245q-122 117 -122 279q0 24 8 82q39 215 212.5 339t393.5 124q150 0 266 -58q50 139 130.5 188.5t226.5 49.5zM987 934q0 147 -67 223t-183 76
q-134 0 -234 -84t-126 -215q-8 -50 -8 -70q0 -110 70 -171.5t192 -61.5q135 0 233.5 82.5t122.5 220.5zM598 33l-324 24q-160 -76 -184 -188q0 -127 124 -174t269 -47q230 0 361 57q132 59 147 164q0 149 -262 160z" />
    <glyph glyph-name="h" unicode="h" horiz-adv-x="1450" 
d="M930 0l139 791q21 114 21 274q-18 77 -75.5 120.5t-142.5 43.5q-158 0 -299 -148q-133 -133 -176 -381l-123 -700h-208l323 1839h209l-127 -729h8q186 287 475 287q110 0 196.5 -51t127.5 -142q37 -78 37 -164q0 -41 -37 -249l-139 -791h-209z" />
    <glyph glyph-name="i" unicode="i" horiz-adv-x="643" 
d="M303 0h-209l242 1364h209zM598 1606h-229l41 233h229z" />
    <glyph glyph-name="j" unicode="j" horiz-adv-x="594" 
d="M258 -25q-33 -212 -127 -315q-126 -143 -344 -143q-81 0 -197 28l33 168q61 -20 152 -20q138 0 194 69t80 213l246 1389h209zM557 1606h-229l41 233h229z" />
    <glyph glyph-name="k" unicode="k" horiz-adv-x="1343" 
d="M975 0l-262 758l-353 -336l-73 -422h-209l323 1839h209l-204 -1175l753 696h225l-512 -479l324 -881h-221z" />
    <glyph glyph-name="l" unicode="l" horiz-adv-x="643" 
d="M94 0l324 1839h209l-324 -1839h-209z" />
    <glyph glyph-name="m" unicode="m" horiz-adv-x="2204" 
d="M496 1364l-50 -266h5q73 131 197 215t261 84q147 0 234.5 -88.5t93.5 -235.5q82 147 213.5 235.5t282.5 88.5q106 0 190.5 -53.5t120.5 -143.5q24 -67 24 -143q0 -69 -28 -242l-144 -815h-208l143 815q23 163 24 180q0 48 -12 90q-62 144 -209 144q-72 0 -149 -43.5
t-137 -112.5q-69 -74 -91.5 -140t-44.5 -196l-131 -737h-209l152 864q12 55 12 123q0 63 -16 107q-54 135 -205 135q-139 0 -270 -139q-103 -103 -139 -312l-136 -778h-209l242 1364h193z" />
    <glyph glyph-name="n" unicode="n" horiz-adv-x="1450" 
d="M459 1110h4q81 131 207 209t268 78q251 0 348 -213q25 -60 25 -144q0 -87 -37 -286l-131 -754h-209l147 844q2 25 10 75.5t11 88.5q0 48 -12 86q-26 56 -86 89.5t-132 33.5q-169 0 -299 -136q-127 -123 -172 -364l-127 -717h-213l242 1364h201z" />
    <glyph glyph-name="o" unicode="o" horiz-adv-x="1450" 
d="M106 696q52 296 253.5 498.5t496.5 202.5q243 0 365 -153.5t122 -391.5q0 -50 -16 -164q-56 -303 -258 -508t-496 -205q-242 0 -362.5 151.5t-120.5 389.5q0 99 16 180zM971 344q91 141 127 352q16 124 16 181q0 113 -33 188q-89 164 -270 164q-209 0 -340 -193
q-91 -125 -131 -340q-16 -122 -16 -196q0 -105 28 -181q28 -78 102 -125t164 -47q215 0 353 197z" />
    <glyph glyph-name="p" unicode="p" horiz-adv-x="1450" 
d="M389 532q0 -172 79.5 -278.5t211.5 -106.5q83 0 169 47.5t142 120.5q95 124 135 369q17 108 17 176q0 352 -275 352q-132 0 -248 -98t-169 -233zM217 -446h-209l320 1810h192l-49 -266h4q167 299 475 299q220 0 327 -152t107 -381q0 -52 -16 -168q-53 -288 -192 -467
q-207 -254 -476 -254q-260 0 -368 238z" />
    <glyph glyph-name="q" unicode="q" horiz-adv-x="1450" 
d="M1069 758q12 61 12 123q0 141 -65 229q-86 123 -225 123q-187 0 -303 -171t-156 -378q-13 -80 -13 -156q0 -376 283 -376q188 0 328 204q82 113 119 287zM1278 1364h106l-319 -1810h-209l123 700h-8q-164 -279 -455 -279q-222 0 -326 147t-104 370q0 105 16 188
q34 182 122.5 345.5t232.5 267.5t325 104q149 0 231 -61t142 -193z" />
    <glyph glyph-name="r" unicode="r" horiz-adv-x="860" 
d="M500 1364l-58 -320h9q178 357 458 357l78 -4l-37 -205h-41q-224 0 -393 -213q-84 -118 -119 -295l-118 -684h-209l241 1364h189z" />
    <glyph glyph-name="s" unicode="s" horiz-adv-x="1397" 
d="M258 401q0 -126 112 -190t253 -64q130 0 241.5 55.5t130.5 174.5q0 98 -63.5 139.5t-165.5 61.5l-217 45q-340 59 -340 303q0 21 8 69q35 199 203.5 300.5t374.5 101.5q202 0 333.5 -82.5t145.5 -257.5l-197 -41q-20 106 -104.5 161.5t-210.5 55.5q-107 0 -205.5 -50.5
t-118.5 -150.5q0 -102 53.5 -140.5t159.5 -60.5l189 -36q196 -34 266 -90q115 -91 115 -308q-37 -215 -225 -318.5t-414 -103.5q-218 0 -366.5 95t-166.5 290z" />
    <glyph glyph-name="t" unicode="t" horiz-adv-x="860" 
d="M713 -12l-205 -13q-324 0 -324 291q0 39 17 152l139 786h-242l29 172h242l61 336l213 21l-65 -357h303l-29 -172h-303l-143 -819q-9 -33 -9 -94q0 -152 181 -152l167 17z" />
    <glyph glyph-name="u" unicode="u" horiz-adv-x="1450" 
d="M942 0l49 274h-4q-80 -134 -206.5 -216.5t-264.5 -82.5q-225 0 -323 152q-58 86 -58 221q0 92 21 184l147 832h213l-147 -832q0 -31 -7.5 -81.5t-9.5 -77.5q0 -51 13 -86q24 -58 79.5 -94.5t120.5 -36.5q162 0 307 139q127 125 168 344l127 725h209l-241 -1364h-193z" />
    <glyph glyph-name="v" unicode="v" horiz-adv-x="1180" 
d="M594 0h-217l-246 1364h229l189 -1110l565 1110h189z" />
    <glyph glyph-name="w" unicode="w" horiz-adv-x="1774" 
d="M1225 0h-172l-123 1016l-459 -1016h-176l-164 1364h209l119 -1020l463 1020h151l127 -1020l488 1020h167z" />
    <glyph glyph-name="x" unicode="x" horiz-adv-x="1180" 
d="M807 0l-250 553l-451 -553h-208l589 709l-299 655h242l205 -471l381 471h205l-504 -614l336 -750h-246z" />
    <glyph glyph-name="y" unicode="y" horiz-adv-x="1130" 
d="M463 -127q-99 -177 -184 -254q-69 -60 -135.5 -83t-159.5 -23q-63 0 -156 28l29 164q98 -16 143 -16q77 0 132 28t93 74t78.5 120t61.5 114l-238 1339h217l184 -1028l553 1028h181z" />
    <glyph glyph-name="z" unicode="z" horiz-adv-x="1130" 
d="M1176 1249l-943 -1085h750l-29 -164h-1003l29 164l901 1032h-668l33 168h950z" />
    <glyph glyph-name="braceleft" unicode="{" horiz-adv-x="807" 
d="M106 786q133 27 191 111t84 246l70 422q22 120 115 205.5t159 89.5l197 8l-29 -164l-119 -8q-101 -10 -127 -164l-74 -434q-27 -164 -114.5 -260t-147.5 -129q16 -17 47 -53.5t57.5 -99t26.5 -150.5q0 -62 -8 -99l-78 -434q0 -93 13.5 -125t56.5 -35l115 -16l-29 -156
l-193 8q-60 6 -116 84t-56 215l78 414q17 75 17 156q0 172 -164 205z" />
    <glyph glyph-name="bar" unicode="|" horiz-adv-x="700" 
d="M307 0h-160l324 1839h160z" />
    <glyph glyph-name="braceright" unicode="}" horiz-adv-x="807" 
d="M705 623q-134 -22 -190.5 -106t-88.5 -255l-74 -414q-19 -122 -108.5 -207.5t-157.5 -91.5l-201 -8l29 156l123 16q55 6 81 44t42 116l73 434q43 248 271 402q-39 20 -89 94.5t-50 195.5q0 62 8 99l78 434q8 58 8 78q0 80 -74 86l-119 8l29 164l197 -8q56 -4 109.5 -80.5
t53.5 -214.5l-73 -422q-17 -110 -17 -152q0 -172 168 -205z" />
    <glyph glyph-name="asciitilde" unicode="~" horiz-adv-x="1610" 
d="M123 565q49 194 160 312q114 114 237 114q90 0 156 -45l360 -213q48 -33 99 -33q56 0 106 41q55 61 74 189h180q-8 -140 -139 -291q-103 -115 -242 -115q-105 0 -229 74l-295 176q-52 33 -94 33q-70 0 -119 -67.5t-70 -174.5h-184z" />
    <glyph glyph-name="DEL" 
d="M-991 2040h1228l-360 -2040h-1229z" />
    <glyph glyph-name="glyph99" horiz-adv-x="1561" 
d="M1348 950l-127 -725q-23 -114 -119 -184q-67 -49 -193 -49q-127 0 -180 53q-53 57 -53 188l4 271q-16 -6 -56.5 -15.5t-91.5 -9.5q-94 0 -155 41q-82 51 -82 168q0 109 70 197q107 127 266 127q50 0 98 -13q152 -41 152 -266l-17 -463q0 -62 14.5 -88t63.5 -26
q46 0 63.5 21t26.5 77l115 659q0 130 -83.5 182.5t-297.5 67.5q-49 4 -143 4q-49 0 -123 -2t-99 -2q-117 0 -122 54q0 131 115 252t278 157q114 21 168 21q98 0 232.5 -37.5t201.5 -40.5q59 0 109 27.5t71 45.5l57 -155q-20 -18 -81.5 -46t-159.5 -28q-88 2 -239.5 36
t-264.5 34q-105 0 -181.5 -44.5t-88.5 -115.5q0 -12 36 -12q11 0 74 4t115 4q180 0 381 -49q136 -36 195 -93t59 -153q0 -16 -8 -74zM606 877q-70 0 -112.5 -49.5t-42.5 -110.5q0 -103 106 -103q68 0 112 49.5t44 110.5q0 103 -107 103z" />
    <glyph glyph-name="glyph100" 
d="M-410 1929h-1114l33 185q34 181 192.5 283t385.5 102q274 0 405 -97t131 -260q0 -24 -8 -74zM-565 2130q0 82 -83.5 148t-273.5 69q-333 0 -372 -209l-9 -57h730z" />
    <glyph glyph-name="glyph101" 
d="M-520 2400l53 287h193l-136 -758h-1114l33 185q34 181 192.5 283t385.5 102q151 -3 237 -24.5t125 -47.5q32 -23 32 -26q0 -1 -1 -1zM-565 2130q0 82 -83.5 148t-273.5 69q-333 0 -372 -209l-9 -57h730z" />
    <glyph glyph-name="glyph102" 
d="M-446 1929h-1119l33 185q29 160 170.5 267t349.5 113q102 0 169 -8q52 -6 52 -8h-4q4 22 28.5 67t86.5 89q90 65 205 65q117 0 176 -65q57 -57 57 -156q0 -97 -57 -172q-51 -71 -131 -106l2 -37q2 -41 2 -78q-2 -42 -11 -99zM-999 2347q-299 -6 -336 -209l-8 -57h729
q-7 29 -40 89t-117.5 118.5t-227.5 58.5zM-504 2548q-65 0 -104 -45t-39 -99q0 -98 102 -98q62 0 103 45t41 98q0 99 -103 99z" />
    <glyph glyph-name="glyph103" 
d="M-778 2490l37 197h172l-41 -229l110 -66l54 295h172l-136 -758h-1114l33 185q23 125 115.5 223t232.5 133q129 33 238 33q54 0 84.5 -5t42.5 -8zM-565 2130q0 82 -83.5 148t-273.5 69q-333 0 -372 -209l-9 -57h730z" />
    <glyph glyph-name="uni2026" unicode="&#x2026;" horiz-adv-x="1585" 
d="M713 0q-135 0 -135 131q0 74 53 135.5t139 61.5q135 0 135 -131q0 -75 -52.5 -136t-139.5 -61zM193 0q-136 0 -136 131q0 73 53 135t140 62q135 0 135 -131q0 -75 -53.5 -136t-138.5 -61zM1233 0q-135 0 -135 131q0 74 53 135.5t139 61.5q135 0 135 -131
q0 -75 -52.5 -136t-139.5 -61z" />
    <glyph glyph-name="glyph105" 
d="M-664 1958l127 704h193l-127 -704h-193z" />
    <glyph glyph-name="glyph106" 
d="M-958 2171q-147 0 -205 74q-37 42 -37 114q0 128 102 226q84 77 205 77q151 0 197 -98q24 -44 24 -110q0 -112 -73.5 -229t-110.5 -132q209 0 344 70q221 121 266 385h156q-2 -6 -19.5 -74t-59 -151.5t-110.5 -155.5q-163 -181 -462 -205q-78 -8 -217 -8q-82 0 -143 3
q-62 3 -87 5l21 111q63 0 114 20q60 24 95 78zM-913 2527q-62 0 -99 -43t-37 -96q0 -90 95 -90q60 0 97.5 43t37.5 96q0 38 -24 64t-70 26z" />
    <glyph glyph-name="glyph107" 
d="M-1151 2339q12 5 53.5 12.5t114.5 7.5q62 -9 96.5 -55.5t34.5 -112.5q0 -84 -61 -163q-76 -99 -201 -99q-116 0 -176 86q-33 46 -33 144q0 123 56.5 242t164.5 167q54 25 115 25q46 0 82.5 -17t60.5 -39q21 -20 21 -22q82 82 180 82q156 -11 156 -201q0 -22 -9 -78
q-14 -83 -39.5 -146t-33.5 -71q90 45 123 111q50 101 90 323q12 63 31 108t37 69l18 24h151q-11 -7 -34 -36t-48 -95q-23 -67 -43 -176t-39.5 -175t-68.5 -132q-125 -176 -447 -176q9 15 49 77.5t58 106.5q57 121 57 237q0 88 -49 99q-57 0 -106.5 -36t-49.5 -46
q-16 22 -58 54t-106 32q-15 0 -49 -8q-46 -13 -69 -55t-29 -68zM-1061 2253q-56 0 -89.5 -38.5t-33.5 -84.5q0 -86 86 -86q56 0 89.5 37.5t33.5 85.5q0 86 -86 86z" />
    <glyph glyph-name="glyph108" 
d="M-606 2273l-58 -315h-192l57 315h-344l25 148h344l57 315h193l-58 -315h340l-24 -148h-340z" />
    <glyph glyph-name="glyph109" 
d="M-442 2421q13 -9 33 -39t20 -88q0 -38 -12 -82q-67 -250 -357 -250q-108 9 -164.5 71.5t-56.5 149.5q0 79 37 152q61 114 152 153t253 57.5t246 43.5q94 29 137 81t43 70l103 -155q-12 -24 -55 -65.5t-125 -61.5q-174 -37 -254 -37zM-655 2367q-73 0 -116.5 -50
t-43.5 -113q0 -103 106 -103q73 0 116.5 50t43.5 114q0 44 -27 73t-79 29z" />
    <glyph glyph-name="uni0E48" unicode="&#xe48;" 
d="M-217 1958l127 704h192l-127 -704h-192z" />
    <glyph glyph-name="uni0E49" unicode="&#xe49;" 
d="M-319 2163q-146 0 -209 73q-33 39 -33 115q0 129 102 225q84 78 201 78q154 0 201 -98q24 -44 24 -111q0 -111 -73.5 -228t-110.5 -132q209 0 344 69q216 120 262 386h156q0 -40 -44 -159.5t-141 -221.5q-169 -181 -462 -205q-78 -8 -222 -8q-82 0 -141.5 3t-83.5 5
l21 110q63 0 114 21q63 27 95 78zM-279 2519q-62 0 -98.5 -42.5t-36.5 -92.5q0 -94 99 -94q61 0 98 42t37 93q0 40 -25.5 67t-73.5 27z" />
    <glyph glyph-name="uni0E4A" unicode="&#xe4a;" 
d="M-610 2347q13 5 55 12.5t113 7.5q62 -9 98.5 -57.5t36.5 -114.5q0 -79 -62 -159q-75 -99 -200 -99q-114 0 -181 86q-32 46 -32 144q0 124 57 243t164 166q54 25 115 25q47 0 84 -17t61 -39q22 -20 22 -22q19 25 62.5 53.5t114.5 28.5q147 -11 155 -197q0 -25 -8 -81
q-13 -80 -41 -153q-26 -66 -29 -66v1q10 6 31.5 18.5t47 35t44.5 57.5q20 39 34.5 77.5t22 72t15 81.5t14.5 93q21 92 54 150q28 51 32 51v-1h152q-11 -7 -34.5 -36.5t-47.5 -94.5q-23 -67 -43.5 -178t-39 -175.5t-64.5 -129.5q-130 -176 -451 -176q9 15 48 75.5t58 108.5
q62 139 62 238q0 87 -53 98q-57 0 -106.5 -36t-49.5 -46q-16 22 -59 54t-105 32q-17 0 -49 -8q-44 -12 -68 -54.5t-30 -68.5zM-520 2261q-56 0 -89.5 -38.5t-33.5 -84.5q0 -86 86 -86q54 0 88.5 38.5t34.5 84.5q0 86 -86 86z" />
    <glyph glyph-name="uni0E4B" unicode="&#xe4b;" 
d="M70 2273l-58 -315h-192l57 315h-344l25 148h344l57 315h193l-58 -315h340l-24 -148h-340z" />
    <glyph glyph-name="uni0E4C" unicode="&#xe4c;" 
d="M-33 2421q13 -9 33 -39t20 -88q0 -38 -12 -82q-67 -250 -356 -250q-107 8 -164 70.5t-57 150.5q0 79 37 152q61 114 152 153t253 57.5t246 43.5q95 30 137.5 81t42.5 70l102 -155q-12 -24 -55 -65.5t-125 -61.5q-173 -37 -254 -37zM-246 2367q-73 0 -116.5 -50.5
t-43.5 -112.5q0 -103 107 -103q72 0 116 49.5t44 114.5q0 102 -107 102z" />
    <glyph glyph-name="glyph115" horiz-adv-x="2249" 
d="M1126 319l164 938q0 131 -73.5 180.5t-249.5 49.5q-392 0 -426 -197l-13 -57h242l-25 -139q-78 0 -167 -95q-49 -52 -74 -163l-58 -316q2 0 38 6t65 6q57 0 106 -16q127 -51 127 -205q0 -74 -37 -147q-93 -176 -294 -176q-64 0 -103 16q-139 54 -139 213q0 32 8 74
l90 524q14 90 74 172q52 59 96.5 83t63.5 28h-230l33 180q32 187 212 278t431 91q248 0 376 -79.5t128 -273.5l-172 -975q-4 -40 -4 -110q14 -57 98 -57h205q69 0 102 45q37 41 49 122l234 1319h192l-233 -1323q-17 -97 -30 -138t-60 -91q-80 -86 -201 -86h-360
q-133 0 -181 94q-20 48 -20 103q0 58 16 122zM479 131q70 0 113 48t43 108q0 46 -28.5 76t-82.5 30q-71 0 -113 -48t-42 -107q0 -107 110 -107z" />
    <glyph glyph-name="uni2018" unicode="&#x2018;" horiz-adv-x="745" 
d="M520 1634q42 8 53 8q76 0 127 -53q37 -36 37 -102q0 -67 -40.5 -134.5t-102.5 -90.5q-51 -21 -111 -21q-127 0 -159 98q-13 36 -13 86q0 102 53 222t140 200q124 118 282 148l-20 -111q-79 -17 -164 -106q-25 -23 -42 -52t-28 -58.5t-12 -33.5z" />
    <glyph glyph-name="uni2019" unicode="&#x2019;" horiz-adv-x="774" 
d="M573 1626q-40 -8 -53 -8q-74 0 -127 53q-37 39 -37 103q0 66 41 134t103 91q51 20 114 20q136 0 168 -98q13 -36 13 -78q0 -101 -57.5 -222.5t-143.5 -207.5q-131 -119 -287 -147l21 110q76 15 168 107q35 35 56 82.5t21 60.5z" />
    <glyph glyph-name="uni201C" unicode="&#x201c;" horiz-adv-x="1438" 
d="M1192 1626q40 8 53 8q74 0 127 -53q37 -37 37 -102q0 -67 -40.5 -134t-102.5 -92q-51 -20 -115 -20q-136 0 -168 98q-12 37 -12 78q0 99 58 222.5t142 207.5q130 118 287 148l-20 -111q-78 -15 -168 -107q-34 -34 -56 -81.5t-22 -61.5zM553 1634q40 8 53 8q74 0 127 -53
q37 -36 37 -102q0 -67 -40.5 -134.5t-102.5 -90.5q-51 -21 -111 -21q-126 0 -160 98q-12 37 -12 86q0 102 53 222t140 200q122 117 282 148l-20 -111q-81 -18 -164 -106q-25 -23 -42 -52t-28 -58.5t-12 -33.5z" />
    <glyph glyph-name="uni201D" unicode="&#x201d;" horiz-adv-x="1438" 
d="M643 1626q-40 -8 -53 -8q-74 0 -127 53q-37 37 -37 103q0 68 40.5 135t102.5 90q51 20 115 20q67 0 111 -28.5t57 -69.5q12 -37 12 -78q0 -101 -57.5 -222t-142.5 -208q-131 -119 -287 -147l20 110q78 15 168 107q34 34 56 82t22 61zM1282 1618q-40 -8 -53 -8
q-74 0 -127 53q-37 37 -37 102q0 67 40.5 135t102.5 91q51 20 111 20q126 0 160 -98q12 -37 12 -86q0 -104 -54.5 -224.5t-138.5 -197.5q-122 -117 -282 -148l20 111q81 18 164 107q27 25 43 53.5t27 57t12 32.5z" />
    <glyph glyph-name="uni2022" unicode="&#x2022;" horiz-adv-x="1614" 
d="M750 332q-202 0 -308 112.5t-106 280.5q0 142 71.5 278.5t207.5 224t311 87.5q201 0 307 -113t106 -280q0 -142 -71.5 -278.5t-206.5 -224t-311 -87.5z" />
    <glyph glyph-name="uni2013" unicode="&#x2013;" horiz-adv-x="1868" 
d="M274 725l33 193h1335l-32 -193h-1336z" />
    <glyph glyph-name="uni2014" unicode="&#x2014;" horiz-adv-x="2294" 
d="M274 725l33 193h1737l-33 -193h-1737z" />
    <glyph glyph-name="glyph123" 
d="M-233 2273q104 65 141.5 127.5t66.5 179.5h213q-8 -45 -51.5 -142.5t-174 -214.5t-359.5 -171q-183 -37 -328 -37q-278 0 -389 111q-53 47 -53 143q0 94 56 179.5t157 119.5q51 21 118 21q90 0 153 -52t69 -141q0 -89 -29 -141.5t-49 -71.5q314 0 459 90zM-864 2454
q-68 0 -108 -46.5t-40 -105.5q0 -102 107 -102q68 0 107.5 45.5t39.5 105.5q0 44 -26.5 73.5t-79.5 29.5z" />
    <glyph glyph-name="glyph124" 
d="M-696 1917q-124 0 -189 70.5t-65 175.5q0 86 44.5 170t126.5 137t189 53q126 0 190 -69.5t64 -176.5q0 -86 -44.5 -170t-126.5 -137t-189 -53zM-618 2359q-77 0 -125 -53.5t-48 -118.5q0 -47 30 -78.5t89 -31.5q76 0 124 53t48 119q0 47 -30 78.5t-88 31.5z" />
    <glyph glyph-name="glyph125" 
d="M-795 2114q-12 36 -12 77q0 71 41 136q89 135 246 135q80 0 139 -45q66 -48 66 -156q0 -166 -148 -258q-94 -57 -229 -57q-121 0 -217 41q-49 21 -102.5 66t-65.5 65l-201 -164h-225l45 246q33 212 139 323q107 115 243 145.5t355 30.5q173 0 274 34t150 78q40 37 40 43
q0 1 -1 1l102 -123q0 -2 -32 -32q-34 -32 -86.5 -65t-126.5 -55q-100 -28 -267 -28h-155q-208 0 -316 -66q-74 -43 -108.5 -149t-38.5 -215l258 200q26 -52 102 -135q49 -48 131 -73zM-541 2339q-62 0 -98.5 -43t-36.5 -96q0 -91 94 -91q60 0 98 42.5t38 97.5q0 38 -24 64
t-71 26z" />
    <glyph glyph-name="glyph126" 
d="M-459 2826l82 484h193l-82 -484h-193z" />
    <glyph glyph-name="glyph127" 
d="M-463 2929q-133 0 -180 61q-29 35 -29 98q0 113 86 193q71 65 176 65q126 0 172 -81q21 -47 21 -91q0 -95 -64.5 -198t-95.5 -113q176 0 295 57q190 104 221 332h135q0 -31 -39 -134.5t-120 -192.5q-141 -157 -394 -177q-130 -8 -188 -8q-72 0 -124 3t-73 5l17 95
q61 0 102 20q52 19 82 66zM-430 3236q-54 0 -84.5 -36t-30.5 -83q0 -82 82 -82q52 0 83.5 36t31.5 83q0 82 -82 82z" />
    <glyph glyph-name="glyph128" 
d="M-709 3092q11 4 45.5 10.5t102.5 6.5q52 -9 83.5 -50t31.5 -98q0 -67 -50 -135q-63 -86 -176 -86q-106 0 -159 74q-25 37 -25 123q0 107 48.5 212t139.5 140q49 21 99 21q63 0 99 -24.5t48 -41.5q0 11 42.5 38.5t105.5 27.5q135 -7 135 -164q0 -28 -8 -70
q-15 -94 -62 -188q88 44 107 94q50 117 77 278q16 81 37.5 121t32.5 51h127q-10 -5 -30 -28t-40 -82q-19 -56 -36 -151.5t-33.5 -152.5t-57.5 -110q-110 -151 -376 -151q0 1 37 60.5t49 94.5q53 117 53 209q0 67 -45 78q-48 0 -84 -26t-51 -44q-13 20 -48.5 49t-87.5 29
q-16 0 -40 -8q-39 -10 -61.5 -47t-29.5 -60zM-631 3019q-47 0 -76.5 -33.5t-29.5 -73.5q0 -73 73 -73q48 0 77.5 33t29.5 73q0 74 -74 74z" />
    <glyph glyph-name="glyph129" 
d="M-246 2970l-37 -213h-192l37 213h-287l25 147h286l37 213h193l-37 -213h287l-25 -147h-287z" />
    <glyph glyph-name="glyph130" 
d="M-164 3002q13 -9 33 -39t20 -88q0 -45 -8 -69q-59 -238 -340 -238q-104 6 -156.5 66t-52.5 147q0 65 33 139q54 109 142 147t246.5 56t230.5 39q85 24 124 74t39 69l103 -147q-12 -22 -53.5 -61t-122.5 -58q-199 -37 -238 -37zM-365 2953q-68 0 -109.5 -48t-41.5 -107
q0 -99 102 -99q67 0 109.5 48t42.5 108q0 98 -103 98z" />
    <glyph glyph-name="glyph131" horiz-adv-x="422" 
 />
    <glyph glyph-name="uni0E01" unicode="&#xe01;" horiz-adv-x="1688" 
d="M381 0h-193l144 815q14 92 74 172q53 60 96.5 83.5t62.5 27.5h-229l33 180q32 187 215 278t436 91q258 0 397 -78t139 -275l-229 -1294h-192l221 1257q0 132 -85 181t-272 49q-399 0 -434 -197l-12 -57h242l-25 -139q-78 0 -168 -95q-45 -49 -74 -163z" />
    <glyph glyph-name="uni0E02" unicode="&#xe02;" horiz-adv-x="1487" 
d="M352 1032q-127 55 -127 201q0 135 82 233q105 119 219 150t248 31q137 -9 220 -89t83 -210q0 -43 -12 -99q-30 -134 -99 -217t-241 -229q-95 -81 -138.5 -134t-58.5 -132l-41 -234q0 -6 -6 -32t-6 -42q0 -28 17 -45q40 -32 122 -32h242q74 0 107 32q18 18 26 38.5
t10.5 43.5t4.5 41l237 1331h193l-246 -1388q-19 -117 -82 -180q-64 -70 -176 -70h-475q-105 0 -156 74q-20 25 -20 86q0 58 8 106l49 271q17 87 42.5 141t92.5 121q51 50 164.5 139.5t171.5 160.5t78 175q0 103 -40 154t-95 51q13 -11 33 -44.5t20 -95.5q0 -65 -33 -135
q-38 -88 -124 -140t-183 -52q-65 0 -111 20zM537 1421q-70 0 -113 -48t-43 -107q0 -107 111 -107q69 0 112 48t43 108q0 46 -28.5 76t-81.5 30z" />
    <glyph glyph-name="uni0E03" unicode="&#xe03;" horiz-adv-x="1516" 
d="M1479 1638l-246 -1388q-19 -118 -82 -180q-64 -70 -176 -70h-475q-105 0 -156 74q-20 25 -20 86q0 58 8 106l49 271q18 90 43.5 146t91.5 116q38 33 154 126.5t168 151.5t88 140q45 92 45 163q0 54 -25 54q-21 0 -72 -55t-51 -64q0 14 -24.5 61t-61.5 74q-50 41 -155 41
q30 0 82.5 -46.5t52.5 -166.5q-9 -137 -93.5 -217t-197.5 -86q-97 0 -157 57.5t-60 159.5q0 60 16 115q39 138 151 237.5t247 102.5q83 0 133.5 -22t71.5 -47t28 -34q0 3 61 49q66 49 127 49q111 -6 111 -192q0 -95 -33 -205q-48 -145 -114.5 -223.5t-237.5 -218.5
q-91 -71 -136 -128t-61 -138l-41 -234q0 -6 -6 -32t-6 -42q0 -28 17 -45q41 -32 122 -32h242q74 0 107 32q18 18 26 38.5t10.5 43.5t4.5 41l237 1331h193zM487 1364q-58 -3 -94.5 -52t-36.5 -104q0 -98 86 -98q60 0 98 47.5t38 108.5q0 98 -91 98z" />
    <glyph glyph-name="uni0E04" unicode="&#xe04;" horiz-adv-x="1757" 
d="M356 0h-209l230 1294q32 186 221 269.5t463 83.5q266 0 415.5 -76.5t149.5 -276.5l-229 -1294h-193l221 1257q0 138 -93.5 184t-295.5 46q-430 0 -471 -230l-94 -548l-37 -123l139 245q170 324 402 336q121 0 189.5 -59.5t68.5 -177.5q-10 -103 -60 -178.5t-122.5 -112.5
t-149.5 -37q-137 0 -205 90q-16 -22 -36 -52t-60.5 -102.5t-87.5 -172.5q-65 -139 -104 -234.5t-52 -130.5zM963 1008q-65 0 -104.5 -45.5t-39.5 -102.5q0 -98 103 -98q64 0 103.5 45.5t39.5 101.5q0 99 -102 99z" />
    <glyph glyph-name="uni0E05" unicode="&#xe05;" horiz-adv-x="1774" 
d="M446 586l140 245q170 324 401 336q258 0 258 -237q-10 -106 -59.5 -179.5t-122.5 -111t-150 -37.5q-136 0 -204 90q-85 -113 -185 -327q-72 -153 -107.5 -241.5t-47.5 -123.5h-209l225 1270q23 153 168 270q143 107 303 107l180 -172l258 172q41 -2 120.5 -24t141.5 -87
q86 -86 86 -184q0 -14 -12 -86l-221 -1266h-192l221 1257q0 119 -21 144q-25 36 -63 52.5t-51 16.5l-299 -200l-226 192q-65 0 -135 -57q-43 -39 -70 -152l-98 -565zM975 1008q-65 0 -104.5 -46t-39.5 -102q0 -98 103 -98q64 0 103.5 45.5t39.5 101.5q0 99 -102 99z" />
    <glyph glyph-name="uni0E06" unicode="&#xe06;" horiz-adv-x="1913" 
d="M922 795h1q10 0 93 -25q93 -30 176 -86q132 -88 188 -169.5t66 -117.5l221 1241h193l-291 -1638h-193q0 50 -16.5 128t-67 177.5t-141.5 186.5q-135 126 -258 126l-66 -364q-20 -112 -90.5 -187t-191.5 -83q-275 0 -275 258q0 53 13 118q55 271 197 355t249 84l21 98
q7 49 35 87t93 106t113 131q62 84 62 163q0 48 -25 54q-52 0 -110.5 -54t-69.5 -77q0 14 -28.5 66t-61.5 77q-50 41 -156 41q30 0 82.5 -46.5t52.5 -166.5q-14 -144 -95.5 -222t-195.5 -81q-97 0 -157 57.5t-60 159.5q0 61 17 115q39 138 151 237.5t246 102.5
q83 0 133.5 -22t72.5 -47.5t28 -33.5q2 0 35.5 28.5t72 49t84.5 20.5q80 0 124 -59t44 -153q0 -74 -33 -164q-28 -72 -91 -148t-116.5 -139.5t-62.5 -114.5zM508 1364q-59 -3 -95 -51t-36 -105q0 -98 86 -98q60 0 97.5 48t37.5 108q0 43 -23 70.5t-67 27.5zM471 426
q-25 -94 -25 -143q0 -140 99 -140q73 5 90 107l61 364q-161 0 -225 -188z" />
    <glyph glyph-name="uni0E07" unicode="&#xe07;" horiz-adv-x="1274" 
d="M852 49q-85 -61 -213 -61q-141 0 -193 65q-44 62 -57 119l-225 803l164 119l245 -869q24 -82 99 -82q49 0 67 21t31 82l152 860q-2 0 -33 -8t-62 -8q-58 0 -114 20q-131 44 -131 201q0 82 41 151q109 180 303 180q46 0 90 -12q82 -25 110.5 -92.5t28.5 -185.5l-192 -1102
q-27 -144 -111 -201zM893 1495q-70 0 -113 -48.5t-43 -107.5q0 -106 111 -106q68 0 112 48t44 108q0 46 -28.5 76t-82.5 30z" />
    <glyph glyph-name="uni0E08" unicode="&#xe08;" horiz-adv-x="1499" 
d="M225 1204l13 74q33 189 204 279t426 90t385.5 -77.5t130.5 -275.5l-188 -1069q-23 -125 -119 -184q-83 -49 -221 -49q-122 0 -176 49q-66 57 -66 180l9 377q-16 -6 -56.5 -15.5t-91.5 -9.5q-92 0 -156 41q-81 50 -81 168q0 110 69 197q108 127 266 127q49 0 99 -12
q151 -42 151 -267l-20 -569q0 -119 86 -119q100 5 119 115l176 1003q0 130 -77 178.5t-259 51.5q-381 0 -418 -205l-12 -78h-193zM549 971q-70 0 -113 -48.5t-43 -107.5q0 -106 111 -106q69 0 112 48t43 107q0 46 -28 76.5t-82 30.5z" />
    <glyph glyph-name="uni0E09" unicode="&#xe09;" horiz-adv-x="1757" 
d="M1446 651q-53 -58 -98 -73q142 -38 176 -172q8 -21 8 -74q0 -86 -41 -170t-119 -137q-77 -54 -172 -54q-149 0 -213 115q-29 60 -29 119q0 86 50 168q-143 -52 -279 -189q-86 -86 -139 -184h-197l90 508l-30 -8q-32 -8 -64 -8q-59 0 -115 20q-131 44 -131 201
q0 79 41 151q111 180 303 180q47 0 91 -12q82 -25 110.5 -92.5t28.5 -185.5l-78 -443q116 102 197 148q101 60 270 135q85 41 130.5 76.5t63.5 63t21.5 52.5t5.5 41l74 430q0 137 -99 183.5t-307 46.5q-424 0 -458 -197l-21 -94h-192l16 82q33 189 217 279t467 90
q272 0 425 -76t153 -277l-91 -499q-12 -86 -65 -144zM455 897q-70 0 -113 -49.5t-43 -110.5q0 -102 107 -102q69 0 112 49.5t43 110.5q0 44 -27 73t-79 29zM1221 127q69 0 112 54.5t43 121.5q0 46 -26.5 78.5t-75.5 32.5q-66 0 -111 -56.5t-45 -119.5q0 -111 103 -111z" />
    <glyph glyph-name="uni0E0A" unicode="&#xe0a;" horiz-adv-x="1593" 
d="M1421 1081l-147 -831q-19 -117 -82 -180q-64 -70 -176 -70h-541q-105 0 -156 74q-20 25 -20 86q0 58 8 106l49 271q19 89 44.5 142.5t91.5 119.5q51 50 163.5 139t171 161t78.5 175q0 103 -39.5 154t-95.5 51q13 -11 33 -44.5t20 -95.5q0 -64 -32 -135
q-39 -89 -125 -140.5t-183 -51.5q-64 0 -110 20q-127 55 -127 201q0 135 82 233q105 119 219 150t248 31q137 -9 220 -89t83 -210q0 -46 -13 -99q-30 -134 -99 -217t-241 -229q-95 -81 -139 -135t-57 -131l-41 -234q0 -6 -6 -32t-6 -42q0 -28 16 -45q41 -32 123 -32h307
q74 0 107 32q18 18 26 38.5t10.5 43.5t4.5 41l139 774q2 15 7 39t5 39q0 17 -8 49q-19 70 -103 70l9 139q84 7 176 82q86 76 115 221l20 123h188l-24 -143q-25 -145 -127 -242q-52 -47 -102.5 -71.5t-73.5 -30.5q20 -5 54 -26.5t52 -67.5q13 -33 13 -86q0 -30 -9 -95z
M557 1421q-70 0 -113 -48.5t-43 -106.5q0 -107 111 -107q68 0 112 48t44 108q0 46 -28.5 76t-82.5 30z" />
    <glyph glyph-name="uni0E0B" unicode="&#xe0b;" horiz-adv-x="1626" 
d="M602 1491q30 0 82.5 -46.5t52.5 -166.5q-14 -144 -95.5 -222t-195.5 -81q-97 0 -157 57.5t-60 159.5q0 61 17 115q39 138 151 237.5t246 102.5q83 0 133.5 -22t72.5 -47.5t28 -33.5q0 3 61 49q66 49 127 49q106 -5 106 -188q0 -97 -32 -209q-31 -100 -71 -165
t-98.5 -121.5t-178.5 -155.5q-94 -73 -138.5 -130.5t-58.5 -135.5l-41 -234q0 -6 -6 -32t-6 -42q0 -28 16 -45q41 -32 123 -32h307q74 0 107 32q18 18 26 38.5t10.5 43.5t4.5 41l139 774q2 15 7 39t5 39q0 17 -8 49q-19 70 -102 70l16 139q76 7 168 82q86 76 115 221l20 123
h188l-24 -143q-25 -145 -127 -242q-52 -47 -102.5 -71.5t-73.5 -30.5q20 -5 54 -26.5t52 -67.5q13 -33 13 -86q0 -30 -9 -95l-147 -831q-19 -118 -82 -180q-64 -70 -176 -70h-541q-106 0 -155 74q-21 25 -21 86q0 58 8 106l49 271q20 93 45.5 148t90.5 114q43 38 156 129
t165 149t88 140q45 88 45 163q0 54 -24 54q-21 0 -72 -55t-51 -64q0 14 -26.5 62t-59.5 73q-50 41 -156 41zM508 1364q-59 -3 -95 -51t-36 -105q0 -98 86 -98q60 0 97.5 48t37.5 108q0 43 -23 70.5t-67 27.5z" />
    <glyph glyph-name="uni0E0C" unicode="&#xe0c;" horiz-adv-x="2236" 
d="M2163 1638l-291 -1638h-193q0 106 -32 180q-60 132 -172 189q8 -42 8 -62q0 -117 -86 -217q-103 -115 -258 -115q-92 0 -152 54q-74 68 -74 184q0 102 58 197q84 134 237 172q-26 26 -37 65q-8 25 -8 62q2 13 4 36.5t4 32.5l86 479q0 131 -71 180.5t-244 49.5
q-367 0 -401 -197l-13 -57h242l-25 -139q-78 0 -167 -95q-49 -52 -74 -163l-58 -316q2 0 38 6t65 6q57 0 106 -16q127 -51 127 -205q0 -74 -37 -147q-93 -176 -294 -176q-64 0 -103 16q-139 54 -139 213q0 32 8 74l90 524q14 90 74 172q52 59 96.5 83t63.5 28h-230l33 180
q33 189 202 279t417 90q499 0 499 -291q0 -20 -8 -70l-90 -520q0 -74 15.5 -109.5t58.5 -66.5q156 -101 196 -131q43 -32 70 -60.5t37 -42.5l229 1282h193zM1225 418q-67 -3 -109.5 -56.5t-42.5 -119.5q0 -111 103 -111q66 0 108.5 54t42.5 118q0 115 -102 115zM479 131
q70 0 113 48t43 108q0 46 -28.5 76t-82.5 30q-71 0 -113 -48t-42 -107q0 -107 110 -107z" />
    <glyph glyph-name="uni0E0D" unicode="&#xe0d;" horiz-adv-x="2269" 
d="M1126 319l164 938q0 131 -73.5 180.5t-249.5 49.5q-392 0 -426 -197l-13 -57h242l-25 -139q-78 0 -167 -95q-49 -52 -74 -163l-58 -316q2 0 38 6t65 6q57 0 106 -16q127 -51 127 -205q0 -74 -37 -147q-93 -176 -294 -176q-64 0 -103 16q-139 54 -139 213q0 32 8 74
l90 524q14 90 74 172q52 59 96.5 83t63.5 28h-230l33 180q32 187 212 278t431 91q248 0 376 -79.5t128 -273.5l-172 -975q-4 -40 -4 -110q14 -57 98 -57h205q69 0 102 45q37 41 49 122l234 1319h192l-233 -1323q-17 -97 -30 -138t-60 -91q-80 -86 -201 -86h-360
q-133 0 -181 94q-20 48 -20 103q0 58 16 122zM1548 -487q112 69 140 262l12 69h176l-12 -86q-5 -25 -12.5 -64.5t-23.5 -82t-48.5 -90t-87.5 -90.5q-87 -70 -173.5 -94.5t-220.5 -24.5q-351 0 -389 209q0 116 57.5 214t176.5 122q48 8 69 8q197 0 197 -242q-9 -53 -29.5 -86
t-42 -49.5t-26.5 -19.5q166 0 237 45zM1188 -266q-59 0 -95 -42.5t-36 -92.5q0 -82 86 -82q59 0 95 42t36 93q0 82 -86 82zM479 131q70 0 113 48t43 108q0 46 -28.5 76t-82.5 30q-71 0 -113 -48t-42 -107q0 -107 110 -107z" />
    <glyph glyph-name="uni0E0E" unicode="&#xe0e;" horiz-adv-x="1901" 
d="M1286 -393l291 1650q0 132 -84.5 181t-271.5 49q-400 0 -435 -197l-12 -57h242l-25 -139q-78 0 -168 -95q-48 -52 -73 -163l-95 -541q-37 -218 -237 -287q-44 -16 -107 -16q-86 0 -151 43t-82 133q0 130 58.5 223.5t154.5 128.5q64 17 115 17q72 0 98 -13l49 291
q14 90 74 172q51 58 95.5 82.5t63.5 28.5h-229l33 180q32 187 215 278t436 91q258 0 397.5 -78t139.5 -275l-308 -1732q-29 -146 -94 -205q-73 -66 -151 -66q-83 0 -168 74q-75 67 -132.5 113t-80.5 63q0 -7 -51.5 -63.5t-108.5 -95.5q-135 -95 -274 -95q-63 0 -136 21
q-139 43 -139 192q0 162 164 258q110 66 258 66q156 0 193 -33q1 0 24 70q3 20 6.5 35t5.5 22h201q0 -33 -20 -111q-29 -91 -33 -91v1q20 0 123 -82q23 -16 70.5 -57.5t76.5 -56.5q63 0 82 86zM336 135q68 0 112 48t44 108q0 46 -28.5 76t-82.5 30q-70 0 -113 -48.5
t-43 -106.5q0 -107 111 -107zM393 -373q-53 -40 -53 -90q0 -78 131 -78q98 16 151.5 83.5t53.5 97.5q-18 6 -60.5 15t-91.5 9q-84 0 -131 -37z" />
    <glyph glyph-name="uni0E0F" unicode="&#xe0f;" horiz-adv-x="1905" 
d="M1286 -406l291 1663q0 132 -84.5 181t-271.5 49q-400 0 -435 -197l-12 -57h242l-25 -139q-78 0 -168 -95q-48 -52 -73 -163l-95 -541q-37 -218 -237 -287q-44 -16 -107 -16q-86 0 -151 43t-82 133q0 130 58.5 223.5t154.5 128.5q64 17 115 17q72 0 98 -13l49 291
q14 90 74 172q51 58 95.5 82.5t63.5 28.5h-229l33 180q32 187 215 278t436 91q258 0 397.5 -78t139.5 -275l-324 -1822q-22 -112 -98 -148q-33 -16 -62 -16q-76 0 -106 78l-115 208l-237 -286q-6 21 -21.5 61.5t-36.5 69.5q-44 69 -78 98q-49 -144 -204 -209
q-89 -37 -177 -37q-106 0 -175.5 54t-69.5 163q9 103 77.5 175t172.5 100q55 16 122 16q51 0 106 -10q47 -9 47 -10h-1q9 0 29 82q6 26 9 48.5t3 29.5h197q0 -43 -25 -119q-9 -37 -18.5 -63.5t-14.5 -39.5q13 0 62 -49q17 -17 30 -36t19 -29l221 258zM336 135q68 0 112 48
t44 108q0 46 -28.5 76t-82.5 30q-70 0 -113 -48.5t-43 -106.5q0 -107 111 -107zM315 -385q-53 -41 -53 -90q0 -74 86 -74q17 0 49 8q69 16 102.5 72.5t41.5 91.5q-13 5 -43 13t-72 8q-63 0 -111 -29z" />
    <glyph glyph-name="uni0E10" unicode="&#xe10;" horiz-adv-x="1561" 
d="M1348 950l-127 -725q-23 -114 -119 -184q-67 -49 -193 -49q-127 0 -180 53q-53 57 -53 188l4 271q-16 -6 -56.5 -15.5t-91.5 -9.5q-94 0 -155 41q-82 51 -82 168q0 109 70 197q107 127 266 127q50 0 98 -13q152 -41 152 -266l-17 -463q0 -62 14.5 -88t63.5 -26
q46 0 63.5 21t26.5 77l115 659q0 130 -83.5 182.5t-297.5 67.5q-49 4 -143 4q-49 0 -123 -2t-99 -2q-117 0 -122 54q0 131 115 252t278 157q114 21 168 21q98 0 232.5 -37.5t201.5 -40.5q59 0 109 27.5t71 45.5l57 -155q-20 -18 -81.5 -46t-159.5 -28q-88 2 -239.5 36
t-264.5 34q-105 0 -181.5 -44.5t-88.5 -115.5q0 -12 36 -12q11 0 74 4t115 4q180 0 381 -49q136 -36 195 -93t59 -153q0 -16 -8 -74zM901 -561q0 -1 -23 -6q-26 -6 -51 -6q-58 0 -118 32q-82 44 -82 156t82 192q85 87 209 87q93 0 143 -50q65 -65 65 -184q0 -73 -32 -205
q-79 -283 -328 -315q-281 0 -336 184l-127 -188h-61l-74 184q-38 -84 -117 -130t-178 -46q-85 0 -141 49.5t-56 130.5q0 58 29 123q80 180 270 180q107 0 152 -45q18 53 29 115q6 33 10.5 68t5.5 47h172q-9 -61 -29 -148q-9 -48 -53 -176l49 -111l164 226q0 -24 36 -122.5
t95 -152.5q66 -53 123 -53q41 0 74 16q41 19 61.5 49.5t28 61t8.5 37.5zM893 -238q-56 0 -89.5 -37.5t-33.5 -84.5q0 -86 86 -86q56 0 89.5 37.5t33.5 84.5q0 86 -86 86zM606 877q-70 0 -112.5 -49.5t-42.5 -110.5q0 -103 106 -103q68 0 112 49.5t44 110.5q0 103 -107 103z
M-131 -557q-33 -39 -33 -86q0 -74 103 -74q64 11 95.5 73t31.5 91q-12 9 -41.5 24t-65.5 17q-56 0 -90 -45z" />
    <glyph glyph-name="uni0E11" unicode="&#xe11;" horiz-adv-x="1933" 
d="M684 0h-192l143 815q10 64 35 102.5t86.5 109.5t103.5 140q86 133 86 230q0 37 -16 37q-21 0 -72 -55t-51 -64q0 14 -26.5 62t-59.5 73q-50 41 -156 41q30 0 82.5 -46.5t52.5 -166.5q-14 -144 -95.5 -222t-194.5 -81q-97 0 -157 57.5t-60 159.5q0 60 16 115
q39 138 151 237.5t246 102.5q85 0 134.5 -22t71.5 -47.5t28 -33.5q2 0 35.5 28.5t72 49t84.5 20.5q107 -6 107 -159q0 -111 -49 -230q-37 -92 -102.5 -177t-108 -144.5t-56.5 -140.5l-49 -275q0 12 113.5 216t255.5 411q170 242 298 369t238 130q152 0 152 -233l-250 -1409
h-192l241 1372q0 70 -37 70q-99 -5 -495 -647q-318 -529 -414 -795zM471 1364q-59 -3 -95 -51t-36 -105q0 -98 86 -98q60 0 97.5 48t37.5 108q0 43 -23 70.5t-67 27.5z" />
    <glyph glyph-name="uni0E12" unicode="&#xe12;" horiz-adv-x="2396" 
d="M1692 520q99 -52 145.5 -97.5t58.5 -66.5l230 1282h192l-290 -1638h-193q0 111 -33 180q-35 75 -98 127t-111 66q0 -179 -86 -275q-97 -110 -250 -110q-88 0 -155 49q-90 65 -90 201q0 90 49 188q54 94 132 135t105 41l115 655q0 119 -20 144q-25 36 -63 52.5t-52 16.5
l-299 -200l-225 192q-66 0 -136 -57q-45 -42 -69 -152l-184 -1048q7 0 249 205q222 188 226 196q-66 0 -137.5 53t-71.5 193q19 108 98.5 183t204.5 87q254 0 254 -254q-18 -129 -108.5 -225.5t-325.5 -298.5q-193 -164 -281.5 -237.5t-128.5 -106.5h-209l225 1270
q26 155 168 270q144 107 303 107l181 -172l258 172q41 -2 120.5 -24t141.5 -87q86 -87 86 -184q0 -14 -12 -86l-103 -590q0 -39 24 -64.5t71.5 -48t93.5 -43.5zM1335 438q-68 -3 -109.5 -56.5t-41.5 -119.5q0 -110 102 -110q66 0 109 53.5t43 118.5q0 114 -103 114zM930 983
q-65 0 -104.5 -46t-39.5 -101q0 -99 103 -99q64 0 103.5 45.5t39.5 102.5q0 98 -102 98z" />
    <glyph glyph-name="uni0E13" unicode="&#xe13;" horiz-adv-x="2343" 
d="M1085 0l222 1257q0 131 -74.5 180.5t-253.5 49.5q-387 0 -422 -197l-12 -57h241l-24 -139q-78 0 -168 -95q-50 -53 -74 -163l-57 -316q1 0 37 6t65 6q58 0 107 -16q127 -51 127 -205q0 -71 -37 -147q-94 -176 -295 -176q-65 0 -102 16q-140 55 -140 213q0 32 8 74l91 524
q14 92 73 172q52 59 96.5 83t63.5 28h-229l32 180q32 188 210 278.5t429 90.5q252 0 380 -78.5t128 -274.5l-168 -938q19 18 64.5 55t116.5 81q24 15 110 63.5t131 75.5q71 40 98.5 88.5t41.5 124.5l143 794h192l-143 -798q-13 -97 -45 -148q-40 -68 -123 -102
q142 -38 180 -172q9 -47 9 -66q0 -86 -42 -174t-118 -141t-172 -53q-153 0 -217 114q-29 51 -29 115q0 63 25 123q-105 -56 -185 -156q-65 -80 -98 -180h-193zM496 131q69 0 112 48t43 108q0 46 -28.5 76t-81.5 30q-70 0 -113 -48t-43 -107q0 -107 111 -107zM1802 139
q66 0 109 53.5t43 118.5q0 115 -103 115q-67 0 -109 -54.5t-42 -121.5q0 -111 102 -111z" />
    <glyph glyph-name="uni0E14" unicode="&#xe14;" horiz-adv-x="1761" 
d="M627 422q166 153 245 242q-66 0 -139.5 52.5t-73.5 192.5q20 110 100.5 184.5t207.5 86.5q122 0 188 -64.5t66 -189.5q-21 -129 -110.5 -231t-328.5 -330q-131 -126 -248 -225t-169 -140h-218l230 1294q32 186 221 269.5t463 83.5q266 0 415.5 -76.5t149.5 -276.5
l-229 -1294h-193l221 1257q0 138 -93.5 184t-295.5 46q-430 0 -471 -230l-184 -1040q29 21 96.5 74.5t149.5 130.5zM963 1040q-66 0 -107 -45t-41 -102q0 -98 103 -98q67 0 107 45t40 102q0 43 -26 70.5t-76 27.5z" />
    <glyph glyph-name="uni0E15" unicode="&#xe15;" horiz-adv-x="1761" 
d="M373 1270q23 153 168 270q143 107 303 107l180 -172l258 172q41 -2 120.5 -24t141.5 -87q86 -86 86 -184q0 -14 -12 -86l-221 -1266h-193l221 1257q0 119 -20 144q-25 36 -63 52.5t-52 16.5l-299 -200l-225 192q-66 0 -135 -57q-46 -43 -70 -152l-184 -1048q8 0 250 205
q221 189 225 196q-66 0 -137.5 53t-71.5 193q20 110 100 184.5t203 85.5q254 0 254 -254q-18 -129 -108.5 -225.5t-325.5 -298.5q-193 -164 -281.5 -237.5t-128.5 -106.5h-209zM942 983q-65 0 -104 -45.5t-39 -101.5q0 -99 102 -99q64 0 103.5 45.5t39.5 102.5q0 98 -102 98
z" />
    <glyph glyph-name="uni0E16" unicode="&#xe16;" horiz-adv-x="1663" 
d="M311 815q14 90 74 172q52 59 96.5 83t63.5 28h-230l33 180q32 187 215 278t436 91q258 0 397.5 -78t139.5 -275l-229 -1294h-193l221 1257q0 132 -84.5 181t-271.5 49q-400 0 -434 -197l-13 -57h242l-24 -139q-79 0 -168 -95q-49 -52 -74 -163l-57 -316q1 0 37 6t65 6
q58 0 106 -16q127 -51 127 -205q0 -73 -36 -147q-94 -176 -295 -176q-64 0 -103 16q-139 55 -139 213q0 32 8 74zM483 131q70 0 113 48t43 108q0 46 -28.5 76t-82.5 30q-71 0 -113 -48t-42 -107q0 -107 110 -107z" />
    <glyph glyph-name="uni0E17" unicode="&#xe17;" horiz-adv-x="1864" 
d="M1733 1286l-226 -1286h-192l225 1282q0 101 -18 142.5t-72 41.5q-62 0 -197.5 -160.5t-302.5 -453.5q-266 -461 -360 -852h-197l197 1106q-1 0 -33 -8t-61 -8q-59 0 -115 20q-131 44 -131 201q0 82 41 151q111 180 303 180q46 0 90 -12q82 -25 110.5 -92.5t28.5 -185.5
l-94 -537l-37 -139q30 68 115 226.5t209 334.5q283 405 475 405q250 -5 250 -258q0 -32 -8 -98zM561 1495q-71 0 -113 -48t-42 -108q0 -106 110 -106q68 0 112 48t44 108q0 46 -28.5 76t-82.5 30z" />
    <glyph glyph-name="uni0E18" unicode="&#xe18;" horiz-adv-x="1663" 
d="M782 1630q115 21 176 21q95 0 236 -30t190 -36q73 0 114.5 26.5t53.5 43.5l74 -156q0 -2 -30 -20q-33 -21 -90.5 -37.5t-141.5 -16.5q-44 5 -189 35.5t-262 30.5q-148 0 -245.5 -64.5t-110.5 -144.5l-4 -29q37 7 122 18t202 11q246 0 405 -70q176 -80 176 -245
q0 -53 -12 -115l-90 -500q-30 -172 -103 -254q-84 -98 -209 -98h-585q-123 0 -180 98q-29 46 -29 119q0 53 16 135l103 574h192l-102 -570q0 -10 -2 -50t-2 -85q10 -69 123 -69h413q72 0 119 53q30 36 37 61.5t16 89.5l90 500q0 92 -13.5 134t-55.5 71q-106 74 -365 74
q-128 0 -205 -17q-24 -6 -50.5 -15t-31.5 -9h-204l20 123q28 146 139 261.5t295 151.5z" />
    <glyph glyph-name="uni0E19" unicode="&#xe19;" horiz-adv-x="1892" 
d="M1724 766q111 -81 111 -238q0 -75 -16 -151q-30 -183 -135 -290t-263 -107q-200 13 -200 262l73 397q-39 -4 -138 -49.5t-234 -175.5q-249 -231 -340 -414h-193l197 1106q-2 0 -33 -8t-61 -8q-59 0 -115 20q-131 44 -131 201q0 82 41 151q111 180 303 180q46 0 90 -12
q82 -25 110.5 -92.5t28.5 -185.5l-176 -996q27 34 94 105t168 149q155 120 265.5 161t152.5 44l147 823h193l-143 -811q0 1 3 1q11 0 73 -11q76 -13 128 -51zM553 1495q-70 0 -113 -48.5t-43 -107.5q0 -106 111 -106q68 0 112 48t44 108q0 46 -28.5 76t-82.5 30zM1487 659
l-70 -409q0 -107 58 -107q122 5 172 246q8 66 8 94q0 110 -53 148q-46 28 -115 28z" />
    <glyph glyph-name="uni0E1A" unicode="&#xe1a;" horiz-adv-x="1847" 
d="M799 1352l-176 -996q0 -20 -2.5 -55t-2.5 -80q12 -69 123 -69h439q73 0 118 53q30 36 38 65t16 86l229 1282h193l-230 -1286q-28 -169 -102 -254q-84 -98 -209 -98h-610q-131 0 -181 98q-24 55 -24 127q0 16 12 127l135 754q-1 0 -33 -8t-61 -8q-59 0 -115 20
q-131 44 -131 201q0 79 41 151q111 180 303 180q48 0 90 -12q83 -25 111.5 -92.5t28.5 -185.5zM532 1495q-71 0 -113 -48t-42 -108q0 -106 110 -106q70 0 113 48t43 108q0 46 -28.5 76t-82.5 30z" />
    <glyph glyph-name="uni0E1B" unicode="&#xe1b;" horiz-adv-x="1847" 
d="M803 1352l-176 -996q0 -10 -2 -50t-2 -85q10 -69 122 -69h439q72 0 119 53q30 36 37 61.5t16 89.5l360 2028h193l-361 -2032q-28 -169 -102 -254q-84 -98 -209 -98h-610q-131 0 -181 98q-24 55 -24 127q0 16 12 127l135 754q-1 0 -33 -8t-61 -8q-57 0 -115 20
q-131 44 -131 201q0 79 41 151q111 180 303 180q47 0 91 -12q82 -25 110.5 -92.5t28.5 -185.5zM537 1495q-70 0 -113 -48t-43 -108q0 -106 111 -106q69 0 112 48t43 108q0 46 -28.5 76t-81.5 30z" />
    <glyph glyph-name="uni0E1C" unicode="&#xe1c;" horiz-adv-x="1655" 
d="M803 528l-443 -528h-229l238 1352q36 206 229 270q62 20 119 20q89 0 155.5 -44t77.5 -136q0 -133 -61.5 -230t-159.5 -122q-65 -16 -123 -16q-33 0 -62 6q-25 5 -25 6h1l-155 -864l397 475h147l226 -475l249 1396h193l-291 -1638h-229zM688 1499q-70 0 -113 -50.5
t-43 -109.5q0 -102 107 -102q68 0 112 49.5t44 110.5q0 102 -107 102z" />
    <glyph glyph-name="uni0E1D" unicode="&#xe1d;" horiz-adv-x="1659" 
d="M819 528l-442 -528h-230l238 1352q36 206 229 270q62 20 119 20q90 0 156.5 -44t77.5 -136q0 -133 -61.5 -229.5t-160.5 -122.5q-65 -16 -122 -16q-32 0 -61 6q-25 5 -25 6l-156 -864l397 475h148l225 -475l381 2142h192l-421 -2384h-230zM705 1499q-70 0 -113 -49.5
t-43 -110.5q0 -102 106 -102q70 0 113 49.5t43 110.5q0 44 -27 73t-79 29z" />
    <glyph glyph-name="uni0E1E" unicode="&#xe1e;" horiz-adv-x="1925" 
d="M1343 0l-151 1290l-586 -1290h-237l196 1106q-1 0 -33 -8t-61 -8q-59 0 -115 20q-131 44 -131 201q0 79 41 151q111 180 303 180q48 0 90 -12q83 -25 111.5 -92.5t28.5 -185.5l-131 -750l-37 -164l540 1200h156l139 -1200l25 164l184 1036h193l-291 -1638h-234zM532 1495
q-71 0 -113 -48t-42 -108q0 -106 110 -106q70 0 113 48t43 108q0 46 -28.5 76t-82.5 30z" />
    <glyph glyph-name="uni0E1F" unicode="&#xe1f;" horiz-adv-x="1929" 
d="M1343 0l-155 1294l-582 -1294h-237l196 1106q-1 0 -33 -8t-61 -8q-59 0 -115 20q-131 44 -131 201q0 79 41 151q111 180 303 180q48 0 90 -12q83 -25 111.5 -92.5t28.5 -185.5l-127 -717l-41 -197l540 1200h156l139 -1200l25 197l315 1749h193l-422 -2384h-234zM532 1495
q-71 0 -113 -48t-42 -108q0 -106 110 -106q70 0 113 48t43 108q0 46 -28.5 76t-82.5 30z" />
    <glyph glyph-name="uni0E20" unicode="&#xe20;" horiz-adv-x="1864" 
d="M623 295q-41 -219 -238 -287q-44 -16 -106 -16q-200 0 -234 176q0 130 58.5 223.5t154.5 128.5q64 17 115 17q72 0 98 -13l49 291q14 90 74 172q52 59 96.5 83t63.5 28h-230l33 180q32 187 215 278t436 91q258 0 397.5 -78t139.5 -275l-229 -1294h-193l221 1257
q0 132 -84.5 181t-271.5 49q-400 0 -434 -197l-13 -57h242l-25 -139q-78 0 -167 -95q-49 -52 -74 -163zM303 135q68 0 112 48t44 108q0 46 -28.5 76t-82.5 30q-71 0 -113 -48t-42 -107q0 -107 110 -107z" />
    <glyph glyph-name="uni0E21" unicode="&#xe21;" horiz-adv-x="1827" 
d="M1475 0h-193q0 97 -47.5 244t-173.5 268q-131 127 -258 127l-70 -385q-20 -112 -90.5 -187t-191.5 -83q-275 0 -275 258q0 50 12 118q40 201 140.5 304t185.5 129t125 26l53 287q-1 0 -33 -8t-61 -8q-59 0 -115 20q-131 44 -131 201q0 79 41 151q111 180 303 180
q48 0 90 -12q83 -25 111.5 -92.5t28.5 -185.5l-95 -537q0 1 2 1q10 0 90 -23q91 -26 179 -84q131 -90 185.5 -180t64.5 -132l221 1241h192zM659 1495q-71 0 -113 -48t-42 -108q0 -106 110 -106q70 0 113 48t43 108q0 46 -28.5 76t-82.5 30zM381 438q-25 -77 -25 -155
q0 -140 95 -140q71 4 90 107l65 385q-158 0 -225 -197z" />
    <glyph glyph-name="uni0E22" unicode="&#xe22;" horiz-adv-x="1622" 
d="M463 557l-37 -201q0 -10 -2 -50t-2 -85q10 -69 123 -69h438q72 0 119 53q30 36 37 61.5t16 89.5l229 1282h193l-229 -1286q-30 -172 -103 -254q-84 -98 -209 -98h-610q-125 0 -180 98q-25 44 -25 123q0 75 12 131l33 189q30 132 94 204q42 49 89 70t63 21q-51 4 -128 56
t-77 202q0 104 37 209q46 142 152.5 231t236.5 104q152 0 230 -36t98 -140q0 -133 -60.5 -230t-156.5 -122q-55 -16 -111 -16q-160 0 -213 172v1q-2 0 -14 -50q-14 -57 -14 -103q0 -53 16 -86q44 -106 229 -106h267l-29 -148h-266q-110 0 -177 -78q-51 -55 -69 -139z
M807 1499q-70 0 -113 -50.5t-43 -109.5q0 -102 107 -102q69 0 112 49.5t43 110.5q0 43 -26.5 72.5t-79.5 29.5z" />
    <glyph glyph-name="uni0E23" unicode="&#xe23;" horiz-adv-x="1421" 
d="M1221 856l-99 -561q-37 -218 -237 -287q-44 -16 -107 -16q-86 0 -151 43t-82 133q0 130 58.5 223.5t154.5 128.5q64 17 114 17q73 0 99 -13l53 312q8 48 8 69q0 96 -71 141t-240 76q-137 25 -299 25h-189q0 57 38.5 155.5t123.5 191t215 128.5q101 29 185 29
q50 0 97.5 -8.5t108.5 -24.5t109 -24.5t107 -8.5q62 0 117 31q47 27 47 30q0 1 -1 1l41 -177q-14 -12 -54.5 -31t-109.5 -22q-87 0 -254.5 37t-277.5 37q-91 -13 -148.5 -56t-82 -83t-31.5 -62q291 0 536 -82q125 -43 177.5 -99.5t52.5 -154.5q0 -24 -8 -98zM803 135
q69 0 112 48t43 108q0 45 -28 75.5t-82 30.5q-70 0 -113 -48.5t-43 -106.5q0 -107 111 -107z" />
    <glyph glyph-name="uni0E24" unicode="&#xe24;" horiz-adv-x="1663" 
d="M307 815q14 90 74 172q52 59 96.5 83t63.5 28h-230l33 180q32 187 215 278t436 91q258 0 397.5 -78t139.5 -275l-348 -1966h-193l340 1929q0 132 -84.5 181t-271.5 49q-400 0 -434 -197l-13 -57h242l-25 -139q-78 0 -167 -95q-49 -52 -74 -163l-58 -316q2 0 38 6t65 6
q57 0 106 -16q127 -51 127 -205q0 -74 -37 -147q-93 -176 -294 -176q-64 0 -103 16q-139 54 -139 213q0 32 8 74zM479 131q70 0 113 48t43 108q0 46 -28.5 76t-82.5 30q-71 0 -113 -48t-42 -107q0 -107 110 -107z" />
    <glyph glyph-name="uni0E25" unicode="&#xe25;" horiz-adv-x="1675" 
d="M1266 811l77 446q0 135 -84.5 184.5t-271.5 49.5q-398 0 -434 -201l-16 -86h-193l12 74q32 187 215 278t437 91q258 0 397 -78t139 -275l-229 -1294h-193l33 197q16 106 16 176q0 201 -98 418q-98 225 -266 225q-13 0 -53 -8q-94 -22 -165.5 -93t-88.5 -174l-41 -221
q1 0 37 6t65 6q58 0 107 -16q127 -51 127 -205q0 -71 -37 -147q-94 -176 -295 -176q-64 0 -103 16q-139 55 -139 213q0 32 8 74l74 430q29 164 155.5 288.5t295.5 153.5q64 8 90 8q199 0 297.5 -135t124.5 -225zM492 131q69 0 112 48t43 108q0 46 -28.5 76t-81.5 30
q-70 0 -113 -48t-43 -107q0 -107 111 -107z" />
    <glyph glyph-name="uni0E26" unicode="&#xe26;" horiz-adv-x="1860" 
d="M614 295q-37 -218 -237 -287q-44 -16 -107 -16q-86 0 -151 43t-82 133q0 130 58.5 223.5t154.5 128.5q64 17 115 17q72 0 98 -13l49 291q14 90 74 172q51 58 95.5 82.5t63.5 28.5h-229l33 180q32 187 215 278t436 91q258 0 397.5 -78t139.5 -275l-348 -1966h-193
l340 1929q0 132 -84.5 181t-271.5 49q-400 0 -435 -197l-12 -57h242l-25 -139q-78 0 -168 -95q-48 -52 -73 -163zM295 135q68 0 112 48t44 108q0 46 -28.5 76t-82.5 30q-70 0 -113 -48.5t-43 -106.5q0 -107 111 -107z" />
    <glyph glyph-name="uni0E27" unicode="&#xe27;" horiz-adv-x="1384" 
d="M1081 1257q9 47 9 62q0 90 -71 131t-237 41q-335 0 -372 -213l-9 -57h-184l8 57q62 369 586 369q471 0 471 -353l-176 -999q-37 -218 -238 -287q-43 -16 -106 -16q-200 0 -234 176q0 130 58.5 223.5t154.5 128.5q64 17 115 17q72 0 98 -13zM786 135q70 0 113 48t43 108
q0 46 -28.5 76t-82.5 30q-71 0 -113 -48t-42 -107q0 -107 110 -107z" />
    <glyph glyph-name="uni0E28" unicode="&#xe28;" horiz-adv-x="1757" 
d="M1462 1589q16 7 48 31.5t59 67.5q54 90 61 151h205q-17 -107 -102 -229q-32 -50 -73 -82.5t-63 -44.5q6 -8 16 -29t13 -53v-107l-229 -1294h-193l221 1257q0 138 -93.5 184t-295.5 46q-430 0 -471 -230l-94 -548l-37 -123l139 245q170 324 402 336q121 0 189.5 -59.5
t68.5 -177.5q-10 -103 -60 -178.5t-122.5 -112.5t-149.5 -37q-137 0 -205 90q-16 -22 -36 -52t-60.5 -102.5t-87.5 -172.5q-65 -139 -104 -234.5t-52 -130.5h-209l230 1294q32 186 221 269.5t463 83.5q216 0 301 -21.5t100 -36.5zM963 1008q-65 0 -104.5 -45.5t-39.5 -102.5
q0 -98 103 -98q64 0 103.5 45.5t39.5 101.5q0 99 -102 99z" />
    <glyph glyph-name="uni0E29" unicode="&#xe29;" horiz-adv-x="1958" 
d="M1602 549l-37 -197q-30 -172 -103 -254q-84 -98 -209 -98h-610q-130 0 -180 98q-25 54 -25 127q0 31 13 127l135 754q-2 0 -33 -8t-61 -8q-59 0 -115 20q-131 44 -131 201q0 82 41 151q111 180 303 180q46 0 90 -12q82 -25 110.5 -92.5t28.5 -185.5l-176 -996
q0 -10 -2 -50t-2 -85q10 -69 123 -69h438q72 0 119 53q30 36 37 61.5t16 89.5l33 168q-10 -1 -37.5 -2.5t-69.5 -1.5q-193 0 -323 53q-131 54 -131 181q0 79 50 155.5t126 106.5q61 24 123 24q84 -3 140.5 -46.5t59.5 -121.5q0 -88 -29 -133.5t-48 -58.5l30 -4q32 -4 52 -4
q28 0 50.5 3t31.5 5l172 958h192l-164 -929q75 31 135 114q58 76 66 176h180q-21 -185 -147 -311q-81 -79 -155 -107.5t-107 -31.5zM1110 909q-56 0 -89.5 -37.5t-33.5 -85.5q0 -81 86 -81q56 0 89.5 37.5t33.5 84.5q0 82 -86 82zM553 1495q-70 0 -113 -48.5t-43 -107.5
q0 -106 111 -106q68 0 112 48t44 108q0 46 -28.5 76t-82.5 30z" />
    <glyph glyph-name="uni0E2A" unicode="&#xe2a;" horiz-adv-x="1663" 
d="M537 1278l-13 -74h-192l12 74q33 183 214 276t437 93q194 0 273.5 -21.5t95.5 -36.5q17 8 50.5 34t60.5 69q55 93 61 151h205q-19 -116 -103 -229q-30 -49 -71.5 -82t-63.5 -45q7 -8 18 -28.5t11 -53.5v-111l-229 -1294h-193l33 197q16 106 16 176q0 201 -98 418
q-98 225 -266 225q-12 0 -54 -8q-92 -22 -163.5 -92.5t-90.5 -174.5l-41 -221q2 0 38 6t65 6q57 0 106 -16q127 -51 127 -205q0 -74 -37 -147q-93 -176 -294 -176q-64 0 -103 16q-139 54 -139 213q0 32 8 74l74 430q29 164 154.5 288t295.5 154q66 8 90 8q142 0 236 -79.5
t140 -171t46 -113.5l78 455q0 129 -87 179t-273 50q-395 0 -434 -213zM479 131q70 0 113 48t43 108q0 46 -28.5 76t-82.5 30q-71 0 -113 -48t-42 -107q0 -107 110 -107z" />
    <glyph glyph-name="uni0E2B" unicode="&#xe2b;" horiz-adv-x="1864" 
d="M1356 1081q-84 0 -222.5 -108.5t-248.5 -255.5q-252 -334 -295 -578l-25 -139h-192l196 1106q-1 0 -33 -8t-61 -8q-57 0 -115 20q-131 44 -131 201q0 79 41 151q111 180 303 180q47 0 91 -12q82 -25 110.5 -92.5t28.5 -185.5l-111 -631q0 4 86 112q89 112 201 203
q72 61 124 95t84 48.5t38 16.5q-12 0 -37 30.5t-25 92.5q0 41 13 94q26 104 123.5 171t211.5 67q113 -3 173.5 -60t60.5 -153q0 -40 -12 -82q-25 -108 -86.5 -158.5t-85.5 -50.5q71 -36 98 -119q12 -111 12 -176l-151 -852h-193l148 848q8 48 8 65q0 149 -127 168zM537 1495
q-70 0 -113 -48t-43 -108q0 -106 111 -106q69 0 112 48t43 108q0 46 -28.5 76t-81.5 30zM1479 1503q-70 0 -113 -49.5t-43 -110.5q0 -102 107 -102q69 0 112 49.5t43 110.5q0 44 -27 73t-79 29z" />
    <glyph glyph-name="uni0E2C" unicode="&#xe2c;" horiz-adv-x="1892" 
d="M1827 1413l-250 -1413h-225l-242 831l-520 -831h-221l196 1106q-1 0 -33 -8t-61 -8q-59 0 -115 20q-131 44 -131 201q0 79 41 151q111 180 303 180q48 0 90 -12q83 -25 111.5 -92.5t28.5 -185.5l-144 -824l-45 -196l455 708h156l225 -708l29 196l135 775
q-95 -41 -226 -46q-140 0 -242 49t-102 164q13 113 119 182t262 72q190 0 275 -49t98 -82q10 10 35 45.5t51 94.5q37 98 49 209h201q-24 -195 -111 -340q-50 -83 -107 -129.5t-85 -59.5zM532 1495q-71 0 -113 -48t-42 -108q0 -106 110 -106q70 0 113 48t43 108
q0 46 -28.5 76t-82.5 30zM1401 1585q-68 0 -114 -31.5t-46 -66.5q0 -72 139 -78q109 0 166 28t72 46q0 24 -50 63t-167 39z" />
    <glyph glyph-name="uni0E2D" unicode="&#xe2d;" horiz-adv-x="1642" 
d="M389 356q0 -10 -2 -50t-2 -85q10 -69 123 -69h438q97 0 144 53q30 36 37 61.5t16 89.5l160 901q0 135 -85 184.5t-272 49.5q-398 0 -434 -201l-12 -57h-193l8 45q32 187 215 278t437 91q258 0 397 -78t139 -275l-168 -942q-28 -169 -102 -254q-84 -98 -209 -98h-635
q-130 0 -180 98q-25 58 -25 127q0 30 5.5 69.5t7.5 57.5l86 475q14 82 67 166.5t162 120.5q65 21 123 21q202 0 229 -181q0 -137 -62 -231.5t-159 -120.5q-65 -16 -119 -16q-35 0 -65 6q-26 5 -26 6h1zM606 991q-70 0 -112.5 -49.5t-42.5 -110.5q0 -102 106 -102
q68 0 112 49.5t44 110.5q0 102 -107 102z" />
    <glyph glyph-name="uni0E2E" unicode="&#xe2e;" horiz-adv-x="1642" 
d="M1495 1262l-160 -910q-28 -169 -102 -254q-84 -98 -209 -98h-635q-130 0 -180 98q-25 58 -25 127q0 30 5.5 69.5t7.5 57.5l65 369q13 76 68 162.5t162 124.5q60 20 122 20q207 0 230 -180q0 -137 -61.5 -232.5t-159.5 -119.5q-65 -17 -119 -17q-35 0 -63 7l-27 6
l-25 -136q0 -10 -2 -50t-2 -85q10 -69 123 -69h438q97 0 144 53q30 36 37 61.5t16 89.5l160 901q-31 -24 -145 -63.5t-339 -46.5q-208 0 -345.5 45t-137.5 184q23 130 195.5 200.5t369.5 70.5q194 0 298.5 -20.5t142.5 -45.5t42 -29q0 2 17.5 33.5t28.5 69.5
q17 47 24.5 86.5t11.5 60.5h193q-23 -111 -66 -217q-19 -46 -39.5 -82t-35 -54t-19.5 -24q3 -10 7.5 -29.5t4.5 -31.5q-3 -43 -16 -102zM586 885q-70 0 -113 -48t-43 -108q0 -106 111 -106q69 0 112 48t43 107q0 47 -28.5 77t-81.5 30zM1257 1413q1 0 1 1q0 3 -28 22
q-36 23 -116.5 41t-228.5 18q-315 -7 -332 -106q0 -86 307 -86q143 1 229.5 25t124 52t43.5 33z" />
    <glyph glyph-name="uni0E2F" unicode="&#xe2f;" horiz-adv-x="1593" 
d="M1069 1298q73 60 121.5 134t72.5 135.5t27 70.5q90 0 135 -28q50 -34 50 -103q0 -26 -29 -176l-172 -979q-33 -197 -164 -286q-61 -39 -117 -55.5t-80 -18.5l-90 147q92 0 176 62q68 51 82 147l160 901q-37 -41 -145 -111t-281 -98q-67 -12 -135 -12q-156 0 -265.5 60
t-123.5 174q0 155 79 258.5t220 121.5q146 0 210 -62t64 -204q-8 -49 -23.5 -83.5t-33 -55.5t-32.5 -31l-21 -14q186 0 315 106zM602 1503q-68 0 -109.5 -47.5t-41.5 -103.5q0 -103 106 -103q66 0 109 47t43 105q0 102 -107 102z" />
    <glyph glyph-name="uni0E30" unicode="&#xe30;" horiz-adv-x="1384" 
d="M991 1225q78 51 117 149t39 162h213q-68 -384 -352 -483q-185 -66 -373 -66q-252 0 -332 127q-33 51 -33 123q0 97 60.5 187t156.5 120q52 17 111 17q101 0 163 -56t62 -178q-5 -61 -26 -100t-43.5 -58.5t-24.5 -21.5q139 0 262 78zM827 291q78 51 114.5 145t41.5 166
h213q-67 -381 -352 -483q-185 -66 -373 -66q-250 0 -332 127q-33 51 -33 123q0 98 61 187.5t157 119.5q47 17 110 17q101 0 163 -56t62 -178q-5 -59 -26 -98.5t-44 -60.5t-24 -21q139 0 262 78zM410 500q-70 0 -113 -49.5t-43 -110.5q0 -102 106 -102q70 0 113 49.5
t43 109.5q0 103 -106 103zM573 1434q-70 0 -112.5 -49.5t-42.5 -110.5q0 -103 106 -103q70 0 113 49.5t43 110.5q0 103 -107 103z" />
    <glyph glyph-name="uni0E31" unicode="&#xe31;" 
d="M274 2273q104 65 142 127.5t67 179.5h213q-8 -45 -51.5 -142.5t-174 -214.5t-359.5 -171q-183 -37 -328 -37q-278 0 -389 111q-53 47 -53 143q0 94 56 179.5t157 119.5q49 21 118 21q90 0 153 -52t69 -141q0 -89 -29 -141.5t-49 -71.5q314 0 458 90zM-356 2454
q-67 0 -107.5 -46t-40.5 -106q0 -102 107 -102q68 0 107.5 45.5t39.5 105.5q0 44 -26.5 73.5t-79.5 29.5z" />
    <glyph glyph-name="uni0E32" unicode="&#xe32;" horiz-adv-x="1421" 
d="M868 0l222 1257q8 42 8 62q0 90 -71 131t-236 41q-336 0 -373 -213l-8 -57h-185l8 57q64 369 586 369q471 0 471 -353l-229 -1294h-193z" />
    <glyph glyph-name="uni0E33" unicode="&#xe33;" horiz-adv-x="1348" 
d="M-127 1917q-124 0 -189 70.5t-65 175.5q0 86 44.5 170t126.5 137t190 53q125 0 189 -69.5t64 -176.5q0 -86 -44.5 -170t-126.5 -137t-189 -53zM827 0l222 1257q8 42 8 62q0 90 -71 131t-236 41q-336 0 -373 -213l-8 -57h-185l9 57q62 369 585 369q471 0 471 -353
l-229 -1294h-193zM-49 2359q-76 0 -124 -53t-48 -119q0 -47 30 -78.5t89 -31.5q74 0 123 53t49 119q0 47 -30 78.5t-89 31.5z" />
    <glyph glyph-name="uni0E34" unicode="&#xe34;" 
d="M-29 1929h-1114l33 185q34 181 192.5 283t385.5 102q272 0 404 -97t132 -260q0 -24 -8 -74zM-184 2130q0 82 -83.5 148t-273.5 69q-333 0 -372 -209l-9 -57h729z" />
    <glyph glyph-name="uni0E35" unicode="&#xe35;" 
d="M-139 2400l53 287h192l-135 -758h-1114l33 185q34 181 192.5 283t385.5 102q151 -3 237 -24.5t125 -47.5q32 -23 32 -26q0 -1 -1 -1zM-184 2130q0 82 -83.5 148t-273.5 69q-333 0 -372 -209l-9 -57h729z" />
    <glyph glyph-name="uni0E36" unicode="&#xe36;" 
d="M-33 1929h-1118l33 185q29 160 170.5 267t349.5 113q102 0 169 -8q52 -6 52 -8h-4q4 22 29 67.5t86 88.5q88 65 205 65t176 -65q57 -57 57 -156q0 -97 -57 -172q-52 -71 -131 -106l2 -37q2 -41 2 -78q-3 -52 -12 -104zM-586 2347q-297 -6 -336 -209l-8 -57h729
q-7 29 -39 88.5t-117.5 118.5t-228.5 59zM-90 2548q-65 0 -104 -45t-39 -99q0 -98 102 -98q63 0 103 45t40 98q0 99 -102 99z" />
    <glyph glyph-name="uni0E37" unicode="&#xe37;" 
d="M-397 2490l37 197h172l-41 -229l110 -66l53 295h172l-135 -758h-1114l33 185q23 125 115.5 223t232.5 133q129 33 238 33q54 0 84.5 -5t42.5 -8zM-184 2130q0 82 -83.5 148t-273.5 69q-333 0 -372 -209l-9 -57h729z" />
    <glyph glyph-name="uni0E38" unicode="&#xe38;" 
d="M-688 -1004l61 349q-3 0 -28 -5t-58 -8q-57 0 -118 21q-123 40 -123 188q0 72 41 148q85 164 282 164q44 0 90 -13q86 -22 115 -88.5t29 -185.5l-99 -570h-192zM-655 -287q-65 0 -104.5 -46t-39.5 -101q0 -94 99 -94q65 0 104 45t39 102q0 94 -98 94z" />
    <glyph glyph-name="uni0E39" unicode="&#xe39;" 
d="M-676 -696l90 499h193l-119 -667h-631l29 168q-5 0 -29 -5t-57 -8q-58 0 -119 21q-123 40 -123 188q0 72 41 148q84 164 283 164q43 0 90 -13q87 -25 117 -91.5t30 -182.5l-41 -221h246zM-1143 -328q-65 0 -104 -45.5t-39 -101.5q0 -94 98 -94q65 0 104 45t39 102
q0 94 -98 94z" />
    <glyph glyph-name="uni0E3A" unicode="&#xe3a;" 
d="M-561 -516q-65 0 -98 34.5t-33 88.5q0 70 51 127t133 57q65 0 98 -34.5t33 -88.5q0 -70 -51 -127t-133 -57z" />
    <glyph glyph-name="glyph190" horiz-adv-x="909" 
d="M0 0v6l6 -6h-6z" />
    <glyph glyph-name="glyph191" horiz-adv-x="909" 
d="M804 -315h-143l20 136h-501l-20 -136h-135l53 303h779z" />
    <glyph glyph-name="uni0E3F" unicode="&#xe3f;" horiz-adv-x="1524" 
d="M1020 1638q95 -1 238 -74.5t143 -318.5q-31 -207 -121.5 -293t-263.5 -125q266 -56 266 -270q0 -24 -8 -82q-28 -211 -147 -313.5t-246 -130t-152 -31.5l-41 -221h-164l41 221h-397l291 1638h397l37 230h164zM602 205l90 524h-205l-90 -524h205zM819 1450h-205l-94 -532
h205zM893 926q67 1 174.5 54.5t132.5 223.5q0 144 -69.5 193t-147.5 49zM766 201q67 0 174 53.5t129 228.5q0 141 -80 187.5t-133 50.5z" />
    <glyph glyph-name="uni0E40" unicode="&#xe40;" horiz-adv-x="926" 
d="M623 1638l-201 -1118q1 0 37 6t65 6q58 0 107 -16q127 -51 127 -205q0 -71 -37 -147q-94 -176 -295 -176q-65 0 -102 16q-140 55 -140 213q0 36 9 74l237 1347h193zM455 131q69 0 112 48t43 108q0 46 -28.5 76t-81.5 30q-70 0 -113 -48t-43 -107q0 -107 111 -107z" />
    <glyph glyph-name="uni0E41" unicode="&#xe41;" horiz-adv-x="1589" 
d="M1331 1638l-201 -1118q2 0 38 6t65 6q58 0 106 -16q127 -51 127 -205q0 -73 -36 -147q-94 -176 -295 -176q-64 0 -103 16q-139 55 -139 213q0 32 8 74l238 1347h192zM627 1638l-201 -1118q1 0 37 6t65 6q58 0 107 -16q127 -51 127 -205q0 -74 -37 -147
q-94 -176 -295 -176q-65 0 -102 16q-140 55 -140 213q0 27 9 74l237 1347h193zM459 131q69 0 112 48t43 108q0 45 -28 75.5t-82 30.5q-70 0 -113 -48.5t-43 -106.5q0 -107 111 -107zM1163 131q70 0 113 48t43 108q0 46 -28.5 76t-82.5 30q-71 0 -113 -48t-42 -107
q0 -107 110 -107z" />
    <glyph glyph-name="uni0E42" unicode="&#xe42;" horiz-adv-x="1040" 
d="M852 2269l-311 -1749q1 0 37 6t65 6q58 0 107 -16q127 -52 127 -205q0 -71 -37 -147q-94 -176 -295 -176q-64 0 -103 16q-139 55 -139 213q0 32 8 74l340 1937q0 103 -12.5 140.5t-52.5 52.5q-65 24 -142 30.5t-116 6.5q0 23 29 106.5t102 171.5t196 123q103 25 168 25
q91 0 226 -47t229 -56q57 0 95 17.5t60 41.5q21 22 21 23l33 -172q-22 -18 -77 -46t-120 -28q-67 6 -116 19.5t-118.5 38t-131.5 39t-129 14.5q-89 -5 -142 -36.5t-68.5 -59.5t-23.5 -52q31 0 110 -18t124 -63q65 -74 65 -144q0 -12 -8 -86zM573 131q70 0 113 48t43 108
q0 46 -28.5 76t-82.5 30q-71 0 -113 -48t-42 -107q0 -107 110 -107z" />
    <glyph glyph-name="uni0E43" unicode="&#xe43;" horiz-adv-x="1114" 
d="M922 2503q0 98 -60.5 151t-156.5 53q-41 0 -91 -12q-113 -28 -160.5 -109t-47.5 -116q12 19 51 46.5t112 27.5q83 0 129.5 -47.5t46.5 -133.5q0 -21 -8 -61q-20 -115 -99 -184.5t-179 -69.5q-118 3 -180 78t-62 196q0 40 16 132q36 172 165.5 287t318.5 118
q389 0 389 -401q-10 -89 -58.5 -180t-106 -191t-69.5 -170l-245 -1393l31 7q33 6 67 6q55 0 106 -17q132 -53 132 -205q0 -75 -41 -147q-89 -176 -291 -176q-68 0 -107 16q-139 55 -139 213q0 32 8 74l283 1618q17 94 99 215t112 179t35 196zM655 135q70 0 113 48t43 108
q0 46 -28.5 76t-82.5 30q-71 0 -113 -48t-42 -107q0 -107 110 -107zM528 2404q-50 0 -86 -44.5t-36 -94.5q0 -82 81 -82q52 0 83.5 41t31.5 94q0 86 -74 86z" />
    <glyph glyph-name="uni0E44" unicode="&#xe44;" horiz-adv-x="1135" 
d="M893 1917l-246 -1393l31 7q33 6 67 6q55 0 107 -17q131 -53 131 -205q0 -78 -41 -147q-87 -176 -291 -176q-69 0 -106 16q-139 54 -139 213q0 32 8 74l282 1618q38 197 111 356q16 38 59 124t65.5 142t22.5 95q0 61 -69 61q-26 0 -46 -29t-50.5 -99.5t-47.5 -104.5
q-11 -23 -41 -89.5t-56 -103t-67 -61.5t-98 -25q-80 3 -109.5 43t-29.5 129q0 41 16 221q0 99 -77 99l69 204q123 0 148 -69q16 -39 16 -103q0 -58 -14.5 -154t-14.5 -128q0 -53 25 -58q27 0 47.5 36t56 126.5t63 148.5t75.5 115q56 70 172 70q90 0 149 -58t59 -188
q-14 -102 -88.5 -249t-91.5 -193q-35 -106 -57 -254zM676 135q69 0 112 48t43 108q0 45 -28 75.5t-82 30.5q-70 0 -113 -48.5t-43 -106.5q0 -107 111 -107z" />
    <glyph glyph-name="uni0E45" unicode="&#xe45;" horiz-adv-x="1335" 
d="M688 -672l340 1929q8 42 8 62q0 90 -71 131t-236 41q-335 0 -373 -213l-8 -57h-184l8 57q62 369 586 369q471 0 471 -353l-348 -1966h-193z" />
    <glyph glyph-name="uni0E46" unicode="&#xe46;" horiz-adv-x="1851" 
d="M1028 1458q66 -33 66 -139q0 -56 -21 -107q-32 -90 -111.5 -143t-166.5 -53q-107 0 -156 74q-41 57 -41 139q0 122 89 241.5t214 151.5q60 16 127 16q121 0 182.5 -57t75.5 -98q30 39 103.5 97t171.5 58q184 -6 184 -270l-234 -1319q-14 -88 -42.5 -148t-100.5 -126
q-54 -54 -147.5 -90.5t-118.5 -36.5l-78 151q122 0 209 78q52 47 65 81.5t25 115.5l229 1286q0 98 -49 98q-42 0 -99 -59t-106 -130.5t-49 -76.5q0 74 -57 168q-68 98 -164 98zM864 1372q-56 0 -89.5 -39.5t-33.5 -87.5q0 -86 86 -86q54 0 88.5 40t34.5 87q0 86 -86 86z" />
    <glyph glyph-name="uni0E47" unicode="&#xe47;" 
d="M-430 2114q-12 36 -12 77q0 71 41 136q89 135 245 135q81 0 140 -45q65 -48 65 -156q0 -166 -147 -258q-94 -57 -230 -57q-121 0 -217 41q-46 20 -98.5 63.5t-69.5 67.5l-200 -164h-226l45 246q35 213 140 323q107 115 242.5 145.5t355.5 30.5q173 0 274 34t149 78
q40 37 40 43q0 1 -1 1l103 -123q0 -2 -32 -32q-35 -33 -87.5 -65.5t-126.5 -54.5q-100 -28 -266 -28h-156q-208 0 -315 -66q-73 -43 -108.5 -149t-39.5 -215l258 200q44 -71 103 -135q41 -40 58 -48t73 -25zM-176 2339q-62 0 -98.5 -43t-36.5 -96q0 -91 94 -91q60 0 97.5 43
t37.5 97q0 38 -24 64t-70 26z" />
    <glyph glyph-name="glyph201" 
d="M-78 2826l82 484h193l-82 -484h-193z" />
    <glyph glyph-name="glyph202" 
d="M-78 2929q-133 0 -180 61q-29 35 -29 98q0 113 86 193q71 65 176 65q126 0 172 -81q21 -47 21 -91q0 -95 -64.5 -198t-95.5 -113q176 0 295 57q190 104 221 332h135q0 -31 -39 -134.5t-120 -192.5q-141 -157 -394 -177q-130 -8 -188 -8q-72 0 -124 3t-73 5l17 95
q61 0 102 20q52 19 82 66zM-45 3236q-54 0 -84.5 -36t-30.5 -83q0 -82 82 -82q52 0 83.5 36t31.5 83q0 82 -82 82z" />
    <glyph glyph-name="glyph203" 
d="M-348 3092q11 4 44.5 10.5t102.5 6.5q53 -9 84 -50t31 -98q0 -68 -49 -135q-63 -86 -176 -86q-106 0 -160 74q-25 39 -25 123q0 105 48 210.5t141 141.5q49 21 98 21q62 0 99 -24.5t49 -41.5q0 11 41.5 38.5t105.5 27.5q135 -7 135 -164q0 -28 -8 -70q-14 -95 -61 -188
q87 43 106 94q49 116 78 278q14 77 36.5 119t33.5 53h126q-10 -5 -30 -29t-39 -81q-19 -56 -36 -151.5t-33.5 -151t-57.5 -111.5q-110 -151 -377 -151q1 0 37 58q36 59 49 97q53 113 53 209q0 67 -45 78q-46 0 -82.5 -26t-52.5 -44q-13 20 -47.5 49t-87.5 29q-17 0 -41 -8
q-38 -10 -60.5 -47t-29.5 -60zM-270 3019q-48 0 -77.5 -33.5t-29.5 -73.5q0 -73 74 -73q47 0 76.5 33t29.5 73q0 74 -73 74z" />
    <glyph glyph-name="glyph204" 
d="M152 2970l-37 -213h-193l37 213h-287l25 147h287l36 213h193l-37 -213h287l-25 -147h-286z" />
    <glyph glyph-name="glyph205" 
d="M197 3002q13 -9 33 -39t20 -88q0 -45 -8 -69q-27 -112 -115.5 -175t-224.5 -63q-104 6 -156.5 65t-52.5 148q0 68 33 139q53 108 141 146.5t246.5 56.5t230.5 39q87 24 125.5 74t38.5 69l102 -147q-12 -22 -53.5 -61t-122.5 -58q-199 -37 -237 -37zM-4 2953
q-68 0 -110 -48.5t-42 -106.5q0 -99 103 -99q66 0 108.5 48t42.5 108q0 98 -102 98z" />
    <glyph glyph-name="uni0E4D" unicode="&#xe4d;" 
d="M-287 1917q-124 0 -189 70.5t-65 175.5q0 86 44.5 170t126.5 137t190 53q126 0 190 -69.5t64 -176.5q0 -86 -44.5 -170t-126.5 -137t-190 -53zM-209 2359q-76 0 -124 -53.5t-48 -118.5q0 -47 30 -78.5t89 -31.5q74 0 123 53t49 119q0 47 -30 78.5t-89 31.5z" />
    <glyph glyph-name="uni0E4E" unicode="&#xe4e;" 
d="M-33 1999q-72 -66 -188 -66q-144 0 -201 95q-29 46 -29 114q0 105 70 189q109 123 279 123q-123 15 -123 167q21 104 117.5 180t218.5 91q190 0 258 -37l-144 -127q-17 0 -51 7.5t-39 8.5q-41 0 -65 -8q-106 -25 -136 -131q0 -119 152 -119l-78 -131q-168 0 -246 -78
q-45 -45 -45 -106q0 -33 9 -45q17 -41 86 -41q70 0 106 37z" />
    <glyph glyph-name="uni0E4F" unicode="&#xe4f;" horiz-adv-x="2114" 
d="M975 0q-228 0 -383 89t-230 238t-75 332q0 234 120 461.5t343.5 372.5t515.5 145q228 0 383 -89t230 -238t75 -332q0 -234 -120 -461.5t-344 -372.5t-515 -145zM1245 1528q-253 0 -445.5 -126t-295.5 -322t-103 -400q0 -245 151.5 -407t442.5 -162q252 0 445 125.5
t296 321.5t103 400q0 246 -150.5 408t-443.5 162zM1036 352q-192 0 -292.5 107.5t-100.5 269.5q0 132 67.5 262t195 212.5t294.5 82.5q192 0 292.5 -107.5t100.5 -269.5q0 -211 -154 -384t-403 -173z" />
    <glyph glyph-name="uni0E50" unicode="&#xe50;" horiz-adv-x="1769" 
d="M1573 598q-55 -281 -255 -447.5t-544 -166.5q-298 0 -444 126.5t-146 348.5q0 68 13 139q29 185 128 329.5t269.5 227t400.5 82.5q299 0 444.5 -132.5t145.5 -359.5q0 -73 -12 -147zM971 1081q-261 0 -402 -134t-172 -349q-8 -74 -8 -111q0 -340 414 -340q475 0 569 451
q12 67 12 127q0 356 -413 356z" />
    <glyph glyph-name="uni0E51" unicode="&#xe51;" horiz-adv-x="1810" 
d="M848 188l-20 -4q-23 -4 -46 -4q-97 0 -172 74q-53 47 -53 143q0 88 55 175t154 124q60 25 123 25q102 0 171.5 -64.5t69.5 -173.5q0 -44 -12 -94q-41 -168 -177.5 -286.5t-371.5 -118.5q-203 8 -300 127t-97 303q0 86 29 204q67 263 257.5 424t516.5 170
q298 0 452 -130.5t154 -372.5q0 -37 -8 -111q-51 -358 -224.5 -538t-279.5 -228l-123 102q95 38 248.5 193t185.5 479q4 29 4 82q0 373 -434 373q-224 -6 -370 -130t-195 -325q-20 -88 -20 -160q0 -275 204 -315q49 -12 95 -12q51 0 91 14t64 32.5t29 22.5zM864 573
q-67 0 -107 -46.5t-40 -104.5q0 -98 102 -98q66 0 107 46.5t41 104.5q0 98 -103 98z" />
    <glyph glyph-name="uni0E52" unicode="&#xe52;" horiz-adv-x="1860" 
d="M823 766q82 41 193 41q84 -6 132 -62.5t48 -142.5q0 -20 -8 -70q-22 -104 -106 -170.5t-197 -66.5q-262 5 -262 278q0 75 24 205q39 169 138.5 296t238.5 130q80 0 121 -29t53.5 -67t13.5 -43q14 35 75.5 87t199.5 52q110 0 161.5 -63t51.5 -162q0 -28 -8 -78l-95 -524
q-31 -174 -114 -258q-119 -119 -275 -119h-667q-155 0 -238 78q-53 53 -53 151q0 16 12 115l180 1024q17 77 17 119q0 51 -29 86q-56 65 -201 65l148 164q17 0 76 -17.5t104 -51.5q102 -90 102 -205q0 -24 -8 -74l-192 -1089q0 -7 -4 -34t-4 -44q0 -41 8 -62q30 -73 139 -73
h586q92 0 155 57q42 38 66 164l94 536q0 86 -15.5 119t-66.5 33q-78 0 -125 -65.5t-47 -106.5h-143q0 89 -21.5 126.5t-93.5 37.5q-83 -10 -120 -114.5t-44 -172.5zM950 676q-65 0 -104 -45.5t-39 -102.5q0 -98 102 -98q63 0 103.5 45.5t40.5 102.5q0 98 -103 98z" />
    <glyph glyph-name="uni0E53" unicode="&#xe53;" horiz-adv-x="1765" 
d="M385 418q50 100 201 114q120 0 182.5 -65.5t62.5 -187.5q-19 -126 -111 -208.5t-237 -82.5q-303 0 -303 377q0 106 29 262q53 259 180.5 418t323.5 159q258 0 258 -221q0 41 80 129.5t252 91.5q129 0 199.5 -78t70.5 -208q0 -66 -8 -99l-144 -819h-192l143 819
q0 127 -21.5 181t-84.5 57q-101 0 -165 -89t-85 -206l-29 -156h-172l25 148q12 55 12 102q0 197 -164 197q-186 -5 -258 -316q-45 -184 -45 -319zM573 389q-71 0 -113 -48t-42 -108q0 -102 106 -102q70 0 113 48t43 108q0 102 -107 102z" />
    <glyph glyph-name="uni0E54" unicode="&#xe54;" horiz-adv-x="1958" 
d="M1081 274q42 -13 140.5 -24.5t167.5 -44.5q59 -28 90 -90l-119 -123q-19 16 -47.5 41t-91.5 49t-164 24q-71 -5 -247 -63.5t-269 -58.5q-169 0 -283 147q-90 115 -90 295q0 186 90 374t229 281q185 127 471 127q59 0 191 -6t207 -6q92 0 196 12q221 29 308.5 221.5
t101.5 315.5l160 -103q-1 -6 -23.5 -87.5t-72.5 -177.5t-138.5 -182.5t-216.5 -125.5q-144 -41 -311 -41q-57 0 -402 21q-446 0 -561 -414q-20 -88 -20 -160q0 -125 57 -212.5t168 -110.5q88 0 197 29q99 25 99 28h-1q-15 0 -75.5 34.5t-115 100t-59.5 156.5q0 136 79.5 250
t227.5 131q138 0 202.5 -61.5t64.5 -160.5q0 -87 -41 -159q-39 -71 -115 -107.5t-102 -36.5q10 -12 38 -39t80 -43zM971 733q-68 0 -110 -48.5t-42 -106.5q0 -99 103 -99q66 0 108.5 48t42.5 108q0 98 -102 98z" />
    <glyph glyph-name="uni0E55" unicode="&#xe55;" horiz-adv-x="1978" 
d="M840 1397q36 100 118 152.5t189 52.5q102 0 165.5 -53t63.5 -169q-12 -89 -43.5 -131.5t-50.5 -52.5h-1l27 -2q31 -2 64 -2q99 0 180 16q223 41 310 230t100 307l160 -103q-1 -6 -23.5 -87.5t-72.5 -177.5t-138.5 -182.5t-216.5 -125.5q-144 -41 -311 -41q-57 0 -402 21
q-446 0 -561 -414q-20 -88 -20 -160q0 -125 57 -212.5t168 -110.5q88 0 197 29q99 25 99 28h-1q-15 0 -75.5 34.5t-115 100t-59.5 156.5q0 136 79.5 250t227.5 131q138 0 202.5 -61.5t64.5 -160.5q0 -87 -41 -159q-39 -71 -115 -107.5t-102 -36.5q10 -12 38 -39t80 -43
q42 -13 140.5 -24.5t167.5 -44.5q59 -28 90 -90l-119 -123q-19 16 -47.5 41t-91.5 49t-164 24q-71 -5 -247 -63.5t-269 -58.5q-169 0 -283 147q-94 119 -94 311q0 180 84 357t227 278q178 123 389 123q-10 8 -25.5 34t-15.5 73t17 90zM1135 1466q-67 0 -111.5 -45.5
t-44.5 -101.5q0 -88 90 -94q67 0 111.5 45.5t44.5 101.5q0 88 -90 94zM971 733q-68 0 -110 -48.5t-42 -106.5q0 -99 103 -99q66 0 108.5 48t42.5 108q0 98 -102 98z" />
    <glyph glyph-name="uni0E56" unicode="&#xe56;" horiz-adv-x="1810" 
d="M1118 197q153 59 232.5 213.5t79.5 351.5q-30 299 -431 299q-156 -8 -257.5 -59.5t-153.5 -112t-56 -66.5h-200q5 5 16.5 101t11.5 198q0 132 -20 230q-20 108 -58 170.5t-76.5 88t-41.5 27.5l164 140q3 -2 40.5 -32.5t77.5 -90.5t62 -148q29 -130 29 -262q0 -87 -8 -163
q-8 -67 -9 -67v1q0 15 83 77t212 95q134 29 242 29q161 0 293.5 -46.5t201.5 -142.5q90 -119 90 -299q0 -161 -72 -316t-198 -257q-207 -164 -536 -164q-186 0 -332.5 65t-196.5 185q-16 37 -16 102q0 125 75.5 232t227.5 124q137 0 201.5 -61.5t64.5 -159.5q0 -44 -20 -106
q-34 -94 -101 -139.5t-92 -45.5h-2q0 -3 65 -18q76 -18 158 -18q136 0 250 45zM602 557q-68 0 -109.5 -48t-41.5 -108q0 -98 102 -98q66 0 109 48t43 108q0 98 -103 98z" />
    <glyph glyph-name="uni0E57" unicode="&#xe57;" horiz-adv-x="2032" 
d="M1483 803q-27 -298 -116 -451.5t-142 -195.5q16 6 78 31.5t139 109.5t139 252q49 138 74.5 276.5t53 287.5t73.5 284q45 130 107 210t116 114.5t63 39.5l99 -123q-8 -4 -53.5 -32.5t-97.5 -107.5t-87 -216q-27 -108 -79.5 -365t-109 -405.5t-167.5 -273.5
q-200 -228 -512 -238q-35 0 -67 4q-28 3 -28 4h1q3 0 56 73q56 77 119 206t107 295q41 148 41 278q0 191 -98 197q-88 0 -151 -99.5t-78 -195.5l-21 -107h-172l21 107q16 96 16 131q0 155 -119 160q-185 0 -258 -316q-45 -184 -45 -319q50 100 201 114q120 0 182.5 -65.5
t62.5 -187.5q-19 -126 -111 -208.5t-237 -82.5q-303 0 -303 377q0 106 29 262q53 259 180.5 418t323.5 159q128 0 168.5 -71t40.5 -142q0 13 30.5 66.5t98.5 100t178 46.5q254 0 254 -401zM573 389q-71 0 -113 -48t-42 -108q0 -102 106 -102q70 0 113 48t43 108
q0 102 -107 102z" />
    <glyph glyph-name="uni0E58" unicode="&#xe58;" horiz-adv-x="1925" 
d="M1413 324q0 -1 -35 -10q-39 -11 -80 -11q-63 0 -127 29q-106 54 -106 188q0 112 81.5 210.5t213.5 109.5q291 0 291 -271q0 -64 -13 -123q-20 -116 -73 -217.5t-143 -168.5t-210 -68q-119 0 -192 74.5t-152.5 196.5t-117.5 122q-74 -8 -74 -197q5 -54 25 -94.5t32 -56.5
q-67 -45 -172 -45q-152 0 -242 90q-126 120 -126 352q0 153 54.5 305.5t145.5 255.5q189 213 590 213q50 0 156 -5t159 -7q225 0 352.5 120.5t174.5 253.5t47 175l164 -107q-3 -9 -30.5 -97.5t-91.5 -196.5t-178 -196.5t-278 -111.5q-90 -8 -139 -8q-71 0 -198.5 10.5
t-198.5 10.5q-239 0 -369 -136q-74 -77 -117 -211t-43 -260q0 -237 127 -262q0 322 156 377q43 12 74 12q76 0 130 -51t124 -150.5t126.5 -149.5t139.5 -50q59 11 89.5 43t40 66t13.5 47zM1372 696q-68 0 -109.5 -47.5t-41.5 -103.5q0 -103 106 -103q66 0 109 47t43 105
q0 102 -107 102z" />
    <glyph glyph-name="uni0E59" unicode="&#xe59;" horiz-adv-x="1995" 
d="M1282 143q-48 86 -71.5 162t-48.5 192t-52 199q-50 170 -127.5 263.5t-228.5 93.5q-125 -14 -211.5 -120t-128 -252.5t-41.5 -274.5q0 -108 24 -152q73 -119 181 -119q52 0 95 22t60 36q-55 0 -135.5 27t-105.5 112q-9 20 -9 69q0 76 40 150t113.5 120t170.5 46
q110 0 167.5 -67.5t57.5 -170.5q0 -59 -20 -127q-46 -157 -165 -257t-294 -103q-178 0 -283.5 110.5t-105.5 319.5q0 112 29 225q57 254 219.5 409.5t394.5 155.5q311 -4 393 -290q0 14 26.5 84t78 132.5t125.5 69.5q73 0 102 -24t67.5 -73.5t71.5 -49.5q98 5 197 332
q74 240 74 372l163 -127q-4 -45 -26 -150.5t-80 -242.5q-76 -177 -174.5 -283t-186.5 -106q-32 0 -56 21t-50 61.5t-47 63t-51 22.5q-57 -19 -86 -120.5t-29 -211.5q12 -304 143 -446q61 -70 185 -70l-136 -176q-147 0 -229 143zM782 578q-65 0 -104 -45t-39 -99
q0 -98 102 -98q62 0 103 45t41 98q0 99 -103 99z" />
    <glyph glyph-name="uni0E5A" unicode="&#xe5a;" horiz-adv-x="1765" 
d="M901 1286q102 82 161.5 197.5t59.5 142.5q90 0 140 -29q49 -33 49 -106q0 -25 -29 -172l-172 -979q-19 -99 -52 -165.5t-116 -121.5q-67 -42 -120 -56.5t-77 -16.5l-90 147q97 0 176 61q68 46 82 148l160 901q-23 -38 -110.5 -103t-262.5 -94q-67 -12 -135 -12
q-155 0 -264 60t-125 174q0 155 79 258.5t220 121.5q145 0 210 -62t65 -204q-8 -49 -24.5 -84t-33.5 -55.5t-32 -30.5l-21 -14q145 0 262 94zM487 1503q-68 0 -109.5 -47.5t-41.5 -103.5q0 -103 106 -103q67 0 109.5 47.5t42.5 104.5q0 102 -107 102zM1802 1614l-221 -1274
q-19 -99 -52 -165.5t-116 -121.5q-66 -42 -119 -56.5t-77 -16.5l-91 147q96 0 177 61q67 47 81 148l226 1270z" />
    <glyph glyph-name="uni0E5B" unicode="&#xe5b;" horiz-adv-x="3281" 
d="M741 16q-157 0 -294 63t-218.5 182t-81.5 271q3 249 87 451.5t251 337.5t400 174q48 8 78 8q136 0 250 -50.5t163 -84.5l-45 -180q-3 0 -60 41t-139 71.5t-198 30.5q-53 0 -86 -4q-138 -16 -257.5 -130t-189 -278t-69.5 -321q0 -180 101 -297t312 -117q169 0 301 89.5
t216 202t154 232t87 119.5q12 0 84 -150.5t109 -152.5q20 0 53 38t95.5 118.5t94 115t52.5 35.5q31 0 55.5 -60t55 -159.5t40.5 -99.5q11 0 95 100.5t134.5 155.5t73.5 55q32 0 90.5 -135t95.5 -198.5t105 -63.5q13 0 37 8q124 44 198.5 132t110.5 179q35 89 35 91h148
q-25 -76 -80.5 -207t-112.5 -183q-185 -167 -336 -167q-107 0 -178 71t-114 164q-40 86 -40 92q-53 -63 -148 -164t-142 -118q-35 0 -65.5 43.5t-57.5 108.5t-54 134q-60 -69 -160 -173.5t-130 -104.5q-29 12 -59 57t-55 100t-34 76q-7 0 -66 -93.5t-146.5 -193t-225.5 -177
t-320 -85.5z" />
    <glyph glyph-name="glyph221" 
d="M-819 -1495l37 201q-3 0 -29.5 -4.5t-56.5 -7.5q-63 0 -119 20q-127 41 -127 189q0 72 41 147q84 164 287 164q46 0 90 -12q85 -22 114 -89.5t29 -185.5l-74 -422h-192zM-815 -925q-65 0 -104 -45t-39 -99q0 -98 102 -98q63 0 103 45t40 98q0 99 -102 99z" />
    <glyph glyph-name="glyph222" 
d="M-766 -1286l78 451h192l-106 -619h-631l21 119l-26.5 -4.5t-59.5 -7.5q-58 0 -119 20q-123 42 -123 189q0 72 41 147q84 164 282 164q47 0 91 -12q86 -22 114.5 -89t28.5 -186l-29 -172h246zM-1241 -966q-65 0 -104 -45.5t-39 -102.5q0 -94 98 -94q64 0 103.5 45.5
t39.5 101.5q0 95 -98 95z" />
    <glyph glyph-name="glyph223" 
d="M-676 -1188q-64 0 -97.5 35t-33.5 88q0 68 52 126.5t132 58.5q131 0 131 -123q0 -70 -51 -127.5t-133 -57.5z" />
    <glyph glyph-name="exclamdown" unicode="&#xa1;" horiz-adv-x="909" 
d="M397 -430h-287l88 496l215 844h156l-84 -844zM571 1364q63 0 98.5 -37t35.5 -94q0 -37 -14 -71t-39 -60t-60 -41.5t-77 -15.5q-66 0 -100.5 36t-34.5 90q0 38 14.5 73t40 61.5t60.5 42.5t76 16z" />
    <glyph glyph-name="cent" unicode="&#xa2;" horiz-adv-x="1427" 
d="M1007 1121l-448 -960q42 -11 75 -11q288 0 399 338l220 -25q-40 -117 -107 -209t-152.5 -156.5t-185.5 -98.5t-206 -34q-71 0 -125 18l-235 -496l-133 41l232 499q-233 131 -233 444q0 151 30.5 275.5t83.5 223.5t124.5 172.5t152.5 122t169 72.5t173 24q56 0 125 -9
l226 485l131 -40l-226 -486q213 -91 216 -370l-225 -35q-8 137 -81 215zM883 1179l-85 2q-88 0 -158.5 -35t-125 -101t-93 -160.5t-60.5 -214.5q-10 -51 -14 -96.5t-4 -86.5q0 -184 92 -264z" />
    <glyph glyph-name="sterling" unicode="&#xa3;" horiz-adv-x="1427" 
d="M550 1014h396l-33 -186h-355q4 -16 6 -31.5t2 -32.5q0 -63 -22.5 -129.5t-63.5 -133.5t-98.5 -133t-127.5 -128q106 27 185 27q111 0 229 -31q199 -52 283 -52q91 0 252 69l37 -205q-198 -79 -318 -79q-33 0 -59 2t-46 8l-313 92q-32 5 -61 7.5t-54 2.5q-199 0 -399 -116
l-47 217q88 46 159 107t120.5 135t76 161t26.5 185q0 14 -0.5 28.5t-1.5 29.5h-245l33 186h192q-15 114 -15 203q0 105 26 194.5t72.5 162t110 127.5t138 92t157 56t167.5 19q471 0 471 -454v-20l-229 -35v17q0 308 -278 308q-77 0 -142.5 -28t-115 -72.5t-81.5 -99
t-41 -107.5q-5 -27 -7.5 -60t-2.5 -75q0 -51 4.5 -106.5t12.5 -121.5z" />
    <glyph glyph-name="currency" unicode="&#xa4;" horiz-adv-x="1427" 
d="M356 1204l-145 171l170 149l145 -174q150 90 313 90q166 0 280 -90l205 174l120 -149l-205 -171q46 -92 46 -202q0 -106 -39 -203t-112 -185l145 -170l-172 -150l-144 176q-149 -92 -313 -92t-280 92l-206 -176l-118 150l205 170q-44 94 -44 198q0 106 38 203.5
t111 188.5zM419 910q-2 -14 -3.5 -28t-1.5 -28q0 -54 17 -102.5t50.5 -86t84.5 -59.5t120 -22q40 0 84.5 11.5t87.5 34.5t82 55.5t68.5 75.5t47 94.5t17.5 111.5q0 57 -20 106t-56 85t-86 56.5t-110 20.5q-57 0 -119 -22t-116 -63.5t-94 -102t-53 -137.5z" />
    <glyph glyph-name="yen" unicode="&#xa5;" horiz-adv-x="1427" 
d="M473 0l72 407h-520l31 175h520l31 178h-520l33 187h428l-351 890h252l248 -647q18 -48 32 -95.5t28 -96.5q25 38 58 88t81 116l457 635h269l-667 -890h428l-33 -187h-516l-31 -178h516l-31 -175h-516l-72 -407h-227z" />
    <glyph glyph-name="brokenbar" unicode="&#xa6;" horiz-adv-x="666" 
d="M387 451l-175 -991h-196l175 991h196zM638 1868l-175 -989h-196l175 989h196z" />
    <glyph glyph-name="section" unicode="&#xa7;" horiz-adv-x="1427" 
d="M39 -88l232 32q6 -293 269 -293q66 0 123 20.5t99 54.5t66 77.5t24 88.5v7q0 18 -2.5 36t-14 39.5t-35.5 49t-68.5 65.5t-112 88t-165.5 117q-96 65 -161 120t-105 107t-57.5 103.5t-17.5 109.5q0 81 24.5 149.5t70.5 123t111 93.5t146 62q-111 123 -111 255q0 88 42 170
t114.5 144t169 99.5t206.5 37.5q448 0 448 -405q0 -8 -0.5 -14.5t-0.5 -14.5l-238 -25v11q0 264 -222 264q-69 0 -124 -23.5t-93 -57.5t-58 -73.5t-20 -70.5v-6q0 -19 2 -36.5t12.5 -38t32.5 -45.5t62.5 -59t102 -79.5t150.5 -105.5q84 -57 143.5 -104t98.5 -86.5t61.5 -73
t33.5 -64t13.5 -59.5t2.5 -59q0 -142 -92 -247t-261 -173q144 -126 144 -285q0 -66 -20.5 -126.5t-58 -113.5t-90 -97t-116.5 -75.5t-137.5 -48.5t-153.5 -17q-469 0 -469 438v14zM842 305q109 52 168 118.5t59 141.5q0 142 -285 337q-72 49 -127.5 92t-97.5 81
q-112 -57 -172.5 -124.5t-60.5 -145.5q0 -69 63 -147t196 -166q85 -57 148.5 -102.5t108.5 -84.5z" />
    <glyph glyph-name="dieresis" unicode="&#xa8;" horiz-adv-x="1020" 
d="M779 1495l46 257h237l-46 -257h-237zM283 1495l46 257h236l-46 -257h-236z" />
    <glyph glyph-name="copyright" unicode="&#xa9;" horiz-adv-x="1891" 
d="M1156 1868q162 0 306 -54.5t253 -154t172.5 -239t63.5 -309.5q0 -259 -106 -474.5t-309 -385.5q-165 -138 -342 -206.5t-373 -67.5q-111 0 -212.5 26t-190 73.5t-161 116t-124 153t-79.5 184.5t-28 211q0 149 42 291t118 267t181 229.5t230.5 180t267.5 117.5t291 42z
M1129 1713q-120 0 -236.5 -35t-221 -97.5t-193.5 -150t-154 -192t-101.5 -223t-36.5 -243.5q0 -138 50.5 -255t139 -202t210 -133t263.5 -48q119 0 235 34t220.5 95.5t193.5 147.5t154 190.5t102 224t37 247.5q0 94 -25 178.5t-69.5 155.5t-106 127.5t-135 96.5t-156.5 61
t-170 21zM1266 770l145 -46q-153 -344 -518 -344q-78 0 -152.5 23t-132.5 71.5t-93.5 122.5t-35.5 176q0 159 48.5 285t132 213.5t195.5 134.5t240 47q332 0 374 -295l-155 -37q-48 192 -250 192q-80 0 -154 -35t-131.5 -101.5t-92 -164t-34.5 -222.5q0 -262 260 -262
q244 0 354 242z" />
    <glyph glyph-name="ordfeminine" unicode="&#xaa;" horiz-adv-x="950" 
d="M752 1069q-176 -134 -344 -134q-265 0 -265 204q0 236 230 313l129 26l189 27l125 25q2 14 3.5 27t1.5 25q0 140 -169 140q-186 0 -234 -157l-166 42q91 261 428 261q330 0 330 -233l-2 -34q-1 -17 -4 -36l-69 -377q-7 -32 -10 -62t-3 -57q0 -76 23 -111h-186
q-11 39 -11 70q0 26 4 41zM789 1384q-52 -11 -106 -19t-105 -17t-95.5 -21t-77.5 -31t-52.5 -46.5t-19.5 -67.5q0 -97 144 -97q259 0 312 299z" />
    <glyph glyph-name="guillemotleft" unicode="&#xab;" horiz-adv-x="1427" 
d="M905 662l228 -572h-190l-291 572l494 571h190zM419 662l223 -572h-183l-299 572l502 571h185z" />
    <glyph glyph-name="logicalnot" unicode="&#xac;" horiz-adv-x="1500" 
d="M1326 532h-214l97 549h-1000l37 209h1214z" />
    <glyph glyph-name="minus" unicode="&#xad;" horiz-adv-x="854" 
d="M54 551l40 227h693l-40 -227h-693z" />
    <glyph glyph-name="registered" unicode="&#xae;" horiz-adv-x="1891" 
d="M1156 1868q162 0 306 -54.5t253 -154t172.5 -239t63.5 -309.5q0 -259 -106 -474.5t-309 -385.5q-165 -138 -342 -206.5t-373 -67.5q-111 0 -212.5 26t-190 73.5t-161 116t-124 153t-79.5 184.5t-28 211q0 149 42 291t118 267t181 229.5t230.5 180t267.5 117.5t291 42z
M1129 1713q-120 0 -236.5 -35t-221 -97.5t-193.5 -150t-154 -192t-101.5 -223t-36.5 -243.5q0 -138 50.5 -255t139 -202t210 -133t263.5 -48q119 0 235 34t220.5 95.5t193.5 147.5t154 190.5t102 224t37 247.5q0 94 -25 178.5t-69.5 155.5t-106 127.5t-135 96.5t-156.5 61
t-170 21zM482 399l180 1018h349q391 0 391 -223q0 -63 -26.5 -121.5t-73 -104.5t-110 -76.5t-136.5 -37.5q44 -14 92 -77.5t99 -177.5l89 -200h-202l-61 162q-34 90 -61 143.5t-55 81.5t-60.5 36.5t-78.5 8.5h-96l-77 -432h-163zM747 972h200q133 0 205 45.5t72 136.5
q0 125 -237 125h-186z" />
    <glyph glyph-name="macron" unicode="&#xaf;" horiz-adv-x="1417" 
d="M185 1962l29 162h1493l-29 -162h-1493z" />
    <glyph glyph-name="degree" unicode="&#xb0;" horiz-adv-x="1027" 
d="M306 1521q13 71 51.5 134t94 110.5t123 75t138.5 27.5q63 0 116.5 -21.5t93 -59.5t62 -90t22.5 -113q0 -80 -35 -154.5t-93.5 -131.5t-133.5 -91t-155 -34q-60 0 -113 21.5t-92 59t-62 89t-23 112.5q0 31 6 66zM443 1521q-4 -15 -4 -39q0 -37 12.5 -68.5t36 -55t56 -36.5
t72.5 -13q39 0 83 18t81.5 51t62.5 79t25 102q0 37 -13.5 69t-37.5 55.5t-56 37t-69 13.5q-36 0 -76.5 -14.5t-76 -42t-62 -67t-34.5 -89.5z" />
    <glyph glyph-name="plusminus" unicode="&#xb1;" horiz-adv-x="1409" 
d="M530 326l90 505h-499l37 210h499l88 499h213l-88 -499h501l-37 -210h-501l-90 -505h-213zM1187 0h-1213l37 211h1213z" />
    <glyph glyph-name="twosuperior" unicode="&#xb2;" horiz-adv-x="854" 
d="M69 918q40 156 384 380q222 144 262 187q29 30 41 58t12 64q0 106 -151 106q-155 0 -216 -144l-186 21q115 270 432 270q324 0 324 -202q0 -105 -79 -214q-30 -42 -110.5 -103t-218.5 -149q-57 -36 -99 -67.5t-71 -55.5h484l-27 -151h-781z" />
    <glyph glyph-name="threesuperior" unicode="&#xb3;" horiz-adv-x="854" 
d="M124 1164l186 19q17 -140 167 -140q50 0 92 12.5t73 37t48 61t17 84.5t-38.5 79.5t-117.5 31.5q-5 0 -10.5 -0.5t-11.5 -0.5l-69 -4l52 136q106 0 162 38t56 116q0 86 -130 86q-133 0 -200 -126l-174 28q127 238 399 238q309 0 309 -186q0 -189 -213 -249
q179 -47 179 -191q0 -65 -30 -125.5t-87 -107.5t-138 -75.5t-183 -28.5q-334 0 -338 267z" />
    <glyph glyph-name="acute" unicode="&#xb4;" horiz-adv-x="1020" 
d="M443 1495l-78 107l483 319l127 -176z" />
    <glyph glyph-name="mu" unicode="&#xb5;" horiz-adv-x="1478" 
d="M1386 1331l-235 -1331h-202l27 157q-144 -188 -365 -188q-194 0 -288 165l-114 -645h-224l326 1842h224l-100 -565q-18 -100 -26.5 -181t-8.5 -144q0 -70 12.5 -120.5t40.5 -83.5t73.5 -48.5t111.5 -15.5q86 0 152 26.5t116.5 93t88.5 180.5t69 289l101 569h221z" />
    <glyph glyph-name="paragraph" unicode="&#xb6;" horiz-adv-x="1379" 
d="M292 -511l232 1310q-92 0 -169.5 28.5t-134.5 80.5t-89 126t-32 166q0 139 54 258.5t157 219.5q164 159 484 159h795l-39 -217h-180l-377 -2131h-213l377 2131h-281l-377 -2131h-207z" />
    <glyph glyph-name="periodcentered" unicode="&#xb7;" horiz-adv-x="712" 
d="M245 776l45 257h258l-45 -257h-258z" />
    <glyph glyph-name="periodcentered" unicode="&#x2219;" horiz-adv-x="712" 
d="M245 776l45 257h258l-45 -257h-258z" />
    <glyph glyph-name="cedilla" unicode="&#xb8;" horiz-adv-x="854" 
d="M112 -194l105 223h167l-64 -135q183 -20 183 -147q0 -43 -22 -91.5t-70.5 -89t-125.5 -67.5t-188 -27q-99 0 -178 15l40 146l152 -4q89 0 136.5 31t47.5 75q0 71 -183 71z" />
    <glyph glyph-name="onesuperior" unicode="&#xb9;" horiz-adv-x="854" 
d="M453 918l123 695q-70 -49 -145.5 -84.5t-160.5 -57.5l27 155q202 66 369 234h136l-167 -942h-182z" />
    <glyph glyph-name="ordmasculine" unicode="&#xba;" horiz-adv-x="937" 
d="M673 1868q88 0 152.5 -27t105.5 -74.5t61 -113.5t20 -144q0 -73 -15.5 -144t-45.5 -135.5t-74 -120t-100 -96t-123.5 -63.5t-145.5 -23q-75 0 -138 23.5t-108 68t-70 109t-25 146.5q0 136 42 246t112.5 187.5t161.5 119t190 41.5zM644 1701q-61 0 -113.5 -26t-91.5 -77
t-61.5 -128t-22.5 -179q0 -199 181 -199q60 0 112.5 26t92.5 78t63 129.5t23 180.5q0 195 -183 195z" />
    <glyph glyph-name="guillemotright" unicode="&#xbb;" horiz-adv-x="1427" 
d="M984 662l-226 571h187l298 -571l-501 -572h-185zM500 662l-231 571h190l292 -571l-495 -572h-190z" />
    <glyph glyph-name="onequarter" unicode="&#xbc;" horiz-adv-x="2141" 
d="M1660 -38l34 192h-480l27 155l614 593h152l-108 -612h130l-24 -136h-130l-34 -192h-181zM178 -71l1725 1939h196l-1723 -1939h-198zM453 918l123 695q-70 -49 -145.5 -84.5t-160.5 -57.5l27 155q202 66 369 234h136l-167 -942h-182zM1718 290l58 328l-346 -328h288z" />
    <glyph glyph-name="onehalf" unicode="&#xbd;" horiz-adv-x="2141" 
d="M149 -71l1722 1939h197l-1723 -1939h-196zM1184 -38q13 73 107.5 169t276.5 211q89 57 149 102t96.5 81t52 65.5t15.5 56.5q0 106 -152 106q-142 0 -215 -141l-187 18q117 272 432 272q327 0 327 -202q0 -63 -17 -114t-62 -103t-124.5 -111.5t-204.5 -139.5
q-51 -32 -93.5 -60.5t-77.5 -58.5h484l-27 -151h-780zM453 918l123 695q-70 -49 -145.5 -84.5t-160.5 -57.5l27 155q202 66 369 234h136l-167 -942h-182z" />
    <glyph glyph-name="threequarters" unicode="&#xbe;" horiz-adv-x="2141" 
d="M1660 -38l34 192h-480l27 155l612 593h154l-108 -612h130l-24 -136h-130l-34 -192h-181zM178 -71l1723 1939h198l-1723 -1939h-198zM124 1164l252 19q-22 -37 -22 -65q0 -38 34 -56.5t89 -18.5q49 0 91.5 12t73 36.5t48 61t17.5 84.5q0 51 -38 81.5t-116 30.5
q-5 0 -10 -0.5t-10 -0.5l-73 -4l52 136q106 0 162 38t56 116q0 86 -130 86q-133 0 -200 -126l-174 28q127 238 399 238q309 0 309 -186q0 -189 -213 -249q179 -47 179 -191q0 -65 -30 -125.5t-87 -107.5t-138 -75.5t-183 -28.5q-334 0 -338 267zM1718 290l58 328l-346 -328
h288z" />
    <glyph glyph-name="questiondown" unicode="&#xbf;" horiz-adv-x="1569" 
d="M1195 240l1 1l8 -19q5 -13 13 -34t15 -47.5t12 -56t5 -59.5q0 -68 -27.5 -143t-79.5 -144t-127.5 -124.5t-172.5 -83.5q-67 -20 -135 -30.5t-140 -9.5q-128 0 -225.5 30.5t-163.5 82.5t-100 120t-34 143q0 121 90 242.5t271 250.5q83 60 132.5 109t78 95.5t42 95
t24.5 105.5l30 168h197l-39 -217q-13 -71 -34.5 -127.5t-58 -107t-89.5 -98.5t-129 -101q-67 -47 -121 -93.5t-92.5 -96t-59 -103.5t-20.5 -115q0 -106 81 -166.5t235 -60.5q93 0 174.5 20.5t142.5 62.5t96 106.5t35 153.5q0 35 -7 61.5t-15.5 44.5t-16.5 27.5t-10 10.5z
M882 1366q63 0 99 -35.5t36 -92.5q0 -35 -13.5 -68.5t-38 -60t-59 -42.5t-75.5 -16q-66 0 -100.5 36t-34.5 91q0 36 13.5 70t38.5 60t59 42t75 16z" />
    <glyph glyph-name="Agrave" unicode="&#xc0;" horiz-adv-x="1503" 
d="M1130 0l-90 537h-680l-262 -537h-192l921 1839h263l278 -1839h-238zM897 1593l-442 -880h569zM564 2220l127 176l483 -319l-78 -107z" />
    <glyph glyph-name="Aacute" unicode="&#xc1;" horiz-adv-x="1503" 
d="M1130 0l-90 537h-680l-262 -537h-192l921 1839h263l278 -1839h-238zM897 1593l-442 -880h569zM847 1970l-78 107l483 319l127 -176z" />
    <glyph glyph-name="Acircumflex" unicode="&#xc2;" horiz-adv-x="1503" 
d="M1130 0l-90 537h-680l-262 -537h-192l921 1839h263l278 -1839h-238zM897 1593l-442 -880h569zM1015 2234l-269 -263h-229l419 386h202l292 -386h-226z" />
    <glyph glyph-name="Atilde" unicode="&#xc3;" horiz-adv-x="1503" 
d="M1130 0l-90 537h-680l-262 -537h-192l921 1839h263l278 -1839h-238zM897 1593l-442 -880h569zM543 1970q51 284 309 284q81 0 199 -67q64 -36 112 -36q82 0 115 107h163q-50 -284 -301 -284q-83 0 -195 69q-76 46 -115 46q-101 0 -122 -119h-165z" />
    <glyph glyph-name="Adieresis" unicode="&#xc4;" horiz-adv-x="1503" 
d="M1130 0l-90 537h-680l-262 -537h-192l921 1839h263l278 -1839h-238zM897 1593l-442 -880h569zM1100 1970l46 257h237l-46 -257h-237zM604 1970l46 257h236l-46 -257h-236z" />
    <glyph glyph-name="Aring" unicode="&#xc5;" horiz-adv-x="1503" 
d="M1130 0l-90 537h-680l-262 -537h-192l921 1839h263l278 -1839h-238zM897 1593l-442 -880h569zM757 2043q8 48 34 89t62.5 71t80 47.5t87.5 17.5q34 0 68 -12.5t61.5 -35.5t44.5 -57t17 -76q0 -56 -23 -106t-61 -88.5t-86.5 -61t-100.5 -22.5q-35 0 -68.5 11.5t-60.5 34
t-43.5 55.5t-16.5 77q0 13 1 27t4 29zM851 2043q-2 -11 -3 -21.5t-1 -19.5q0 -99 113 -99q31 0 59.5 15t51 39.5t36 56t13.5 64.5q0 98 -112 98q-135 0 -157 -133z" />
    <glyph glyph-name="AE" unicode="&#xc6;" horiz-adv-x="2567" 
d="M2359 0h-1188l94 531h-803l-348 -531h-192l1222 1839h1516l-35 -197h-934l-103 -585h741l-33 -185h-741l-119 -671h958zM584 708h712l165 934h-253z" />
    <glyph glyph-name="Ccedilla" unicode="&#xc7;" horiz-adv-x="1667" 
d="M1520 573q-115 -278 -311 -438t-476 -160q-210 0 -344.5 99t-196 263t-61.5 363q0 112 21 238q46 249 166 460.5t315.5 340.5t451.5 129q180 0 303.5 -74.5t186 -206.5t67.5 -305l-225 -41q-37 434 -373 434q-272 0 -430 -228.5t-208 -524.5q-21 -120 -21 -234
q0 -128 25 -229q37 -130 128.5 -210.5t227.5 -80.5q358 0 557 455zM538 -194l105 223h167l-64 -135q183 -20 183 -147q0 -43 -22 -91.5t-70.5 -89t-125.5 -67.5t-188 -27q-99 0 -178 15l40 146l152 -4q89 0 136.5 31t47.5 75q0 71 -183 71z" />
    <glyph glyph-name="Egrave" unicode="&#xc8;" horiz-adv-x="1503" 
d="M1294 0h-1188l324 1839h1163l-32 -197h-934l-107 -585h742l-29 -185h-741l-119 -671h958zM717 2220l127 176l483 -319l-78 -107z" />
    <glyph glyph-name="Eacute" unicode="&#xc9;" horiz-adv-x="1503" 
d="M1294 0h-1188l324 1839h1163l-32 -197h-934l-107 -585h742l-29 -185h-741l-119 -671h958zM826 1970l-78 107l483 319l127 -176z" />
    <glyph glyph-name="Ecircumflex" unicode="&#xca;" horiz-adv-x="1503" 
d="M1294 0h-1188l324 1839h1163l-32 -197h-934l-107 -585h742l-29 -185h-741l-119 -671h958zM1073 2234l-269 -263h-229l419 386h202l292 -386h-226z" />
    <glyph glyph-name="Edieresis" unicode="&#xcb;" horiz-adv-x="1503" 
d="M1294 0h-1188l324 1839h1163l-32 -197h-934l-107 -585h742l-29 -185h-741l-119 -671h958zM1165 1970l46 257h237l-46 -257h-237zM669 1970l46 257h236l-46 -257h-236z" />
    <glyph glyph-name="Igrave" unicode="&#xcc;" horiz-adv-x="700" 
d="M106 0l324 1839h229l-323 -1839h-230zM200 2220l127 176l483 -319l-78 -107z" />
    <glyph glyph-name="Iacute" unicode="&#xcd;" horiz-adv-x="700" 
d="M106 0l324 1839h229l-323 -1839h-230zM396 1970l-78 107l483 319l127 -176z" />
    <glyph glyph-name="Icircumflex" unicode="&#xce;" horiz-adv-x="700" 
d="M106 0l324 1839h229l-323 -1839h-230zM584 2234l-269 -263h-229l419 386h202l292 -386h-226z" />
    <glyph glyph-name="Idieresis" unicode="&#xcf;" horiz-adv-x="700" 
d="M106 0l324 1839h229l-323 -1839h-230zM701 1970l46 257h237l-46 -257h-237zM205 1970l46 257h236l-46 -257h-236z" />
    <glyph glyph-name="Eth" unicode="&#xd0;" horiz-adv-x="1774" 
d="M77 1000h205l148 839h582q102 0 187 -11t157 -40t132.5 -79t112.5 -128q125 -188 125 -440q0 -121 -22.5 -237t-64 -224t-101.5 -205t-135 -180q-134 -149 -291.5 -222t-350.5 -73h-656l151 857h-205zM705 197q88 0 164 11.5t143 38.5t125.5 71.5t112.5 111.5
q52 65 96 143.5t75 166t48.5 183t17.5 194.5q0 84 -16.5 162t-49.5 143.5t-81.5 113.5t-111.5 72q-104 39 -266 39h-336l-114 -647h455l-26 -143h-455l-117 -660h336z" />
    <glyph glyph-name="Ntilde" unicode="&#xd1;" horiz-adv-x="1774" 
d="M1229 0l-656 1606l-282 -1606h-193l324 1839h291l606 -1499l262 1499h197l-324 -1839h-225zM723 1970q51 284 309 284q81 0 199 -67q64 -36 112 -36q82 0 115 107h163q-50 -284 -301 -284q-83 0 -195 69q-76 46 -115 46q-101 0 -122 -119h-165z" />
    <glyph glyph-name="Ograve" unicode="&#xd2;" horiz-adv-x="1774" 
d="M156 909q43 240 162.5 460.5t314 359.5t444.5 139q310 0 464.5 -200.5t154.5 -508.5q0 -97 -21 -217q-43 -236 -165 -459.5t-317.5 -365.5t-442.5 -142q-310 0 -462.5 197t-152.5 504q0 107 21 233zM1430 930q24 156 24 241q0 149 -41 259q-47 115 -139 182t-221 67
q-278 0 -442.5 -235.5t-217.5 -542.5q-20 -108 -20 -201q0 -225 98.5 -380.5t310.5 -155.5q269 0 431.5 235t216.5 531zM680 2220l127 176l483 -319l-78 -107z" />
    <glyph glyph-name="Oacute" unicode="&#xd3;" horiz-adv-x="1774" 
d="M156 909q43 240 162.5 460.5t314 359.5t444.5 139q310 0 464.5 -200.5t154.5 -508.5q0 -97 -21 -217q-43 -236 -165 -459.5t-317.5 -365.5t-442.5 -142q-310 0 -462.5 197t-152.5 504q0 107 21 233zM1430 930q24 156 24 241q0 149 -41 259q-47 115 -139 182t-221 67
q-278 0 -442.5 -235.5t-217.5 -542.5q-20 -108 -20 -201q0 -225 98.5 -380.5t310.5 -155.5q269 0 431.5 235t216.5 531zM996 1970l-78 107l483 319l127 -176z" />
    <glyph glyph-name="Ocircumflex" unicode="&#xd4;" horiz-adv-x="1774" 
d="M156 909q43 240 162.5 460.5t314 359.5t444.5 139q310 0 464.5 -200.5t154.5 -508.5q0 -97 -21 -217q-43 -236 -165 -459.5t-317.5 -365.5t-442.5 -142q-310 0 -462.5 197t-152.5 504q0 107 21 233zM1430 930q24 156 24 241q0 149 -41 259q-47 115 -139 182t-221 67
q-278 0 -442.5 -235.5t-217.5 -542.5q-20 -108 -20 -201q0 -225 98.5 -380.5t310.5 -155.5q269 0 431.5 235t216.5 531zM1173 2234l-269 -263h-229l419 386h202l292 -386h-226z" />
    <glyph glyph-name="Otilde" unicode="&#xd5;" horiz-adv-x="1774" 
d="M156 909q43 240 162.5 460.5t314 359.5t444.5 139q310 0 464.5 -200.5t154.5 -508.5q0 -97 -21 -217q-43 -236 -165 -459.5t-317.5 -365.5t-442.5 -142q-310 0 -462.5 197t-152.5 504q0 107 21 233zM1430 930q24 156 24 241q0 149 -41 259q-47 115 -139 182t-221 67
q-278 0 -442.5 -235.5t-217.5 -542.5q-20 -108 -20 -201q0 -225 98.5 -380.5t310.5 -155.5q269 0 431.5 235t216.5 531zM701 1970q51 284 309 284q81 0 199 -67q64 -36 112 -36q82 0 115 107h163q-50 -284 -301 -284q-83 0 -195 69q-76 46 -115 46q-101 0 -122 -119h-165z
" />
    <glyph glyph-name="Odieresis" unicode="&#xd6;" horiz-adv-x="1774" 
d="M156 909q43 240 162.5 460.5t314 359.5t444.5 139q310 0 464.5 -200.5t154.5 -508.5q0 -97 -21 -217q-43 -236 -165 -459.5t-317.5 -365.5t-442.5 -142q-310 0 -462.5 197t-152.5 504q0 107 21 233zM1430 930q24 156 24 241q0 149 -41 259q-47 115 -139 182t-221 67
q-278 0 -442.5 -235.5t-217.5 -542.5q-20 -108 -20 -201q0 -225 98.5 -380.5t310.5 -155.5q269 0 431.5 235t216.5 531zM1258 1970l46 257h237l-46 -257h-237zM762 1970l46 257h236l-46 -257h-236z" />
    <glyph glyph-name="multiply" unicode="&#xd7;" horiz-adv-x="1500" 
d="M168 513l465 395l-323 392l178 153l324 -393l463 392l123 -152l-462 -392l325 -393l-179 -152l-324 393l-466 -395z" />
    <glyph glyph-name="Oslash" unicode="&#xd8;" horiz-adv-x="1769" 
d="M-43 0l260 268q-46 88 -67 193.5t-21 217.5q0 135 29 275.5t85 272.5t137.5 249t186.5 204t232 137.5t274 50.5q163 0 280.5 -57t200.5 -169l192 197h181l-306 -314q35 -78 50.5 -171t15.5 -190q0 -131 -29 -269.5t-85 -270.5t-137.5 -250t-186.5 -206.5t-232 -140.5
t-274 -52q-152 0 -261 46.5t-192 139.5l-157 -161h-176zM1049 1679q-112 0 -205.5 -43.5t-169 -117t-132.5 -170.5t-95.5 -205t-58 -220t-19.5 -215q0 -63 7 -127t25 -124l986 1013q-105 209 -338 209zM1424 930q12 66 17.5 125t5.5 114q0 88 -15 163l-975 -999
q54 -85 131 -127t189 -42q94 0 174.5 32t147 88t120.5 130.5t94.5 160t68 176.5t42.5 179z" />
    <glyph glyph-name="Ugrave" unicode="&#xd9;" horiz-adv-x="1716" 
d="M1688 1839l-205 -1163q-29 -162 -74 -280t-143 -216q-206 -205 -537 -205t-467 172q-78 118 -78 283q0 97 29 246l205 1163h229l-205 -1163q-20 -97 -20 -193q0 -103 33 -164q67 -139 327 -139q230 0 353 127q114 111 155 369l205 1163h193zM755 2220l127 176l483 -319
l-78 -107z" />
    <glyph glyph-name="Uacute" unicode="&#xda;" horiz-adv-x="1716" 
d="M1688 1839l-205 -1163q-29 -162 -74 -280t-143 -216q-206 -205 -537 -205t-467 172q-78 118 -78 283q0 97 29 246l205 1163h229l-205 -1163q-20 -97 -20 -193q0 -103 33 -164q67 -139 327 -139q230 0 353 127q114 111 155 369l205 1163h193zM926 1970l-78 107l483 319
l127 -176z" />
    <glyph glyph-name="Ucircumflex" unicode="&#xdb;" horiz-adv-x="1716" 
d="M1688 1839l-205 -1163q-29 -162 -74 -280t-143 -216q-206 -205 -537 -205t-467 172q-78 118 -78 283q0 97 29 246l205 1163h229l-205 -1163q-20 -97 -20 -193q0 -103 33 -164q67 -139 327 -139q230 0 353 127q114 111 155 369l205 1163h193zM1118 2234l-269 -263h-229
l419 386h202l292 -386h-226z" />
    <glyph glyph-name="Udieresis" unicode="&#xdc;" horiz-adv-x="1716" 
d="M1688 1839l-205 -1163q-29 -162 -74 -280t-143 -216q-206 -205 -537 -205t-467 172q-78 118 -78 283q0 97 29 246l205 1163h229l-205 -1163q-20 -97 -20 -193q0 -103 33 -164q67 -139 327 -139q230 0 353 127q114 111 155 369l205 1163h193zM1219 1970l46 257h237
l-46 -257h-237zM723 1970l46 257h236l-46 -257h-236z" />
    <glyph glyph-name="Yacute" unicode="&#xdd;" horiz-adv-x="1503" 
d="M885 774l-135 -774h-230l135 774l-426 1065h271l340 -848l643 848h209zM800 1970l-78 107l483 319l127 -176z" />
    <glyph glyph-name="Thorn" unicode="&#xde;" horiz-adv-x="1713" 
d="M74 0l325 1837h244l-66 -374h449q156 0 273.5 -22.5t195.5 -70.5t117.5 -124t39.5 -182q0 -31 -3.5 -64t-9.5 -69q-98 -557 -785 -557h-470l-66 -374h-244zM422 589h474q117 0 210 26t157.5 78t99 129.5t34.5 181.5q0 62 -21.5 107.5t-68 75.5t-120.5 44.5t-179 14.5
h-470z" />
    <glyph glyph-name="germandbls" unicode="&#xdf;" horiz-adv-x="1569" 
d="M68 0l221 1252q108 616 645 616q94 0 169.5 -24.5t128 -66t80.5 -97t28 -118.5q0 -39 -10.5 -77t-30.5 -80.5t-50.5 -90.5t-70.5 -106l-97 -140q-11 -14 -19.5 -36.5t-8.5 -48.5q0 -81 145 -184q67 -48 113 -89t74.5 -81t41.5 -80t13 -85q0 -65 -19.5 -126.5
t-55.5 -116.5t-85.5 -101.5t-109.5 -79.5t-128 -52t-141 -19q-313 0 -402 302l210 90q67 -207 221 -207q40 0 87.5 17t88.5 48.5t68 76t27 100.5q0 96 -142 207q-83 64 -131.5 109.5t-74 81.5t-33 66t-7.5 63q0 52 33.5 124t113.5 176q76 100 114.5 170t38.5 118
q0 32 -13 63t-40 55.5t-68 39.5t-96 15q-129 0 -233 -83q-103 -84 -151 -359l-219 -1242h-225z" />
    <glyph glyph-name="agrave" unicode="&#xe0;" horiz-adv-x="1450" 
d="M1094 684h-172q-548 0 -603 -307q0 -242 250 -242q188 0 333 137.5t179 325.5zM1122 844l13 57q8 37 8 103q0 125 -69.5 179t-225.5 54q-323 0 -414 -246l-192 37q41 130 145 213t238.5 119.5t267.5 36.5q303 0 397 -131q62 -85 62 -217q0 -51 -29 -230l-94 -532
q-17 -99 -17 -287h-208l16 254q-184 -279 -524 -279q-179 0 -294.5 86.5t-115.5 245.5q0 24 8 82q23 120 110 223.5t210 153.5q173 78 536 78h172zM574 1745l127 176l483 -319l-78 -107z" />
    <glyph glyph-name="aacute" unicode="&#xe1;" horiz-adv-x="1450" 
d="M1094 684h-172q-548 0 -603 -307q0 -242 250 -242q188 0 333 137.5t179 325.5zM1122 844l13 57q8 37 8 103q0 125 -69.5 179t-225.5 54q-323 0 -414 -246l-192 37q41 130 145 213t238.5 119.5t267.5 36.5q303 0 397 -131q62 -85 62 -217q0 -51 -29 -230l-94 -532
q-17 -99 -17 -287h-208l16 254q-184 -279 -524 -279q-179 0 -294.5 86.5t-115.5 245.5q0 24 8 82q23 120 110 223.5t210 153.5q173 78 536 78h172zM739 1495l-78 107l483 319l127 -176z" />
    <glyph glyph-name="acircumflex" unicode="&#xe2;" horiz-adv-x="1450" 
d="M1094 684h-172q-548 0 -603 -307q0 -242 250 -242q188 0 333 137.5t179 325.5zM1122 844l13 57q8 37 8 103q0 125 -69.5 179t-225.5 54q-323 0 -414 -246l-192 37q41 130 145 213t238.5 119.5t267.5 36.5q303 0 397 -131q62 -85 62 -217q0 -51 -29 -230l-94 -532
q-17 -99 -17 -287h-208l16 254q-184 -279 -524 -279q-179 0 -294.5 86.5t-115.5 245.5q0 24 8 82q23 120 110 223.5t210 153.5q173 78 536 78h172zM966 1759l-269 -263h-229l419 386h202l292 -386h-226z" />
    <glyph glyph-name="atilde" unicode="&#xe3;" horiz-adv-x="1450" 
d="M1094 684h-172q-548 0 -603 -307q0 -242 250 -242q188 0 333 137.5t179 325.5zM1122 844l13 57q8 37 8 103q0 125 -69.5 179t-225.5 54q-323 0 -414 -246l-192 37q41 130 145 213t238.5 119.5t267.5 36.5q303 0 397 -131q62 -85 62 -217q0 -51 -29 -230l-94 -532
q-17 -99 -17 -287h-208l16 254q-184 -279 -524 -279q-179 0 -294.5 86.5t-115.5 245.5q0 24 8 82q23 120 110 223.5t210 153.5q173 78 536 78h172zM489 1495q51 284 309 284q81 0 199 -67q64 -36 112 -36q82 0 115 107h163q-50 -284 -301 -284q-83 0 -195 69q-76 46 -115 46
q-101 0 -122 -119h-165z" />
    <glyph glyph-name="adieresis" unicode="&#xe4;" horiz-adv-x="1450" 
d="M1094 684h-172q-548 0 -603 -307q0 -242 250 -242q188 0 333 137.5t179 325.5zM1122 844l13 57q8 37 8 103q0 125 -69.5 179t-225.5 54q-323 0 -414 -246l-192 37q41 130 145 213t238.5 119.5t267.5 36.5q303 0 397 -131q62 -85 62 -217q0 -51 -29 -230l-94 -532
q-17 -99 -17 -287h-208l16 254q-184 -279 -524 -279q-179 0 -294.5 86.5t-115.5 245.5q0 24 8 82q23 120 110 223.5t210 153.5q173 78 536 78h172zM1016 1495l46 257h237l-46 -257h-237zM520 1495l46 257h236l-46 -257h-236z" />
    <glyph glyph-name="aring" unicode="&#xe5;" horiz-adv-x="1450" 
d="M1094 684h-172q-548 0 -603 -307q0 -242 250 -242q188 0 333 137.5t179 325.5zM1122 844l13 57q8 37 8 103q0 125 -69.5 179t-225.5 54q-323 0 -414 -246l-192 37q41 130 145 213t238.5 119.5t267.5 36.5q303 0 397 -131q62 -85 62 -217q0 -51 -29 -230l-94 -532
q-17 -99 -17 -287h-208l16 254q-184 -279 -524 -279q-179 0 -294.5 86.5t-115.5 245.5q0 24 8 82q23 120 110 223.5t210 153.5q173 78 536 78h172zM737 1696q8 48 34 89t62.5 71t80 47.5t87.5 17.5q34 0 68 -12.5t61.5 -35.5t44.5 -57t17 -76q0 -56 -23 -106t-61 -88.5
t-86.5 -61t-100.5 -22.5q-35 0 -68.5 11.5t-60.5 34t-43.5 55.5t-16.5 77q0 13 1 27t4 29zM831 1696q-2 -11 -3 -21.5t-1 -19.5q0 -99 113 -99q31 0 59.5 15t51 39.5t36 56t13.5 64.5q0 98 -112 98q-135 0 -157 -133z" />
    <glyph glyph-name="ae" unicode="&#xe6;" horiz-adv-x="2400" 
d="M2198 377q-46 -92 -116.5 -166.5t-156 -127t-182 -80.5t-194.5 -28q-80 0 -151 15.5t-128.5 46.5t-101.5 78.5t-70 110.5q-284 -251 -604 -251q-87 0 -162.5 21.5t-130.5 63.5t-86.5 103.5t-31.5 141.5q0 70 23.5 139t66.5 130t103.5 110.5t135.5 81.5q88 37 217 57.5
t309 20.5h185l10 57q5 29 7.5 56t2.5 51q0 60 -17 103.5t-52.5 71.5t-91 41t-133.5 13q-326 0 -417 -246l-190 37q30 97 96 167t154.5 115t192 66t208.5 21q183 0 295.5 -49.5t133.5 -146.5q97 91 218.5 143.5t264.5 52.5q126 0 217.5 -38.5t150.5 -108.5t87 -166.5
t28 -213.5q0 -48 -4.5 -99.5t-14.5 -106.5h-987q-8 -46 -12 -87.5t-4 -79.5q0 -79 22.5 -143.5t65.5 -110.5t104 -71t138 -25q66 0 126.5 18.5t113.5 53.5t96.5 84t75.5 111zM1095 684h-172q-144 0 -257 -22t-191 -66.5t-119 -111t-41 -155.5q0 -48 20 -84.5t54.5 -61
t80 -36.5t97.5 -12q95 0 181 38t154 102t114.5 147.5t62.5 175.5zM2068 823q9 54 9 102q0 69 -19 126.5t-57 99t-94 64t-130 22.5q-82 0 -157 -34t-136 -91t-104.5 -132t-61.5 -157h750z" />
    <glyph glyph-name="ccedilla" unicode="&#xe7;" horiz-adv-x="1286" 
d="M1151 451q-69 -211 -231 -343.5t-379 -132.5q-160 0 -266 70t-155.5 190t-49.5 269q0 93 16 176q35 187 128 351t242 265t339 101q215 0 328.5 -128t113.5 -343l-201 -37q0 332 -266 332q-188 0 -302.5 -158t-152.5 -367q-16 -76 -16 -180q0 -364 270 -364q271 0 398 335
zM340 -194l105 223h167l-64 -135q183 -20 183 -147q0 -43 -22 -91.5t-70.5 -89t-125.5 -67.5t-188 -27q-99 0 -178 15l40 146l152 -4q89 0 136.5 31t47.5 75q0 71 -183 71z" />
    <glyph glyph-name="egrave" unicode="&#xe8;" horiz-adv-x="1450" 
d="M1245 377q-92 -185 -270.5 -293.5t-376.5 -108.5q-253 0 -386.5 151.5t-133.5 393.5q0 54 16 160q34 192 137.5 356.5t264.5 262.5t356 98q247 0 369 -144t122 -376q0 -103 -24 -213h-987q-21 -94 -21 -172q0 -80 21 -136q32 -95 118 -152t193 -57q130 0 239 70.5
t175 196.5zM1114 823q12 55 12 107q0 140 -77.5 223.5t-225.5 83.5q-163 0 -291 -123t-167 -291h749zM492 1745l127 176l483 -319l-78 -107z" />
    <glyph glyph-name="eacute" unicode="&#xe9;" horiz-adv-x="1450" 
d="M1245 377q-92 -185 -270.5 -293.5t-376.5 -108.5q-253 0 -386.5 151.5t-133.5 393.5q0 54 16 160q34 192 137.5 356.5t264.5 262.5t356 98q247 0 369 -144t122 -376q0 -103 -24 -213h-987q-21 -94 -21 -172q0 -80 21 -136q32 -95 118 -152t193 -57q130 0 239 70.5
t175 196.5zM1114 823q12 55 12 107q0 140 -77.5 223.5t-225.5 83.5q-163 0 -291 -123t-167 -291h749zM722 1495l-78 107l483 319l127 -176z" />
    <glyph glyph-name="ecircumflex" unicode="&#xea;" horiz-adv-x="1450" 
d="M1245 377q-92 -185 -270.5 -293.5t-376.5 -108.5q-253 0 -386.5 151.5t-133.5 393.5q0 54 16 160q34 192 137.5 356.5t264.5 262.5t356 98q247 0 369 -144t122 -376q0 -103 -24 -213h-987q-21 -94 -21 -172q0 -80 21 -136q32 -95 118 -152t193 -57q130 0 239 70.5
t175 196.5zM1114 823q12 55 12 107q0 140 -77.5 223.5t-225.5 83.5q-163 0 -291 -123t-167 -291h749zM921 1759l-269 -263h-229l419 386h202l292 -386h-226z" />
    <glyph glyph-name="edieresis" unicode="&#xeb;" horiz-adv-x="1450" 
d="M1245 377q-92 -185 -270.5 -293.5t-376.5 -108.5q-253 0 -386.5 151.5t-133.5 393.5q0 54 16 160q34 192 137.5 356.5t264.5 262.5t356 98q247 0 369 -144t122 -376q0 -103 -24 -213h-987q-21 -94 -21 -172q0 -80 21 -136q32 -95 118 -152t193 -57q130 0 239 70.5
t175 196.5zM1114 823q12 55 12 107q0 140 -77.5 223.5t-225.5 83.5q-163 0 -291 -123t-167 -291h749zM979 1495l46 257h237l-46 -257h-237zM483 1495l46 257h236l-46 -257h-236z" />
    <glyph glyph-name="igrave" unicode="&#xec;" horiz-adv-x="643" 
d="M303 0h-209l242 1364h209zM18 1745l127 176l483 -319l-78 -107z" />
    <glyph glyph-name="iacute" unicode="&#xed;" horiz-adv-x="643" 
d="M303 0h-209l242 1364h209zM356 1495l-78 107l483 319l127 -176z" />
    <glyph glyph-name="icircumflex" unicode="&#xee;" horiz-adv-x="643" 
d="M303 0h-209l242 1364h209zM508 1759l-269 -263h-229l419 386h202l292 -386h-226z" />
    <glyph glyph-name="idieresis" unicode="&#xef;" horiz-adv-x="643" 
d="M303 0h-209l242 1364h209zM590 1495l46 257h237l-46 -257h-237zM94 1495l46 257h236l-46 -257h-236z" />
    <glyph glyph-name="eth" unicode="&#xf0;" horiz-adv-x="1427" 
d="M587 1837h273q42 -37 74.5 -69t57.5 -59l292 128l33 -128l-233 -104q251 -365 251 -743q0 -152 -31.5 -277.5t-86 -224.5t-128 -172.5t-157.5 -122t-175 -72.5t-180 -24q-129 0 -225 36t-159.5 103t-95 160.5t-31.5 209.5q0 131 27.5 245.5t76.5 209.5t115.5 169
t144.5 125t164.5 77.5t175.5 26.5q128 0 252 -73q-47 148 -132 266l-372 -159l-32 129l323 136q-101 112 -222 207zM1084 662q13 71 13 138q0 87 -24.5 153.5t-67.5 112t-101 69t-124 23.5q-80 0 -154.5 -31.5t-136.5 -96t-108 -161.5t-69 -228q-15 -86 -15 -155
q0 -89 27 -152t71 -103t99.5 -58.5t113.5 -18.5q69 0 143 27.5t139.5 88.5t117 157.5t76.5 234.5z" />
    <glyph glyph-name="ntilde" unicode="&#xf1;" horiz-adv-x="1450" 
d="M459 1110h4q81 131 207 209t268 78q251 0 348 -213q25 -60 25 -144q0 -87 -37 -286l-131 -754h-209l147 844q2 25 10 75.5t11 88.5q0 48 -12 86q-26 56 -86 89.5t-132 33.5q-169 0 -299 -136q-127 -123 -172 -364l-127 -717h-213l242 1364h201zM440 1495q51 284 309 284
q81 0 199 -67q64 -36 112 -36q82 0 115 107h163q-50 -284 -301 -284q-83 0 -195 69q-76 46 -115 46q-101 0 -122 -119h-165z" />
    <glyph glyph-name="ograve" unicode="&#xf2;" horiz-adv-x="1450" 
d="M106 696q52 296 253.5 498.5t496.5 202.5q243 0 365 -153.5t122 -391.5q0 -50 -16 -164q-56 -303 -258 -508t-496 -205q-242 0 -362.5 151.5t-120.5 389.5q0 99 16 180zM971 344q91 141 127 352q16 124 16 181q0 113 -33 188q-89 164 -270 164q-209 0 -340 -193
q-91 -125 -131 -340q-16 -122 -16 -196q0 -105 28 -181q28 -78 102 -125t164 -47q215 0 353 197zM420 1745l127 176l483 -319l-78 -107z" />
    <glyph glyph-name="oacute" unicode="&#xf3;" horiz-adv-x="1450" 
d="M106 696q52 296 253.5 498.5t496.5 202.5q243 0 365 -153.5t122 -391.5q0 -50 -16 -164q-56 -303 -258 -508t-496 -205q-242 0 -362.5 151.5t-120.5 389.5q0 99 16 180zM971 344q91 141 127 352q16 124 16 181q0 113 -33 188q-89 164 -270 164q-209 0 -340 -193
q-91 -125 -131 -340q-16 -122 -16 -196q0 -105 28 -181q28 -78 102 -125t164 -47q215 0 353 197zM777 1495l-78 107l483 319l127 -176z" />
    <glyph glyph-name="ocircumflex" unicode="&#xf4;" horiz-adv-x="1450" 
d="M106 696q52 296 253.5 498.5t496.5 202.5q243 0 365 -153.5t122 -391.5q0 -50 -16 -164q-56 -303 -258 -508t-496 -205q-242 0 -362.5 151.5t-120.5 389.5q0 99 16 180zM971 344q91 141 127 352q16 124 16 181q0 113 -33 188q-89 164 -270 164q-209 0 -340 -193
q-91 -125 -131 -340q-16 -122 -16 -196q0 -105 28 -181q28 -78 102 -125t164 -47q215 0 353 197zM921 1759l-269 -263h-229l419 386h202l292 -386h-226z" />
    <glyph glyph-name="otilde" unicode="&#xf5;" horiz-adv-x="1450" 
d="M106 696q52 296 253.5 498.5t496.5 202.5q243 0 365 -153.5t122 -391.5q0 -50 -16 -164q-56 -303 -258 -508t-496 -205q-242 0 -362.5 151.5t-120.5 389.5q0 99 16 180zM971 344q91 141 127 352q16 124 16 181q0 113 -33 188q-89 164 -270 164q-209 0 -340 -193
q-91 -125 -131 -340q-16 -122 -16 -196q0 -105 28 -181q28 -78 102 -125t164 -47q215 0 353 197zM463 1495q51 284 309 284q81 0 199 -67q64 -36 112 -36q82 0 115 107h163q-50 -284 -301 -284q-83 0 -195 69q-76 46 -115 46q-101 0 -122 -119h-165z" />
    <glyph glyph-name="odieresis" unicode="&#xf6;" horiz-adv-x="1450" 
d="M106 696q52 296 253.5 498.5t496.5 202.5q243 0 365 -153.5t122 -391.5q0 -50 -16 -164q-56 -303 -258 -508t-496 -205q-242 0 -362.5 151.5t-120.5 389.5q0 99 16 180zM971 344q91 141 127 352q16 124 16 181q0 113 -33 188q-89 164 -270 164q-209 0 -340 -193
q-91 -125 -131 -340q-16 -122 -16 -196q0 -105 28 -181q28 -78 102 -125t164 -47q215 0 353 197zM1010 1495l46 257h237l-46 -257h-237zM514 1495l46 257h236l-46 -257h-236z" />
    <glyph glyph-name="divide" unicode="&#xf7;" horiz-adv-x="1409" 
d="M1328 801h-1213l38 211h1213zM522 399l46 258h255l-46 -258h-255zM656 1156l46 257h255l-46 -257h-255z" />
    <glyph glyph-name="oslash" unicode="&#xf8;" horiz-adv-x="1450" 
d="M-15 0l180 190q-40 69 -58.5 152.5t-18.5 174.5q0 108 24 215.5t69.5 205t112 181.5t152 146t188.5 97t222 35q111 0 192.5 -31t144.5 -94l89 94h181l-191 -201q35 -66 51 -145t16 -164q0 -118 -26 -229t-74 -209t-117 -179.5t-154 -140t-185.5 -91t-211.5 -32.5
q-195 0 -311 101l-15 13l-84 -89h-176zM810 1229q-105 0 -195 -55t-155.5 -152.5t-102.5 -230.5t-37 -290q0 -38 3 -71t11 -62l712 749q-85 112 -236 112zM968 344q30 43 56.5 102.5t46 129t31 144.5t11.5 148q0 32 -2.5 62t-8.5 58l-709 -744q43 -48 101.5 -72.5
t124.5 -24.5q211 0 349 197z" />
    <glyph glyph-name="ugrave" unicode="&#xf9;" horiz-adv-x="1450" 
d="M942 0l49 274h-4q-80 -134 -206.5 -216.5t-264.5 -82.5q-225 0 -323 152q-58 86 -58 221q0 92 21 184l147 832h213l-147 -832q0 -31 -7.5 -81.5t-9.5 -77.5q0 -51 13 -86q24 -58 79.5 -94.5t120.5 -36.5q162 0 307 139q127 125 168 344l127 725h209l-241 -1364h-193z
M383 1745l127 176l483 -319l-78 -107z" />
    <glyph glyph-name="uacute" unicode="&#xfa;" horiz-adv-x="1450" 
d="M942 0l49 274h-4q-80 -134 -206.5 -216.5t-264.5 -82.5q-225 0 -323 152q-58 86 -58 221q0 92 21 184l147 832h213l-147 -832q0 -31 -7.5 -81.5t-9.5 -77.5q0 -51 13 -86q24 -58 79.5 -94.5t120.5 -36.5q162 0 307 139q127 125 168 344l127 725h209l-241 -1364h-193z
M798 1495l-78 107l483 319l127 -176z" />
    <glyph glyph-name="ucircumflex" unicode="&#xfb;" horiz-adv-x="1450" 
d="M942 0l49 274h-4q-80 -134 -206.5 -216.5t-264.5 -82.5q-225 0 -323 152q-58 86 -58 221q0 92 21 184l147 832h213l-147 -832q0 -31 -7.5 -81.5t-9.5 -77.5q0 -51 13 -86q24 -58 79.5 -94.5t120.5 -36.5q162 0 307 139q127 125 168 344l127 725h209l-241 -1364h-193z
M897 1759l-269 -263h-229l419 386h202l292 -386h-226z" />
    <glyph glyph-name="udieresis" unicode="&#xfc;" horiz-adv-x="1450" 
d="M942 0l49 274h-4q-80 -134 -206.5 -216.5t-264.5 -82.5q-225 0 -323 152q-58 86 -58 221q0 92 21 184l147 832h213l-147 -832q0 -31 -7.5 -81.5t-9.5 -77.5q0 -51 13 -86q24 -58 79.5 -94.5t120.5 -36.5q162 0 307 139q127 125 168 344l127 725h209l-241 -1364h-193z
M994 1495l46 257h237l-46 -257h-237zM498 1495l46 257h236l-46 -257h-236z" />
    <glyph glyph-name="yacute" unicode="&#xfd;" horiz-adv-x="1130" 
d="M463 -127q-99 -177 -184 -254q-69 -60 -135.5 -83t-159.5 -23q-63 0 -156 28l29 164q98 -16 143 -16q77 0 132 28t93 74t78.5 120t61.5 114l-238 1339h217l184 -1028l553 1028h181zM616 1495l-78 107l483 319l127 -176z" />
    <glyph glyph-name="thorn" unicode="&#xfe;" horiz-adv-x="1427" 
d="M-46 -511l416 2348h227l-115 -647q180 171 395 171q109 0 194.5 -35.5t144.5 -100.5t90 -158.5t31 -208.5q0 -126 -26.5 -241t-75 -214t-115 -179t-147 -136.5t-171.5 -87.5t-187 -31q-201 0 -319 169l-115 -649h-227zM366 659q-9 -49 -13 -92.5t-4 -82.5q0 -89 25 -151
t65.5 -101.5t91 -57.5t102.5 -18q64 0 133.5 26.5t132.5 87.5t113.5 160.5t76.5 245.5q8 45 12 86t4 78q0 85 -22.5 149.5t-60.5 108t-89 65.5t-109 22q-70 0 -141.5 -34t-134.5 -100.5t-111 -164.5t-71 -227z" />
    <glyph glyph-name="ydieresis" unicode="&#xff;" horiz-adv-x="1130" 
d="M463 -127q-99 -177 -184 -254q-69 -60 -135.5 -83t-159.5 -23q-63 0 -156 28l29 164q98 -16 143 -16q77 0 132 28t93 74t78.5 120t61.5 114l-238 1339h217l184 -1028l553 1028h181zM850 1495l46 257h237l-46 -257h-237zM354 1495l46 257h236l-46 -257h-236z" />
    <glyph glyph-name="OE" unicode="&#x152;" horiz-adv-x="2677" 
d="M2457 0h-1188l37 214q-121 -117 -258 -178t-300 -61q-158 0 -274 53.5t-191.5 147.5t-112 222.5t-36.5 278.5q0 135 29 275.5t84.5 273t137 249.5t186 204t232 138t275.5 51q329 0 481 -230l35 201h1164l-35 -197h-934l-103 -585h741l-33 -185h-741l-119 -671h958z
M1429 930q24 132 24 245q0 126 -29.5 220.5t-82.5 157.5t-126.5 94.5t-160.5 31.5q-112 0 -205.5 -43.5t-169 -117t-132.5 -170.5t-95.5 -205t-58 -220t-19.5 -215q0 -108 22 -206.5t70.5 -173.5t126 -119.5t189.5 -44.5q94 0 174.5 32t147 88t119.5 130.5t93.5 160
t68.5 176.5t44 179z" />
    <glyph glyph-name="oe" unicode="&#x153;" horiz-adv-x="2432" 
d="M2248 377q-46 -92 -116.5 -166.5t-156 -127t-182 -80.5t-194.5 -28q-178 0 -291.5 70t-176.5 211q-47 -71 -109.5 -123.5t-135.5 -87.5t-153 -52.5t-162 -17.5q-122 0 -213 41t-151 113.5t-89.5 171.5t-29.5 216q0 108 24 215.5t69.5 205t112 181.5t152 146t188.5 97
t222 35q82 0 153 -18.5t125.5 -56t91 -94.5t50.5 -133q53 69 116.5 124.5t137 95t155 61t170.5 21.5q126 0 217.5 -38.5t150.5 -108.5t87 -166.5t28 -213.5q0 -48 -4.5 -99.5t-14.5 -106.5h-987q-8 -46 -12 -87.5t-4 -79.5q0 -79 22.5 -143.5t65.5 -110.5t104 -71t138 -25
q66 0 126.5 18.5t113.5 53.5t96.5 84t75.5 111zM968 344q30 44 56.5 104t46.5 129.5t31.5 144.5t11.5 148q0 91 -23 158.5t-63.5 112t-96.5 66.5t-121 22q-105 0 -194.5 -54.5t-155 -151.5t-103 -229.5t-37.5 -288.5q0 -79 18 -145t54.5 -113t93 -73.5t133.5 -26.5
q211 0 349 197zM2118 823q9 54 9 102q0 69 -19 126.5t-57 99t-94 64t-130 22.5q-82 0 -157 -34t-136 -91t-104.5 -132t-61.5 -157h750z" />
    <glyph glyph-name="Scaron" unicode="&#x160;" horiz-adv-x="1667" 
d="M291 541q25 -184 152.5 -276.5t326.5 -92.5q214 0 344 86q131 87 160 242q0 234 -266 295l-291 77q-113 29 -181.5 58.5t-125.5 89.5q-95 100 -95 254q0 34 9 86q29 170 135.5 285t259 169t317.5 54q236 0 389 -116t185 -335l-217 -57q-3 149 -120.5 238.5t-273.5 89.5
q-148 0 -283.5 -77t-162.5 -218q0 -145 67 -198.5t211 -96.5l271 -62q231 -67 307 -147q119 -113 119 -283q0 -24 -8 -82q-51 -261 -283 -418q-200 -131 -504 -131q-572 0 -655 525zM1354 2357h226l-430 -386h-202l-281 386h229l175 -263z" />
    <glyph glyph-name="scaron" unicode="&#x161;" horiz-adv-x="1397" 
d="M258 401q0 -126 112 -190t253 -64q130 0 241.5 55.5t130.5 174.5q0 98 -63.5 139.5t-165.5 61.5l-217 45q-340 59 -340 303q0 21 8 69q35 199 203.5 300.5t374.5 101.5q202 0 333.5 -82.5t145.5 -257.5l-197 -41q-20 106 -104.5 161.5t-210.5 55.5q-107 0 -205.5 -50.5
t-118.5 -150.5q0 -102 53.5 -140.5t159.5 -60.5l189 -36q196 -34 266 -90q115 -91 115 -308q-37 -215 -225 -318.5t-414 -103.5q-218 0 -366.5 95t-166.5 290zM1141 1882h226l-430 -386h-202l-281 386h229l175 -263z" />
    <glyph glyph-name="Ydieresis" unicode="&#x178;" horiz-adv-x="1503" 
d="M885 774l-135 -774h-230l135 774l-426 1065h271l340 -848l643 848h209zM1116 1970l46 257h237l-46 -257h-237zM620 1970l46 257h236l-46 -257h-236z" />
    <glyph glyph-name="florin" unicode="&#x192;" horiz-adv-x="1427" 
d="M-155 -507l77 194q70 -14 116 -21.5t69 -7.5q127 0 195 192l452 1306h-252l62 175h252l58 167q41 119 87 192t98.5 112.5t111.5 53.5t127 14q101 0 259 -48l-78 -192q-112 31 -186 31q-31 0 -56.5 -4t-48.5 -23.5t-46.5 -60.5t-49.5 -114l-46 -128h255l-61 -175h-256
l-482 -1369q-116 -327 -384 -327q-129 0 -273 33z" />
    <glyph glyph-name="circumflex" unicode="&#x2c6;" horiz-adv-x="1020" 
d="M691 1759l-269 -263h-229l419 386h202l292 -386h-226z" />
    <glyph glyph-name="tilde" unicode="&#x2dc;" horiz-adv-x="1020" 
d="M226 1495q51 284 309 284q81 0 199 -67q64 -36 112 -36q82 0 115 107h163q-50 -284 -301 -284q-83 0 -195 69q-76 46 -115 46q-101 0 -122 -119h-165z" />
    <glyph glyph-name="quotesinglbase" unicode="&#x201a;" horiz-adv-x="774" 
d="M269 -93q-19 -4 -32.5 -6t-22.5 -2q-27 0 -55.5 9t-52 28t-38.5 47t-15 67q0 63 20 110t55 78t82 46.5t100 15.5q88 0 133.5 -46t45.5 -134q0 -102 -41 -198t-108.5 -173t-155 -130.5t-180.5 -71.5l20 110q29 6 68 28.5t75.5 56t65 76t36.5 89.5z" />
    <glyph glyph-name="uni201E" unicode="&#x201e;" horiz-adv-x="1438" 
d="M339 -92q-17 -4 -30.5 -6t-24.5 -2q-28 0 -56.5 9.5t-52 29t-38.5 48.5t-15 67q0 63 21 109.5t57 77t83 45.5t98 15q178 0 178 -183q0 -101 -40.5 -196t-108 -172t-154.5 -130.5t-181 -71.5l20 110q28 6 66.5 28t75.5 55.5t65.5 76.5t36.5 90zM975 -92q-17 -4 -30.5 -6
t-24.5 -2q-28 0 -56.5 9.5t-52 29t-38.5 48.5t-15 67q0 63 21 109.5t57 77t83 45.5t98 15q178 0 178 -183q0 -101 -40.5 -196t-108 -172t-154.5 -130.5t-181 -71.5l20 110q28 6 66.5 28t75.5 55.5t65.5 76.5t36.5 90z" />
    <glyph glyph-name="uni2020" unicode="&#x2020;" horiz-adv-x="1427" 
d="M390 -434l269 1519h-499l35 201h499l90 509h227l-90 -509h503l-35 -201h-503l-269 -1519h-227z" />
    <glyph glyph-name="uni2021" unicode="&#x2021;" horiz-adv-x="1427" 
d="M394 -434l82 465h-503l36 201h503l160 908h-503l36 202h503l83 470h227l-83 -470h505l-36 -202h-505l-160 -908h505l-36 -201h-505l-82 -465h-227z" />
    <glyph glyph-name="uni2030" unicode="&#x2030;" horiz-adv-x="2567" 
d="M165 1377q86 476 444 476q293 0 293 -310q0 -36 -4 -76t-12 -85q-87 -495 -446 -495q-291 0 -291 320q0 39 4 81.5t12 88.5zM906 420q84 477 441 477q295 0 295 -312q0 -72 -15 -159q-87 -493 -446 -493q-291 0 -291 318q0 38 4 80.5t12 88.5zM1751 420q84 477 443 477
q293 0 293 -311q0 -72 -15 -160q-87 -493 -446 -493q-291 0 -291 318q0 38 4 80.5t12 88.5zM265 -67l1095 1935h165l-1095 -1935h-165zM1935 411q-7 -39 -10.5 -73t-3.5 -63q0 -187 138 -187q167 0 225 325q15 82 15 144q0 184 -130 184q-176 0 -234 -330zM1090 411
q-7 -39 -10.5 -73t-3.5 -63q0 -187 138 -187q167 0 225 325q15 82 15 144q0 184 -130 184q-176 0 -234 -330zM350 1367q-8 -39 -11 -73.5t-3 -64.5q0 -185 137 -185q167 0 225 325q15 82 15 144q0 184 -130 184q-175 0 -233 -330z" />
    <glyph glyph-name="uni2039" unicode="&#x2039;" horiz-adv-x="854" 
d="M357 660l231 -570h-186l-295 570l498 573h186z" />
    <glyph glyph-name="uni203A" unicode="&#x203a;" horiz-adv-x="854" 
d="M485 664l-232 569h187l283 -561l-486 -582h-187z" />
    <glyph glyph-name="uni2122" unicode="&#x2122;" horiz-adv-x="2567" 
d="M1251 816l181 1021h249l115 -816l394 816h246l-181 -1021h-156l152 856l-415 -856h-155l-119 870l-154 -870h-157zM632 816l154 870h-330l27 151h835l-27 -151h-334l-154 -870h-171z" />
    <glyph glyph-name="ring" unicode="&#x2da;" horiz-adv-x="1020" 
d="M460 1696q8 48 34 89t62.5 71t80 47.5t87.5 17.5q34 0 68 -12.5t61.5 -35.5t44.5 -57t17 -76q0 -56 -23 -106t-61 -88.5t-86.5 -61t-100.5 -22.5q-35 0 -68.5 11.5t-60.5 34t-43.5 55.5t-16.5 77q0 13 1 27t4 29zM554 1696q-2 -11 -3 -21.5t-1 -19.5q0 -99 113 -99
q31 0 59.5 15t51 39.5t36 56t13.5 64.5q0 98 -112 98q-135 0 -157 -133z" />
    <glyph glyph-name="ring" unicode="&#x25e6;" horiz-adv-x="1020" 
d="M460 1696q8 48 34 89t62.5 71t80 47.5t87.5 17.5q34 0 68 -12.5t61.5 -35.5t44.5 -57t17 -76q0 -56 -23 -106t-61 -88.5t-86.5 -61t-100.5 -22.5q-35 0 -68.5 11.5t-60.5 34t-43.5 55.5t-16.5 77q0 13 1 27t4 29zM554 1696q-2 -11 -3 -21.5t-1 -19.5q0 -99 113 -99
q31 0 59.5 15t51 39.5t36 56t13.5 64.5q0 98 -112 98q-135 0 -157 -133z" />
    <glyph glyph-name="dotlessi" unicode="&#x131;" horiz-adv-x="643" 
d="M303 0h-209l242 1364h209z" />
    <glyph glyph-name="caron" unicode="&#x2c7;" horiz-adv-x="1020" 
d="M949 1882h226l-430 -386h-202l-281 386h229l175 -263z" />
    <glyph glyph-name="Euro" unicode="&#x20ac;" horiz-adv-x="1428" 
d="M1270 69q-52 -24 -92.5 -41t-75 -28.5t-67 -18.5t-68.5 -10.5t-79.5 -4.5t-100.5 -1q-154 0 -281.5 46.5t-220.5 136t-147 221t-61 301.5h-166l83 154h92q3 16 5.5 34t6 43.5t10.5 61.5t19 89h-148l83 154h117q35 102 91 194.5t128 171t158 142t181 108t196.5 68.5
t204.5 24q61 0 108 -2t85 -6.5t69 -12t59.5 -18.5t57 -26t62.5 -35l-39 -220h-21q-41 37 -82 66t-88 49t-102 31t-124 11q-107 0 -216.5 -33t-210 -100t-187 -170t-147.5 -242h603l-81 -154h-578q-21 -65 -27 -106.5t-6 -70.5v-51h485l-82 -154h-404q13 -142 65.5 -243.5
t129.5 -167t171.5 -98t192.5 -36.5q64 3 114 8t89.5 14t71.5 21.5t61 30t58 39.5t63 50h21z" />
    <glyph glyph-name="delete" horiz-adv-x="2048" 
 />
    <glyph glyph-name="Zcaron" unicode="&#x17d;" horiz-adv-x="1450" 
d="M1225 0h-1303l37 201l1258 1446h-959l33 192h1225l-25 -151l-1274 -1487h1045zM1187 2357h226l-430 -386h-202l-281 386h229l175 -263z" />
    <glyph glyph-name="zcaron" unicode="&#x17e;" horiz-adv-x="1130" 
d="M1176 1249l-943 -1085h750l-29 -164h-1003l29 164l901 1032h-668l33 168h950zM1014 1882h226l-430 -386h-202l-281 386h229l175 -263z" />
    <glyph glyph-name="uni200B" unicode="&#x200b;" 
 />
    <glyph glyph-name="uni25CC" unicode="&#x25cc;" horiz-adv-x="2040" 
d="M1841 652q-15 -86 -105 -86q-71 0 -71 62q0 57 28.5 84.5t73.5 27.5q77 0 77 -63q0 -12 -3 -25zM501 390q-17 -86 -102 -86q-73 0 -73 61q0 57 30 86t75 29q73 0 73 -64q0 -13 -3 -26zM990 1684q-15 -84 -103 -84q-73 0 -73 61q0 57 29.5 85t74.5 28q75 0 75 -64
q0 -13 -3 -26zM1948 1256q-16 -88 -106 -88q-71 0 -71 62q0 55 28.5 83.5t77.5 28.5q73 0 73 -63q0 -5 -0.5 -11t-1.5 -12zM1020 162q-17 -90 -102 -90q-73 0 -73 64q0 55 28 83.5t76 28.5q73 0 73 -63q0 -5 -0.5 -11t-1.5 -12zM1301 1750q-17 -92 -102 -92q-73 0 -73 65
q0 55 28 83t76 28q73 0 73 -61q0 -5 -0.5 -11t-1.5 -12zM370 954q-15 -86 -101 -86q-77 0 -77 63q0 54 30 81.5t78 27.5q73 0 73 -61q0 -12 -3 -25zM732 226q-16 -88 -104 -88q-74 0 -74 60q0 55 29.5 82.5t74.5 27.5q76 0 76 -61q0 -5 -0.5 -10.5t-1.5 -10.5zM482 1256
q-16 -88 -98 -88q-75 0 -75 62q0 55 28 83.5t76 28.5q71 0 71 -62v-11q0 -3 -0.5 -6t-1.5 -7zM1592 1684q-15 -84 -95 -84q-77 0 -77 62q0 57 30 84.5t78 27.5q67 0 67 -62q0 -13 -3 -28zM375 652q-15 -86 -99 -86q-73 0 -73 63q0 57 29.5 84t74.5 27q71 0 71 -62
q0 -11 -3 -26zM1621 390q-17 -86 -98 -86q-73 0 -73 61q0 57 30 86t75 29q69 0 69 -63q0 -12 -3 -27zM1956 954q-15 -86 -97 -86q-77 0 -77 63q0 54 30 81.5t78 27.5q69 0 69 -60q0 -13 -3 -26zM1819 1512q-14 -80 -96 -80q-78 0 -78 60q0 54 30 81t78 27q69 0 69 -61
q0 -12 -3 -27zM699 1512q-14 -80 -100 -80q-74 0 -74 58q0 55 29.5 82.5t74.5 27.5q73 0 73 -62q0 -13 -3 -26zM1332 218q-14 -80 -94 -80q-74 0 -74 60q0 55 29.5 82.5t74.5 27.5q67 0 67 -62q0 -13 -3 -28z" />
    <glyph glyph-name="zero.alt1" horiz-adv-x="1802" 
d="M1564 1090q0 -54 -6.5 -119.5t-19.5 -146.5q-20 -109 -51.5 -212.5t-77.5 -196t-107.5 -170t-141.5 -133.5t-180 -87.5t-222 -31.5q-521 0 -521 546q0 79 8 157.5t23 154.5t36 147.5t47 136.5q46 116 111.5 209.5t151.5 159t193.5 101t238.5 35.5q518 0 518 -550z
M1338 1083q0 394 -321 394q-94 0 -167.5 -30.5t-130 -85.5t-97.5 -131.5t-70 -168.5q-16 -51 -31.5 -119.5t-27.5 -139t-19 -136.5t-7 -112q0 -397 320 -397q120 0 208.5 53.5t151.5 144.5t102.5 212t62.5 257q14 78 20 141.5t6 117.5z" />
    <glyph glyph-name="one.alt1" horiz-adv-x="1802" 
d="M932 0h-193l252 1426l-409 -292l37 219l412 280h189z" />
    <glyph glyph-name="two.alt1" horiz-adv-x="1802" 
d="M1583 1301q0 -50 -2 -85t-10.5 -66.5t-25 -64t-46.5 -77.5q-22 -33 -49 -61t-63 -55.5t-84 -55t-112.5 -60t-147.5 -71t-190 -86.5q-98 -44 -166.5 -80.5t-114 -76t-72 -88t-40.5 -115.5l-18 -87h943l-28 -172h-1138l40 219q12 62 23 111t32 92t58 83.5t102 85.5
q55 39 93 64t68.5 43t59.5 32t65.5 29.5t85.5 35.5t121 51q99 43 176 83.5t130 87t81 102t28 128.5q0 51 -17 94t-55.5 73.5t-101.5 48t-154 17.5q-123 0 -209.5 -34.5t-141 -94t-79.5 -138t-25 -166.5h-194q0 1 4 31t14.5 77t29.5 103.5t49 109.5q30 54 80.5 103t122 86.5
t164 60t207.5 22.5q507 0 507 -339z" />
    <glyph glyph-name="three.alt1" horiz-adv-x="1802" 
d="M1552 1334l-8 -84q-53 -324 -397 -372q80 -5 200 -68t120 -245q-21 -162 -71.5 -272.5t-137 -178t-212 -96.5t-296.5 -29q-500 0 -500 372q0 57 22 149h190q-8 -38 -12.5 -66t-6.5 -47q0 -255 335 -255q115 0 202.5 21.5t149 66.5t97 115.5t47.5 168.5q0 78 -28 133
t-77.5 89.5t-116 50t-142.5 15.5h-193l29 160h186q86 0 158 16.5t125.5 50t86.5 83.5t42 116l10 73q0 193 -298 193q-272 0 -359 -114q-86 -113 -86 -228h-189q0 1 4 26.5t14.5 64t28.5 85t47 89.5q30 44 77 84.5t112.5 71t150.5 49t192 18.5q253 0 378.5 -72.5
t125.5 -233.5z" />
    <glyph glyph-name="four.alt1" horiz-adv-x="1802" 
d="M1608 616l-29 -167h-298l-81 -449h-193l80 449h-893l29 167l1021 1017h244l-179 -1017h299zM1116 616l154 828l-821 -828h667z" />
    <glyph glyph-name="five.alt1" horiz-adv-x="1802" 
d="M1461 744l-15 -146q-24 -139 -73.5 -251t-131 -190.5t-200 -121t-280.5 -42.5q-147 0 -243.5 33t-152.5 86t-78.5 119.5t-22.5 133.5q4 31 5.5 48t2.5 20h197l-7 -65q0 -112 80 -170.5t244 -58.5q391 0 466 459l12 110q0 298 -332 298q-188 0 -285 -81q-95 -80 -124 -134
h-189l222 842h981l-29 -164h-799l-116 -441q16 16 49 37.5t83 41.5t118.5 34t154.5 14q108 0 194 -24t146 -74.5t91.5 -128t31.5 -184.5z" />
    <glyph glyph-name="six.alt1" horiz-adv-x="1802" 
d="M1461 704l-18 -172q-28 -146 -93.5 -249.5t-156.5 -168.5t-201 -95t-227 -30q-508 0 -508 510q0 60 10.5 149.5t31.5 190.5t53 204t74 189t103 160.5t139.5 129.5t174.5 86.5t209 31.5q299 0 395 -116q97 -115 97 -292h-196q0 262 -317 262q-73 0 -134 -22t-110.5 -58
t-88.5 -84t-68.5 -99.5t-50.5 -103.5t-34 -98t-19 -81.5t-6 -53.5q16 27 53.5 60.5t97.5 75.5t150 61.5t210 20.5q212 -3 321 -107.5t109 -300.5zM1250 671q0 295 -299 295q-104 0 -180 -26.5t-131.5 -84.5t-93 -150.5t-63.5 -224.5q0 -102 20.5 -168.5t61 -104.5t100.5 -53
t140 -15q365 0 433 407z" />
    <glyph glyph-name="seven.alt1" horiz-adv-x="1802" 
d="M1458 1633l-29 -167q-20 -16 -70.5 -65t-121 -132.5t-157 -202.5t-179.5 -275q-68 -116 -116.5 -212t-85 -187.5t-64.5 -185.5t-55 -206h-237q2 20 19 84.5t54.5 163t97 225.5t147 271.5t205.5 301.5t271 315q97 102 105 108h-899l29 164h1086z" />
    <glyph glyph-name="eight.alt1" horiz-adv-x="1802" 
d="M1573 1307q0 -99 -27 -178.5t-74.5 -135t-113 -85.5t-142.5 -30q13 -2 38 -10.5t54 -24.5t59.5 -40.5t55 -59t40.5 -79.5t16 -102q0 -103 -28.5 -185.5t-78.5 -146t-118 -109.5t-147 -75t-165.5 -43t-173.5 -14q-113 0 -211.5 21.5t-171.5 67.5t-115 118.5t-42 175.5
q0 86 23.5 156t60 126t82 97t90 69t82.5 42q35 11 58 16q-50 3 -132 57q-92 59 -92 202q0 121 50 215.5t138.5 159t210 98.5t264.5 34q255 0 382.5 -85.5t127.5 -251.5zM1253 554q0 251 -340 251q-106 -1 -191 -27t-144.5 -77t-91.5 -127t-32 -177q0 -127 84 -192.5
t259 -65.5q108 0 192.5 30t143 85t89.5 131.5t31 168.5zM1351 1228q0 266 -317 266q-91 0 -168 -21.5t-133 -63t-87.5 -102t-31.5 -137.5q0 -208 329 -208q80 0 151 18t125.5 52t89.5 83.5t42 112.5z" />
    <glyph glyph-name="nine.alt1" horiz-adv-x="1802" 
d="M1546 1137q0 -116 -19.5 -241.5t-56 -246.5t-89.5 -230.5t-120 -192.5q-91 -112 -217.5 -172.5t-292.5 -60.5q-99 0 -174 14t-130.5 38.5t-92 57.5t-59 71.5t-31.5 80.5t-9 84q0 23 2.5 39.5t4.5 22.5h197q0 -54 12.5 -101.5t47 -83.5t95.5 -56.5t159 -20.5
q95 0 169.5 34.5t131.5 89.5t96.5 122.5t64.5 134.5t36.5 125.5t11.5 94.5q-14 -26 -50.5 -63.5t-98 -72t-151 -58.5t-210.5 -24q-106 0 -186.5 28t-135 81t-82 129.5t-27.5 173.5q0 74 15.5 151t43.5 148.5t67 133.5t86 106q97 90 222.5 130.5t262.5 40.5q507 0 507 -507z
M1319 1210q0 284 -316 284q-114 0 -198 -41t-140 -112.5t-83.5 -168t-27.5 -206.5q0 -299 303 -299q185 0 297.5 106t154.5 314q5 32 7.5 63t2.5 60z" />
    <glyph glyph-name="uni0E47.sm" 
d="M172 3299q-42 -32 -84.5 -52t-87 -31.5t-92 -15.5t-98.5 -4h-131q-92 0 -158 -6.5t-110 -38t-69 -96t-35 -181.5l210 162q18 -32 36.5 -58t40.5 -47t49.5 -37t62.5 -26q-5 11 -7 24.5t-2 27.5q0 53 20.5 96t53.5 73t75 46t86 16q36 0 66 -11t52.5 -31.5t35 -50
t12.5 -66.5q0 -60 -23.5 -108t-65 -82.5t-97.5 -53t-121 -18.5q-43 0 -88 7.5t-87 24t-78.5 43.5t-61.5 66l-163 -131h-184l36 198q16 91 45.5 155t69.5 105.5t90 65t106 35t117.5 14t125.5 2.5h46q66 0 117.5 7t91.5 18.5t68 25.5t47 28zM-11 2957q1 5 1.5 10.5t0.5 10.5
q0 31 -20 52t-58 21q-26 0 -46.5 -9t-35.5 -24.5t-23 -36.5t-8 -44q0 -32 20 -53t59 -21q20 0 38.5 7.5t33.5 20.5t25 30t13 36z" />
    <glyph glyph-name="uni0E48.small" 
d="M254 3315l-89 -491h-192l89 491h192z" />
    <glyph glyph-name="uni0E49.small" 
d="M529 3252q0 -15 -10 -52t-30 -83.5t-50 -97.5t-69 -94q-52 -57 -119.5 -93t-144 -56.5t-158 -28t-160.5 -7.5q-72 0 -124 3t-73 5l17 95q130 0 184 86q-109 0 -159 37t-50 122q0 50 19 96.5t53.5 82.5t82.5 57.5t107 21.5q94 0 143.5 -45.5t49.5 -126.5q0 -30 -9 -63.5
t-24 -66.5t-32.5 -64t-35.5 -55.5t-33 -41t-24 -20.5q119 0 209 26.5t153 76.5t100.5 122t51.5 164h135zM-175 3236q-27 0 -48.5 -10t-36 -26.5t-22.5 -38t-8 -44.5q0 -82 82 -82q25 0 46.5 10t36.5 26.5t23.5 38t8.5 44.5q0 82 -82 82z" />
    <glyph glyph-name="uni0E4A.small" 
d="M452 3432q-9 -5 -22 -18.5t-27.5 -43t-29 -77.5t-26.5 -123q-8 -48 -15.5 -84t-17.5 -66t-23.5 -57t-34.5 -55q-109 -151 -376 -151q34 52 54 89t31 66q26 58 40 109.5t13 99.5q0 34 -11 56t-34 22t-44.5 -8t-39 -19t-31 -23t-20.5 -20q-7 10 -19 23.5t-29 25.5t-39 20.5
t-48 8.5q-23 0 -43.5 -9.5t-37.5 -25.5t-30.5 -37.5t-21.5 -45.5q17 7 45 15.5t73 8.5q34 0 61 -13t46 -34.5t29 -49t10 -55.5q0 -41 -16.5 -80.5t-46.5 -70.5t-71.5 -50.5t-90.5 -19.5q-41 0 -74.5 10t-58.5 33t-38.5 60.5t-13.5 93.5q0 66 18.5 132.5t55 120t90 87
t123.5 33.5q30 0 54.5 -7t43.5 -17.5t31.5 -22t18.5 -19.5q6 7 17.5 18.5t29.5 22t43 18t57 7.5q69 0 102 -44t33 -120q0 -26 -4.5 -58t-13.5 -66t-22 -68.5t-29 -65.5q87 43 106 94q23 58 43.5 127t34.5 151q14 78 36.5 118.5t33.5 53.5h126zM-350 3019q-24 0 -43.5 -9.5
t-33.5 -24.5t-22 -34.5t-8 -38.5q0 -73 74 -73q23 0 42.5 9t33.5 23.5t22 33.5t8 40q0 74 -73 74z" />
    <glyph glyph-name="uni0E4B.small" 
d="M506 3131l-25 -147h-286l-37 -213h-193l37 213h-287l25 147h287l36 213h193l-37 -213h287z" />
    <glyph glyph-name="uni0E4C.small" 
d="M550 3198q-5 -10 -18 -26.5t-35 -34.5t-52.5 -34t-70.5 -24l-85 -17q-35 -7 -61.5 -11.5t-47.5 -6.5t-43 -2q7 -5 16 -14.5t17 -25t14 -37.5t6 -50q0 -71 -26 -128t-72.5 -97t-110.5 -61t-139 -21q-52 0 -91 16.5t-65.5 45.5t-39.5 67.5t-13 83.5q0 46 14 89.5t38 80.5
t55.5 65.5t66.5 43.5q26 11 66 21t86.5 19.5t95.5 18t93 16t80 14.5t56 13q44 12 75 32.5t51 42.5t29 40.5t9 27.5zM-64 2993q-33 0 -61 -13.5t-48 -35t-31.5 -49.5t-11.5 -57q0 -99 103 -99q33 0 60.5 13.5t47.5 35t31.5 49.5t11.5 58q0 98 -102 98z" />
    <glyph glyph-name="uni0E4D.small" 
d="M366 3057q0 -63 -25 -127t-70.5 -115.5t-110.5 -84.5t-145 -33q-67 0 -116.5 19t-82.5 52t-49 78t-16 97q0 69 26.5 133.5t74.5 115t114 81t146 30.5q62 0 109.5 -18.5t79.5 -51t48.5 -77.5t16.5 -99zM83 3139q-37 0 -68.5 -14.5t-54.5 -38.5t-36 -55t-13 -64
q0 -48 29.5 -79t89.5 -31q36 0 67.5 14.5t54.5 38.5t36.5 55t13.5 64q0 48 -29.5 79t-89.5 31z" />
    <glyph glyph-name="uni0E4E.small" 
d="M277 3366l-97 -87q-9 3 -20.5 5t-22.5 3.5t-20.5 2t-15.5 0.5q-23 0 -45.5 -7t-40 -20t-28.5 -32t-11 -43q0 -18 9 -31t24 -21.5t34 -12.5t39 -4l-55 -92q-45 0 -82.5 -7t-64.5 -22.5t-42 -40t-15 -58.5q0 -26 15.5 -39.5t50.5 -13.5q50 0 76 26l33 -86q-53 -46 -131 -46
q-77 0 -119.5 38.5t-42.5 102.5q0 55 22 95.5t56.5 67t78 39.5t87.5 13q-88 9 -88 86q0 41 22.5 79t60 67t85 46.5t98.5 17.5t88.5 -6t61.5 -20z" />
  </font>
</defs>
</svg>
